<?xml version="1.0" encoding="UTF-8" standalone="no"?>
<svg width="154px" height="104px" viewBox="0 0 154 104" version="1.1" xmlns="http://www.w3.org/2000/svg" xmlns:xlink="http://www.w3.org/1999/xlink">
  <!-- Generator: sketchtool 40 (33762) - http://www.bohemiancoding.com/sketch -->
  <title>C74E0145-B0C4-48D0-94B3-0D02C62F5B79</title>
  <desc>Created with sketchtool.</desc>
  <defs></defs>
  <g id="Desktop" stroke="none" stroke-width="1" fill="none" fill-rule="evenodd">
    <g id="HomePage-desktop-1600" transform="translate(-1211.000000, -1712.000000)">
      <g id="homepage" transform="translate(-3.000000, 68.000000)">
        <g id="Page-1" transform="translate(1214.000000, 1645.000000)">
          <polyline id="Stroke-1" stroke="#1976D2" stroke-width="1.6" points="106.866589 59.0354333 114.418811 38.2718778 121.974144 17.5052111 129.527922 38.2718778 137.084033 59.0354333"></polyline>
          <g id="Group-66" transform="translate(0.000000, 0.627667)">
            <path d="M142.251356,53.4661556 C142.251356,64.6957111 133.145133,73.8042667 121.912467,73.8042667 C110.6798,73.8042667 101.576689,64.6957111 101.576689,53.4661556 C101.576689,42.2412667 110.6798,33.1327111 121.912467,33.1327111 C133.145133,33.1327111 142.251356,42.2412667 142.251356,53.4661556" id="Fill-2" fill="#26C6DA"></path>
            <polyline id="Stroke-4" stroke="#1976D2" stroke-width="1.6" stroke-linejoin="bevel" points="121.877933 61.6434778 121.877933 42.8803667 115.430933 49.5739222"></polyline>
            <path d="M117.452456,61 L126.201678,61" id="Stroke-6" stroke="#1976D2" stroke-width="1.6" stroke-linejoin="bevel"></path>
            <polyline id="Stroke-8" stroke="#1976D2" stroke-width="1.6" points="16.0234667 58.4077667 23.5756889 37.6442111 31.1310222 16.8775444 38.6855778 37.6442111 46.2416889 58.4077667"></polyline>
            <path d="M31.1308667,74.6655778 C41.3812,74.6655778 49.9554222,67.5582444 52.2405333,58.0086889 L10.0235333,58.0086889 C10.8923111,61.6409111 12.6710889,64.9200222 15.1063111,67.5885778" id="Stroke-10" stroke="#1976D2" stroke-width="1.6"></path>
            <path d="M114.590856,58.0086889 L100.866189,58.0086889 C103.150522,67.5582444 111.723967,74.6655778 121.9743,74.6655778 C132.223856,74.6655778 140.7973,67.5582444 143.083189,58.0086889 L130.305856,58.0086889" id="Stroke-12" stroke="#1976D2" stroke-width="1.6"></path>
            <path d="M94.7894111,0.181922222 C94.4246333,0.181922222 94.0676333,0.111922222 93.7238556,0.181922222 L89.4600778,0.181922222 L89.4600778,5.51047778 L89.4600778,8.97236667 L89.4600778,19.3634778 C89.4600778,22.3065889 91.8470778,24.6920333 94.7894111,24.6920333 C97.7317444,24.6920333 100.117189,22.3065889 100.117189,19.3634778 L100.117189,5.51047778 C100.117189,2.56581111 97.7317444,0.181922222 94.7894111,0.181922222 L94.7894111,0.181922222 Z" id="Stroke-14" stroke="#1976D2" stroke-width="1.6"></path>
            <path d="M84.1321444,24.6918 C87.0752556,24.6918 89.4607,22.3063556 89.4607,19.3632444 L89.4607,7.87624444 L89.4607,5.51024444 L89.4607,0.1498 L78.8035889,0.1498 L78.8035889,9.57024444 L78.8035889,11.6788" id="Stroke-16" stroke="#1976D2" stroke-width="1.6"></path>
            <path d="M84.1321444,24.6933556 C81.1890333,24.6933556 78.8035889,22.3063556 78.8035889,19.3655778 L78.8035889,7.87624444 L78.8035889,5.51024444 L78.8035889,0.1498 L89.4607,0.1498 L89.4607,9.57024444 L89.4607,11.6788" id="Stroke-18" stroke="#1976D2" stroke-width="1.6"></path>
            <polyline id="Stroke-20" stroke="#1976D2" stroke-width="1.6" points="78.8039778 0.150033333 68.1468667 0.150033333 68.1468667 9.5697 68.1468667 11.6790333"></polyline>
            <polyline id="Stroke-22" stroke="#1976D2" stroke-width="1.6" points="68.1467111 13.5553444 68.1467111 10.5819 68.1467111 9.57001111 68.1467111 0.150344444 57.4903778 0.150344444 57.4903778 5.51078889 57.4903778 8.9719 57.4903778 13.5685667"></polyline>
            <path d="M57.5928111,13.3175778 L50.7211444,24.2469111 C48.5807,27.8760222 48.5807,30.8082444 50.7211444,33.8174667 L61.5081444,47.3088 L61.5081444,101.438244" id="Stroke-24" stroke="#1976D2" stroke-width="1.6"></path>
            <path d="M63.9183222,26.2394222 L72.3758778,26.2394222 C76.1123222,26.2394222 78.8042111,23.2099778 78.8042111,19.4727556 L78.8042111,13.7218667 L56.9404297,13.7218667" id="Stroke-26" stroke="#1976D2" stroke-width="1.6"></path>
            <path d="M100.116878,13.2142889 L100.116878,31.4842889 C100.116878,35.2215111 92.2247667,46.3709556 92.2247667,46.3709556 L92.2247667,101.888733" id="Stroke-28" stroke="#1976D2" stroke-width="1.6"></path>
            <path d="M57.4902222,7 L26.7042222,7" id="Stroke-30" stroke="#1976D2" stroke-width="1.6"></path>
            <path d="M130.903656,7 L100.116878,7" id="Stroke-32" stroke="#1976D2" stroke-width="1.6"></path>
            <path d="M63.9198,26.7479333 C72.7631333,26.7479333 79.9319111,33.9174889 79.9319111,42.7616" id="Stroke-34" stroke="#1976D2" stroke-width="1.6"></path>
            <polyline id="Stroke-36" stroke="#1976D2" stroke-width="1.6" points="121.974378 16.8779333 129.528156 37.6446 137.084267 58.4081556"></polyline>
            <path d="M20.7565556,68.964 L38.997,68.964 C39.1253333,67.2381111 39.5118889,64.9942222 40.5984444,63.5506667 C47.3293333,54.8823333 47.7594444,46.6262222 47.7594444,46.0428889 C47.7594444,36.1705556 39.7631111,28.1765556 29.8923333,28.1765556 C20.0207778,28.1765556 12.026,36.1705556 12.026,46.0428889 C12.026,46.6262222 12.4452222,54.8792222 19.1838889,63.5506667 C20.2665556,64.9942222 20.6414444,67.2381111 20.7565556,68.964" id="Fill-38" fill="#E8EBF7"></path>
            <path d="M25.1418222,68.915 L21.6037111,49.2784444" id="Stroke-40" stroke="#1976D2" stroke-width="1.6" stroke-linejoin="bevel"></path>
            <path d="M34.6453333,68.9157778 L38.1803333,49.2784444" id="Stroke-42" stroke="#1976D2" stroke-width="1.6" stroke-linejoin="bevel"></path>
            <polyline id="Stroke-44" stroke="#1976D2" stroke-width="1.6" stroke-linejoin="bevel" points="21.7147778 50.4302556 24.4362222 51.9858111 27.1607778 50.4302556 29.8853333 51.9858111 32.6106667 50.4302556 35.3398889 51.9858111 38.0698889 50.4302556"></polyline>
            <path d="M19.5758889,69 L40.2111111,69" id="Stroke-46" stroke="#1976D2" stroke-width="1.6" stroke-linejoin="bevel"></path>
            <path d="M19.5758889,72 L31.4681111,72" id="Stroke-48" stroke="#1976D2" stroke-width="1.6" stroke-linejoin="bevel"></path>
            <path d="M24,72.1540333 L24,69.4142556" id="Stroke-50" stroke="#1976D2" stroke-width="1.6" stroke-linejoin="bevel"></path>
            <polyline id="Stroke-52" stroke="#1976D2" stroke-width="1.6" points="31.1308667 16.8779333 38.6854222 37.6446 46.2415333 58.4081556"></polyline>
            <path d="M13.8006556,16.6550222 L16.7671,21.7953556" id="Stroke-54" stroke="#1976D2" stroke-width="1.6"></path>
            <path d="M3.62568889,27.0270778 L8.7668,29.9950778" id="Stroke-56" stroke="#1976D2" stroke-width="1.6"></path>
            <path d="M0,41 L5.93755556,41" id="Stroke-58" stroke="#1976D2" stroke-width="1.6"></path>
            <path d="M139.944544,25.4130333 L136.977322,30.5518111" id="Stroke-60" stroke="#1976D2" stroke-width="1.6"></path>
            <path d="M150.119511,35.7842333 L144.979178,38.7530111" id="Stroke-62" stroke="#1976D2" stroke-width="1.6"></path>
            <path d="M153.744811,49 L147.807256,49" id="Stroke-64" stroke="#1976D2" stroke-width="1.6"></path>
          </g>
        </g>
      </g>
    </g>
  </g>
</svg>