<svg id="software" xmlns="http://www.w3.org/2000/svg" width="306" height="180" viewBox="0 0 306 180" xmlns:xlink="http://www.w3.org/1999/xlink">
  <defs>
    <polygon id="a" points="68.405 .067 .386 .067 .386 48.697 68.405 48.697 68.405 .067"/>
    <polygon id="c" points="0 104.602 84.791 104.602 84.791 .501 0 .501"/>
  </defs>
  <g fill="none" fill-rule="evenodd">
    <rect width="306" height="180" fill="#FFFFFF"/>
    <g transform="translate(111 38)">
      <path fill="#1976D2" d="M73.0686 40.6749879C73.2686 41.0065246 73.7286 41.1227126 74.0626 40.9193835L81.3861 36.4791965C81.5516 36.3790343 81.6681 36.2197766 81.7141 36.0319726 81.7601 35.8441686 81.7306 35.6493533 81.6306 35.4835849 81.5301 35.3178166 81.3716 35.2006269 81.1836 35.1550532 81.1261 35.1405297 81.0676 35.1335183 81.0096 35.1335183 80.8791 35.1335183 80.7506 35.1690759 80.6361 35.2386885L73.3131 39.6793764C72.9716 39.886712 72.8621 40.3329343 73.0686 40.6749879L73.0686 40.6749879zM3.40525 36.4792465L10.72825 40.9194336C11.06175 41.1227627 11.52175 41.0065746 11.72225 40.675038 11.82275 40.5092697 11.85225 40.3144543 11.80625 40.1266504 11.75975 39.9383456 11.64375 39.7795886 11.47825 39.6794265L4.15475 35.2382378C4.04075 35.1691259 3.91225 35.1330676 3.78175 35.1330676 3.72375 35.1330676 3.66525 35.1405797 3.60725 35.1546024 3.41925 35.200677 3.26075 35.3178667 3.16075 35.483635 2.95425 35.8251879 3.06375 36.2719109 3.40525 36.4792465"/>
      <g transform="translate(8 .434)">
        <mask id="b" fill="white">
          <use xlink:href="#software#a"/>
        </mask>
        <path fill="#1976D2" d="M12.20435,2.17932753 L22.00735,18.201762 L2.40085,18.201762 L12.20435,2.17932753 Z M33.10335,1.51725588 L23.29985,17.5396903 L13.49635,1.51725588 L33.10335,1.51725588 Z M44.19935,18.201762 L24.59235,18.201762 L34.39585,2.17932753 L44.19935,18.201762 Z M55.29535,1.51725588 L45.49185,17.5396903 L35.68835,1.51725588 L55.29535,1.51725588 Z M66.39085,18.201762 L46.78385,18.201762 L56.58785,2.17932753 L66.39085,18.201762 Z M22.14285,48.4462167 L21.97185,48.1958114 L2.48035,19.6521096 L22.72285,19.6521096 L22.76685,19.8464241 L29.21985,48.1958114 L30.70435,48.1958114 L24.20735,19.6521096 L44.58435,19.6521096 L38.08735,48.1958114 L38.08685,48.1958114 L38.02985,48.4462167 L37.97285,48.696622 L39.45785,48.696622 L39.51485,48.4462167 L39.57185,48.1958114 L39.57185,48.1958114 L46.06885,19.6521096 L66.31135,19.6521096 L46.81985,48.1958114 L48.57435,48.1958114 L68.14085,19.5379247 L68.21035,19.418231 C68.43135,19.180346 68.46885,18.8222664 68.30035,18.5488238 L68.30035,18.5483229 L57.20485,0.413970066 C57.07435,0.199623117 56.83785,0.0669083001 56.58785,0.0669083001 L12.20435,0.0669083001 C11.95435,0.0669083001 11.71785,0.199623117 11.58735,0.413469255 L0.49085,18.5488238 C0.31535,18.8357882 0.36385,19.2144011 0.60685,19.4477788 L0.68385,19.5744839 C0.69185,19.5925131 0.69835,19.6105423 0.70935,19.627069 L20.21785,48.1958114 L20.38885,48.4462167 L20.55985,48.696622 L22.31385,48.696622 L22.14285,48.4462167 Z" mask="url(#software#b)"/>
      </g>
      <polygon fill="#3949AB" points="38.757 48.889 38.705 48.65 37.22 48.65 37.277 48.911 37.281 48.911 37.334 49.15 38.819 49.15 38.762 48.889"/>
      <polygon fill="#1976D2" points="56.403 48.911 56.574 48.65 54.82 48.65 54.649 48.911 54.492 49.15 56.247 49.15"/>
      <polygon fill="#26C6DA" points="56.534 49.16 56.823 49.16 56.837 49.13 56.246 49.13 56.232 49.16"/>
      <mask id="d" fill="white">
        <use xlink:href="#software#c"/>
      </mask>
      <polygon fill="#26C6DA" points="6.205 82.367 78.586 82.367 78.586 45.474 6.205 45.474" mask="url(#software#d)"/>
      <path fill="#1976D2" d="M26.72245 74.8513069C26.55995 74.8513069 26.39595 74.8052323 26.25095 74.7085758L17.83595 69.1165244C17.59695 68.9577674 17.45345 68.6898337 17.45345 68.4028692 17.45345 68.1159047 17.59695 67.847971 17.83595 67.6892141L26.25095 62.0976634C26.64445 61.8367411 27.17445 61.9434137 27.43545 62.3375517 27.69695 62.7316896 27.58945 63.2630497 27.19595 63.5244729L19.85495 68.4028692 27.19595 73.2812656C27.58945 73.5426887 27.69695 74.0745496 27.43545 74.4681867 27.27095 74.7170896 26.99945 74.8513069 26.72245 74.8513069M58.06875 74.8513069C57.79175 74.8513069 57.52025 74.7170896 57.35575 74.4681867 57.09425 74.0745496 57.20175 73.5426887 57.59525 73.2812656L64.93625 68.4028692 57.59525 63.5244729C57.20175 63.2630497 57.09425 62.7316896 57.35575 62.3375517 57.61575 61.9434137 58.14675 61.8357394 58.54025 62.0976634L66.95525 67.6892141C67.19425 67.847971 67.33775 68.1159047 67.33775 68.4028692 67.33775 68.6898337 67.19425 68.9577674 66.95525 69.1165244L58.54025 74.7085758C58.39525 74.8052323 58.23075 74.8513069 58.06875 74.8513069M38.47545 79.027116C38.36945 79.027116 38.26145 79.0070836 38.15695 78.9650155 37.71895 78.7887301 37.50645 78.2899227 37.68245 77.8512126L45.52245 58.3155916C45.69795 57.8768815 46.19445 57.664037 46.63445 57.8408231 47.07245 58.0171085 47.28495 58.5159159 47.10845 58.954626L39.26895 78.4897462C39.13495 78.8237869 38.81395 79.027116 38.47545 79.027116" mask="url(#software#d)"/>
      <path fill="#1976D2" d="M83.344,51.817173 L83.344,86.1843008 L1.448,86.1843008 L1.448,51.817173 L1.448,50.5801708 L83.344,50.5801708 L83.344,51.817173 Z M84.0675,49.130324 L56.2465,49.130324 L55.1635,49.130324 L54.492,49.130324 L54.478,49.130324 L54.175,49.130324 L53.872,49.130324 L47.9705,49.130324 L47.714,49.130324 L47.458,49.130324 L45.973,49.130324 L45.7165,49.130324 L45.46,49.130324 L45.46,49.130324 L39.3315,49.130324 L39.075,49.130324 L38.8185,49.130324 L38.8185,49.130324 L37.3335,49.130324 L37.0775,49.130324 L36.821,49.130324 L30.9195,49.130324 L30.6165,49.130324 L30.314,49.130324 L28.56,49.130324 L28.257,49.130324 L27.957,49.130324 L0.724,49.130324 C0.3245,49.130324 0,49.4553501 0,49.854997 L0,51.817173 L0,86.9089738 C0,87.3091215 0.3245,87.6346484 0.724,87.6346484 L41.649,87.6346484 L41.649,98.772176 L41.477,98.8282668 C40.2585,99.2294161 39.4395,100.359746 39.4395,101.64132 C39.4395,103.273963 40.766,104.602113 42.396,104.602113 C44.026,104.602113 45.352,103.273963 45.352,101.64132 C45.352,100.337209 44.5165,99.2003691 43.2725,98.8132425 L43.0965,98.7581533 L43.0965,87.6346484 L84.0675,87.6346484 C84.467,87.6346484 84.7915,87.3091215 84.7915,86.9089738 L84.7915,51.817173 L84.7915,49.854997 C84.7915,49.4553501 84.467,49.130324 84.0675,49.130324 L84.0675,49.130324 Z" mask="url(#software#d)"/>
    </g>
  </g>
</svg>
