<svg id="agile-meth" xmlns="http://www.w3.org/2000/svg" width="306" height="180" viewBox="0 0 306 180" xmlns:xlink="http://www.w3.org/1999/xlink">
  <defs>
    <polygon id="a" points="109.477 .525 109.477 110.362 0 110.362 0 .525 109.477 .525"/>
  </defs>
  <g fill="none" fill-rule="evenodd">
    <rect width="306" height="180" fill="#FFFFFF"/>
    <g transform="translate(98 34)">
      <polygon fill="#26C6DA" points="31.066 79.449 73.823 79.449 73.823 36.551 31.066 36.551"/>
      <g transform="translate(0 .001)">
        <path fill="#26C6DA" d="M105.02889 51.9303193C106.962271 51.9303193 108.530033 53.5027089 108.530033 55.4429703 108.530033 57.3827062 106.962271 58.9550957 105.02889 58.9550957 103.09551 58.9550957 101.527748 57.3827062 101.527748 55.4429703 101.527748 53.5027089 103.09551 51.9303193 105.02889 51.9303193M4.08120952 51.9303193C6.01459048 51.9303193 7.58235238 53.5027089 7.58235238 55.4429703 7.58235238 57.3827062 6.01459048 58.9550957 4.08120952 58.9550957 2.14782857 58.9550957.580066667 57.3827062.580066667 55.4429703.580066667 53.5027089 2.14782857 51.9303193 4.08120952 51.9303193M51.7998381 105.849827C51.7998381 103.9926 53.3005524 102.486427 55.152219 102.486427 57.0033619 102.486427 58.5040762 103.9926 58.5040762 105.849827 58.5040762 107.707055 57.0033619 109.213227 55.152219 109.213227 53.3005524 109.213227 51.7998381 107.707055 51.7998381 105.849827M51.7998381 4.99433382C51.7998381 3.13710633 53.3005524 1.63093373 55.152219 1.63093373 57.0033619 1.63093373 58.5040762 3.13710633 58.5040762 4.99433382 58.5040762 6.85156131 57.0033619 8.35773391 55.152219 8.35773391 53.3005524 8.35773391 51.7998381 6.85156131 51.7998381 4.99433382"/>
        <path fill="#1976D2" d="M22.2025571 34.6891626C22.6205571 34.6891626 22.9610333 34.3480928 22.9610333 33.9281933L22.9610333 23.5605125 33.2947476 23.5605125C33.7127476 23.5605125 34.0532238 23.2194427 34.0532238 22.7995433 34.0532238 22.3801693 33.7127476 22.0390995 33.2947476 22.0390995L22.2025571 22.0390995C21.7845571 22.0390995 21.444081 22.3801693 21.444081 22.7995433L21.444081 33.9281933C21.444081 34.3480928 21.7845571 34.6891626 22.2025571 34.6891626M76.1830667 23.5606176L86.516781 23.5606176 86.516781 33.9282984C86.516781 34.3476724 86.8567333 34.6892677 87.2752571 34.6892677 87.6932571 34.6892677 88.0332095 34.3476724 88.0332095 33.9282984L88.0332095 22.7996484C88.0332095 22.3802744 87.6932571 22.0386791 87.2752571 22.0386791L76.1830667 22.0386791C75.7650667 22.0386791 75.4245905 22.3802744 75.4245905 22.7996484 75.4245905 23.2195479 75.7650667 23.5606176 76.1830667 23.5606176M33.2946429 87.3249025L22.9609286 87.3249025 22.9609286 76.9572218C22.9609286 76.5383733 22.6209762 76.196778 22.2024524 76.196778 21.7844524 76.196778 21.4439762 76.5383733 21.4439762 76.9572218L21.4439762 88.0858718C21.4439762 88.5052458 21.7844524 88.8468411 22.2024524 88.8468411L33.2946429 88.8468411C33.7126429 88.8468411 34.053119 88.5052458 34.053119 88.0858718 34.053119 87.6659723 33.7126429 87.3249025 33.2946429 87.3249025M87.2751524 76.1968831C86.8571524 76.1968831 86.5166762 76.5379529 86.5166762 76.9573269L86.5166762 87.3250076 76.1829619 87.3250076C75.7649619 87.3250076 75.4244857 87.6660774 75.4244857 88.0859769 75.4244857 88.5053509 75.7649619 88.8464207 76.1829619 88.8464207L87.2751524 88.8464207C87.6931524 88.8464207 88.0331048 88.5053509 88.0331048 88.0859769L88.0331048 76.9573269C88.0331048 76.5379529 87.6931524 76.1968831 87.2751524 76.1968831"/>
        <mask id="b" fill="white">
          <use xlink:href="#agile-meth#a"/>
        </mask>
        <path fill="#1976D2" d="M105.022029,58.3914635 C103.472076,58.3914635 102.187695,57.1701288 102.098648,55.610352 L102.0976,55.5830244 L102.101267,55.5556968 C102.107029,55.518384 102.113838,55.4815969 102.113838,55.4432331 C102.113838,55.4043438 102.107029,55.3675566 102.101267,55.3307694 L102.097076,55.3034418 L102.098648,55.2755886 C102.187695,53.7163373 103.472076,52.4939516 105.022029,52.4939516 C106.642695,52.4939516 107.9606,53.8172393 107.9606,55.4432331 C107.9606,57.0687013 106.642695,58.3914635 105.022029,58.3914635 L105.022029,58.3914635 Z M34.0531714,76.1969882 L75.4246952,76.1969882 L75.4246952,34.6894779 L34.0531714,34.6894779 L34.0531714,76.1969882 Z M57.6780286,105.891607 C57.6780286,107.517601 56.3596,108.839837 54.7389333,108.839837 C53.1182667,108.839837 51.7998381,107.517601 51.7998381,105.891607 C51.7998381,104.265613 53.1182667,102.942325 54.7389333,102.942325 C56.3596,102.942325 57.6780286,104.265613 57.6780286,105.891607 L57.6780286,105.891607 Z M51.7998381,4.99380829 C51.7998381,3.36834009 53.1182667,2.04557789 54.7389333,2.04557789 C56.3596,2.04557789 57.6780286,3.36834009 57.6780286,4.99380829 C57.6780286,6.61980202 56.3596,7.94308974 54.7389333,7.94308974 C53.1182667,7.94308974 51.7998381,6.61980202 51.7998381,4.99380829 L51.7998381,4.99380829 Z M4.45531429,58.3914635 C2.83517143,58.3914635 1.51674286,57.0687013 1.51674286,55.4432331 C1.51674286,53.8172393 2.83517143,52.4939516 4.45531429,52.4939516 C6.07598095,52.4939516 7.39440952,53.8172393 7.39440952,55.4432331 C7.39440952,57.0687013 6.07598095,58.3914635 4.45531429,58.3914635 L4.45531429,58.3914635 Z M105.022029,50.9725386 C102.950886,50.9725386 101.12279,52.4461283 100.67441,54.4762555 L100.628838,54.6817383 L76.9411238,54.6817383 L76.9411238,33.9279831 C76.9411238,33.5086092 76.6011714,33.1675394 76.1831714,33.1675394 L55.4974095,33.1675394 L55.4974095,9.401439 L55.7027429,9.35571778 C57.726219,8.90638855 59.1944571,7.07228444 59.1944571,4.99380829 C59.1944571,2.52959219 57.1956,0.524690414 54.7389333,0.524690414 C52.2817429,0.524690414 50.2834095,2.52959219 50.2834095,4.99380829 C50.2834095,7.07228444 51.7516476,8.90691408 53.7756476,9.35624331 L53.9804571,9.40196453 L53.9804571,33.1675394 L33.2946952,33.1675394 C32.8766952,33.1675394 32.536219,33.5086092 32.536219,33.9279831 L32.536219,54.6817383 L8.84850476,54.6817383 L8.80293333,54.4762555 C8.35507619,52.4461283 6.52645714,50.9725386 4.45531429,50.9725386 C1.99864762,50.9725386 -0.00020952381,52.9779659 -0.00020952381,55.4432331 C-0.00020952381,57.9079747 1.99864762,59.913402 4.45531429,59.913402 C6.52645714,59.913402 8.35507619,58.4398123 8.80293333,56.4096851 L8.84850476,56.2036768 L32.536219,56.2036768 L32.536219,76.957432 C32.536219,77.3768059 32.8766952,77.7178757 33.2946952,77.7178757 L53.9804571,77.7178757 L53.9804571,101.483976 L53.7751238,101.529697 C51.7516476,101.979027 50.2834095,103.813656 50.2834095,105.891607 C50.2834095,108.356348 52.2817429,110.361776 54.7389333,110.361776 C57.1956,110.361776 59.1944571,108.356348 59.1944571,105.891607 C59.1944571,103.814182 57.726219,101.979552 55.702219,101.529697 L55.4974095,101.483976 L55.4974095,77.7178757 L76.1831714,77.7178757 C76.6011714,77.7178757 76.9411238,77.3768059 76.9411238,76.957432 L76.9411238,56.2036768 L100.628838,56.2036768 L100.67441,56.4096851 C101.12279,58.4398123 102.950886,59.913402 105.022029,59.913402 C107.478695,59.913402 109.477552,57.9079747 109.477552,55.4432331 C109.477552,52.9779659 107.478695,50.9725386 105.022029,50.9725386 L105.022029,50.9725386 Z" mask="url(#agile-meth#b)"/>
        <path fill="#1976D2" d="M44.9025238,66.8532 C44.7542857,66.8532 44.6044762,66.8206171 44.462,66.752298 C43.9539048,66.507926 43.7396667,65.895682 43.9832381,65.3864422 L53.919381,44.613768 C54.089619,44.2585088 54.4468571,44.0325304 54.8397143,44.0325304 C55.2320476,44.0325304 55.5892857,44.2585088 55.7595238,44.613768 L65.6961905,65.3864422 C65.9397619,65.895682 65.7255238,66.5074004 65.2174286,66.752298 C64.7098571,66.995619 64.1001429,66.7817278 63.8560476,66.2719624 L54.8397143,47.422207 L45.8228571,66.2719624 C45.647381,66.6387833 45.2822857,66.8532 44.9025238,66.8532"/>
        <path fill="#1976D2" d="M61.4119,60.8712878 L48.3805667,60.8712878 C47.8169476,60.8712878 47.3601857,60.4130246 47.3601857,59.8475529 C47.3601857,59.2820813 47.8169476,58.8243436 48.3805667,58.8243436 L61.4119,58.8243436 C61.975519,58.8243436 62.432281,59.2820813 62.432281,59.8475529 C62.432281,60.4130246 61.975519,60.8712878 61.4119,60.8712878"/>
      </g>
    </g>
  </g>
</svg>
