<svg id="ux-ui" xmlns="http://www.w3.org/2000/svg" width="306" height="180" viewBox="0 0 306 180" xmlns:xlink="http://www.w3.org/1999/xlink">
  <defs>
    <polygon id="a" points="0 .411 0 105.175 104.768 105.175 104.768 .411 0 .411"/>
  </defs>
  <g fill="none" fill-rule="evenodd">
    <rect width="306" height="180" fill="#FFFFFF"/>
    <g transform="translate(101 36)">
      <polygon fill="#26C6DA" points="44.295 13.001 65.636 13.001 65.636 0 44.295 0"/>
      <g transform="translate(0 2.024)">
        <mask id="b" fill="white">
          <use xlink:href="#ux-ui#a"/>
        </mask>
        <path fill="#1976D2" d="M42.6658663,70.4201261 L48.1414604,70.4201261 L48.1414604,21.470357 L42.6658663,21.470357 L42.6658663,70.4201261 Z M42.6658663,19.9630168 L62.102302,19.9630168 L62.102302,14.2637606 L42.6658663,14.2637606 L42.6658663,19.9630168 Z M42.6658663,12.7558996 L62.102302,12.7558996 L62.102302,1.91814908 L42.6658663,1.91814908 L42.6658663,12.7558996 Z M56.6267079,70.4201261 L62.102302,70.4201261 L62.102302,21.470357 L56.6267079,21.470357 L56.6267079,70.4201261 Z M49.6462871,70.4201261 L55.1218812,70.4201261 L55.1218812,21.470357 L49.6462871,21.470357 L49.6462871,70.4201261 Z M55.135396,84.1095874 L49.6322525,84.1095874 L43.165396,71.927987 L61.6022525,71.927987 L55.135396,84.1095874 Z M41.2416089,71.5057235 L41.2618812,71.5583111 L48.5110396,85.2082015 L51.7166584,91.3880363 C51.8466089,91.6384787 52.1023515,91.7941591 52.3840842,91.7941591 C52.6663366,91.7941591 52.9220792,91.6384787 53.0520297,91.3880363 L56.2555693,85.2108049 L63.5192822,71.5281123 C63.5478713,71.4614665 63.5650248,71.4161682 63.5775,71.3693079 C63.6008911,71.2787112 63.6071287,71.2256029 63.6071287,71.1735359 L63.6071287,1.1642186 C63.6071287,0.748723771 63.2697772,0.410808801 62.8544554,0.410808801 L41.9131931,0.410808801 C41.4978713,0.410808801 41.1605198,0.748723771 41.1605198,1.1642186 L41.1605198,71.1735359 C41.1605198,71.2256029 41.1667574,71.2787112 41.1797525,71.337547 L40.939604,71.436995 L41.1906683,71.3693079 C41.2031436,71.4166889 41.220297,71.4625078 41.2416089,71.5057235 L41.2416089,71.5057235 Z" mask="url(#ux-ui#b)"/>
        <path fill="#1976D2" d="M101.532193,55.6567824 C99.7477129,55.6567824 98.2959059,57.1110143 98.2959059,58.8984752 C98.2959059,59.1551656 98.3302129,59.4207074 98.3983069,59.6898939 L98.4456089,59.8768145 L87.6914257,66.3518693 L87.6914257,46.3097107 L87.8759554,46.2534783 C89.2295198,45.8426695 90.1750396,44.5670275 90.1750396,43.1518458 C90.1750396,41.3649057 88.7232327,39.9106737 86.9387525,39.9106737 C85.1547921,39.9106737 83.7029851,41.3649057 83.7029851,43.1518458 C83.7029851,44.5670275 84.648505,45.8426695 86.0020693,46.2534783 L86.186599,46.3097107 L86.186599,70.9769829 C86.186599,76.6705117 84.5481832,82.2062774 81.4491238,86.9865507 L81.2271683,87.3291517 L75.5722426,78.2523078 L75.6995941,78.1070408 C76.2178366,77.5139974 76.5032079,76.7569429 76.5032079,75.9759376 C76.5032079,74.1889974 75.0519208,72.7352862 73.2674406,72.7352862 C71.4829604,72.7352862 70.0311535,74.1889974 70.0311535,75.9759376 C70.0311535,78.0393537 71.9819703,79.6779028 74.1105594,79.1020416 L74.2966485,79.0520572 L80.2832079,88.6625881 L80.1745693,88.8052517 C74.5425149,96.2112649 66.0058069,100.458892 56.7538515,100.458892 L56.3406089,100.458892 L56.3406089,98.0034118 C56.3406089,97.5879169 56.0027376,97.250002 55.5879356,97.250002 L49.1803366,97.250002 C48.7655347,97.250002 48.4276634,97.5879169 48.4276634,98.0034118 L48.4276634,100.458892 L48.0144208,100.458892 C38.7624653,100.458892 30.2257574,96.2112649 24.5931832,88.8052517 L24.4845446,88.6625881 L30.4716238,79.0520572 L30.6577129,79.1020416 C32.7847426,79.6773822 34.736599,78.0393537 34.736599,75.9759376 C34.736599,74.1889974 33.2853119,72.7352862 31.5008317,72.7352862 C29.7163515,72.7352862 28.2650644,74.1889974 28.2650644,75.9759376 C28.2650644,76.7569429 28.5504356,77.5139974 29.0686782,78.1070408 L29.1960297,78.2523078 L23.5405842,87.3291517 L23.3186287,86.9865507 C20.2195693,82.2062774 18.5816733,76.669991 18.5816733,70.9769829 L18.5816733,46.3097107 L18.766203,46.2534783 C20.1197673,45.8426695 21.0652871,44.5670275 21.0652871,43.1518458 C21.0652871,41.3649057 19.6134802,39.9106737 17.829,39.9106737 C16.0450396,39.9106737 14.5932327,41.3649057 14.5932327,43.1518458 C14.5932327,44.5670275 15.5382327,45.8426695 16.891797,46.2534783 L17.0763267,46.3097107 L17.0763267,66.3518693 L6.32266337,59.8768145 L6.36996535,59.6898939 C6.4375396,59.4212281 6.47184653,59.1551656 6.47184653,58.8984752 C6.47184653,57.1110143 5.0200396,55.6567824 3.23555941,55.6567824 C1.45159901,55.6567824 -0.000207920792,57.1110143 -0.000207920792,58.8984752 C-0.000207920792,60.6854154 1.45159901,62.1396473 3.23555941,62.1396473 C4.03501485,62.1396473 4.80432178,61.8407826 5.40261386,61.2977235 L5.54555941,61.1680767 L17.0763267,68.1106933 L17.0763267,70.9769829 C17.0763267,77.4780712 19.081203,83.7120557 22.874198,89.0041477 C22.9329356,89.1160918 22.9802376,89.1827376 23.036896,89.2394907 C24.0234802,90.5807372 25.0849158,91.8178496 26.2180842,92.9456213 L26.5855842,93.3116524 L10.5413762,95.6952807 L10.4587277,95.5213768 C9.92385149,94.3925638 8.77716832,93.6625842 7.53692079,93.6625842 C5.7529604,93.6625842 4.30115347,95.1168161 4.30115347,96.9042769 C4.30115347,98.6912171 5.7529604,100.144928 7.53692079,100.144928 C9.12699505,100.144928 10.5018713,98.9557176 10.7342228,97.3780868 L10.7622921,97.1870009 L10.9530594,97.1588847 L28.0425891,94.619576 L28.131995,94.6950732 C33.6980347,99.3837085 40.7590248,101.966233 48.0144208,101.966233 L48.4276634,101.966233 L48.4276634,104.421193 C48.4276634,104.837208 48.7655347,105.175123 49.1803366,105.175123 L55.5879356,105.175123 C56.0027376,105.175123 56.3406089,104.837208 56.3406089,104.421193 L56.3406089,101.966233 L56.7538515,101.966233 C64.0087277,101.966233 71.0697178,99.3837085 76.6357574,94.6950732 L76.7251634,94.619576 L94.0059802,97.1870009 L94.0340495,97.3780868 C94.2658812,98.9557176 95.6407574,100.144928 97.2313515,100.144928 C99.0153119,100.144928 100.467119,98.6912171 100.467119,96.9042769 C100.467119,95.1168161 99.0153119,93.6625842 97.2313515,93.6625842 C95.9905842,93.6625842 94.843901,94.3925638 94.3090248,95.5208562 L94.2263762,95.6952807 L78.1821683,93.3116524 L78.5501881,92.9456213 C79.6828366,91.8183703 80.7442723,90.5812578 81.7059059,89.2686482 C81.7875149,89.1827376 81.8348168,89.1160918 81.871203,89.041636 C85.6865495,83.713097 87.6914257,77.4791125 87.6914257,70.9769829 L87.6914257,68.1106933 L99.2227129,61.1680767 L99.3656584,61.2977235 C99.9639505,61.8407826 100.733257,62.1396473 101.532193,62.1396473 C103.316673,62.1396473 104.76796,60.6854154 104.76796,58.8984752 C104.76796,57.1110143 103.316673,55.6567824 101.532193,55.6567824" mask="url(#b)"/>
      </g>
    </g>
  </g>
</svg>
