<svg id="prof-coaching" xmlns="http://www.w3.org/2000/svg" width="306" height="180" viewBox="0 0 306 180">
  <g fill="none" fill-rule="evenodd">
    <rect width="306" height="180" fill="#FFFFFF"/>
    <g transform="translate(76 39)">
      <polyline stroke="#1976D2" stroke-width="1.6" points="106.867 59.035 114.419 38.272 121.974 17.505 129.528 38.272 137.084 59.035"/>
      <g transform="translate(0 .628)">
        <path fill="#26C6DA" d="M142.251356,53.4661556 C142.251356,64.6957111 133.145133,73.8042667 121.912467,73.8042667 C110.6798,73.8042667 101.576689,64.6957111 101.576689,53.4661556 C101.576689,42.2412667 110.6798,33.1327111 121.912467,33.1327111 C133.145133,33.1327111 142.251356,42.2412667 142.251356,53.4661556"/>
        <polyline stroke="#1976D2" stroke-width="1.6" points="121.878 61.643 121.878 42.88 115.431 49.574" stroke-linejoin="bevel"/>
        <path stroke="#1976D2" stroke-width="1.6" d="M117.452456,61 L126.201678,61" stroke-linejoin="bevel"/>
        <polyline stroke="#1976D2" stroke-width="1.6" points="16.023 58.408 23.576 37.644 31.131 16.878 38.686 37.644 46.242 58.408"/>
        <path stroke="#1976D2" stroke-width="1.6" d="M31.1308667 74.6655778C41.3812 74.6655778 49.9554222 67.5582444 52.2405333 58.0086889L10.0235333 58.0086889C10.8923111 61.6409111 12.6710889 64.9200222 15.1063111 67.5885778M114.590856 58.0086889L100.866189 58.0086889C103.150522 67.5582444 111.723967 74.6655778 121.9743 74.6655778 132.223856 74.6655778 140.7973 67.5582444 143.083189 58.0086889L130.305856 58.0086889M94.7894111.181922222C94.4246333.181922222 94.0676333.111922222 93.7238556.181922222L89.4600778.181922222 89.4600778 5.51047778 89.4600778 8.97236667 89.4600778 19.3634778C89.4600778 22.3065889 91.8470778 24.6920333 94.7894111 24.6920333 97.7317444 24.6920333 100.117189 22.3065889 100.117189 19.3634778L100.117189 5.51047778C100.117189 2.56581111 97.7317444.181922222 94.7894111.181922222L94.7894111.181922222z"/>
        <path stroke="#1976D2" stroke-width="1.6" d="M84.1321444,24.6918 C87.0752556,24.6918 89.4607,22.3063556 89.4607,19.3632444 L89.4607,7.87624444 L89.4607,5.51024444 L89.4607,0.1498 L78.8035889,0.1498 L78.8035889,9.57024444 L78.8035889,11.6788"/>
        <path stroke="#1976D2" stroke-width="1.6" d="M84.1321444,24.6933556 C81.1890333,24.6933556 78.8035889,22.3063556 78.8035889,19.3655778 L78.8035889,7.87624444 L78.8035889,5.51024444 L78.8035889,0.1498 L89.4607,0.1498 L89.4607,9.57024444 L89.4607,11.6788"/>
        <polyline stroke="#1976D2" stroke-width="1.6" points="78.804 .15 68.147 .15 68.147 9.57 68.147 11.679"/>
        <polyline stroke="#1976D2" stroke-width="1.6" points="68.147 13.555 68.147 10.582 68.147 9.57 68.147 .15 57.49 .15 57.49 5.511 57.49 8.972 57.49 13.569"/>
        <path stroke="#1976D2" stroke-width="1.6" d="M57.5928111,13.3175778 L50.7211444,24.2469111 C48.5807,27.8760222 48.5807,30.8082444 50.7211444,33.8174667 L61.5081444,47.3088 L61.5081444,101.438244"/>
        <path stroke="#1976D2" stroke-width="1.6" d="M63.9183222 26.2394222L72.3758778 26.2394222C76.1123222 26.2394222 78.8042111 23.2099778 78.8042111 19.4727556L78.8042111 13.7218667 56.9404297 13.7218667M100.116878 13.2142889L100.116878 31.4842889C100.116878 35.2215111 92.2247667 46.3709556 92.2247667 46.3709556L92.2247667 101.888733M57.4902222 7L26.7042222 7M130.903656 7L100.116878 7M63.9198 26.7479333C72.7631333 26.7479333 79.9319111 33.9174889 79.9319111 42.7616"/>
        <polyline stroke="#1976D2" stroke-width="1.6" points="121.974 16.878 129.528 37.645 137.084 58.408"/>
        <path fill="#E8EBF7" d="M20.7565556,68.964 L38.997,68.964 C39.1253333,67.2381111 39.5118889,64.9942222 40.5984444,63.5506667 C47.3293333,54.8823333 47.7594444,46.6262222 47.7594444,46.0428889 C47.7594444,36.1705556 39.7631111,28.1765556 29.8923333,28.1765556 C20.0207778,28.1765556 12.026,36.1705556 12.026,46.0428889 C12.026,46.6262222 12.4452222,54.8792222 19.1838889,63.5506667 C20.2665556,64.9942222 20.6414444,67.2381111 20.7565556,68.964"/>
        <path stroke="#1976D2" stroke-width="1.6" d="M25.1418222 68.915L21.6037111 49.2784444M34.6453333 68.9157778L38.1803333 49.2784444" stroke-linejoin="bevel"/>
        <polyline stroke="#1976D2" stroke-width="1.6" points="21.715 50.43 24.436 51.986 27.161 50.43 29.885 51.986 32.611 50.43 35.34 51.986 38.07 50.43" stroke-linejoin="bevel"/>
        <path stroke="#1976D2" stroke-width="1.6" d="M19.5758889 69L40.2111111 69M19.5758889 72L31.4681111 72M24 72.1540333L24 69.4142556" stroke-linejoin="bevel"/>
        <polyline stroke="#1976D2" stroke-width="1.6" points="31.131 16.878 38.685 37.645 46.242 58.408"/>
        <path stroke="#1976D2" stroke-width="1.6" d="M13.8006556 16.6550222L16.7671 21.7953556M3.62568889 27.0270778L8.7668 29.9950778M0 41L5.93755556 41M139.944544 25.4130333L136.977322 30.5518111M150.119511 35.7842333L144.979178 38.7530111M153.744811 49L147.807256 49"/>
      </g>
    </g>
  </g>
</svg>