<svg xmlns="http://www.w3.org/2000/svg" id="coaching" viewBox="0 0 242 103" xml:space="preserve" width="100%" height="100%" preserveAspectRatio="xMaxYMax">
  <defs>
    <style>
      #coaching .cls-1 {
        fill: #1e88e5;
      }

      #coaching .cls-2 {
        fill: #26c6da;
      }

      #coaching .cls-3 {
        fill: #e8eaf6;
      }

      #coaching .cls-4 {
        fill: #c5cae9;
      }
    </style>
  </defs>
  <title>Vector Smart Object13</title>
  <g>
    <polygon class="cls-1" points="136.58 59.58 122.18 19.87 107.78 59.58 106.31 59.05 122.18 15.3 138.04 59.05 136.58 59.58"/>
    <ellipse class="cls-2" cx="122.12" cy="54.35" rx="20.37" ry="20.43"/>
    <g>
      <polygon class="cls-1" points="122.86 62.56 121.3 62.56 121.3 45.65 116.18 50.98 115.06 49.9 121.52 43.17 122.86 43.71 122.86 62.56"/>
      <rect class="cls-1" x="117.65" y="61.72" width="8.76" height="1.56"/>
    </g>
    <polygon class="cls-1" points="45.59 59.58 31.18 19.87 16.78 59.58 15.32 59.05 31.18 15.3 47.05 59.05 45.59 59.58"/>
    <path class="cls-1" d="M31.18,76.43V74.87A20.9,20.9,0,0,0,51.32,59.69H11.05A21.12,21.12,0,0,0,15.71,68l-1.15,1.05a22.67,22.67,0,0,1-5.27-10l-0.23-1H53.31l-0.23,1A22.46,22.46,0,0,1,31.18,76.43Z" transform="translate(0 0)"/>
    <path class="cls-1" d="M122.18,76.43a22.46,22.46,0,0,1-21.9-17.34l-0.23-1h14.73v1.56H102a20.94,20.94,0,0,0,40.26,0H130.52V58.13h13.79l-0.23,1A22.46,22.46,0,0,1,122.18,76.43Z" transform="translate(0 0)"/>
    <path class="cls-1" d="M94.95,26.22a6.13,6.13,0,0,1-6.12-6.13V0h5a3.65,3.65,0,0,1,.82,0h0.32a6.13,6.13,0,0,1,6.12,6.14V20.09A6.13,6.13,0,0,1,94.95,26.22ZM90.39,1.59V20.09a4.56,4.56,0,1,0,9.12,0V6.17a4.57,4.57,0,0,0-4.56-4.57l-0.42,0a2.16,2.16,0,0,0-.5,0l-0.16,0H90.39Z" transform="translate(0 0)"/>
    <path class="cls-1" d="M84.27,26.22V24.66a4.57,4.57,0,0,0,4.56-4.57V1.56H79.71v10.8H78.16V0H90.39V20.09A6.13,6.13,0,0,1,84.27,26.22Z" transform="translate(0 0)"/>
    <path class="cls-1" d="M84.27,26.22a6.13,6.13,0,0,1-6.12-6.13V0H90.39V12.36H88.83V1.56H79.71V20.09a4.57,4.57,0,0,0,4.56,4.57v1.56Z" transform="translate(0 0)"/>
    <polygon class="cls-1" points="69.04 12.37 67.48 12.37 67.48 0 78.94 0 78.94 1.56 69.04 1.56 69.04 12.37"/>
    <polygon class="cls-1" points="58.37 14.26 56.81 14.26 56.81 0 69.04 0 69.04 14.25 67.48 14.25 67.48 1.56 58.37 1.56 58.37 14.26"/>
    <path class="cls-1" d="M62.39,102.55H60.83V48.44L50.2,35.1c-2.37-3.33-2.38-6.56-.06-10.5L57,13.6l1.32,0.83-6.88,11c-2,3.36-2,6,0,8.75L62.39,47.89v54.66Z" transform="translate(0 0)"/>
    <path class="cls-1" d="M72.5,27.78H64V26.21H72.5a5.72,5.72,0,0,0,5.66-6v-5l-22.34,0V13.67l23.9,0V20.2A7.24,7.24,0,0,1,72.5,27.78Z" transform="translate(0 0)"/>
    <path class="cls-1" d="M93.16,103H91.6V47l0.14-.2c2.16-3.06,7.76-11.63,7.76-14.5V13.91h1.56V32.26c0,3.72-6.61,13.35-7.91,15.2V103Z" transform="translate(0 0)"/>
    <rect class="cls-1" x="26.75" y="7.27" width="30.84" height="1.56"/>
    <rect class="cls-1" x="100.28" y="7.27" width="30.84" height="1.56"/>
    <path class="cls-1" d="M80.84,43.59H79.29A15.3,15.3,0,0,0,64,28.29V26.72A16.86,16.86,0,0,1,80.84,43.59Z" transform="translate(0 0)"/>
    <polygon class="cls-1" points="136.58 59.58 121.44 17.86 122.91 17.32 138.04 59.05 136.58 59.58"/>
    <path class="cls-3" d="M20.79,69.92H39.06a10.9,10.9,0,0,1,1.6-5.44c6.74-8.71,7.17-17,7.17-17.59a17.9,17.9,0,1,0-35.79,0c0,0.59.42,8.88,7.17,17.59A10.77,10.77,0,0,1,20.79,69.92Z" transform="translate(0 0)"/>
    <g>
      <polygon class="cls-1" points="24.42 70.01 20.87 50.28 22.41 50 25.95 69.73 24.42 70.01"/>
      <rect class="cls-1" x="26.45" y="59.23" width="20.04" height="1.56" transform="translate(-29.05 85.27) rotate(-79.79)"/>
    </g>
    <polygon class="cls-1" points="35.01 53.54 32.66 52.2 30.32 53.54 29.55 53.54 27.21 52.2 24.86 53.54 24.09 53.54 21.36 51.98 22.14 50.62 24.48 51.96 26.82 50.62 27.59 50.62 29.93 51.96 32.28 50.62 33.05 50.62 35.4 51.96 37.75 50.62 38.52 51.98 35.78 53.54 35.01 53.54"/>
    <rect class="cls-1" x="19.61" y="69.35" width="20.67" height="1.56"/>
    <rect class="cls-1" x="19.61" y="74.8" width="11.91" height="1.56"/>
    <rect class="cls-1" x="23.9" y="70.37" width="1.56" height="4.76"/>
    <polygon class="cls-1" points="45.59 59.58 30.45 17.86 31.91 17.32 47.05 59.05 45.59 59.58"/>
    <g>
      <polygon class="cls-1" points="16.12 22.92 13.15 17.75 14.5 16.97 17.47 22.14 16.12 22.92"/>
      <polygon class="cls-1" points="8.39 31.45 3.24 28.46 4.02 27.11 9.17 30.09 8.39 31.45"/>
      <rect class="cls-1" y="41.14" width="5.95" height="1.56"/>
    </g>
    <g>
      <polygon class="cls-4" points="137.88 31.72 136.53 30.94 139.5 25.77 140.85 26.55 137.88 31.72"/>
      <polygon class="cls-4" points="145.61 40.24 144.83 38.89 149.98 35.91 150.76 37.26 145.61 40.24"/>
      <rect class="cls-4" x="148.05" y="49.94" width="5.95" height="1.56"/>
    </g>
  </g>
</svg>
