<svg id="achieve_fun_img" xmlns="http://www.w3.org/2000/svg" viewBox="0 0 158.74 159.14" xml:space="preserve" width="100%" height="100%" preserveAspectRatio="xMaxYMax">
  <defs>
    <style>
      #achieve_fun_img .cls-1 {
        fill: #5c6bc0;
        opacity: 0.8;
        isolation: isolate;
      }

      #achieve_fun_img .cls-2 {
        fill: #e6e5e5;
      }

      #achieve_fun_img .cls-3 {
        fill: #cccbca;
      }

      #achieve_fun_img .cls-4 {
        fill: #fff;
      }
    </style>
  </defs>
  <title>achieve fun</title>
  <polygon class="cls-1" points="44.39 159.15 0 68.86 69.56 0 158.74 43.88 142.36 144.08 44.39 159.15"/>
  <g>
    <polygon class="cls-2" points="90.69 109.7 104.75 109.7 90.69 95.75 90.69 109.7"/>
    <polygon class="cls-3" points="97.06 109.7 96.96 117.49 104.75 109.7 97.06 109.7"/>
    <polygon class="cls-3" points="90.69 57.43 90.69 86.45 119.81 57.33 90.69 57.43"/>
    <polygon class="cls-2" points="90.69 41.66 90.69 70.78 119.81 41.66 90.69 41.66"/>
    <polygon class="cls-4" points="56.72 75.73 90.69 109.7 90.69 41.66 56.72 75.73"/>
    <polygon class="cls-2" points="56.72 75.73 49.14 47.42 77.35 55 56.72 75.73"/>
    <polygon class="cls-3" points="52.78 61.37 38.93 57.63 49.14 47.42 52.78 61.37"/>
  </g>
</svg>
