<svg id="aa-measure" width="110px" height="111px" viewBox="0 0 110 111" version="1.1" xmlns="http://www.w3.org/2000/svg" xmlns:xlink="http://www.w3.org/1999/xlink">
  <!-- Generator: sketchtool 40.2 (33826) - http://www.bohemiancoding.com/sketch -->
  <title>59B71031-792F-4B7E-96A1-346DF385BE49</title>
  <desc>Created with sketchtool.</desc>
  <defs>
    <polygon id="path-1" points="0 0.0589877526 0 15.0176368 14.9213443 15.0176368 14.9213443 0.0589877526 1.40639433e-20 0.0589877526"></polygon>
    <polygon id="path-3" points="0 110.738322 109.941368 110.738322 109.941368 0.520174185 0 0.520174185"></polygon>
  </defs>
  <g id="Desktop" stroke="none" stroke-width="1" fill="none" fill-rule="evenodd">
    <g id="HomePage-desktop-1600" transform="translate(-258.000000, -1169.000000)">
      <g id="homepage" transform="translate(-3.000000, 68.000000)">
        <g id="methodology" transform="translate(3.000000, 470.000000)">
          <g id="measure" transform="translate(258.000000, 631.000000)">
            <g id="Group-3" transform="translate(0.000000, 0.461395)">
              <mask id="mask-2" fill="white">
                <use xlink:href="#path-1"></use>
              </mask>
              <g id="Clip-2"></g>
              <path d="M1.50238208,13.5112124 L1.50238208,1.56489202 L13.4187028,1.56489202 L13.4187028,6.78483997 L14.9213443,6.78483997 L14.9213443,0.812199973 C14.9213443,0.396580799 14.5840802,0.0589877526 14.1700236,0.0589877526 L0.751061321,0.0589877526 C0.337004717,0.0589877526 -0.000259433962,0.396580799 -0.000259433962,0.812199973 L-0.000259433962,14.2639044 C-0.000259433962,14.6795236 0.337004717,15.0176368 0.751061321,15.0176368 L6.7092217,15.0176368 L6.7092217,13.5112124 L1.50238208,13.5112124 Z" id="Fill-1" fill="#1976D2" mask="url(#aa-measure#mask-2)"></path>
            </g>
            <path d="M13.4188585,13.9726069 L8.2115,13.9726069 L8.2115,15.4790313 L14.1701792,15.4790313 C14.5842358,15.4790313 14.9215,15.1409181 14.9215,14.7252989 L14.9215,8.75265891 L13.4188585,8.75265891 L13.4188585,13.9726069 Z" id="Fill-4" fill="#1976D2"></path>
            <mask id="mask-4" fill="white">
              <use xlink:href="#path-3"></use>
            </mask>
            <g id="Clip-7"></g>
            <polygon id="Fill-6" fill="#1976D2" mask="url(#aa-measure#mask-4)" points="6.70896226 15.4788232 8.21160377 15.4788232 8.21160377 13.9723988 6.70896226 13.9723988"></polygon>
            <polygon id="Fill-8" fill="#1976D2" mask="url(#aa-measure#mask-4)" points="13.4189623 8.75245084 14.9216038 8.75245084 14.9216038 7.2460264 13.4189623 7.2460264"></polygon>
            <path d="M74.779816,45.0855253 L77.4379764,37.2938362 L84.9283538,47.6791138 L74.779816,45.0855253 Z M73.094533,45.3705808 L70.7679292,52.1916249 L60.4061368,42.2037603 L75.9903349,36.8813381 L73.094533,45.3705808 Z M43.0987783,76.5362969 L46.172033,31.5828438 L69.9647217,53.5326339 L43.0987783,76.5362969 Z M26.3792972,25.6871896 L44.7378821,30.5362534 L43.3187783,51.2880823 L26.3792972,25.6871896 Z M41.5125991,77.7066888 L32.2751934,80.580131 L42.3215142,65.875327 L41.5125991,77.7066888 Z M87.3608066,48.4812224 L77.8053349,35.2329061 C77.7897689,35.2204219 77.7757594,35.2068974 77.7633066,35.1918123 L77.722316,35.1377142 C77.6647217,35.0919389 77.6351462,35.0711319 77.604533,35.0508451 C77.5780708,35.0336794 77.5516085,35.0165136 77.5230708,35.0019487 C77.4898632,34.9858233 77.4556179,34.9748997 77.4203349,34.9634558 C77.3907594,34.9535725 77.3622217,34.9447296 77.3316085,34.9384875 C77.2958066,34.9317252 77.2605236,34.931205 77.2242028,34.9301647 C77.1899575,34.9291243 77.1572689,34.9270436 77.1235425,34.9306849 L77.1059009,34.9317252 L77.0643915,34.931205 C76.9984953,34.9556532 76.9777406,34.9592944 76.956467,34.9624155 L58.7805236,41.1686137 L46.0381651,29.4126771 C45.9759009,29.3622202 45.9276462,29.3289291 45.877316,29.3024002 C45.814533,29.2701494 45.7693915,29.2514231 45.7216557,29.2389389 L24.8538255,23.7261329 C24.7910425,23.7094873 24.7277406,23.7016847 24.6644387,23.7016847 C24.4257594,23.7016847 24.1943443,23.8161231 24.0516557,24.0163901 C23.8716085,24.2686746 23.8653821,24.6125097 24.0366085,24.8710363 L43.1501462,53.7573492 L42.5238726,62.9124148 L42.4839198,62.9711945 L29.8147217,81.5159244 C29.6346745,81.7801729 29.6409009,82.1312904 29.8302877,82.3887767 C30.0160425,82.6410611 30.3559009,82.7539389 30.6584009,82.6608278 L42.4496745,78.9925594 C42.5202406,78.9665507 42.5793915,78.9374209 42.6359481,78.8999684 L42.7039198,78.8526325 L71.5892972,54.1214711 L71.6318443,54.0746554 C71.6588255,54.0470862 71.6858066,54.0174362 71.7091557,53.9846653 L71.7423632,53.9284865 C71.7600047,53.8977962 71.7771274,53.8650252 71.7906179,53.8301735 L71.8155236,53.7786763 L74.2920802,46.5154841 L86.5664198,49.6521345 C86.8678821,49.7301606 87.1978821,49.6042785 87.3732594,49.3457519 C87.5507123,49.0846244 87.5455236,48.7376683 87.3608066,48.4812224 L87.3608066,48.4812224 Z" id="Fill-9" fill="#1976D2" mask="url(#aa-measure#mask-4)"></path>
            <polygon id="Fill-10" fill="#26C6DA" mask="url(#aa-measure#mask-4)" points="94.5154245 11.8344829 102.166132 11.8344829 102.166132 4.16451453 94.5154245 4.16451453"></polygon>
            <polygon id="Fill-11" fill="#1976D2" mask="url(#aa-measure#mask-4)" points="14.9210849 8.75297101 90.8802358 8.75297101 90.8802358 7.24654657 14.9210849 7.24654657"></polygon>
            <path d="M105.05,0.520226203 L91.6315566,0.520226203 C91.2175,0.520226203 90.8802358,0.857819249 90.8802358,1.27343842 L90.8802358,7.24659859 L92.3828774,7.24659859 L92.3828774,2.02665064 L104.298679,2.02665064 L104.298679,13.9724508 L99.0923585,13.9724508 L99.0923585,15.4788752 L105.05,15.4788752 C105.464057,15.4788752 105.801321,15.140762 105.801321,14.725663 L105.801321,1.27343842 C105.801321,0.857819249 105.464057,0.520226203 105.05,0.520226203" id="Fill-12" fill="#1976D2" mask="url(#aa-measure#mask-4)"></path>
            <path d="M92.3828255,8.75260689 L90.880184,8.75260689 L90.880184,14.7252469 C90.880184,15.1408661 91.2174481,15.4789793 91.6315047,15.4789793 L97.5896651,15.4789793 L97.5896651,13.9725548 L92.3828255,13.9725548 L92.3828255,8.75260689 Z" id="Fill-13" fill="#1976D2" mask="url(#aa-measure#mask-4)"></path>
            <polygon id="Fill-14" fill="#1976D2" mask="url(#aa-measure#mask-4)" points="97.589717 15.4788232 99.0923585 15.4788232 99.0923585 13.9723988 97.589717 13.9723988"></polygon>
            <polygon id="Fill-15" fill="#1976D2" mask="url(#aa-measure#mask-4)" points="90.8802358 8.75297101 92.3828774 8.75297101 92.3828774 7.24654657 90.8802358 7.24654657"></polygon>
            <polygon id="Fill-16" fill="#FFCA28" mask="url(#aa-measure#mask-4)" points="109.941575 110.738322 93.7072358 110.738322 93.7072358 94.4631119 109.941575 94.4631119"></polygon>
            <path d="M8.21170755,98.3556273 L8.21170755,15.4788752 L6.70906604,15.4788752 L6.70906604,99.1083194 C6.70906604,99.5234184 7.04633019,99.8615316 7.46038679,99.8615316 L90.8803396,99.8615316 L90.8803396,98.3556273 L8.21170755,98.3556273 Z" id="Fill-17" fill="#1976D2" mask="url(#aa-measure#mask-4)"></path>
            <polygon id="Fill-18" fill="#1976D2" mask="url(#aa-measure#mask-4)" points="97.589717 91.6292029 99.0923585 91.6292029 99.0923585 15.4788232 97.589717 15.4788232"></polygon>
            <path d="M105.05,91.6289428 L99.0923585,91.6289428 L99.0923585,93.1353673 L104.298679,93.1353673 L104.298679,105.081688 L92.3828774,105.081688 L92.3828774,99.8612195 L90.8802358,99.8612195 L90.8802358,105.8349 C90.8802358,106.249999 91.2175,106.588112 91.6315566,106.588112 L105.05,106.588112 C105.464057,106.588112 105.801321,106.249999 105.801321,105.8349 L105.801321,92.382155 C105.801321,91.9665359 105.464057,91.6289428 105.05,91.6289428" id="Fill-19" fill="#1976D2" mask="url(#aa-measure#mask-4)"></path>
            <path d="M97.589717,93.1351072 L97.589717,91.6286827 L91.6315566,91.6286827 C91.2175,91.6286827 90.8802358,91.9667959 90.8802358,92.3824151 L90.8802358,98.3555753 L92.3828774,98.3555753 L92.3828774,93.1351072 L97.589717,93.1351072 Z" id="Fill-20" fill="#1976D2" mask="url(#aa-measure#mask-4)"></path>
            <polygon id="Fill-21" fill="#1976D2" mask="url(#aa-measure#mask-4)" points="97.589717 93.1351072 99.0923585 93.1351072 99.0923585 91.6286827 97.589717 91.6286827"></polygon>
            <polygon id="Fill-22" fill="#1976D2" mask="url(#aa-measure#mask-4)" points="90.8802358 99.8614796 92.3828774 99.8614796 92.3828774 98.3555753 90.8802358 98.3555753"></polygon>
            <polygon id="Fill-23" fill="#26C6DA" mask="url(#aa-measure#mask-4)" points="3.8645283 102.713595 17.2829717 102.713595 17.2829717 89.26137 3.8645283 89.26137"></polygon>
            <path d="M1.50264151,105.081948 L13.4189623,105.081948 L13.4189623,93.1351072 L1.50264151,93.1351072 L1.50264151,105.081948 Z M14.170283,91.6286827 L0.751320755,91.6286827 C0.336745283,91.6286827 0,91.9667959 0,92.3824151 L0,105.83464 C0,106.250259 0.336745283,106.587852 0.751320755,106.587852 L14.170283,106.587852 C14.5843396,106.587852 14.9210849,106.250259 14.9210849,105.83464 L14.9210849,92.3824151 C14.9210849,91.9667959 14.5843396,91.6286827 14.170283,91.6286827 L14.170283,91.6286827 Z" id="Fill-24" fill="#1976D2" mask="url(#aa-measure#mask-4)"></path>
          </g>
        </g>
      </g>
    </g>
  </g>
</svg>