<?xml version="1.0" encoding="UTF-8" standalone="no"?>
<svg width="146px" height="133px" viewBox="0 0 146 133" version="1.1" xmlns="http://www.w3.org/2000/svg" xmlns:xlink="http://www.w3.org/1999/xlink">
    <!-- Generator: sketchtool 40.2 (33826) - http://www.bohemiancoding.com/sketch -->
    <title>758107D1-6EA4-4BA5-B610-6D2C0C7416E2</title>
    <desc>Created with sketchtool.</desc>
    <defs></defs>
    <g id="Desktop" stroke="none" stroke-width="1" fill="none" fill-rule="evenodd">
        <g id="HomePage-desktop-1600" transform="translate(-515.000000, -696.000000)">
            <g id="homepage" transform="translate(-3.000000, 68.000000)">
                <g id="methodology" transform="translate(3.000000, 470.000000)">
                    <g id="target" transform="translate(515.000000, 158.000000)">
                        <path d="M97.7443617,85.6232062 C87.6746563,95.6866577 71.346992,95.6781627 61.2629857,85.6181865 C51.2137652,75.5674774 51.1979183,59.2521135 61.2683968,49.1925233 C71.346992,39.1433588 87.6800674,39.1433588 97.7443617,49.1925233 C107.810202,59.2521135 107.818705,75.5674774 97.7443617,85.6232062 M106.080577,40.8612736 C91.4160584,26.2151714 67.612547,26.2151714 52.9275438,40.8612736 C38.2529763,55.5239796 38.2773263,79.2983142 52.9190406,93.9451887 C67.612547,108.604033 91.4091012,108.617934 106.080577,93.9509807 C120.765966,79.2983142 120.751666,55.5239796 106.080577,40.8612736" id="Fill-1" fill="#26C6DA"></path>
                        <g id="Group-5" transform="translate(13.527797, 1.695905)" fill="#26C6DA">
                            <path d="M102.507808,102.195929 C82.3382496,122.353337 49.6315154,122.335961 29.4329687,102.18589 C9.30322049,82.0535808 9.27307283,49.3722692 29.4441774,29.2218119 C49.6315154,9.09297829 82.3475258,9.09297829 102.507808,29.2218119 C122.67041,49.3722692 122.687029,82.0535808 102.507808,102.195929 M112.401652,19.3352103 C86.7823241,-6.25241446 45.1986497,-6.25241446 19.5453087,19.3352103 C-6.09141231,44.9490923 -6.04812337,86.4821636 19.5298484,112.068244 C45.1986497,137.678264 86.7711154,137.701433 112.401652,112.080214 C138.05538,86.4821636 138.03103,44.9490923 112.401652,19.3352103" id="Fill-3"></path>
                        </g>
                        <path d="M87.7970635,59.1318324 C83.2208031,54.5634687 75.8002267,54.5634687 71.2201012,59.1318324 C66.6434543,63.7036713 66.650025,71.1186225 71.2158497,75.6858278 C75.8002267,80.258439 83.2208031,80.2607558 87.7970635,75.6866001 C92.3748699,71.1186225 92.3710049,63.7036713 87.7970635,59.1318324" id="Fill-6" fill="#FFCA28"></path>
                        <g id="Group-10" transform="translate(0.000000, 0.151365)" fill="#1976D2">
                            <path d="M36.8006707,32.1444295 L31.2504089,27.693837 L33.2347434,16.0785087 L38.7328266,20.4870125 L36.8006707,32.1444295 Z M24.7427656,37.9001584 L19.2446824,33.4904962 L30.1670256,29.0422205 L35.7176739,33.4931992 L24.7427656,37.9001584 Z M12.7729844,28.3008413 L23.3838018,23.6031223 L28.6233107,27.8042716 L17.7005811,32.2525473 L12.7729844,28.3008413 Z M7.57946997,24.1363748 L17.904271,19.2092917 L21.8644369,22.384094 L11.2532331,27.0825852 L7.57946997,24.1363748 Z M2.45282147,20.0255812 L12.5441714,14.9108364 L16.4065507,18.0080255 L6.08136309,22.9351087 L2.45282147,20.0255812 Z M16.443269,2.61320752 L20.0710376,5.52234893 L17.4895474,16.6592558 L13.6275547,13.5620667 L16.443269,2.61320752 Z M25.2432941,9.66982543 L22.9478202,21.0353243 L18.9872678,17.860522 L21.5691444,6.72322892 L25.2432941,9.66982543 Z M31.690642,14.8394014 L29.7063075,26.455888 L24.467185,22.2543526 L26.7626589,10.8884676 L31.690642,14.8394014 Z M79.7997392,66.6772586 L79.7993527,66.6772586 L38.3490236,33.387012 L40.5231339,20.271163 C40.5737665,19.9630273 40.4547219,19.6502579 40.2112215,19.4548736 L16.4803738,0.425752498 C16.2500147,0.241179948 15.944673,0.185962637 15.6656139,0.279793452 C15.3850087,0.373238133 15.1739751,0.599127133 15.100925,0.884867065 L11.909911,13.2937028 L11.7970505,13.3504647 L0.47351154,19.0899759 C0.210299265,19.2235787 0.0348244142,19.4784278 0.00467675262,19.7718904 C-0.0258574174,20.0649669 0.0935737033,20.3507069 0.323932758,20.5356655 L16.9890189,33.898641 C17.0075714,33.9148586 17.0195531,33.9241259 17.0315349,33.9326209 L24.054394,39.5647866 C24.2978943,39.7605571 24.6291321,39.8088239 24.9194,39.6925973 L37.2656404,34.7350095 L37.3931882,34.8373353 L78.7155829,68.0252561 C79.0777414,68.3164019 79.6428168,68.2526896 79.9319251,67.8931979 C80.2310827,67.521736 80.1715604,66.9761272 79.7997392,66.6772586 L79.7997392,66.6772586 Z" id="Fill-8"></path>
                        </g>
                    </g>
                </g>
            </g>
        </g>
    </g>
</svg>