<svg xmlns="http://www.w3.org/2000/svg" id="Define-priorities" viewBox="0 0 285 168" xml:space="preserve" width="100%" height="100%" preserveAspectRatio="xMaxYMax">
	<defs>
		<style>
			#Define-priorities .cls-1 {
				fill: #ffca28;
			}

			#Define-priorities .cls-2 {
				fill: #26c6da;
			}

			#Define-priorities .cls-3 {
				fill: #1976d2;
			}

			#Define-priorities .cls-4 {
				fill: #e8eaf6;
			}
		</style>
	</defs>
	<title>Vector Smart Object11</title>
	<g>
		<path class="cls-1" d="M183,44.12l-7.22,7.22,5.88,7a27.64,27.64,0,0,0-4,9.09l-9.35.78V78.37l9.07,0.76a27.66,27.66,0,0,0,3.58,9.27l-6.06,7.17,7.22,7.22,7-5.88a27.65,27.65,0,0,0,9.09,4l0.78,9.35h10.21l0.76-9.07a27.65,27.65,0,0,0,9.27-3.58l7.17,6.06,7.22-7.22-5.88-7a27.58,27.58,0,0,0,4-9.09l9.36-.78V69.43l-9.07-.76a27.67,27.67,0,0,0-3.59-9.27l6.06-7.17L227.18,45l-7,5.88a27.67,27.67,0,0,0-9.09-4l-0.78-9.35H200.15l-0.76,9.07a27.65,27.65,0,0,0-9.27,3.58Zm29.67,21.77a11.32,11.32,0,1,1-16,0A11.32,11.32,0,0,1,212.63,65.89Z"/>
		<rect class="cls-2" y="38.98" width="92.65" height="65.39"/>
		<g>
			<path class="cls-3" d="M47.35,104.38H45.67a5.77,5.77,0,0,0-5.77-5.76H5.3V34.21H39.9a7.45,7.45,0,0,1,7.45,7.44v62.73ZM7,96.94H39.9a7.44,7.44,0,0,1,5.77,2.74v-58a5.77,5.77,0,0,0-5.77-5.76H7v61Z"/>
			<path class="cls-3" d="M47.53,104.38H45.85V41.65a7.45,7.45,0,0,1,7.45-7.44H87.9V98.62H53.29A5.77,5.77,0,0,0,47.53,104.38Zm5.76-68.49a5.77,5.77,0,0,0-5.76,5.76v58a7.44,7.44,0,0,1,5.76-2.74H86.21v-61H53.29Z"/>
		</g>
		<g>
			<rect class="cls-3" x="12.86" y="43.98" width="15.72" height="1.68"/>
			<rect class="cls-3" x="12.86" y="52.53" width="26.47" height="1.68"/>
			<rect class="cls-3" x="12.86" y="60.95" width="26.47" height="1.68"/>
			<rect class="cls-3" x="12.86" y="69.37" width="26.47" height="1.68"/>
			<rect class="cls-3" x="12.86" y="77.79" width="26.47" height="1.68"/>
			<rect class="cls-3" x="12.86" y="86.2" width="26.47" height="1.68"/>
			<rect class="cls-3" x="52.87" y="52.53" width="26.47" height="1.68"/>
			<rect class="cls-3" x="52.87" y="60.95" width="26.47" height="1.68"/>
			<rect class="cls-3" x="52.87" y="69.37" width="26.47" height="1.68"/>
			<rect class="cls-3" x="52.87" y="77.79" width="26.47" height="1.68"/>
			<rect class="cls-3" x="52.87" y="86.2" width="26.47" height="1.68"/>
		</g>
		<g>
			<rect class="cls-3" x="128.14" y="52.77" width="1.68" height="5.48"/>
			<rect class="cls-3" x="128.14" y="52.77" width="1.68" height="5.48"/>
			<rect class="cls-3" x="113.2" y="61.39" width="1.68" height="5.49" transform="translate(1.51 130.87) rotate(-60.02)"/>
			<rect class="cls-3" x="111.3" y="80.53" width="5.49" height="1.68" transform="translate(-25.41 67.93) rotate(-30)"/>
			<rect class="cls-3" x="128.13" y="87.25" width="1.68" height="5.48"/>
			<rect class="cls-3" x="143.07" y="78.63" width="1.68" height="5.48" transform="translate(1.53 165.39) rotate(-60.03)"/>
			<rect class="cls-3" x="141.17" y="63.29" width="5.49" height="1.68" transform="translate(-12.78 80.59) rotate(-30.02)"/>
		</g>
		<ellipse class="cls-1" cx="204.59" cy="73.34" rx="18.24" ry="18.24"/>
		<polygon class="cls-3" points="200.51 79.49 195.1 74.08 196.28 72.89 200.51 77.11 212.76 64.87 213.94 66.06 200.51 79.49"/>
		<path class="cls-3" d="M163.82,39.85a8.73,8.73,0,1,1,8.73-8.73A8.74,8.74,0,0,1,163.82,39.85Zm0-15.77a7,7,0,1,0,7,7A7.05,7.05,0,0,0,163.82,24.08Z"/>
		<g>
			<polygon class="cls-3" points="148.47 16.87 134.24 14.22 136.88 0 138.54 0.31 136.2 12.88 148.77 15.21 148.47 16.87"/>
			<path class="cls-3" d="M193.26,21a38.4,38.4,0,0,0-24.52-16.1,37.38,37.38,0,0,0-28.44,5.89,38.69,38.69,0,0,0-3.08,2.36l-1.09-1.28a40.26,40.26,0,0,1,3.22-2.46,39,39,0,0,1,29.71-6.16A40.07,40.07,0,0,1,194.65,20Z"/>
		</g>
		<rect class="cls-4" x="106.93" y="117.19" width="61.21" height="13.07"/>
		<polygon class="cls-3" points="167.28 168 107.78 168 107.78 130.28 109.47 130.28 109.47 166.32 165.6 166.32 165.6 130.28 167.28 130.28 167.28 168"/>
		<g>
			<rect class="cls-3" x="117.73" y="112.06" width="1.68" height="11.36"/>
			<rect class="cls-3" x="155.65" y="112.06" width="1.68" height="11.36"/>
		</g>
		<g>
			<g>
				<rect class="cls-3" x="117.5" y="137.65" width="3.26" height="1.68"/>
				<rect class="cls-3" x="123.64" y="137.65" width="3.26" height="1.68"/>
				<rect class="cls-3" x="129.77" y="137.65" width="3.26" height="1.68"/>
				<rect class="cls-3" x="135.9" y="137.65" width="3.26" height="1.68"/>
				<rect class="cls-3" x="142.04" y="137.65" width="3.26" height="1.68"/>
				<rect class="cls-3" x="148.17" y="137.65" width="3.26" height="1.68"/>
				<rect class="cls-3" x="154.3" y="137.65" width="3.26" height="1.68"/>
			</g>
			<g>
				<rect class="cls-3" x="117.5" y="143.96" width="3.26" height="1.68"/>
				<rect class="cls-3" x="123.64" y="143.96" width="3.26" height="1.68"/>
				<rect class="cls-3" x="129.77" y="143.96" width="3.26" height="1.68"/>
				<rect class="cls-3" x="135.9" y="143.96" width="3.26" height="1.68"/>
				<rect class="cls-3" x="142.04" y="143.96" width="3.26" height="1.68"/>
				<rect class="cls-3" x="148.17" y="143.96" width="3.26" height="1.68"/>
				<rect class="cls-3" x="154.3" y="143.96" width="3.26" height="1.68"/>
			</g>
			<g>
				<rect class="cls-3" x="117.5" y="150.27" width="3.26" height="1.68"/>
				<rect class="cls-3" x="123.64" y="150.27" width="3.26" height="1.68"/>
				<rect class="cls-3" x="129.77" y="150.27" width="3.26" height="1.68"/>
				<rect class="cls-3" x="135.9" y="150.27" width="3.26" height="1.68"/>
				<rect class="cls-3" x="142.04" y="150.27" width="3.26" height="1.68"/>
				<rect class="cls-3" x="148.17" y="150.27" width="3.26" height="1.68"/>
				<rect class="cls-3" x="154.3" y="150.27" width="3.26" height="1.68"/>
			</g>
			<g>
				<rect class="cls-3" x="117.5" y="156.57" width="3.26" height="1.68"/>
				<rect class="cls-3" x="123.64" y="156.57" width="3.26" height="1.68"/>
				<rect class="cls-3" x="129.77" y="156.57" width="3.26" height="1.68"/>
				<rect class="cls-3" x="135.9" y="156.57" width="3.26" height="1.68"/>
				<rect class="cls-3" x="142.04" y="156.57" width="3.26" height="1.68"/>
				<rect class="cls-3" x="148.17" y="156.57" width="3.26" height="1.68"/>
				<rect class="cls-3" x="154.3" y="156.57" width="3.26" height="1.68"/>
			</g>
		</g>
	</g>
</svg>
