<svg xmlns="http://www.w3.org/2000/svg" id="act" viewBox="0 0 185 126"  xml:space="preserve" width="100%" height="100%" preserveAspectRatio="xMaxYMax">
    <defs>
        <style>
            #act .cls-1 {
                fill: #26c6da;
            }

            #act .cls-2 {
                fill: #ffca28;
            }

            #act .cls-3 {
                fill: #1976d2;
            }
        </style>
    </defs>
    <title>Vector Smart Object221</title>
    <g>
        <polygon class="cls-1" points="90.21 17.21 93.2 30.44 107.09 16.58 105.65 3.71 90.21 17.21"/>
        <polygon class="cls-1" points="108.16 17.65 94.27 31.51 107.53 34.5 121.06 19.08 108.16 17.65"/>
        <path class="cls-2" d="M63.29,34.54A26.78,26.78,0,1,0,90.12,61.32,26.84,26.84,0,0,0,63.29,34.54Z" transform="translate(0 -0.12)"/>
        <path class="cls-3" d="M63.29,44A17.33,17.33,0,1,0,80.65,61.32,17.37,17.37,0,0,0,63.29,44Zm0,32.85A15.52,15.52,0,1,1,78.84,61.32,15.55,15.55,0,0,1,63.29,76.83Z" transform="translate(0 -0.12)"/>
        <path class="cls-3" d="M104.74,20.3a0.91,0.91,0,0,0-1.28,0L63,60.68A0.91,0.91,0,0,0,63,62a0.93,0.93,0,0,0,1.28,0l40.46-40.38A0.9,0.9,0,0,0,104.74,20.3Z" transform="translate(0 -0.12)"/>
        <path class="cls-3" d="M102.06,45.68l-1.37-.31A40.25,40.25,0,0,1,63.64,101.6a40.57,40.57,0,0,1-5.27-.35q-1-.13-2-0.31a40.14,40.14,0,0,1-13.54-5.1q-0.78-.47-1.53-1a7.35,7.35,0,0,1-.83,1c-0.12.12-.24,0.23-0.37,0.35a7.23,7.23,0,0,1-4.74,1.88H35.27A7.27,7.27,0,0,1,28,91a7.2,7.2,0,0,1,1.69-4.79c0.11-.13.22-0.26,0.34-0.39A7.34,7.34,0,0,1,31,85q-0.53-.73-1-1.49a40,40,0,0,1-5.69-13.33q-0.22-1-.39-2A40.34,40.34,0,0,1,79.62,24.34L79.31,23a0.9,0.9,0,0,1,.12-0.67A42.08,42.08,0,0,0,21.88,67.15,65.78,65.78,0,0,1,16.13,62a1,1,0,0,0-.65-0.26,0.91,0.91,0,0,0-.65.28L5.61,71.61a0.91,0.91,0,0,0,0,1.29c1.41,1.3,5.24,5,6.09,6.6a11.07,11.07,0,0,1,1,3.74,11.3,11.3,0,0,1-.95,3.84A11.1,11.1,0,0,1,9.14,90C7.37,91.15.74,93,.67,93A0.9,0.9,0,0,0,0,94.09l3.69,12.76a0.91,0.91,0,0,0,1.14.62c0.06,0,6.41-2,8.64-2h0.11a11.13,11.13,0,0,1,3.73,1,11.36,11.36,0,0,1,2.87,2.76A11,11,0,0,1,21.41,113c0.14,2.13-1.6,8.74-1.62,8.8a0.91,0.91,0,0,0,.66,1.11l12.92,3.19a0.9,0.9,0,0,0,.69-0.11,0.91,0.91,0,0,0,.41-0.57c0-.07,1.56-6.74,2.68-8.57a11.11,11.11,0,0,1,2.78-2.7,11.37,11.37,0,0,1,3.8-1.09,11.13,11.13,0,0,1,3.79.81c1.92,0.94,6.79,5.77,6.84,5.81a1,1,0,0,0,.65.26,0.91,0.91,0,0,0,.64-0.28l9.22-9.57a0.91,0.91,0,0,0,0-1.29,64.57,64.57,0,0,1-5.4-5.61c1.38,0.14,2.78.21,4.19,0.21a42.06,42.06,0,0,0,39.1-57.84A0.91,0.91,0,0,1,102.06,45.68ZM62.71,109.29l0.23,0.22-8,8.25-0.23-.22c-1.37-1.31-4.72-4.45-6.44-5.29a12.68,12.68,0,0,0-4.65-1A13.1,13.1,0,0,0,39,112.58a12.86,12.86,0,0,0-3.41,3.32c-1,1.62-2.17,6.07-2.62,7.91l-0.08.3-11.13-2.75,0.08-.3c0.45-1.83,1.5-6.3,1.37-8.19a12.81,12.81,0,0,0-1.46-4.52A13.15,13.15,0,0,0,18.25,105a12.9,12.9,0,0,0-4.58-1.29c-1.9-.07-6.33,1.16-8.15,1.69l-0.3.09L2,94.47l0.3-.09c1.82-.52,6.23-1.86,7.82-2.92a12.84,12.84,0,0,0,3.19-3.53,13.05,13.05,0,0,0,1.16-4.69,12.83,12.83,0,0,0-1.18-4.6c-0.91-1.67-4.18-4.9-5.55-6.21l-0.23-.22,8-8.25,0.23,0.22c1.37,1.31,4.72,4.45,6.44,5.29l0.11,0a41.81,41.81,0,0,0,6.31,15.17,9.08,9.08,0,0,0,6.66,15.25h0.18a9,9,0,0,0,6.28-2.69,41.94,41.94,0,0,0,15.38,5.65l0.08,0.17C58.07,104.75,61.35,108,62.71,109.29Z" transform="translate(0 -0.12)"/>
        <path class="cls-3" d="M32.34,87.23a4.75,4.75,0,0,0-.65.56c-0.1.11-.2,0.22-0.29,0.33a4.7,4.7,0,0,0,.42,6.32,4.75,4.75,0,0,0,3.36,1.31,4.68,4.68,0,0,0,3-1.15l0.31-.29A4.75,4.75,0,0,0,39,93.62,28.77,28.77,0,0,1,32.34,87.23Z" transform="translate(0 -0.12)"/>
        <path class="cls-3" d="M83.38,41a0.9,0.9,0,0,1,.23-0.87l1.17-1.16L81.7,25.31c-0.68-.34-1.38-0.67-2.08-1l3.75,16.6v0Z" transform="translate(0 -0.12)"/>
        <path class="cls-3" d="M83.47,41.19a0.91,0.91,0,0,1,0-.11A0.91,0.91,0,0,0,83.47,41.19Z" transform="translate(0 -0.12)"/>
        <path class="cls-3" d="M84,41.61h0l-0.1,0Z" transform="translate(0 -0.12)"/>
        <path class="cls-3" d="M83.8,41.52l-0.09-.06Z" transform="translate(0 -0.12)"/>
        <path class="cls-3" d="M83.61,41.38l-0.07-.09Z" transform="translate(0 -0.12)"/>
        <path class="cls-3" d="M99.69,6.93l1.72,15.41-8.32,8.3L101.72,22a0.9,0.9,0,0,1,.64-0.27h0.1l0.72,0.08L101.3,5a0.91,0.91,0,0,0-1.5-.58L79.59,22.09a0.9,0.9,0,0,0-.17.21q0.91,0.37,1.8.78Z" transform="translate(0 -0.12)"/>
        <path class="cls-3" d="M79.31,23l0.31,1.37c0.71,0.3,1.4.63,2.08,1L81.2,23.1l0,0q-0.89-.41-1.8-0.78A0.9,0.9,0,0,0,79.31,23Z" transform="translate(0 -0.12)"/>
        <path class="cls-3" d="M83.38,41a0.89,0.89,0,0,0,0,.09,0.88,0.88,0,0,1,0-.11v0Z" transform="translate(0 -0.12)"/>
        <path class="cls-3" d="M83.54,41.29l-0.07-.1Z" transform="translate(0 -0.12)"/>
        <path class="cls-3" d="M83.71,41.46l-0.1-.08Z" transform="translate(0 -0.12)"/>
        <path class="cls-3" d="M83.92,41.58l-0.12-.05Z" transform="translate(0 -0.12)"/>
        <polygon class="cls-3" points="84.78 38.81 84.78 38.81 91.5 32.1 91.5 32.1 84.78 38.81"/>
        <path class="cls-3" d="M92.79,33.51h0L84.9,41.38a0.92,0.92,0,0,1-.87.23h0l16.64,3.75c-0.31-.7-0.63-1.4-1-2.08L86.06,40.22Z" transform="translate(0 -0.12)"/>
        <polygon class="cls-3" points="92.79 30.82 93.09 30.51 92.79 30.82 92.79 30.82"/>
        <path class="cls-3" d="M120.65,25.23a0.91,0.91,0,0,0-.58-1.5l-16.88-1.88,0.08,0.72a0.9,0.9,0,0,1-.26.74l-8.93,8.91h0l8.62-8.6,15.44,1.72L102,43.77q0.41,0.89.78,1.8a0.89,0.89,0,0,0,.21-0.17Z" transform="translate(0 -0.12)"/>
        <path class="cls-3" d="M101.93,43.79l-2.22-.5c0.34,0.68.67,1.37,1,2.08l1.37,0.31a0.91,0.91,0,0,0,.68-0.12q-0.37-.91-0.78-1.8Z" transform="translate(0 -0.12)"/>
        <polygon class="cls-3" points="91.5 32.1 91.5 32.1 92.79 30.82 92.79 30.82 91.5 32.1"/>
        <polygon class="cls-3" points="92.79 33.38 94.07 32.1 94.07 32.1 92.79 33.38 92.79 33.38"/>
        <path class="cls-3" d="M84.78,38.94L83.61,40.1a0.9,0.9,0,0,0-.23.87,0.88,0.88,0,0,0,0,.11,0.91,0.91,0,0,0,0,.11l0.07,0.1,0.07,0.09,0.1,0.08,0.09,0.06,0.12,0.05,0.1,0a0.92,0.92,0,0,0,.87-0.23l7.89-7.88q-0.63-.66-1.28-1.28l-6.73,6.71h0Z" transform="translate(0 -0.12)"/>
        <path class="cls-3" d="M102.36,21.77a0.9,0.9,0,0,0-.64.27l-8.62,8.61-0.3.3q0.66,0.63,1.28,1.28L103,23.31a0.9,0.9,0,0,0,.26-0.74l-0.08-.72-0.72-.08h-0.1Z" transform="translate(0 -0.12)"/>
        <path class="cls-3" d="M92.79,30.94l-1.28,1.28q0.66,0.63,1.28,1.28l1.28-1.28Q93.45,31.57,92.79,30.94Z" transform="translate(0 -0.12)"/>
        <path class="cls-3" d="M73.27,7.73a0.9,0.9,0,0,0-.08-0.14,1.06,1.06,0,0,0-.12-0.15l-0.13-.1-0.16-.09-0.17,0-0.17,0-0.18,0-0.18.05-0.15.08-0.14.11a1,1,0,0,0-.11.14,0.69,0.69,0,0,0-.08.15,1,1,0,0,0-.06.18,0.92,0.92,0,0,0,0,.18,0.91,0.91,0,0,0,0,.18,0.85,0.85,0,0,0,.05.16,0.9,0.9,0,0,0,.09.17l0.11,0.13,0.14,0.12,0.15,0.08L72.26,9a0.86,0.86,0,0,0,.35,0l0.17,0,0.17-.09,0.13-.11,0.12-.14,0.08-.16a1.06,1.06,0,0,0,0-.16,1.25,1.25,0,0,0,0-.18,1.3,1.3,0,0,0,0-.19A1.37,1.37,0,0,0,73.27,7.73Z" transform="translate(0 -0.12)"/>
        <path class="cls-3" d="M74.46,0.69A1,1,0,0,0,74.37.52l-0.11-.13-0.13-.11L74,0.2l-0.18-.05-0.17,0-0.17,0-0.17.05-0.15.08A0.71,0.71,0,0,0,73,.39a0.78,0.78,0,0,0-.11.14,1,1,0,0,0-.09.16,1.08,1.08,0,0,0,0,.17,0.89,0.89,0,0,0,0,.18,0.87,0.87,0,0,0,0,.18,1.11,1.11,0,0,0,.05.18,1.22,1.22,0,0,0,.08.16L73,1.67l0.14,0.11,0.16,0.09,0.17,0a0.85,0.85,0,0,0,.35,0L74,1.87l0.16-.09,0.13-.11,0.12-.14a1.21,1.21,0,0,0,.08-0.15,0.94,0.94,0,0,0,.05-0.18,0.9,0.9,0,0,0,0-.17,0.92,0.92,0,0,0,0-.18A0.87,0.87,0,0,0,74.46.69Z" transform="translate(0 -0.12)"/>
        <path class="cls-3" d="M50.8,8.72a1,1,0,0,0-.2-0.29l-0.14-.11L50.3,8.22l-0.16,0L50,8.16l-0.18,0-0.18.05-0.16.09-0.14.12-0.11.13a1,1,0,0,0-.08.15,0.87,0.87,0,0,0-.05.18,0.85,0.85,0,0,0,0,.17,0.92,0.92,0,0,0,.27.64l0.14,0.12L49.6,9.9,49.79,10a1.38,1.38,0,0,0,.37,0L50.3,9.9l0.16-.08,0.14-.11a0.92,0.92,0,0,0,.27-0.64,0.84,0.84,0,0,0,0-.17A1.11,1.11,0,0,0,50.8,8.72Z" transform="translate(0 -0.12)"/>
        <path class="cls-3" d="M48.81,2.78a0.91,0.91,0,0,0,.27-0.64,0.83,0.83,0,0,0,0-.17,0.76,0.76,0,0,0,0-.17,0.8,0.8,0,0,0-.08-0.16,0.87,0.87,0,0,0-.76-0.39,0.92,0.92,0,0,0-.65.25l-0.11.13a1,1,0,0,0-.09.17,1,1,0,0,0,0,.16,0.87,0.87,0,0,0,0,.17,0.91,0.91,0,0,0,.26.64l0.14,0.11L47.81,3,48,3a0.92,0.92,0,0,0,.35,0L48.51,3l0.17-.09Z" transform="translate(0 -0.12)"/>
        <path class="cls-3" d="M30.66,18.73l-0.09-.16-0.11-.13-0.13-.1-0.16-.09L30,18.19l-0.17,0-0.18,0-0.18.05-0.15.09-0.13.11-0.11.14L29,18.74a1.17,1.17,0,0,0,0,.17,0.9,0.9,0,0,0,0,.18,0.86,0.86,0,0,0,0,.17,1.1,1.1,0,0,0,.05.18,0.88,0.88,0,0,0,.08.14,0.86,0.86,0,0,0,.11.14A0.91,0.91,0,0,0,30,20l0.16,0,0.16-.09,0.14-.11a0.91,0.91,0,0,0,.27-0.64,0.87,0.87,0,0,0,0-.18A1.14,1.14,0,0,0,30.66,18.73Z" transform="translate(0 -0.12)"/>
        <path class="cls-3" d="M25.36,12.59a0.91,0.91,0,0,0-.64.25,0.92,0.92,0,0,0-.27.64,0.93,0.93,0,0,0,.27.65,1,1,0,0,0,1.28,0A0.89,0.89,0,0,0,25.36,12.59Z" transform="translate(0 -0.12)"/>
        <path class="cls-3" d="M16.36,36.07a0.82,0.82,0,0,0-.08-0.16l-0.12-.14L16,35.65l-0.15-.08-0.18-.06H15.52l-0.18,0-0.16.05L15,35.65l-0.15.12a1,1,0,0,0-.11.14,1,1,0,0,0-.08.16,1.11,1.11,0,0,0,0,.17,0.88,0.88,0,0,0,0,.18,0.85,0.85,0,0,0,0,.17,1.11,1.11,0,0,0,.05.18,1,1,0,0,0,.08.15,0.86,0.86,0,0,0,.11.14L15,37.15l0.16,0.09,0.17,0.05A0.92,0.92,0,0,0,16.16,37l0.12-.14a1,1,0,0,0,.08-0.15,0.87,0.87,0,0,0,.05-0.18,0.84,0.84,0,0,0,0-.17,0.86,0.86,0,0,0,0-.18A0.83,0.83,0,0,0,16.36,36.07Z" transform="translate(0 -0.12)"/>
        <path class="cls-3" d="M8.32,33.44a0.92,0.92,0,0,0,.09.17l0.11,0.13a1,1,0,0,0,.83.24l0.17-.05,0.14-.08,0.14-.11,0.11-.14A0.87,0.87,0,0,0,10,33.44a0.84,0.84,0,0,0,.05-0.17,0.85,0.85,0,0,0,0-.17,0.92,0.92,0,0,0-.27-0.64,0.94,0.94,0,0,0-.65-0.26L9,32.21l-0.16.05-0.17.09-0.14.12a0.91,0.91,0,0,0-.26.64,0.85,0.85,0,0,0,0,.17A0.81,0.81,0,0,0,8.32,33.44Z" transform="translate(0 -0.12)"/>
        <path class="cls-3" d="M2.35,56.71a0.88,0.88,0,0,0-.91.89,0.84,0.84,0,0,0,0,.17,1.14,1.14,0,0,0,.06.19,1,1,0,0,0,.08.14,0.83,0.83,0,0,0,.11.14l0.14,0.11L2,58.44l0.17,0A0.92,0.92,0,0,0,3,58.24,0.83,0.83,0,0,0,3.1,58.1,0.89,0.89,0,0,0,3.18,58a0.91,0.91,0,0,0,.05-0.18,0.84,0.84,0,0,0,0-.17A0.88,0.88,0,0,0,2.35,56.71Z" transform="translate(0 -0.12)"/>
        <path class="cls-3" d="M66.17,121.53a0.92,0.92,0,0,0-.65.25l-0.11.14a0.76,0.76,0,0,0-.08.15,0.67,0.67,0,0,0-.05.16,0.9,0.9,0,0,0,0,.19,0.87,0.87,0,0,0,0,.18,0.67,0.67,0,0,0,0,.16,0.78,0.78,0,0,0,.08.16l0.12,0.15,0.14,0.11,0.16,0.09,0.16,0a0.83,0.83,0,0,0,.35,0l0.18-.05,0.15-.08,0.15-.12A0.89,0.89,0,0,0,66.17,121.53Z" transform="translate(0 -0.12)"/>
        <path class="cls-3" d="M10.41,58s0,0,0,0a0.88,0.88,0,0,0,0-.15h0a0.93,0.93,0,0,0,0-.16h0a0.94,0.94,0,0,0-.08-0.15l0,0-0.07-.09a0.9,0.9,0,0,0-.23-0.18l-0.06,0a0.91,0.91,0,0,0-.28-0.07H9.37a0.93,0.93,0,0,0-.46.21h0a0.91,0.91,0,0,0-.2.26v0a0.89,0.89,0,0,0,0,.12v0a0.9,0.9,0,0,0,0,.14v0a0.91,0.91,0,0,0,0,.14v0a0.91,0.91,0,0,0,0,.11l0,0.07,0,0.1,0,0.06,0.06,0.08,0,0.05,0.08,0.08,0.06,0,0.06,0,0.11,0.06h0l0.13,0H9.53a0.91,0.91,0,0,0,.31-0.06h0a0.91,0.91,0,0,0,.27-0.17h0a0.91,0.91,0,0,0,.18-0.24l0,0a0.9,0.9,0,0,0,.07-0.27S10.41,58.07,10.41,58Z" transform="translate(0 -0.12)"/>
        <path class="cls-3" d="M65,114.88l0,0.06a0.92,0.92,0,0,0,0,.12v0.05a0.9,0.9,0,0,0,0,.12s0,0,0,.06a0.89,0.89,0,0,0,0,.14v0a0.83,0.83,0,0,0,0,.13v0a0.91,0.91,0,0,0,.07.14l0,0,0.11,0.13L65.33,116h0l0.17,0.09,0.17,0h0.25l0.14,0,0.11,0,0.07,0,0.12-.07,0,0a0.91,0.91,0,0,0,.21-0.22l0-.09,0-.07,0-.09,0-.07a0.87,0.87,0,0,0,0-.12s0,0,0-.06a0.9,0.9,0,0,0,0-.11s0,0,0-.07l0-.1,0-.07,0-.08-0.05-.08,0,0-0.08-.09a0.9,0.9,0,0,0-.25-0.17l0,0a0.92,0.92,0,0,0-.31-0.06H65.66l-0.09,0-0.08,0-0.09,0-0.07,0-0.06,0-0.07.07-0.06.07-0.05.07Z" transform="translate(0 -0.12)"/>
        <path class="cls-3" d="M88.47,109.31a1.17,1.17,0,0,0-.09-0.17,0.79,0.79,0,0,0-.1-0.12,0.91,0.91,0,0,0-.65-0.26h0A0.91,0.91,0,0,0,87,109a0.89,0.89,0,0,0-.11.14,0.9,0.9,0,0,0-.08.15,0.93,0.93,0,0,0-.07.35,0.87,0.87,0,0,0,0,.17,0.8,0.8,0,0,0,0,.16,0.71,0.71,0,0,0,.09.16,0.83,0.83,0,0,0,.11.14,0.94,0.94,0,0,0,1.28,0,0.78,0.78,0,0,0,.11-0.14,0.84,0.84,0,0,0,.09-0.16,0.8,0.8,0,0,0,.05-0.17,0.87,0.87,0,0,0,0-.17,0.85,0.85,0,0,0,0-.18A0.81,0.81,0,0,0,88.47,109.31Z" transform="translate(0 -0.12)"/>
        <path class="cls-3" d="M91.33,115.3l-0.16-.09-0.16,0-0.18,0-0.17,0-0.18.05-0.15.08-0.14.11-0.11.14a1,1,0,0,0-.09.16,1.35,1.35,0,0,0,0,.17,0.86,0.86,0,0,0,0,.17,0.91,0.91,0,0,0,.27.64l0.14,0.11,0.15,0.08,0.17,0.05a0.86,0.86,0,0,0,.36,0l0.17,0,0.17-.09,0.13-.11a0.89,0.89,0,0,0,.13-0.15,0.91,0.91,0,0,0,.08-0.15,0.94,0.94,0,0,0,.07-0.36,0.91,0.91,0,0,0-.27-0.64A0.86,0.86,0,0,0,91.33,115.3Z" transform="translate(0 -0.12)"/>
        <path class="cls-3" d="M105.24,94.79a0.84,0.84,0,0,0-.64.25,0.91,0.91,0,0,0-.27.64,0.86,0.86,0,0,0,0,.17,0.87,0.87,0,0,0,0,.17,0.89,0.89,0,0,0,.09.17,0.79,0.79,0,0,0,.11.13,0.94,0.94,0,0,0,1.28,0,0.78,0.78,0,0,0,.11-0.13,0.89,0.89,0,0,0,.09-0.16,1.13,1.13,0,0,0,.05-0.17,0.84,0.84,0,0,0,0-.17A0.88,0.88,0,0,0,105.24,94.79Z" transform="translate(0 -0.12)"/>
        <path class="cls-3" d="M110.77,99.34a0.89,0.89,0,0,0-.64,1.53l0.14,0.11,0.15,0.08,0.18,0.06a1.23,1.23,0,0,0,.36,0l0.16-.05,0.17-.09,0.13-.11a0.91,0.91,0,0,0,.27-0.64A0.88,0.88,0,0,0,110.77,99.34Z" transform="translate(0 -0.12)"/>
        <path class="cls-3" d="M116.46,75.41a1.23,1.23,0,0,0-.08-0.15l-0.11-.13L116.13,75,116,74.93l-0.17,0-0.17,0-0.18,0-0.16,0-0.17.09-0.12.1a1,1,0,0,0-.12.15,0.85,0.85,0,0,0-.08.15,0.68,0.68,0,0,0-.05.16,0.94,0.94,0,0,0,0,.19,0.91,0.91,0,0,0,.27.64,0.92,0.92,0,0,0,.81.25l0.18-.05,0.15-.08a0.72,0.72,0,0,0,.15-0.11,0.91,0.91,0,0,0,.27-0.64,0.86,0.86,0,0,0,0-.18A1.12,1.12,0,0,0,116.46,75.41Z" transform="translate(0 -0.12)"/>
        <path class="cls-3" d="M122.54,76.79a0.88,0.88,0,0,0-.91.89,0.86,0.86,0,0,0,0,.18,1.21,1.21,0,0,0,.06.18,1,1,0,0,0,.08.15,0.86,0.86,0,0,0,.11.14L122,78.43l0.16,0.09,0.17,0a1.05,1.05,0,0,0,.82-0.25,0.87,0.87,0,0,0,.11-0.14,1,1,0,0,0,.08-0.15,0.64,0.64,0,0,0,.05-0.16,0.94,0.94,0,0,0,0-.19A0.88,0.88,0,0,0,122.54,76.79Z" transform="translate(0 -0.12)"/>
        <path class="cls-3" d="M117.84,53a0.78,0.78,0,0,0-.08-0.16l-0.12-.15-0.14-.11-0.16-.08-0.17,0-0.17,0-0.17,0-0.18.06-0.15.08-0.14.11a1,1,0,0,0-.11.14,1,1,0,0,0-.09.16,1.26,1.26,0,0,0,0,.17,0.85,0.85,0,0,0,0,.17,0.87,0.87,0,0,0,0,.17,1.18,1.18,0,0,0,.05.18,0.94,0.94,0,0,0,.08.15,0.82,0.82,0,0,0,.11.14l0.14,0.11,0.17,0.09,0.16,0a0.93,0.93,0,0,0,.82-0.25l0.11-.13a0.77,0.77,0,0,0,.08-0.16,0.87,0.87,0,0,0,.06-0.18,0.85,0.85,0,0,0,0-.36A0.87,0.87,0,0,0,117.84,53Z" transform="translate(0 -0.12)"/>
        <path class="cls-3" d="M124.09,51.41a0.88,0.88,0,0,0-.91.89,0.84,0.84,0,0,0,0,.18,1.16,1.16,0,0,0,.05.18,1,1,0,0,0,.08.15,1.05,1.05,0,0,0,.12.14l0.13,0.11,0.15,0.08,0.18,0.06h0.17a0.93,0.93,0,0,0,.64-0.26l0.12-.14a0.77,0.77,0,0,0,.08-0.15A0.92,0.92,0,0,0,125,52.3,0.88,0.88,0,0,0,124.09,51.41Z" transform="translate(0 -0.12)"/>
    </g>
</svg>
