<svg xmlns="http://www.w3.org/2000/svg" id="target" viewBox="0 0 210 133.49" xml:space="preserve" width="100%" height="100%" preserveAspectRatio="xMaxYMax">
    <defs>
        <style>
            #target .cls-1 {
                fill: #26c6da;
            }

            #target .cls-2 {
                fill: #ffca28;
            }

            #target .cls-3 {
                fill: #1976d2;
            }
        </style>
    </defs>
    <title>Vector Smart Object1</title>
    <g>
        <path class="cls-1" d="M106.69,40.75a37.8,37.8,0,1,0,0,53.45A37.83,37.83,0,0,0,106.69,40.75ZM98.31,85.81a25.94,25.94,0,1,1,0-36.68A26,26,0,0,1,98.31,85.81Z" transform="translate(0 0)"/>
        <path class="cls-1" d="M126.66,20.78a66,66,0,1,0,0,93.37A66.09,66.09,0,0,0,126.66,20.78Zm-10,83.42a52,52,0,1,1,0-73.47A52,52,0,0,1,116.71,104.2Z" transform="translate(0 0)"/>
        <path class="cls-2" d="M88.3,59.14a11.79,11.79,0,1,0,0,16.67A11.8,11.8,0,0,0,88.3,59.14Z" transform="translate(0 0)"/>
        <path class="cls-3" d="M80.26,66.89h0L38.57,33.38l2.19-13.2a0.87,0.87,0,0,0-.31-0.82L16.58,0.19a0.87,0.87,0,0,0-1.39.46L12,13.15l-0.11.06L0.48,19a0.87,0.87,0,0,0-.15,1.46L17.09,33.89l0,0,7.06,5.67a0.87,0.87,0,0,0,.87.13l12.42-5,0.13,0.1L79.17,68.25a0.89,0.89,0,0,0,1.22-.13A0.87,0.87,0,0,0,80.26,66.89ZM31.87,14.7l-2,11.69-5.27-4.23,2.31-11.44ZM25.39,9.5L23.08,20.94l-4-3.2,2.6-11.21Zm-8.85-7.1,3.65,2.93-2.6,11.21-3.88-3.12ZM2.47,19.92l10.15-5.15,3.88,3.12-10.39,5Zm5.16,4.14L18,19.1l4,3.2L11.32,27Zm5.22,4.19,10.67-4.73,5.27,4.23-11,4.48Zm12,9.66-5.53-4.44,11-4.48,5.58,4.48ZM37,32.12l-5.58-4.48,2-11.69L39,20.39Z" transform="translate(0 0)"/>
    </g>
</svg>
