<?xml version="1.0" encoding="UTF-8" standalone="no"?>
<svg width="100%" height="127px" viewBox="0 0 125 127" version="1.1" xmlns="http://www.w3.org/2000/svg" xmlns:xlink="http://www.w3.org/1999/xlink">
    <!-- Generator: sketchtool 40.2 (33826) - http://www.bohemiancoding.com/sketch -->
    <title>2421672F-44ED-43E1-BE39-DC62D2E910CB</title>
    <desc>Created with sketchtool.</desc>
    <defs></defs>
    <g id="Desktop" stroke="none" stroke-width="1" fill="none" fill-rule="evenodd">
        <g id="HomePage-desktop-1600" transform="translate(-1066.000000, -1206.000000)">
            <g id="homepage" transform="translate(-3.000000, 68.000000)">
                <g id="methodology" transform="translate(3.000000, 470.000000)">
                    <g id="act" transform="translate(1066.000000, 668.000000)">
                        <polygon id="Fill-1" fill="#26C6DA" points="89.8583125 17.8008161 92.8376875 31.0048452 106.673937 17.1689876 105.241437 4.32555694"></polygon>
                        <polygon id="Fill-2" fill="#26C6DA" points="107.743188 18.2377215 93.9063125 32.0735791 107.111313 35.0521101 120.587563 19.6713661"></polygon>
                        <g id="Group-96" transform="translate(0.000000, 0.132490)">
                            <path d="M63.042875,34.8352511 C48.3035,34.8352511 36.31225,46.8249945 36.31225,61.5632858 C36.31225,76.302202 48.3035,88.2925704 63.042875,88.2925704 C77.78225,88.2925704 89.7735,76.302202 89.7735,61.5632858 C89.7735,46.8249945 77.78225,34.8352511 63.042875,34.8352511" id="Fill-3" fill="#FFCA28"></path>
                            <path d="M63.0428125,77.0492096 C54.5034375,77.0492096 47.5565625,70.1022204 47.5565625,61.5634733 C47.5565625,53.0253511 54.5034375,46.0783619 63.0428125,46.0783619 C71.5821875,46.0783619 78.5290625,53.0253511 78.5290625,61.5634733 C78.5290625,70.1022204 71.5821875,77.0492096 63.0428125,77.0492096 M63.0428125,44.2691199 C53.5059375,44.2691199 45.7471875,52.0272995 45.7471875,61.5634733 C45.7471875,71.0996471 53.5059375,78.8590765 63.0428125,78.8590765 C72.5796875,78.8590765 80.3390625,71.0996471 80.3390625,61.5634733 C80.3390625,52.0272995 72.5796875,44.2691199 63.0428125,44.2691199" id="Fill-5" fill="#1976D2"></path>
                            <path d="M104.332875,20.6251084 C104.156625,20.4488714 103.92475,20.3607529 103.6935,20.3607529 C103.461625,20.3607529 103.22975,20.4488714 103.0535,20.6251084 L62.751625,60.9233953 C62.3985,61.2764944 62.3985,61.8508271 62.751625,62.2033012 C63.0935,62.545776 63.68975,62.5445261 64.031,62.2033012 L104.332875,21.9043894 C104.504125,21.733152 104.597875,21.5062937 104.597875,21.2650614 C104.5985,21.0238291 104.504125,20.7957209 104.332875,20.6251084" id="Fill-7" fill="#1976D2"></path>
                            <g id="Group-11" transform="translate(0.000000, 19.373575)" fill="#1976D2">
                                <path d="M62.4695,90.0633777 L62.6945,90.2802367 L54.77325,98.5140063 L54.54825,98.2977722 C53.18825,96.9884935 49.842,93.8524741 48.136375,93.0137858 C47.03325,92.4713256 44.733875,91.9776119 43.503875,92.0207338 C42.272,92.0626057 39.932,92.7350562 38.86825,93.3537608 C37.820125,93.962466 36.1045,95.634843 35.468875,96.6666422 C34.472625,98.2833983 33.312,102.726197 32.858875,104.561062 L32.783875,104.864789 L21.692625,102.121866 L21.767625,101.818763 C22.22075,99.9901478 23.26075,95.5329755 23.13325,93.6437394 C23.05325,92.4350783 22.316375,90.1577458 21.6745,89.1321962 C21.01825,88.0816484 19.2545,86.3855231 18.180125,85.7699434 C17.128875,85.1681126 14.825125,84.5206602 13.6145,84.4862878 C11.720125,84.4200426 7.3045,85.6462025 5.497625,86.1686641 L5.197625,86.2549077 L2.027,75.2782148 L2.327625,75.1913462 C4.14325,74.6682597 8.53575,73.3377325 10.11575,72.2784354 C11.122,71.60411 12.726375,69.8248658 13.2945,68.7524447 C13.87075,67.6656496 14.452625,65.3020734 14.447625,64.069039 C14.442,62.8610029 13.850125,60.5449232 13.275125,59.4793765 C12.37325,57.8126241 9.108875,54.5866113 7.747,53.2779575 L7.522,53.0610984 L15.44325,44.8273289 L15.668875,45.0441879 C17.02825,46.3534667 20.3745,49.4888611 22.080125,50.3281744 C22.112,50.3437983 22.153875,50.3587971 22.187625,50.373796 C23.2795,55.8802662 25.44825,61.0023895 28.468875,65.5101831 C25.120125,69.1180428 25.262,74.7763767 28.823875,78.2023748 C30.521375,79.8353798 32.751375,80.7340637 35.10325,80.7340637 L35.283875,80.7321888 C37.656375,80.6871921 39.8695,79.7328873 41.537625,78.0517609 C46.138875,80.865304 51.321375,82.8182854 56.858875,83.6863466 C56.886375,83.7432174 56.913875,83.8094625 56.941375,83.8607088 C57.845125,85.5312109 61.10825,88.7547239 62.4695,90.0633777 M101.665125,26.5849202 L100.30075,26.2768179 C102.4145,31.1602088 103.592,36.5391883 103.592,42.1893978 C103.592,64.355268 85.55825,82.388317 63.391375,82.388317 C61.612,82.388317 59.86325,82.2595765 58.1445,82.034593 C57.481375,81.9477244 56.82325,81.844607 56.17075,81.7258657 C51.3195,80.8421807 46.767,79.0941843 42.687,76.6324903 C42.17075,76.3212631 41.66325,75.996287 41.162625,75.6625616 C40.920125,76.0281597 40.647,76.3768841 40.336375,76.6993603 C40.218875,76.8212264 40.093875,76.9330932 39.9695,77.0455849 C38.672,78.2217484 37.017,78.8891993 35.248875,78.9235718 C35.210125,78.9241968 35.171375,78.9241968 35.13325,78.9241968 C33.230125,78.9241968 31.440125,78.2073745 30.078875,76.8987207 C28.6845,75.5569443 27.896375,73.7502022 27.858875,71.8109698 C27.8245,70.0454746 28.422625,68.3693478 29.54075,67.0306963 C29.65075,66.898831 29.760125,66.7663407 29.880125,66.6413499 C30.187625,66.3219984 30.522625,66.0395192 30.873875,65.7857878 C30.5195,65.2989486 30.175125,64.8052349 29.842625,64.3027719 C27.20075,60.3080656 25.256375,55.8158959 24.175125,51 C24.028875,50.3494228 23.898875,49.6925961 23.7845,49.0307698 C23.401375,46.8053084 23.190125,44.5223513 23.190125,42.1893978 C23.190125,20.0247776 41.2245,1.9923535 63.391375,1.9923535 C69.042625,1.9923535 74.422,3.16976693 79.30575,5.28398647 L78.997625,3.91846188 C78.945125,3.68472906 78.99075,3.44474671 79.11325,3.24663628 C74.25325,1.27740607 68.948875,0.183111536 63.391375,0.183111536 C40.227,0.183111536 21.38075,19.0273509 21.38075,42.1893978 C21.38075,44.1636277 21.52825,46.103485 21.792625,48.0058452 C19.94325,46.6421954 17.168875,43.9998897 16.06325,42.8999706 C15.886375,42.7249835 15.651375,42.6531137 15.416375,42.6368649 C15.1745,42.6393648 14.940125,42.7399824 14.77325,42.9143445 L5.583875,52.4655172 C5.417,52.6392545 5.3245,52.877362 5.332,53.1179693 C5.33825,53.3592015 5.44325,53.5916844 5.6195,53.7547974 C7.0195,55.0565767 10.837625,58.7769282 11.68325,60.3399382 C12.125125,61.1573781 12.63325,63.1478568 12.637625,64.0771634 C12.642,65.0270936 12.140125,67.0675686 11.69575,67.9062569 C11.258875,68.7286964 9.880125,70.257959 9.107625,70.7760459 C7.337,71.9634586 0.735125,73.7602015 0.66825,73.7777002 C0.435125,73.8408205 0.233875,73.997059 0.11575,74.2070436 C-0.002375,74.4176531 -0.03175,74.6707595 0.035125,74.9013675 L3.71325,87.6348063 C3.780125,87.8666642 3.9395,88.0653996 4.151375,88.1797662 C4.366375,88.2953827 4.6145,88.3203809 4.84825,88.2491361 C4.912625,88.2291376 11.237625,86.2936549 13.457,86.2936549 C13.493875,86.2936549 13.530125,86.2936549 13.5645,86.2949048 C14.493875,86.3217778 16.473875,86.8786119 17.280125,87.3410779 C18.1095,87.814793 19.63325,89.2796853 20.1395,90.0908757 C20.63325,90.8801926 21.266375,92.8369238 21.32825,93.7643556 C21.470125,95.8891993 19.73075,102.482465 19.71325,102.549335 C19.651375,102.781818 19.686375,103.034299 19.8095,103.241784 C19.931375,103.448643 20.136375,103.601132 20.371375,103.659253 L33.237625,106.840269 C33.477625,106.89964 33.7245,106.859018 33.927625,106.732777 C34.133875,106.606536 34.282625,106.399676 34.336375,106.164694 C34.351375,106.097199 35.8895,99.4339387 37.0095,97.6159474 C37.49825,96.8228807 38.972625,95.3861113 39.777,94.9180207 C40.597625,94.4418057 42.61575,93.8612234 43.566375,93.8281009 C44.50075,93.7962282 46.51575,94.2330711 47.337625,94.6380413 C49.25075,95.5785972 54.1045,100.391993 54.15325,100.44074 C54.32325,100.610727 54.552,100.685097 54.802625,100.70447 C55.042,100.70197 55.276375,100.600728 55.443875,100.426991 L64.632625,90.875818 C64.800125,90.7020807 64.892,90.4645982 64.885125,90.2233659 C64.87825,89.9821337 64.77325,89.7502757 64.597,89.5859128 C63.440125,88.5097419 60.63575,85.7843173 59.21825,83.9888244 C60.591375,84.1250643 61.982625,84.196934 63.391375,84.196934 C86.55575,84.196934 105.401375,65.3526947 105.401375,42.1893978 C105.401375,36.6323064 104.307,31.3283214 102.337625,26.4686788 C102.138875,26.5899199 101.897625,26.6374164 101.665125,26.5849202" id="Fill-9"></path>
                            </g>
                            <path d="M32.211125,87.420447 C31.983625,87.5848099 31.767375,87.7672965 31.568,87.9741563 C31.466125,88.0803985 31.3705,88.1916403 31.27925,88.305382 C30.59925,89.1571943 30.23925,90.2108668 30.2605,91.3176605 C30.284875,92.5719432 30.794875,93.7406073 31.69675,94.6080435 C32.59425,95.4711051 33.786125,95.9285714 35.041125,95.9173223 C36.1505,95.8960738 37.193625,95.4911036 38.021125,94.7711565 C38.127375,94.6786633 38.231125,94.5824204 38.3305,94.479303 C38.533,94.2686935 38.711125,94.0418352 38.868,93.8037277 C36.319875,92.0482317 34.068,89.8915153 32.211125,87.420447" id="Fill-12" fill="#1976D2"></path>
                            <path d="M83.0541875,41.2539666 C82.9748125,40.9446144 83.0604375,40.6158885 83.2873125,40.3890302 L84.4485625,39.2284906 L81.3804375,25.6313653 C80.6991875,25.2888905 80.0085625,24.9614146 79.3060625,24.657062 L83.0441875,41.2277186 C83.0466875,41.2370929 83.0516875,41.2445923 83.0541875,41.2539666" id="Fill-14" fill="#1976D2"></path>
                            <path id="Fill-16" fill="#1976D2"></path>
                            <path id="Fill-18" fill="#1976D2"></path>
                            <path id="Fill-20" fill="#1976D2"></path>
                            <path id="Fill-22" fill="#1976D2"></path>
                            <path d="M99.299,7.28627674 L101.014625,22.6626461 L92.7315,30.9457871 L101.32275,22.3551687 C101.494625,22.1839313 101.722125,22.0895633 101.959625,22.0895633 C101.994,22.0895633 102.028375,22.0914381 102.06275,22.0958128 L102.7815,22.1764319 L100.90525,5.36391809 C100.86775,5.02769282 100.649,4.74271377 100.333375,4.61959782 C100.2265,4.57835086 100.115875,4.55835233 100.00525,4.55835233 C99.79025,4.55835233 99.578375,4.63522167 99.41025,4.78271083 L79.284625,22.4126645 C79.21525,22.4732851 79.159625,22.5439049 79.113375,22.6201493 C79.718375,22.8651312 80.3165,23.1244872 80.90775,23.3969671 L99.299,7.28627674 Z" id="Fill-24" fill="#1976D2"></path>
                            <path d="M78.9978125,23.2921623 L79.3059375,24.657062 C80.0090625,24.9614146 80.6990625,25.2888905 81.3803125,25.6313653 L80.8815625,23.419653 L80.9078125,23.3971546 C80.3165625,23.1246747 79.7184375,22.8653187 79.1128125,22.6197118 C78.9909375,22.8184472 78.9446875,23.0578046 78.9978125,23.2921623" id="Fill-26" fill="#1976D2"></path>
                            <path id="Fill-28" fill="#1976D2"></path>
                            <path id="Fill-30" fill="#1976D2"></path>
                            <path id="Fill-32" fill="#1976D2"></path>
                            <path id="Fill-34" fill="#1976D2"></path>
                            <polygon id="Fill-36" fill="#1976D2" points="84.4485 39.2281781 84.4485 39.2281781 91.149125 32.5280457"></polygon>
                            <path d="M92.4288125,33.8075766 L92.4288125,33.8075766 L84.5669375,41.6682487 C84.3444375,41.8919822 84.0063125,41.9813506 83.6994375,41.9013565 C83.7094375,41.9038563 83.7181875,41.9094809 83.7281875,41.9119807 L100.300688,45.6504558 C99.9963125,44.9473825 99.6694375,44.2568083 99.3263125,43.5756084 L85.7281875,40.507709 L92.4288125,33.8075766 Z" id="Fill-38" fill="#1976D2"></path>
                            <path d="M92.4279375,31.2493273 L92.7316875,30.9455996 L92.4279375,31.2493273 Z" id="Fill-40" fill="#1976D2"></path>
                            <path d="M120.176375,25.5478715 C120.398875,25.2935152 120.461375,24.9391662 120.338875,24.6235644 C120.216375,24.3092126 119.932,24.0898537 119.596375,24.0523564 L102.781375,22.1762444 L102.861375,22.8949415 C102.892625,23.1692964 102.797625,23.4392765 102.602,23.6348871 L93.707625,32.5286082 L93.707625,32.5292331 L102.2945,23.9429895 L117.67325,25.6591133 L101.56075,44.0483861 C101.83325,44.6395927 102.092,45.2370487 102.337625,45.8420043 C102.413875,45.7951327 102.485125,45.7401368 102.545125,45.6713918 L120.176375,25.5478715 Z" id="Fill-42" fill="#1976D2"></path>
                            <path d="M101.538062,44.0743217 L99.3261875,43.5756084 C99.6693125,44.2568083 99.9961875,44.9473825 100.301187,45.6504558 L101.664937,45.9585582 C101.897437,46.0110543 102.139312,45.9635578 102.337437,45.8423167 C102.092437,45.2367363 101.833062,44.6392802 101.560562,44.0480737 L101.538062,44.0743217 Z" id="Fill-44" fill="#1976D2"></path>
                            <polygon id="Fill-46" fill="#1976D2" points="91.149125 32.5281082 91.149125 32.5281082 92.427875 31.2494522"></polygon>
                            <path d="M92.4288125,33.8075766 L93.7075625,32.5289207 L93.7075625,32.5289207 L92.4288125,33.8075766 L92.4288125,33.8075766" id="Fill-48" fill="#1976D2"></path>
                            <path d="M84.4485,39.2281781 L83.28725,40.3893427 C83.061,40.6155761 82.97475,40.9449268 83.054125,41.2536541 C83.064125,41.2936512 83.081,41.3305235 83.096625,41.3673958 C83.111625,41.404893 83.125375,41.4430152 83.14475,41.4773877 C83.165375,41.5130101 83.191625,41.5442578 83.216625,41.5767554 C83.23975,41.6073781 83.261625,41.6386258 83.2885,41.6654989 C83.3185,41.6954967 83.352875,41.7198699 83.386625,41.744868 C83.416,41.7673664 83.444125,41.7911146 83.476625,41.8098632 C83.514125,41.8317366 83.556,41.8467355 83.59725,41.8636093 C83.631,41.8767333 83.664125,41.8923572 83.69975,41.9017315 C84.006625,41.9811007 84.344125,41.8923572 84.566625,41.6686236 L92.4285,33.8073267 C92.011625,33.3717337 91.585375,32.9448901 91.149125,32.5280457 L84.4485,39.2281781 L84.4485,39.2281781 Z" id="Fill-50" fill="#1976D2"></path>
                            <path d="M101.959812,22.0898757 C101.722312,22.0898757 101.494187,22.1836189 101.322312,22.3554812 L92.7316875,30.9454746 L92.4279375,31.2492023 C92.8635625,31.6666716 93.2898125,32.0928902 93.7073125,32.5284832 L102.602312,23.6353871 C102.797937,23.4391515 102.892312,23.1697963 102.861687,22.8948166 L102.781062,22.1761194 L102.062937,22.0961253 C102.028562,22.0917506 101.994187,22.0898757 101.959812,22.0898757" id="Fill-52" fill="#1976D2"></path>
                            <path d="M92.4279375,31.2493273 L91.1491875,32.5279832 C91.5854375,32.9448276 92.0116875,33.3716712 92.4285625,33.8072642 L93.7073125,32.5286082 C93.2898125,32.0930152 92.8635625,31.6667966 92.4279375,31.2493273" id="Fill-54" fill="#1976D2"></path>
                            <path d="M72.984,8.08453055 C72.965875,8.04515844 72.939,7.99328726 72.905875,7.9451658 C72.865875,7.88329535 72.824,7.83704875 72.783375,7.79330196 C72.749,7.75892949 72.699625,7.72268216 72.650875,7.68955959 C72.598375,7.65331226 72.542125,7.62706419 72.487125,7.60206602 C72.444625,7.58581722 72.384,7.56644364 72.322125,7.55331961 C72.265875,7.54207044 72.208375,7.5358209 72.1515,7.5358209 C72.093375,7.5358209 72.03525,7.54207044 71.975875,7.55394456 C71.9165,7.56644364 71.855875,7.58644217 71.79775,7.60831557 C71.759,7.62706419 71.70275,7.65331226 71.653375,7.68705978 C71.593375,7.72643188 71.55025,7.76080435 71.510875,7.80080141 C71.4765,7.83704875 71.43525,7.88329535 71.4015,7.93641644 C71.364,7.99016249 71.339625,8.03703404 71.32025,8.08703037 C71.292125,8.15265054 71.273375,8.20827145 71.2615,8.26576722 C71.25025,8.32263804 71.244,8.38388354 71.244,8.44075436 C71.244,8.5013749 71.25025,8.55887067 71.262125,8.61886626 C71.273375,8.67198735 71.2915,8.72885817 71.314625,8.78072936 C71.339,8.84447467 71.365875,8.89447099 71.40025,8.94821704 C71.429625,8.99008896 71.47025,9.03633556 71.513375,9.08008235 C71.554625,9.12382913 71.599,9.16195133 71.6515,9.19757371 C71.69025,9.22132196 71.74525,9.25256966 71.80025,9.27444306 C71.854,9.29756636 71.904625,9.31319021 71.975875,9.3269392 C72.085875,9.35068745 72.21275,9.3513124 72.32275,9.32756415 C72.3965,9.31256525 72.447125,9.29756636 72.488375,9.27944269 C72.555875,9.25256966 72.610875,9.22132196 72.659625,9.19132417 C72.699,9.16382619 72.748375,9.12382913 72.7915,9.0807073 C72.8265,9.0425851 72.869625,8.99321373 72.9065,8.94009264 C72.93525,8.89447099 72.964625,8.83947504 72.99025,8.78072936 C73.00775,8.73635762 73.027125,8.67636203 73.039,8.61761635 C73.0465,8.56824498 73.053375,8.50637453 73.053375,8.44075436 C73.053375,8.37888391 73.0465,8.31326373 73.035875,8.24764356 C73.0265,8.20389677 73.0065,8.14577605 72.984,8.08453055" id="Fill-56" fill="#1976D2"></path>
                            <path d="M74.1680625,1.05748474 C74.1405625,0.989364753 74.1093125,0.938118521 74.0780625,0.888122197 C74.0530625,0.85 74.0168125,0.805628263 73.9693125,0.758131755 C73.9205625,0.710010293 73.8786875,0.675012867 73.8418125,0.651889567 C73.7868125,0.616267186 73.7355625,0.585019484 73.6818125,0.563771046 C73.6174375,0.535648114 73.5536875,0.520649217 73.5036875,0.510024998 C73.4468125,0.498150871 73.3886875,0.492526285 73.3305625,0.492526285 C73.2724375,0.492526285 73.2143125,0.498150871 73.1580625,0.510024998 C73.0961875,0.523149033 73.0411875,0.536898022 72.9836875,0.56127123 C72.9343125,0.580644806 72.8868125,0.606892876 72.8324375,0.644390118 C72.7768125,0.678137637 72.7380625,0.710010293 72.6899375,0.758131755 C72.6493125,0.798128814 72.6155625,0.840625689 72.5811875,0.893121829 C72.5424375,0.949992648 72.5155625,1.00123888 72.4911875,1.05685979 C72.4736875,1.10123153 72.4549375,1.16185207 72.4424375,1.22247261 C72.4305625,1.27934343 72.4243125,1.33871407 72.4243125,1.39745975 C72.4243125,1.45745533 72.4305625,1.51432615 72.4430625,1.57432174 C72.4549375,1.63244247 72.4743125,1.69243806 72.4961875,1.74930887 C72.5168125,1.79555547 72.5455625,1.84992648 72.5805625,1.90429748 C72.6099375,1.94679435 72.6461875,1.99304095 72.6893125,2.03553783 C72.7305625,2.0767848 72.7749375,2.11178222 72.8255625,2.14490479 C72.8818125,2.18365194 72.9343125,2.21114992 72.9893125,2.23552312 C73.0336875,2.25114697 73.0918125,2.27052055 73.1561875,2.28364458 C73.2711875,2.30864275 73.3880625,2.30739284 73.5068125,2.28364458 C73.5636875,2.2711455 73.6243125,2.25239688 73.6818125,2.23052349 C73.7274375,2.20990001 73.7824375,2.18052717 73.8374375,2.14490479 C73.8786875,2.1161569 73.9249375,2.07990957 73.9686875,2.03616278 C74.0124375,1.992416 74.0524375,1.94679435 74.0868125,1.89804794 C74.1068125,1.8618006 74.1399375,1.8074296 74.1624375,1.74930887 C74.1911875,1.68431365 74.2061875,1.62056834 74.2168125,1.57119697 C74.2280625,1.51495111 74.2343125,1.45808029 74.2343125,1.39745975 C74.2343125,1.33996397 74.2280625,1.27934343 74.2161875,1.2199728 C74.2061875,1.1737262 74.1911875,1.10935593 74.1680625,1.05748474" id="Fill-58" fill="#1976D2"></path>
                            <path d="M50.599375,9.0671458 C50.579375,9.02339901 50.5525,8.96715315 50.51875,8.91778178 C50.485,8.86841041 50.448125,8.81841409 50.405,8.7746673 C50.370625,8.7434196 50.32375,8.70154768 50.27,8.66655025 C50.21375,8.62842806 50.161875,8.60093008 50.10625,8.57655687 C50.061875,8.55968311 50.0025,8.54030954 49.9425,8.52843541 C49.88375,8.51593633 49.825,8.50968679 49.76625,8.50968679 C49.706875,8.50968679 49.648125,8.51593633 49.589375,8.52843541 C49.53,8.54030954 49.47,8.55968311 49.413125,8.58218146 C49.368125,8.60217999 49.313125,8.63155283 49.258125,8.66655025 C49.213125,8.69779796 49.164375,8.74154474 49.11875,8.78341666 C49.08375,8.81903904 49.04375,8.86778546 49.01,8.91778178 C48.985625,8.95590398 48.955,9.01027498 48.933125,9.06527094 C48.90375,9.13214102 48.889375,9.19463642 48.87875,9.24338284 C48.8675,9.29775384 48.86125,9.35712448 48.86125,9.41462025 C48.86125,9.65397765 48.958125,9.88833542 49.126875,10.057698 C49.165625,10.0939453 49.214375,10.1364422 49.266875,10.1733145 C49.311875,10.2014374 49.3625,10.2276855 49.411875,10.247059 C49.478125,10.2758069 49.53375,10.2939306 49.591875,10.3058047 C49.684375,10.3195537 49.8275,10.3226785 49.95875,10.3033049 C49.99875,10.2939306 50.05375,10.2764319 50.105625,10.2526836 C50.17,10.2276855 50.218125,10.2026873 50.263125,10.1720646 C50.320625,10.1339424 50.364375,10.09832 50.40625,10.057073 C50.574375,9.88833542 50.67125,9.65397765 50.67125,9.41462025 C50.67125,9.35899934 50.665,9.2996287 50.653125,9.24338284 C50.640625,9.1840122 50.621875,9.12401662 50.599375,9.0671458" id="Fill-60" fill="#1976D2"></path>
                            <path d="M48.616,3.13983163 C48.782875,2.97546872 48.881625,2.73736122 48.881625,2.50112859 C48.881625,2.44363282 48.875375,2.38426219 48.8635,2.32989118 C48.84975,2.25989633 48.835375,2.21177487 48.81475,2.16490332 C48.78725,2.09553342 48.761625,2.04491214 48.7335,2.00429013 C48.696,1.9461694 48.656,1.90242262 48.614125,1.85930079 C48.45225,1.69618778 48.216625,1.61556871 47.980375,1.61556871 C47.74225,1.61556871 47.502875,1.69743769 47.336,1.86242556 C47.296,1.90304757 47.261625,1.9461694 47.2285,1.99679068 C47.190375,2.05303654 47.1635,2.1080325 47.139125,2.16365341 C47.12225,2.20802515 47.10225,2.26364606 47.08975,2.32614146 C47.077875,2.38426219 47.071625,2.44363282 47.071625,2.50112859 C47.071625,2.73736122 47.170375,2.97546872 47.335375,3.13795677 C47.385375,3.18795309 47.42975,3.22545033 47.47225,3.25294831 C47.515375,3.27982134 47.566,3.31044408 47.622875,3.33231748 C47.69225,3.36169032 47.74975,3.37606426 47.806625,3.38793839 C47.916,3.41106169 48.044125,3.40981178 48.152875,3.38793839 C48.207875,3.37606426 48.26475,3.36169032 48.319125,3.33794206 C48.384125,3.31231895 48.436,3.28107124 48.487875,3.2504485 C48.526625,3.22357547 48.572875,3.18295346 48.616,3.13983163" id="Fill-62" fill="#1976D2"></path>
                            <path d="M30.545625,19.0596611 C30.525,19.0134145 30.495625,18.9584185 30.46,18.9027976 C30.435,18.8634255 30.39875,18.8196787 30.35125,18.7721822 C30.305,18.7259356 30.263125,18.6909382 30.225625,18.6678149 C30.155,18.6221932 30.1075,18.5959452 30.065,18.5790714 C30.0075,18.556573 29.946875,18.5378244 29.88625,18.5253253 C29.829375,18.5134512 29.771875,18.5072017 29.713125,18.5072017 C29.654375,18.5072017 29.595,18.5134512 29.535625,18.5259503 C29.478125,18.5378244 29.4175,18.556573 29.360625,18.5784464 C29.3175,18.5959452 29.27,18.6221932 29.20625,18.6634402 C29.161875,18.6915631 29.119375,18.7265605 29.074375,18.7721822 C29.030625,18.815929 28.99375,18.8628005 28.959375,18.9115469 C28.92875,18.9596684 28.9,19.0140394 28.874375,19.0721601 C28.858125,19.115282 28.838125,19.1765275 28.825625,19.236523 C28.81375,19.2940188 28.808125,19.3521395 28.808125,19.4115102 C28.808125,19.4696309 28.81375,19.5290015 28.825625,19.5833725 C28.83875,19.6489927 28.858125,19.7096133 28.88,19.7658591 C28.89875,19.8071061 28.925625,19.8589773 28.959375,19.9070987 C28.9975,19.9664694 29.033125,20.0108411 29.07375,20.0514631 C29.27875,20.2608227 29.5925,20.3583156 29.89,20.29832 C29.96,20.283946 30.01,20.2695721 30.050625,20.2508235 C30.1075,20.2289501 30.154375,20.202702 30.209375,20.1652048 C30.2675,20.1270826 30.31125,20.0920851 30.3525,20.0508382 C30.520625,19.8821006 30.6175,19.6496177 30.6175,19.4115102 C30.6175,19.3521395 30.61125,19.2946438 30.59875,19.2346482 C30.586875,19.1765275 30.568125,19.1171568 30.545625,19.0596611" id="Fill-64" fill="#1976D2"></path>
                            <path d="M25.2655,12.9321741 C25.018,12.9321741 24.78425,13.0234174 24.626125,13.1815308 C24.459875,13.3477685 24.3605,13.5871259 24.3605,13.8214837 C24.3605,14.0583413 24.458,14.293324 24.628,14.4670612 C24.9605,14.7926623 25.576125,14.7932873 25.904875,14.4639365 C26.073625,14.2958238 26.1705,14.0614661 26.1705,13.8214837 C26.1705,13.5871259 26.071125,13.3477685 25.904875,13.1815308 C25.74675,13.0234174 25.513,12.9321741 25.2655,12.9321741" id="Fill-66" fill="#1976D2"></path>
                            <path d="M16.296375,36.3612639 C16.2695,36.2925189 16.242625,36.2412727 16.213875,36.1981509 C16.181375,36.1519043 16.14075,36.101283 16.09825,36.0587861 C16.057,36.0175392 16.00825,35.978792 15.958875,35.9444195 C15.91825,35.9162966 15.86825,35.8906735 15.81075,35.8681751 C15.746375,35.8400522 15.690125,35.8219285 15.632,35.8094295 C15.57825,35.8000551 15.520125,35.7950555 15.462,35.7950555 C15.400125,35.7950555 15.33825,35.8006801 15.278875,35.8113043 C15.2295,35.8213036 15.177625,35.8381773 15.121375,35.8625505 C15.052625,35.8887986 15.006375,35.9131718 14.962625,35.9431696 C14.901375,35.9837916 14.855125,36.0244136 14.812,36.0644107 C14.773875,36.1025329 14.73825,36.1525292 14.703875,36.2012756 C14.671375,36.2487721 14.643875,36.3043931 14.6195,36.3606389 C14.602625,36.4056356 14.58325,36.4656312 14.57075,36.5256268 C14.5595,36.5799978 14.55325,36.6406183 14.55325,36.7012389 C14.55325,36.7587347 14.5595,36.8174803 14.57075,36.8718513 C14.58325,36.9318469 14.602,36.9918425 14.6245,37.0487133 C14.643875,37.0924601 14.67075,37.148081 14.7045,37.1974524 C14.743875,37.256823 14.77825,37.2999449 14.81825,37.339317 C14.858875,37.3805639 14.90325,37.4155614 14.953875,37.4486839 C15.007,37.4849313 15.056375,37.5118043 15.116375,37.5368024 C15.16575,37.556176 15.222,37.5749246 15.2845,37.5880487 C15.570125,37.6480443 15.892625,37.5468017 16.09575,37.3418168 C16.145125,37.2924454 16.182,37.2474487 16.21075,37.2043269 C16.237625,37.1599552 16.268875,37.1055841 16.290125,37.0505882 C16.320125,36.9837181 16.3345,36.9212227 16.345125,36.8718513 C16.357,36.8162304 16.362625,36.7568598 16.362625,36.7012389 C16.362625,36.6424932 16.357,36.5818727 16.345125,36.5256268 C16.3295,36.4531321 16.3145,36.4025108 16.296375,36.3612639" id="Fill-68" fill="#1976D2"></path>
                            <path d="M8.284875,33.7363319 C8.31175,33.8082016 8.343625,33.8606977 8.37425,33.9100691 C8.39925,33.9488163 8.43675,33.993813 8.484875,34.0419344 C8.689875,34.2506691 9.00675,34.333788 9.3105,34.2862914 C9.36175,34.2756672 9.419875,34.2562937 9.48175,34.2331704 C9.51925,34.2162966 9.57175,34.1887986 9.6205,34.1550511 C9.678625,34.1169289 9.722375,34.0819315 9.762375,34.0419344 C9.803625,34.0006874 9.838,33.9575656 9.872375,33.9056944 C9.908,33.8531983 9.934875,33.8019521 9.958625,33.7450812 C9.9805,33.6957099 9.996125,33.6438387 10.011125,33.5732189 C10.022375,33.5188479 10.028625,33.4601022 10.028625,33.4026064 C10.028625,33.1626241 9.93175,32.9282663 9.763,32.7595287 C9.59175,32.5901662 9.353,32.4957981 9.113,32.4957981 C9.056125,32.4957981 8.999875,32.5007977 8.943625,32.5120469 C8.891125,32.5232961 8.8355,32.5414197 8.783,32.5639181 C8.718625,32.5895412 8.668625,32.6157893 8.617375,32.6495368 C8.5705,32.6820344 8.52175,32.7239063 8.47675,32.7664032 C8.3155,32.9276413 8.21925,33.1619991 8.21925,33.4026064 C8.21925,33.4601022 8.224875,33.5188479 8.236125,33.5732189 C8.25175,33.6450886 8.26675,33.6957099 8.284875,33.7363319" id="Fill-70" fill="#1976D2"></path>
                            <path d="M2.3406875,56.963374 C2.0919375,56.963374 1.8588125,57.0546173 1.7000625,57.2127307 C1.5313125,57.3820932 1.4344375,57.6152011 1.4344375,57.8526836 C1.4344375,57.9101794 1.4406875,57.9683001 1.4519375,58.0220462 C1.4656875,58.0901662 1.4844375,58.1495368 1.5069375,58.2070326 C1.5250625,58.2470296 1.5519375,58.2989008 1.5856875,58.3476472 C1.6250625,58.4088927 1.6600625,58.4520146 1.6994375,58.4907617 C1.7400625,58.5320087 1.7844375,58.5670061 1.8350625,58.6001287 C1.8931875,58.6407507 1.9456875,58.6669988 2.0013125,58.6919969 C2.0413125,58.7057459 2.1006875,58.7257444 2.1663125,58.7394934 C2.4513125,58.7982391 2.7688125,58.7007463 2.9788125,58.4913867 C3.0263125,58.4438902 3.0631875,58.3995184 3.0913125,58.3563966 C3.1188125,58.3113999 3.1506875,58.2614036 3.1713125,58.2070326 C3.1994375,58.1407874 3.2131875,58.0857915 3.2256875,58.0251709 C3.2381875,57.9676752 3.2438125,57.9095544 3.2438125,57.8526836 C3.2438125,57.6152011 3.1475625,57.3820932 2.9781875,57.2127307 C2.8213125,57.0539924 2.5719375,56.9614992 2.3406875,56.963374" id="Fill-72" fill="#1976D2"></path>
                            <path d="M65.91125,121.659554 C65.6725,121.659554 65.43375,121.742048 65.2675,121.906411 C65.233125,121.943284 65.190625,121.995155 65.155625,122.047026 C65.126875,122.088898 65.10125,122.138894 65.078125,122.195765 C65.050625,122.260135 65.035,122.310757 65.026875,122.358878 C65.013125,122.427623 65.006875,122.486369 65.006875,122.544489 C65.006875,122.60511 65.013125,122.665106 65.024375,122.719477 C65.035,122.781972 65.05125,122.833843 65.073125,122.883839 C65.10125,122.954459 65.126875,123.003831 65.154375,123.043828 C65.19,123.096324 65.230625,123.14507 65.27375,123.188817 C65.3125,123.226939 65.361875,123.266936 65.41125,123.301309 C65.46125,123.335681 65.5175,123.362554 65.57375,123.387552 C65.614375,123.402551 65.675,123.42255 65.735625,123.435049 C65.848125,123.458797 65.965625,123.460672 66.084375,123.435049 C66.144375,123.42255 66.205,123.402551 66.261875,123.380678 C66.301875,123.362554 66.35875,123.335681 66.40875,123.301309 C66.469375,123.261312 66.51625,123.21944 66.560625,123.178818 C66.7175,123.021329 66.8125,122.786972 66.8125,122.544489 C66.8125,122.303882 66.7175,122.071399 66.55125,121.906411 C66.3875,121.741423 66.149375,121.659554 65.91125,121.659554" id="Fill-74" fill="#1976D2"></path>
                            <path d="M10.372125,58.296901 C10.372125,58.2856518 10.3715,58.2750276 10.370875,58.2637784 C10.369625,58.214407 10.36525,58.1650357 10.355875,58.1156643 C10.354625,58.1112896 10.353375,58.1069149 10.352125,58.1019153 C10.34025,58.0475443 10.324625,57.9937983 10.303375,57.942552 C10.30275,57.9413021 10.302125,57.9400522 10.3015,57.9388023 C10.28025,57.888181 10.254,57.8394346 10.224,57.793188 C10.21775,57.7838137 10.21025,57.7744394 10.204,57.7650651 C10.1815,57.7331924 10.1565,57.7031946 10.129625,57.6744467 C10.062125,57.6019521 9.983375,57.5450812 9.899,57.4988346 C9.87775,57.4882104 9.85775,57.4757113 9.835875,57.466337 C9.748375,57.4275899 9.65525,57.4038416 9.558375,57.3944673 C9.533375,57.3913425 9.509,57.3875928 9.484625,57.3869679 C9.4465,57.3869679 9.409,57.3882178 9.3715,57.3925925 C9.359,57.3938424 9.3465,57.3944673 9.334,57.3963422 C9.164,57.4238402 9.007125,57.4988346 8.879625,57.6082016 C8.877125,57.6107014 8.873375,57.6132012 8.870875,57.6157011 C8.789,57.6875708 8.7215,57.7750643 8.67025,57.8719322 C8.665875,57.8806816 8.66025,57.8894309 8.6565,57.8981803 C8.637125,57.9375524 8.622125,57.9787994 8.609,58.0212962 C8.604,58.037545 8.598375,58.0531689 8.594,58.0700426 C8.583375,58.1137894 8.575875,58.1594111 8.5715,58.2056577 C8.570875,58.2187817 8.568375,58.2312808 8.56775,58.2437799 C8.565875,58.2912764 8.568375,58.337523 8.573375,58.3837696 C8.57525,58.3987685 8.57525,58.4137674 8.57775,58.4281413 C8.583375,58.4643886 8.594,58.4993861 8.604,58.5350085 C8.610875,58.5587567 8.617125,58.5831299 8.625875,58.6068782 C8.638375,58.6393758 8.653375,58.6712484 8.669625,58.7018712 C8.68025,58.7224947 8.689625,58.7418682 8.702125,58.7624917 C8.719625,58.7912396 8.74025,58.8174877 8.76025,58.8431108 C8.774,58.8618594 8.788375,58.8799831 8.803375,58.8974818 C8.828375,58.9249798 8.855875,58.949353 8.884625,58.9737262 C8.903375,58.989975 8.920875,59.0055989 8.943375,59.0212227 C8.960875,59.0337218 8.98025,59.044971 8.999,59.0568451 C9.034625,59.0787185 9.069625,59.099342 9.104,59.1130909 C9.11525,59.1180906 9.1265,59.1218403 9.13775,59.126215 C9.184625,59.1449636 9.224625,59.1574627 9.26275,59.166837 C9.288375,59.1730865 9.314625,59.1768363 9.340875,59.180586 C9.38775,59.1849607 9.43775,59.1874605 9.494625,59.1862106 C9.6015,59.1830858 9.704625,59.1649621 9.799,59.1274649 C9.802125,59.126215 9.804,59.126215 9.8065,59.1249651 C9.810875,59.1230902 9.814,59.1205904 9.818375,59.1193405 C9.9165,59.0780935 10.007125,59.0205978 10.084625,58.949353 C10.0865,58.9468532 10.089,58.9456033 10.090875,58.9437284 C10.164625,58.8743585 10.22275,58.7906147 10.269625,58.7006213 C10.277125,58.6856224 10.28525,58.6731233 10.292125,58.6568745 C10.33025,58.5737556 10.3515,58.4825123 10.362125,58.3881443 C10.365875,58.3581465 10.372125,58.3262738 10.372125,58.296901" id="Fill-76" fill="#1976D2"></path>
                            <path d="M64.7876875,115.021543 C64.7789375,115.039666 64.7683125,115.05779 64.7608125,115.076538 C64.7458125,115.114036 64.7351875,115.153408 64.7251875,115.19278 C64.7208125,115.210279 64.7145625,115.227152 64.7114375,115.245276 C64.7039375,115.283398 64.7014375,115.32277 64.6995625,115.362142 C64.6983125,115.382766 64.6958125,115.402765 64.6958125,115.424013 C64.6964375,115.471509 64.7020625,115.518381 64.7108125,115.566502 C64.7126875,115.576502 64.7126875,115.586501 64.7151875,115.5965 C64.7264375,115.649621 64.7395625,115.688993 64.7533125,115.725241 C64.7576875,115.73649 64.7608125,115.748364 64.7651875,115.758988 C64.7870625,115.813359 64.8126875,115.855856 64.8376875,115.896478 C64.8433125,115.905853 64.8476875,115.915227 64.8539375,115.924601 C64.8783125,115.961473 64.9126875,116.003345 64.9614375,116.052092 C65.0026875,116.092714 65.0383125,116.121462 65.0726875,116.14521 C65.0789375,116.149585 65.0839375,116.154584 65.0901875,116.158959 C65.1483125,116.195831 65.2026875,116.224579 65.2608125,116.250202 C65.3120625,116.272701 65.3758125,116.288324 65.4251875,116.298324 C65.4908125,116.311448 65.5595625,116.315197 65.6295625,116.312073 C65.6464375,116.310823 65.6626875,116.307073 65.6795625,116.305198 C65.7258125,116.300199 65.7720625,116.292699 65.8176875,116.280825 C65.8551875,116.270826 65.8914375,116.257702 65.9270625,116.243328 C65.9495625,116.234578 65.9726875,116.225204 65.9951875,116.21458 C66.0364375,116.193956 66.0764375,116.171458 66.1139375,116.145835 C66.1264375,116.137086 66.1383125,116.127086 66.1501875,116.118337 C66.2314375,116.055841 66.3014375,115.982097 66.3570625,115.898353 C66.3764375,115.86898 66.3901875,115.840232 66.4045625,115.811484 C66.4170625,115.787111 66.4314375,115.763363 66.4414375,115.737115 C66.4514375,115.710867 66.4601875,115.677119 66.4695625,115.643997 C66.4758125,115.621498 66.4833125,115.599625 66.4876875,115.576502 C66.4945625,115.53838 66.4970625,115.499632 66.4989375,115.46026 C66.5001875,115.439637 66.5026875,115.419638 66.5026875,115.399015 C66.5020625,115.360268 66.4964375,115.32277 66.4914375,115.285273 C66.4883125,115.262775 66.4864375,115.240276 66.4814375,115.219028 C66.4739375,115.184031 66.4620625,115.150283 66.4501875,115.117161 C66.4420625,115.094037 66.4351875,115.070289 66.4251875,115.048416 C66.4133125,115.021543 66.3983125,114.996544 66.3839375,114.970921 C66.3683125,114.943423 66.3526875,114.914675 66.3339375,114.888427 C66.3239375,114.874053 66.3114375,114.861554 66.3008125,114.847805 C66.2758125,114.817183 66.2501875,114.78781 66.2220625,114.760937 C66.1483125,114.690942 66.0626875,114.636571 65.9714375,114.594699 C65.9558125,114.587824 65.9420625,114.579075 65.9258125,114.572826 C65.8264375,114.534078 65.7208125,114.51283 65.6139375,114.510955 C65.6045625,114.51033 65.5951875,114.508455 65.5851875,114.508455 C65.5464375,114.50908 65.5076875,114.514705 65.4689375,114.520329 C65.4483125,114.523454 65.4276875,114.525329 65.4076875,114.529704 C65.3701875,114.537828 65.3445625,114.547202 65.3170625,114.555952 C65.2908125,114.565326 65.2645625,114.57345 65.2395625,114.5847 C65.2070625,114.599074 65.1770625,114.616572 65.1470625,114.633446 C65.1226875,114.64782 65.0983125,114.660319 65.0758125,114.676568 C65.0576875,114.689067 65.0383125,114.707191 65.0195625,114.722814 C64.9939375,114.744688 64.9683125,114.765311 64.9458125,114.789685 C64.9251875,114.810933 64.9076875,114.834681 64.8895625,114.85843 C64.8726875,114.880303 64.8545625,114.900926 64.8395625,114.92405 C64.8195625,114.955297 64.8039375,114.98842 64.7876875,115.021543" id="Fill-78" fill="#1976D2"></path>
                            <path d="M88.1301875,109.463826 C88.1045625,109.40633 88.0764375,109.351334 88.0401875,109.296339 C88.0133125,109.258216 87.9764375,109.20697 87.9408125,109.173848 C87.7739375,109.00636 87.5414375,108.915117 87.2926875,108.915117 L87.2920625,108.915117 C87.0426875,108.915117 86.8101875,109.00636 86.6533125,109.163848 C86.6076875,109.20697 86.5701875,109.258216 86.5389375,109.303213 C86.5139375,109.34321 86.4795625,109.398831 86.4595625,109.450702 C86.4351875,109.505698 86.4201875,109.556319 86.4051875,109.628814 C86.3933125,109.685685 86.3870625,109.744431 86.3870625,109.803801 C86.3870625,109.859422 86.3933125,109.918793 86.4051875,109.975039 C86.4201875,110.047533 86.4351875,110.098155 86.4533125,110.138152 C86.4770625,110.201272 86.5020625,110.246269 86.5389375,110.30064 C86.5776875,110.360635 86.6120625,110.403132 86.6526875,110.443129 C86.9908125,110.779979 87.5939375,110.779979 87.9314375,110.443129 C87.9720625,110.403132 88.0058125,110.360635 88.0395625,110.308139 C88.0764375,110.255643 88.1026875,110.206272 88.1283125,110.145026 C88.1495625,110.09753 88.1645625,110.046908 88.1795625,109.975039 C88.1908125,109.920043 88.1964375,109.861297 88.1964375,109.803801 C88.1964375,109.742556 88.1908125,109.68381 88.1795625,109.628814 C88.1645625,109.556944 88.1489375,109.506323 88.1301875,109.463826" id="Fill-80" fill="#1976D2"></path>
                            <path d="M90.978375,115.441762 C90.930875,115.411139 90.875875,115.381766 90.81775,115.356143 C90.77275,115.339269 90.713375,115.320521 90.653375,115.307397 C90.595875,115.296147 90.5365,115.289898 90.478375,115.289898 C90.419625,115.289898 90.362125,115.296147 90.305875,115.307397 C90.24525,115.320521 90.18525,115.339269 90.128375,115.361768 C90.075875,115.383641 90.0265,115.410514 89.98025,115.441762 C89.92275,115.479884 89.878375,115.514881 89.839,115.554878 C89.79775,115.596125 89.76275,115.639247 89.728375,115.691118 C89.69025,115.747364 89.663375,115.799235 89.638375,115.854231 C89.624625,115.896728 89.604,115.954849 89.590875,116.020469 C89.579,116.077965 89.57275,116.136711 89.57275,116.194206 C89.57275,116.432314 89.669625,116.665422 89.83775,116.833534 C89.88525,116.881031 89.929,116.917278 89.973375,116.946026 C90.025875,116.982273 90.072125,117.006647 90.124,117.025395 C90.193375,117.056018 90.244,117.071017 90.290875,117.078516 C90.434,117.107889 90.54525,117.103514 90.6515,117.081641 C90.714625,117.071017 90.765875,117.055393 90.817125,117.032895 C90.882125,117.007272 90.93275,116.981023 90.984,116.947276 C91.0315,116.914153 91.0765,116.876656 91.109,116.841659 C91.16025,116.792912 91.198375,116.747291 91.234625,116.694795 C91.257125,116.657922 91.288375,116.604176 91.309625,116.54918 C91.334,116.492934 91.349,116.442313 91.364625,116.369193 C91.3765,116.312323 91.382125,116.253577 91.382125,116.194206 C91.382125,115.956724 91.285875,115.724241 91.117125,115.555503 C91.073375,115.508632 91.02025,115.471134 90.978375,115.441762" id="Fill-82" fill="#1976D2"></path>
                            <path d="M104.828188,94.9696419 C104.560063,94.9633924 104.347562,95.0602603 104.191312,95.2177487 C104.023187,95.3833615 103.925062,95.621469 103.925062,95.8583266 C103.925062,95.9164473 103.930687,95.975193 103.942562,96.029564 C103.952562,96.0783104 103.968187,96.1420557 103.991312,96.1951768 C104.017562,96.2639218 104.048812,96.3164179 104.079437,96.3645394 C104.106312,96.4064113 104.142562,96.450783 104.190062,96.4970296 C104.518812,96.83263 105.132563,96.8351298 105.468813,96.4976546 C105.509438,96.4576575 105.544438,96.4139107 105.576938,96.3632895 C105.613188,96.3101684 105.640063,96.260797 105.665688,96.1995515 C105.685063,96.1508051 105.703813,96.0901845 105.716938,96.028939 C105.728188,95.9739431 105.734438,95.9151974 105.734438,95.8583266 C105.734438,95.621469 105.635688,95.3833615 105.470688,95.2208735 C105.310063,95.0608852 105.076938,94.9696419 104.828188,94.9696419" id="Fill-84" fill="#1976D2"></path>
                            <path d="M110.339938,99.5139953 C110.090563,99.5139953 109.858063,99.6052386 109.701813,99.7621021 C109.531813,99.9302147 109.435563,100.162698 109.435563,100.403305 C109.435563,100.640787 109.532438,100.87327 109.701188,101.042008 C109.741188,101.08263 109.785563,101.117627 109.836188,101.151375 C109.888063,101.186997 109.936188,101.211995 109.985563,101.230744 C110.053063,101.260117 110.109313,101.278241 110.163688,101.290115 C110.274313,101.305114 110.398688,101.308238 110.522438,101.28824 C110.570563,101.278241 110.626813,101.260117 110.679938,101.236994 C110.743688,101.211995 110.794313,101.185747 110.848063,101.15075 C110.889313,101.122002 110.936188,101.085755 110.979313,101.042008 C111.148063,100.87327 111.244938,100.640162 111.244938,100.403305 C111.244938,100.162698 111.148688,99.9302147 110.981188,99.7652268 C110.821813,99.6052386 110.588688,99.5139953 110.339938,99.5139953" id="Fill-86" fill="#1976D2"></path>
                            <path d="M116.009813,75.6320638 C115.989813,75.588942 115.961063,75.5333211 115.925438,75.4783251 C115.895438,75.4352033 115.859188,75.3883317 115.816063,75.3458349 C115.776063,75.3064628 115.732938,75.2714653 115.679813,75.2364679 C115.624188,75.1983457 115.572313,75.1714727 115.517313,75.1477244 C115.464813,75.1246011 115.410438,75.1108521 115.349813,75.0983531 C115.293563,75.0864789 115.234813,75.0808543 115.176063,75.0808543 C115.117313,75.0808543 115.057938,75.0864789 114.999813,75.0983531 C114.952937,75.1083523 114.889187,75.1239762 114.836687,75.1470995 C114.779187,75.1727226 114.724187,75.2020954 114.669187,75.2370929 C114.629187,75.2652158 114.578562,75.3020881 114.545437,75.3377105 C114.494187,75.3889567 114.454187,75.4345783 114.421062,75.4833248 C114.391687,75.5289464 114.364812,75.5795677 114.342937,75.6333137 C114.316062,75.6958091 114.300437,75.7476803 114.292312,75.7964267 C114.277937,75.8676715 114.272312,75.9251673 114.272312,75.9851629 C114.272312,76.2226454 114.369187,76.4557533 114.537937,76.6244908 C114.746687,76.8338505 115.071688,76.9313433 115.346688,76.8719726 C115.410438,76.8594736 115.464813,76.8450996 115.522313,76.8207264 C115.572938,76.8007279 115.619188,76.7751048 115.672313,76.7388574 C115.729188,76.704485 115.768563,76.6713624 115.816688,76.6238659 C115.983563,76.4601279 116.081688,76.2220204 116.081688,75.9851629 C116.081688,75.9264172 116.076063,75.8701713 116.063563,75.8089258 C116.051063,75.7489302 116.032313,75.6889346 116.009813,75.6320638" id="Fill-88" fill="#1976D2"></path>
                            <path d="M122.059313,77.0064628 C121.811188,77.0064628 121.578063,77.0977061 121.421187,77.2558194 C121.252437,77.4208073 121.154312,77.6570399 121.154312,77.8920226 C121.154312,77.9532681 121.159937,78.0120138 121.171812,78.0676347 C121.184312,78.1282553 121.204312,78.1895008 121.226187,78.2469965 C121.244937,78.2869936 121.271812,78.3438644 121.306187,78.3932358 C121.343687,78.4519815 121.378687,78.4944783 121.420562,78.5363503 C121.459937,78.5757224 121.503687,78.6107198 121.554938,78.6438424 C121.611188,78.6825895 121.663688,78.7100875 121.718688,78.7344607 C121.761813,78.7494596 121.819313,78.7694581 121.883063,78.7825822 C122.126813,78.8169546 122.491813,78.7407102 122.698688,78.5351004 C122.738063,78.4951033 122.778063,78.4513565 122.811813,78.3994853 C122.838063,78.3563635 122.869938,78.3007426 122.891813,78.2451217 C122.919938,78.1801265 122.935563,78.1301301 122.943063,78.0845085 C122.957438,78.010139 122.963688,77.9513933 122.963688,77.8920226 C122.963688,77.6576649 122.865563,77.4214322 122.700563,77.2589442 C122.539938,77.0977061 122.307438,77.0064628 122.059313,77.0064628" id="Fill-90" fill="#1976D2"></path>
                            <path d="M117.382188,53.2826447 C117.355313,53.2151496 117.329688,53.1651533 117.300938,53.1232814 C117.265313,53.0720351 117.222813,53.0189141 117.179688,52.9732924 C117.144063,52.93767 117.093438,52.9014227 117.043438,52.8664253 C116.995313,52.8333027 116.939688,52.8064297 116.884063,52.7820565 C116.840313,52.7658077 116.779688,52.7464341 116.718438,52.7333101 C116.662188,52.7220609 116.603438,52.7158113 116.545938,52.7158113 C116.487188,52.7158113 116.429688,52.7220609 116.373438,52.7333101 C116.313438,52.7464341 116.252188,52.7658077 116.194688,52.788306 C116.143438,52.8095544 116.093438,52.8364275 116.047813,52.8676752 C115.988438,52.9064223 115.944688,52.9414197 115.905313,52.9814168 C115.861563,53.0245386 115.825313,53.074535 115.792188,53.1232814 C115.757188,53.1739027 115.730313,53.2301485 115.705313,53.2857694 C115.689688,53.3282663 115.669688,53.3895118 115.656563,53.4507573 C115.645313,53.5038784 115.639688,53.563249 115.639688,53.6244945 C115.639688,53.6819903 115.645938,53.740736 115.657188,53.7957319 C115.669688,53.8557275 115.689063,53.9163481 115.711563,53.9732189 C115.730313,54.0150908 115.756563,54.0713367 115.790938,54.1200831 C115.829688,54.1800787 115.864688,54.2238255 115.904688,54.2631976 C115.944688,54.3038196 115.988438,54.338192 116.042188,54.3738144 C116.097188,54.4113117 116.152813,54.4388096 116.208438,54.4631829 C116.250938,54.4788067 116.311563,54.4988052 116.372188,54.5113043 C116.646563,54.5712999 116.971563,54.4763069 117.189688,54.2619477 C117.220938,54.2282001 117.262188,54.1807036 117.297188,54.1282075 C117.329063,54.0813359 117.355313,54.0300897 117.377813,53.9725939 C117.405313,53.9094736 117.422813,53.8544776 117.435313,53.7957319 C117.442188,53.7488604 117.453438,53.68574 117.453438,53.6244945 C117.453438,53.5601243 117.442813,53.4963789 117.432813,53.4351334 C117.422813,53.3913867 117.405313,53.3357658 117.382188,53.2826447" id="Fill-92" fill="#1976D2"></path>
                            <path d="M123.608688,51.6768877 C123.361188,51.6768877 123.127438,51.768131 122.969313,51.9262444 C122.800563,52.0956069 122.703688,52.3280898 122.703688,52.5655724 C122.703688,52.6261929 122.709938,52.6843137 122.721813,52.7405595 C122.734938,52.8011801 122.753688,52.8611756 122.775563,52.9180465 C122.794938,52.9605433 122.821813,53.0167892 122.855563,53.0661606 C122.890563,53.1167819 122.927438,53.1667782 122.970563,53.210525 C123.004313,53.2411477 123.050563,53.2823947 123.104313,53.3167671 C123.158063,53.3536394 123.204938,53.3780126 123.255563,53.3967613 C123.323688,53.4267591 123.380563,53.4448827 123.436813,53.4567569 C123.483063,53.4630064 123.547438,53.4698809 123.608688,53.4698809 C123.845563,53.4698809 124.084938,53.3723881 124.248063,53.2092751 C124.290563,53.1667782 124.330563,53.1174068 124.364313,53.0680354 C124.393063,53.0255386 124.419313,52.9749173 124.442438,52.9174215 C124.466188,52.8630505 124.481188,52.8124292 124.496188,52.7411845 C124.507438,52.6855636 124.513688,52.6268179 124.513688,52.5655724 C124.513688,52.3280898 124.416813,52.094982 124.248063,51.9262444 C124.089938,51.768131 123.856188,51.6768877 123.608688,51.6768877" id="Fill-94" fill="#1976D2"></path>
                        </g>
                    </g>
                </g>
            </g>
        </g>
    </g>
</svg>