<svg xmlns="http://www.w3.org/2000/svg" id="measure" viewBox="0 0 170 109" xml:space="preserve" width="100%" height="100%" preserveAspectRatio="xMaxYMax">
  <defs>
    <style>
      #measure .cls-1 {
        fill: none;
      }

      #measure .cls-2 {
        fill: #1976d2;
      }

      #measure .cls-3 {
        fill: #26c6da;
      }

      #measure .cls-4 {
        fill: #ffca28;
      }
    </style>
  </defs>
  <title>Vector Smart Object3</title>
  <g>
    <rect class="cls-1" x="2.02" y="2" width="10.88" height="10.79"/>
    <rect class="cls-1" x="8.22" y="8.14" width="5.21" height="5.16"/>
    <path class="cls-1" d="M7.46,6.65h6V1.49H1.5V13.3H6.71V7.4A0.75,0.75,0,0,1,7.46,6.65Z" transform="translate(0 0)"/>
    <path class="cls-2" d="M1.5,13.3V1.49H13.43V6.65h1.5V0.75A0.75,0.75,0,0,0,14.18,0H0.75A0.75,0.75,0,0,0,0,.75V14a0.75,0.75,0,0,0,.75.75h6V13.3H1.5Z" transform="translate(0 0)"/>
    <path class="cls-2" d="M13.43,13.3H8.22v1.49h6A0.75,0.75,0,0,0,14.93,14V8.14h-1.5V13.3Z" transform="translate(0 0)"/>
    <rect class="cls-2" x="6.71" y="13.3" width="1.5" height="1.49"/>
    <rect class="cls-2" x="13.43" y="6.65" width="1.5" height="1.49"/>
    <polygon class="cls-1" points="83.71 45.79 77.65 37.47 75.49 43.71 83.71 45.79"/>
    <path class="cls-2" d="M87.41,47.43l-9.56-13.1,0,0,0-.05-0.12-.09-0.08,0-0.1,0-0.09,0H77.11l-0.11,0L58.81,40.2,46.06,28.57l-0.16-.11-0.16-.06L24.87,22.95l-0.19,0a0.76,0.76,0,0,0-.61.31,0.74,0.74,0,0,0,0,.84L43.17,52.65,42.55,61.7l0,0.06L29.83,80.1a0.74,0.74,0,0,0,0,.86,0.77,0.77,0,0,0,.83.27l11.8-3.63,0.19-.09,0.07,0L71.63,53l0,0,0.08-.09,0-.06,0-.1,0-.05,2.48-7.18,12.28,3.1a0.76,0.76,0,0,0,.81-0.3,0.74,0.74,0,0,0,0-.86h0ZM41.53,76.33l-9.24,2.84L42.34,64.63ZM26.39,24.89l18.37,4.8L43.34,50.21ZM43.12,75.18L46.2,30.72,70,52.43Zm30-30.82L70.81,51.1,60.44,41.22,76,36Zm1.69-.28,2.66-7.71L85,46.64Z" transform="translate(0 0)"/>
    <rect class="cls-3" x="94.57" y="3.6" width="7.65" height="7.59"/>
    <rect class="cls-2" x="14.93" y="6.65" width="76" height="1.49"/>
    <path class="cls-2" d="M105.11,0H91.68a0.75,0.75,0,0,0-.75.75V6.65h1.5V1.49h11.92V13.3H99.14v1.49h6a0.75,0.75,0,0,0,.75-0.75V0.75A0.75,0.75,0,0,0,105.11,0Z" transform="translate(0 0)"/>
    <path class="cls-2" d="M92.43,8.14h-1.5V14a0.75,0.75,0,0,0,.75.75h6V13.3H92.43V8.14Z" transform="translate(0 0)"/>
    <rect class="cls-2" x="97.64" y="13.3" width="1.5" height="1.49"/>
    <rect class="cls-2" x="90.93" y="6.65" width="1.5" height="1.49"/>
    <rect class="cls-4" x="93.76" y="92.9" width="16.24" height="16.1"/>
    <path class="cls-1" d="M98.39,98.24h-6v5.16h11.92V91.59H99.14V97.5A0.75,0.75,0,0,1,98.39,98.24Z" transform="translate(0 0)"/>
    <rect class="cls-1" x="92.43" y="91.59" width="5.21" height="5.16"/>
    <path class="cls-1" d="M90.93,96.75V90.85a0.75,0.75,0,0,1,.75-0.75h6V14.79h-6A0.75,0.75,0,0,1,90.93,14V8.14h-76V14a0.75,0.75,0,0,1-.75.75h-6v82H90.93Z" transform="translate(0 0)"/>
    <path class="cls-2" d="M8.22,96.75v-82H6.71V97.5a0.75,0.75,0,0,0,.75.74H90.93V96.75H8.22Z" transform="translate(0 0)"/>
    <rect class="cls-2" x="97.64" y="14.79" width="1.5" height="75.31"/>
    <path class="cls-2" d="M105.11,90.1h-6v1.49h5.21v11.81H92.43V98.24h-1.5v5.91a0.75,0.75,0,0,0,.75.75h13.43a0.75,0.75,0,0,0,.75-0.75V90.85A0.75,0.75,0,0,0,105.11,90.1Z" transform="translate(0 0)"/>
    <path class="cls-2" d="M97.64,91.59V90.1h-6a0.75,0.75,0,0,0-.75.75v5.91h1.5V91.59h5.21Z" transform="translate(0 0)"/>
    <rect class="cls-2" x="97.64" y="90.1" width="1.5" height="1.49"/>
    <rect class="cls-2" x="90.93" y="96.75" width="1.5" height="1.49"/>
    <rect class="cls-1" x="2.02" y="92.11" width="10.88" height="10.79"/>
    <rect class="cls-3" x="3.87" y="87.76" width="13.43" height="13.3"/>
    <path class="cls-2" d="M14.18,90.1H0.75a0.75,0.75,0,0,0-.75.75v13.3a0.75,0.75,0,0,0,.75.75H14.18a0.75,0.75,0,0,0,.75-0.75V90.85A0.75,0.75,0,0,0,14.18,90.1Zm-0.75,13.3H1.5V91.59H13.43v11.81Z" transform="translate(0 0)"/>
  </g>
</svg>
