<svg xmlns="http://www.w3.org/2000/svg" xmlns:xlink="http://www.w3.org/1999/xlink" viewBox="0 0 720 1227"  xml:space="preserve" width="100%" height="100%" preserveAspectRatio="xMaxYMax" version="1.1">
    <!-- Generator: sketchtool 3.8.3 (29802) - http://www.bohemiancoding.com/sketch -->
    <title>8A9B0B0F-8AC3-44E4-907E-2DF3B7290546</title>
    <desc>Created with sketchtool.</desc>
    <defs>
        <polygon id="path-1" points="0.785768046 231.980248 340.750698 231.980248 340.750698 0.250023156 0.785768046 0.250023156 0.785768046 231.980248"/>
    </defs>
    <g id="Tablet" stroke="none" stroke-width="1" fill="none" fill-rule="evenodd">
        <g id="HomePage-TABLET-768" transform="translate(-24.000000, -525.000000)">
            <g id="methodology" transform="translate(0.000000, 407.000000)">
                <g id="line-plus-dots" transform="translate(24.000000, 118.000000)">
                    <g id="Group-12" opacity="0.6" transform="translate(191.000000, 86.000000)">
                        <polygon id="Fill-5" fill="#98D7F9" points="58.9031732 45.7489494 71.6745852 45.7489494 71.6745852 43.6593361 58.9031732 43.6593361"/>
                        <polygon id="Fill-7" fill="#98D7F9" points="64.2333042 51.014775 66.3549054 51.014775 66.3549054 38.4039585 64.2333042 38.4039585"/>
                        <polygon id="Fill-8" fill="#349CE2" points="0.606171761 20.5701536 13.3775837 20.5701536 13.3775837 18.4805403 0.606171761 18.4805403"/>
                        <polygon id="Fill-9" fill="#349CE2" points="5.92585153 25.8349344 8.04745269 25.8349344 8.04745269 13.2241179 5.92585153 13.2241179"/>
                        <polygon id="Fill-10" fill="#1976d2" points="33.3812518 13.3390467 56.5307424 13.3390467 56.5307424 11.2494334 33.3812518 11.2494334"/>
                        <polygon id="Fill-11" fill="#1976d2" points="43.8951965 23.734873 46.0167977 23.734873 46.0167977 0.864055111 43.8951965 0.864055111"/>
                    </g>
                    <g id="Group-12-Copy" opacity="0.6" transform="translate(36.151049, 685.606993) scale(-1, 1) translate(-36.151049, -685.606993) translate(0.000000, 660.000000)">
                        <polygon id="Fill-5" fill="#98D7F9" points="58.9031732 45.7489494 71.6745852 45.7489494 71.6745852 43.6593361 58.9031732 43.6593361"/>
                        <polygon id="Fill-7" fill="#98D7F9" points="64.2333042 51.014775 66.3549054 51.014775 66.3549054 38.4039585 64.2333042 38.4039585"/>
                        <polygon id="Fill-8" fill="#349CE2" points="0.606171761 20.5701536 13.3775837 20.5701536 13.3775837 18.4805403 0.606171761 18.4805403"/>
                        <polygon id="Fill-9" fill="#349CE2" points="5.92585153 25.8349344 8.04745269 25.8349344 8.04745269 13.2241179 5.92585153 13.2241179"/>
                        <polygon id="Fill-10" fill="#1976d2" points="33.3812518 13.3390467 56.5307424 13.3390467 56.5307424 11.2494334 33.3812518 11.2494334"/>
                        <polygon id="Fill-11" fill="#1976d2" points="43.8951965 23.734873 46.0167977 23.734873 46.0167977 0.864055111 43.8951965 0.864055111"/>
                    </g>
                    <g id="Group-26" opacity="0.6" transform="translate(505.000000, 216.000000)">
                        <polygon id="Fill-13" fill="#349CE2" points="128.414352 56.2544804 143.903086 56.2544804 143.903086 53.6529118 128.414352 53.6529118"/>
                        <polygon id="Fill-15" fill="#349CE2" points="134.873217 62.784522 137.444221 62.784522 137.444221 47.1124221 134.873217 47.1124221"/>
                        <polygon id="Fill-16" fill="#98D7F9" points="199.148326 24.9729689 214.647511 24.9729689 214.647511 22.3714003 199.148326 22.3714003"/>
                        <polygon id="Fill-17" fill="#98D7F9" points="205.617642 31.5030105 208.188646 31.5030105 208.188646 15.8309106 205.617642 15.8309106"/>
                        <polygon id="Fill-18" fill="#349CE2" points="0.397147016 59.4724849 15.8963319 59.4724849 15.8963319 56.8709163 0.397147016 56.8709163"/>
                        <polygon id="Fill-19" fill="#349CE2" points="6.85601164 66.0129746 9.42701601 66.0129746 9.42701601 50.3408747 6.85601164 50.3408747"/>
                        <polygon id="Fill-20" fill="#1976d2" points="36.8197089 29.6432547 64.9021834 29.6432547 64.9021834 27.0416861 36.8197089 27.0416861"/>
                        <polygon id="Fill-21" fill="#1976d2" points="49.5702183 42.546617 52.1412227 42.546617 52.1412227 14.1383238 49.5702183 14.1383238"/>
                        <polygon id="Fill-22" fill="#1976d2" points="146.787627 15.9876316 174.870102 15.9876316 174.870102 13.386063 146.787627 13.386063"/>
                        <polygon id="Fill-23" fill="#1976d2" points="159.548588 28.8909939 162.119592 28.8909939 162.119592 0.482700679 159.548588 0.482700679"/>
                        <polygon id="Fill-24" fill="#1976d2" points="86.2436099 71.404177 113.845328 71.404177 113.845328 68.8026084 86.2436099 68.8026084"/>
                        <polygon id="Fill-25" fill="#1976d2" points="98.7537409 84.0672338 101.324745 84.0672338 101.324745 56.1499997 98.7537409 56.1499997"/>
                    </g>
                    <g id="line" transform="translate(26.000000, 0.000000)">
                        <path d="M667.943898,519.976756 C665.046979,464.934981 640.880868,414.316692 599.896564,377.443729 C558.913251,340.570766 506.01796,321.859676 450.954692,324.755463 C450.37749,324.785204 449.798304,324.817919 449.222094,324.853609 C421.256567,326.551823 394.518833,333.714461 369.66246,346.128378 C355.673746,352.130124 345.235517,358.613674 330.943325,370.169067 C314.273895,382.857593 295.900629,392.875373 276.234114,399.966632 C253.886882,408.024476 230.401115,412.108914 206.428396,412.108914 C151.456369,412.108914 99.773996,390.710224 60.9021311,351.853532 C22.0302662,312.996841 0.623219286,261.334641 0.623219286,206.384072 C0.623219286,151.432512 22.0302662,99.7703121 60.9021311,60.914612 C99.773996,22.0579204 151.456369,0.659229629 206.428396,0.659229629 C235.848829,0.659229629 264.258663,6.73532766 290.867469,18.7179997 C316.477577,30.2525731 339.123326,46.6369217 358.178921,67.420964 L357.729655,67.8194941 L358.546862,67.9275533 L358.829512,67.676737 L359.06555,67.4665669 L358.852323,67.2335953 C339.694578,46.2760635 316.907007,29.7618457 291.123342,18.1509369 C264.433212,6.13059283 235.938087,0.0356587922 206.428396,0.0356587922 C151.289754,0.0356587922 99.4506837,21.4997799 60.4617916,60.4734529 C21.4719077,99.4481173 0.000396702283,151.266953 0.000396702283,206.384072 C0.000396702283,261.501191 21.4719077,313.320027 60.4617916,352.2937 C99.4506837,391.268364 151.289754,412.732485 206.428396,412.732485 C230.473514,412.732485 254.030687,408.634167 276.445358,400.552531 C296.086088,393.471185 314.439519,383.479181 331.101015,370.831301 L336.427734,366.664579 L336.405916,366.664579 C342.935635,361.806873 348.404176,358.064456 353.714036,354.90199 C358.967366,351.774223 364.068958,349.213518 369.88858,346.712295 C373.220879,345.046795 376.58789,343.475476 379.986637,341.999328 C402.402299,332.266072 426.227247,326.653934 450.988411,325.377051 C505.884073,322.490186 558.619691,341.14576 599.480026,377.906698 C640.340361,414.667637 664.433083,465.134246 667.321075,520.009471 C670.209068,574.885687 651.547201,627.599729 614.770916,668.444114 C578.379432,708.86122 528.558584,732.868201 474.326407,736.161528 C473.755155,736.196226 473.185888,736.228941 472.612653,736.258682 C448.673653,737.51772 425.005404,734.671501 402.265437,727.799334 C382.699089,721.88582 364.22268,713.108243 347.225971,701.694616 L347.247789,701.692634 L341.678089,697.857029 C324.279719,686.242154 305.354045,677.381302 285.320579,671.503478 C262.456643,664.794886 238.694177,662.133062 214.693688,663.590374 C159.656206,666.932277 109.214519,691.499382 72.6613785,732.765099 C48.8195713,759.679765 32.7630465,791.600842 25.3992603,825.81198 C25.2594228,826.465292 23.8422039,835.031708 22.4963914,842.858563 L23.1767358,843.037009 C23.772781,839.312437 24.5007297,834.59154 24.7893306,832.018939 C31.4757476,795.617867 47.9517851,761.599054 73.1275037,733.177508 C109.570559,692.036704 159.859515,667.543951 214.731375,664.211962 C238.659465,662.758615 262.349534,665.4135 285.144047,672.101273 C305.205281,677.987028 324.152774,686.872665 341.561062,698.528185 C360.045405,711.789723 380.400199,721.841209 402.085929,728.395146 C424.894327,735.289123 448.633983,738.144265 472.645381,736.881261 C473.216632,736.85152 473.794826,736.817814 474.365085,736.783116 C528.764869,733.479876 578.730513,709.403498 615.234066,668.860489 C652.121427,627.893174 670.840816,575.01853 667.943898,519.976756" id="Fill-27" fill="#579FD6"/>
                        <g id="Group-39" transform="translate(20.212329, 842.582011)">
                            <mask id="mask-2" fill="white">
                                <use xlink:href="#path-1"/>
                            </mask>
                            <g id="Clip-38"/>
                            <path d="M331.728697,189.417027 C315.059267,202.105554 296.686001,212.124325 277.019485,219.214593 C254.672254,227.272437 231.186487,231.356875 207.213768,231.356875 C152.241741,231.356875 100.559367,209.958184 61.6875025,171.101493 C22.8166293,132.244801 1.40859063,80.5835933 1.40859063,25.6320329 C1.40859063,17.0794962 1.92827062,8.60726029 2.95077075,0.250023156 L2.32398115,0.250023156 C1.30445628,8.60726029 0.785768046,17.0794962 0.785768046,25.6320329 C0.785768046,80.7501433 22.2582708,132.567988 61.2471629,171.541661 C100.236055,210.516325 152.075126,231.980446 207.213768,231.980446 C231.258885,231.980446 254.816058,227.882128 277.230729,219.800492 C296.871459,212.719146 315.22489,202.727142 331.886386,190.079262 L337.213106,185.91254 L337.191287,185.91254 C338.417097,185.001472 339.594311,184.140964 340.750698,183.30524 L340.750698,182.433827 C337.87659,184.549408 334.901323,186.852357 331.728697,189.417027" id="Fill-37" fill="#579FD6" mask="url(#mask-2)"/>
                        </g>
                    </g>
                    <path d="M45.4368019,134.218628 C45.4368019,137.100354 43.1000019,139.437256 40.2184009,139.437256 C37.3367999,139.437256 35,137.100354 35,134.218628 C35,131.336902 37.3367999,129 40.2184009,129 C43.1000019,129 45.4368019,131.336902 45.4368019,134.218628" id="Fill-1" fill="#1976d2"/>
                    <path d="M390.617118,67.9191787 C390.617118,70.8009051 388.280318,73.1378068 385.398717,73.1378068 C382.517116,73.1378068 380.180316,70.8009051 380.180316,67.9191787 C380.180316,65.0374523 382.517116,62.7005507 385.398717,62.7005507 C388.280318,62.7005507 390.617118,65.0374523 390.617118,67.9191787" id="Fill-3" fill="#1976d2"/>
                    <path d="M380.436802,357.218628 C380.436802,360.100354 378.100002,362.437256 375.218401,362.437256 C372.3368,362.437256 370,360.100354 370,357.218628 C370,354.336902 372.3368,352 375.218401,352 C378.100002,352 380.436802,354.336902 380.436802,357.218628" id="Fill-32" fill="#1976d2"/>
                    <path d="M89.4368019,753.218628 C89.4368019,756.100354 87.1000019,758.437256 84.2184009,758.437256 C81.3367999,758.437256 79,756.100354 79,753.218628 C79,750.336902 81.3367999,748 84.2184009,748 C87.1000019,748 89.4368019,750.336902 89.4368019,753.218628" id="Fill-34" fill="#1976d2"/>
                    <path d="M389.436802,1027.21863 C389.436802,1030.10035 387.100002,1032.43726 384.218401,1032.43726 C381.3368,1032.43726 379,1030.10035 379,1027.21863 C379,1024.3369 381.3368,1022 384.218401,1022 C387.100002,1022 389.436802,1024.3369 389.436802,1027.21863" id="Fill-34-Copy" fill="#1976d2"/>
                    <g id="Group-12" opacity="0.6" transform="translate(637.151049, 1201.606993) scale(1, -1) translate(-637.151049, -1201.606993) translate(601.000000, 1176.000000)">
                        <polygon id="Fill-5" fill="#98D7F9" points="58.9031732 45.7489494 71.6745852 45.7489494 71.6745852 43.6593361 58.9031732 43.6593361"/>
                        <polygon id="Fill-7" fill="#98D7F9" points="64.2333042 51.014775 66.3549054 51.014775 66.3549054 38.4039585 64.2333042 38.4039585"/>
                        <polygon id="Fill-8" fill="#349CE2" points="0.606171761 20.5701536 13.3775837 20.5701536 13.3775837 18.4805403 0.606171761 18.4805403"/>
                        <polygon id="Fill-9" fill="#349CE2" points="5.92585153 25.8349344 8.04745269 25.8349344 8.04745269 13.2241179 5.92585153 13.2241179"/>
                        <polygon id="Fill-10" fill="#1976d2" points="33.3812518 13.3390467 56.5307424 13.3390467 56.5307424 11.2494334 33.3812518 11.2494334"/>
                        <polygon id="Fill-11" fill="#1976d2" points="43.8951965 23.734873 46.0167977 23.734873 46.0167977 0.864055111 43.8951965 0.864055111"/>
                    </g>
                </g>
            </g>
        </g>
    </g>
</svg>
