<svg xmlns="http://www.w3.org/2000/svg" id="line-large" data-name="Layer 1" viewBox="0 0 1370 629.83"  xml:space="preserve" width="100%" height="100%" preserveAspectRatio="xMaxYMax">
    <defs>
        <style>
            #line-large .cls-1 {
                fill: #579fd6;
            }

            #line-large .cls-2 {
                fill: #1976d2;
            }

            #line-large .cls-3 {
                opacity: 0.3;
            }

            #line-large .cls-4 {
                fill: #98d7f9;
            }

            #line-large .cls-5 {
                fill: #349ce2;
            }
        </style>
    </defs>
    <title>line</title>
    <g>
        <path class="cls-1" d="M1342.6,318.56A208.14,208.14,0,0,0,1060.2,240l-1.51.85a207.17,207.17,0,0,0-90.34,104A207.62,207.62,0,0,1,626.82,404c-3-3.66-11-12.52-11.07-12.58-1.57-1.65-3.17-3.29-4.8-4.9A206.74,206.74,0,0,0,465,326.72h-1.74a207.17,207.17,0,0,0-129.59,46.63A207.51,207.51,0,0,1,61.41,61.41,207.36,207.36,0,0,1,361.16,68l-0.45.4,0.82,0.11,0.28-.25,0.24-.21-0.21-.24a208.31,208.31,0,1,0-28,306.24l5.37-4.2h0a206.41,206.41,0,0,1,124.08-42.47H465c54.78,0,106.73,20.78,145.49,59.59,3.64,3.64,19.42,21.17,20.21,22a208,208,0,0,0,338.1-63.64l2.64-6.29h0A206.41,206.41,0,0,1,1059,241.35l1.51-.85a207.57,207.57,0,1,1,37.56,378.63l-0.51.39,0.06,0.12,0.13,0a207.58,207.58,0,0,0,165.57-16.36l1.52-.86A208.15,208.15,0,0,0,1342.6,318.56Z"/>
        <circle class="cls-2" cx="15" cy="127.41" r="5"/>
        <circle class="cls-2" cx="359.69" cy="65.99" r="5"/>
        <circle class="cls-2" cx="368.69" cy="350.67" r="5"/>
        <circle class="cls-2" cx="695.11" cy="452.29" r="5"/>
        <circle class="cls-2" cx="1356.46" cy="350.67" r="5"/>
        <circle class="cls-2" cx="1097.09" cy="619.06" r="5"/>
        <g class="cls-3">
            <g>
                <rect class="cls-4" x="1191.42" y="509.38" width="12.22" height="2"/>
                <rect class="cls-4" x="1196.51" y="504.35" width="2.03" height="12.07"/>
            </g>
            <g>
                <rect class="cls-5" x="1247.2" y="533.49" width="12.22" height="2"/>
                <rect class="cls-5" x="1252.3" y="528.45" width="2.03" height="12.07"/>
            </g>
            <g>
                <rect class="cls-2" x="1205.91" y="540.41" width="22.15" height="2"/>
                <rect class="cls-2" x="1215.97" y="530.46" width="2.03" height="21.89"/>
            </g>
        </g>
        <g class="cls-3">
            <g>
                <rect class="cls-4" x="211.36" y="125.95" width="12.22" height="2"/>
                <rect class="cls-4" x="216.46" y="120.92" width="2.03" height="12.07"/>
            </g>
            <g>
                <rect class="cls-5" x="155.58" y="101.85" width="12.22" height="2"/>
                <rect class="cls-5" x="160.67" y="96.82" width="2.03" height="12.07"/>
            </g>
            <g>
                <rect class="cls-2" x="186.94" y="94.93" width="22.15" height="2"/>
                <rect class="cls-2" x="197" y="84.99" width="2.03" height="21.89"/>
            </g>
        </g>
        <g class="cls-3">
            <g>
                <rect class="cls-5" x="691.54" y="212.88" width="14.82" height="2.49"/>
                <rect class="cls-5" x="697.72" y="206.62" width="2.46" height="15"/>
            </g>
            <g>
                <rect class="cls-4" x="759.22" y="182.94" width="14.83" height="2.49"/>
                <rect class="cls-4" x="765.41" y="176.68" width="2.46" height="15"/>
            </g>
            <g>
                <rect class="cls-5" x="569.05" y="215.96" width="14.83" height="2.49"/>
                <rect class="cls-5" x="575.23" y="209.71" width="2.46" height="15"/>
            </g>
            <g>
                <rect class="cls-2" x="603.9" y="187.41" width="26.87" height="2.49"/>
                <rect class="cls-2" x="616.1" y="175.06" width="2.46" height="27.19"/>
            </g>
            <g>
                <rect class="cls-2" x="709.12" y="174.34" width="26.87" height="2.49"/>
                <rect class="cls-2" x="721.33" y="161.99" width="2.46" height="27.19"/>
            </g>
            <g>
                <rect class="cls-2" x="651.19" y="227.38" width="26.41" height="2.49"/>
                <rect class="cls-2" x="663.16" y="215.27" width="2.46" height="26.72"/>
            </g>
        </g>
    </g>
</svg>
