<svg id="development-img" width="141px" height="111px" viewBox="0 0 141 111" version="1.1" xmlns="http://www.w3.org/2000/svg" xmlns:xlink="http://www.w3.org/1999/xlink">
  <!-- Generator: sketchtool 40 (33762) - http://www.bohemiancoding.com/sketch -->
  <title>EC1F7325-F225-46C8-888E-F20247657E1B</title>
  <desc>Created with sketchtool.</desc>
  <defs>
    <polygon id="path-1" points="0 110.714689 140.376977 110.714689 140.376977 0 0 0"></polygon>
  </defs>
  <g id="Desktop" stroke="none" stroke-width="1" fill="none" fill-rule="evenodd">
    <g id="ABOUT" transform="translate(-593.000000, -1807.000000)">
      <g id="PERSONAL-DEV" transform="translate(593.000000, 1807.000000)">
        <path d="M63.6833058,60.3119733 C63.6833058,67.5968622 57.7949163,73.5028844 50.5317767,73.5028844 C43.2686372,73.5028844 37.3810674,67.5968622 37.3810674,60.3119733 C37.3810674,53.0270844 43.2686372,47.1210622 50.5317767,47.1210622 C57.7949163,47.1210622 63.6833058,53.0270844 63.6833058,60.3119733 L63.6833058,60.3119733 Z" id="Fill-1" fill="#26C6DA"></path>
        <path d="M107.500859,79.0301911 C105.612935,79.0301911 104.07751,80.5702133 104.07751,82.4637911 C104.07751,84.3573689 105.612935,85.8990356 107.500859,85.8990356 C109.388784,85.8990356 110.924208,84.3573689 110.924208,82.4637911 C110.924208,80.5702133 109.388784,79.0301911 107.500859,79.0301911 M107.500859,88.3657022 C104.25704,88.3657022 101.618208,85.7181467 101.618208,82.4637911 C101.618208,79.2102578 104.25704,76.5635244 107.500859,76.5635244 C110.744679,76.5635244 113.38351,79.2102578 113.38351,82.4637911 C113.38351,85.7181467 110.744679,88.3657022 107.500859,88.3657022" id="Fill-3" fill="#26C6DA"></path>
        <mask id="mask-2" fill="white">
          <use xlink:href="#path-1"></use>
        </mask>
        <g id="Clip-6"></g>
        <polygon id="Fill-5" fill="#26C6DA" mask="url(#mask-2)" points="106.271372 76.7914444 108.730674 76.7914444 108.730674 72.3785778 106.271372 72.3785778"></polygon>
        <polygon id="Fill-7" fill="#26C6DA" mask="url(#mask-2)" points="106.271372 92.5501556 108.730674 92.5501556 108.730674 88.1372889 106.271372 88.1372889"></polygon>
        <polygon id="Fill-8" fill="#26C6DA" mask="url(#mask-2)" points="101.987431 80.69552 98.1771523 78.4886756 99.4068035 76.3533644 103.217083 78.5593867"></polygon>
        <polygon id="Fill-9" fill="#26C6DA" mask="url(#mask-2)" points="115.595243 88.5756156 111.784964 86.3687711 113.014615 84.23346 116.824894 86.4394822"></polygon>
        <polygon id="Fill-10" fill="#26C6DA" mask="url(#mask-2)" points="99.4063936 88.5756156 98.1767424 86.4394822 101.987022 84.23346 103.216673 86.3687711"></polygon>
        <polygon id="Fill-11" fill="#26C6DA" mask="url(#mask-2)" points="113.014287 80.69552 111.784636 78.5593867 115.594915 76.3533644 116.824566 78.4886756"></polygon>
        <path d="M63.6828959,68.0113444 C60.8628959,70.8389667 57.1140994,72.3970778 53.1275703,72.3979 L53.125111,72.3979 C49.138582,72.3979 45.391425,70.8406111 42.5730645,68.0138111 C39.7530645,65.1853667 38.200425,61.4261667 38.200425,57.4268778 C38.200425,53.4275889 39.7530645,49.6667444 42.5730645,46.8391222 C45.3922448,44.0115 49.1402215,42.4542111 53.1275703,42.4542111 L53.1283901,42.4542111 C57.115739,42.4542111 60.8637157,44.0123222 63.6828959,46.8399444 C66.5020762,49.6675667 68.0547157,53.4267667 68.0547157,57.4252333 C68.0547157,61.4237 66.5020762,65.1837222 63.6828959,68.0113444 M53.1283901,39.9875444 L53.1275703,39.9875444 C48.4835878,39.9875444 44.1175064,41.8013667 40.833518,45.0951889 C37.5495297,48.3890111 35.7411227,52.7681667 35.7411227,57.4268778 C35.7411227,62.0847667 37.5503494,66.4639222 40.833518,69.7577444 C44.1166866,73.0507444 48.4819483,74.8645667 53.125111,74.8645667 L53.1275703,74.8645667 C57.7715529,74.8637444 62.1376343,73.0491 65.4216227,69.7552778 C68.705611,66.4614556 70.514018,62.0823 70.514018,57.4252333 C70.514018,52.7681667 68.705611,48.3898333 65.4224424,45.0960111 C62.1384541,41.8021889 57.7723727,39.9875444 53.1283901,39.9875444" id="Fill-12" fill="#1976D2" mask="url(#mask-2)"></path>
        <path d="M22.295461,16.4835 L32.3343331,25.0050111 L33.092618,24.5396333 C37.0488157,22.1107889 41.3599727,20.4383889 45.9055831,19.5701222 L46.8229029,19.3949889 L47.8861413,6.60778889 L60.1908506,6.60861111 L61.2827808,19.7510111 L62.1468157,19.9590333 C66.6465192,21.0443667 70.8716006,22.9206778 74.7072924,25.5378111 L75.4795134,26.0648556 L85.2478622,17.7743889 L93.9480541,26.5022778 L87.680932,34.0955 L89.3819494,35.8583444 L97.2869669,26.3625 L85.3872227,14.4246556 L75.3090017,22.9774111 C71.6872692,20.6258556 67.7515657,18.8802778 63.5863273,17.7793222 L62.4542285,4.14194444 L45.6235831,4.14112222 L44.5267343,17.3328556 C40.315589,18.2381222 36.3028273,19.7970556 32.574525,21.9775889 L22.1569203,13.1354111 L15.665182,19.6441222 L17.4039087,21.3880556 L22.295461,16.4835 Z" id="Fill-13" fill="#1976D2" mask="url(#mask-2)"></path>
        <path d="M106.252763,66.7803956 L106.254403,49.9001733 L96.3261994,48.92584 L94.1464378,51.1113067 L103.795101,52.1686844 L103.793461,64.5110622 L90.6919378,65.6062622 L90.4845366,66.4728844 C89.4049029,70.9811289 87.5333738,75.2196844 84.9215948,79.0709733 L84.3953041,79.8463289 L92.6626587,89.6455733 L89.058961,93.2575956 L90.7976878,95.0015289 L96.0023913,89.7853511 L87.472711,79.6753067 C89.8213448,76.0386178 91.561711,72.0911289 92.6577401,67.9175289 L106.252763,66.7803956 Z" id="Fill-14" fill="#1976D2" mask="url(#mask-2)"></path>
        <path d="M83.9604994,98.3685289 L73.9199878,89.8494844 L73.1625227,90.3148622 C69.2104238,92.7428844 64.8992669,94.4144622 60.3495576,95.2851956 L59.431418,95.4611511 L58.3689994,108.248351 L46.0626506,108.245062 L44.9731797,95.1043067 L44.1091448,94.8962844 C39.617639,93.8134178 35.390918,91.9362844 31.5478483,89.3166844 L30.7756273,88.7904622 L21.0080983,97.0792844 L12.3079064,88.3522178 L20.8006971,78.28164 L20.3375285,77.5219067 C17.9167552,73.5522178 16.2493483,69.2289733 15.3836738,64.6697511 L15.2082436,63.7496844 L2.46085988,62.6857289 L2.45922035,50.3441733 L15.5607436,49.2497956 L15.7689645,48.3831733 C16.8567959,43.8625956 18.7291448,39.6232178 21.3360052,35.7826178 L21.8622959,35.0072622 L13.5941215,25.2080178 L17.4044006,21.3879733 L15.6648541,19.64404 L10.254389,25.0690622 L18.7840692,35.1774622 C16.4403541,38.8067511 14.699168,42.75424 13.5974006,46.9377067 L-8.19767442e-05,48.07484 L0.00155755814,64.95424 L13.1530866,66.0527289 C14.0564703,70.2756622 15.6107494,74.3012622 17.7823134,78.0407289 L8.9689936,88.4919956 L20.8687378,100.427373 L30.9469587,91.8762622 C34.5744297,94.2311067 38.5101331,95.9766844 42.6688134,97.0759956 L43.7992727,110.711729 L60.6315576,110.715018 L61.7284064,97.52164 C65.9428308,96.6155511 69.9555924,95.0566178 73.6814355,92.8769067 L84.0990401,101.716618 L90.7981797,95.0015289 L89.0586331,93.2575956 L83.9604994,98.3685289 Z" id="Fill-15" fill="#1976D2" mask="url(#mask-2)"></path>
        <polygon id="Fill-16" fill="#1976D2" mask="url(#mask-2)" points="138.277716 0.361037778 92.4781291 46.2977711 91.7444372 47.03366 89.386786 44.6689489 80.4570593 35.7124822 74.8465709 41.3414156 76.5852977 43.0853489 80.4570593 39.2003489 90.7279256 49.5019711 91.7444372 50.5215267 93.4331581 48.8277489 140.016443 2.10497111"></polygon>
        <polygon id="Fill-17" fill="#1976D2" mask="url(#mask-2)" points="47.9144233 71.8397756 44.9214523 71.3538422 67.2830686 48.9260867 69.0226151 50.67002"></polygon>
        <polygon id="Fill-18" fill="#1976D2" mask="url(#mask-2)" points="140.376813 15.7246711 137.91751 15.7246711 137.91751 2.46633778 124.69876 2.46633778 124.69876 -0.000328888889 140.376813 -0.000328888889"></polygon>
        <polygon id="Fill-19" fill="#26C6DA" mask="url(#mask-2)" points="123.793737 43.5293489 121.334435 43.5293489 121.334435 30.2718378 108.115685 30.2718378 108.115685 27.8051711 123.793737 27.8051711"></polygon>
        <polygon id="Fill-20" fill="#26C6DA" mask="url(#mask-2)" points="89.0833081 64.2398111 61.7194709 37.6162556 38.929936 60.4723889 37.1912093 58.7284556 61.7194709 34.1283889 89.0833081 60.7519444 120.722233 29.0182778 122.460959 30.7622111"></polygon>
        <path d="M53.125193,74.8644844 C48.4812105,74.8644844 44.1167686,73.0506622 40.8336,69.7576622 C37.5496116,66.46384 35.7412047,62.0846844 35.7412047,57.4267956 C35.7412047,52.7680844 37.5496116,48.3889289 40.8336,45.0951067 L42.5723267,46.83904 C39.7531465,49.6666622 38.200507,53.4275067 38.200507,57.4267956 C38.200507,61.4260844 39.7531465,65.1861067 42.5723267,68.0137289 C45.3906872,70.8405289 49.138664,72.3978178 53.125193,72.3978178 L53.1268326,72.3978178 C57.1141814,72.3969956 60.8629779,70.8388844 63.6829779,68.0112622 L65.4217047,69.7551956 C62.1377163,73.0490178 57.7708151,74.8636622 53.1268326,74.8644844 L53.125193,74.8644844 Z" id="Fill-21" fill="#1976D2" mask="url(#mask-2)"></path>
        <path d="M53.1304395,83.3925733 C46.2148814,83.3925733 39.7141256,80.6915733 34.823393,75.78784 C29.9334802,70.8824622 27.2405442,64.3614178 27.2405442,57.4259733 L29.6998465,57.4259733 C29.6998465,63.70364 32.1370151,69.6039067 36.5629395,74.0430844 C40.9880442,78.48144 46.8723349,80.9259067 53.1304395,80.9259067 L53.1304395,83.3925733 Z" id="Fill-22" fill="#1976D2" mask="url(#mask-2)"></path>
      </g>
    </g>
  </g>
</svg>