<svg id="fun-img" xmlns="http://www.w3.org/2000/svg" width="100%" height="100%" viewBox="0 0 306 180" xmlns:xlink="http://www.w3.org/1999/xlink">
  <defs>
    <rect id="a" width="306" height="180"/>
    <mask id="b" width="306" height="180" x="0" y="0" fill="white">
      <use xlink:href="#fun-img#a"/>
    </mask>
    <polygon id="c" points="0 107.659 106.69 107.659 106.69 0 0 0"/>
  </defs>
  <g fill="none" fill-rule="evenodd">
    <use fill="#FFFFFF" stroke="#E1E1E1" stroke-width="2" mask="url(#fun-img#b)" xlink:href="#fun-img#a"/>
    <g transform="translate(101 36)">
      <path fill="#1976D2" d="M9.89944545 8.2593C9.03479899 8.2593 8.33065253 8.96292 8.33065253 9.82692 8.33065253 10.69092 9.03479899 11.394 9.89944545 11.394 10.7640919 11.394 11.4682384 10.69092 11.4682384 9.82692 11.4682384 8.96292 10.7640919 8.2593 9.89944545 8.2593L9.89944545 8.2593zM20.2371045 8.2593C19.3719177 8.2593 18.6683116 8.96292 18.6683116 9.82692 18.6683116 10.69092 19.3719177 11.394 20.2371045 11.394 21.101751 11.394 21.8053571 10.69092 21.8053571 9.82692 21.8053571 8.96292 21.101751 8.2593 20.2371045 8.2593M30.5746015 8.2593C29.7099551 8.2593 29.0058086 8.96292 29.0058086 9.82692 29.0058086 10.69092 29.7099551 11.394 30.5746015 11.394 31.439248 11.394 32.142854 10.69092 32.142854 9.82692 32.142854 8.96292 31.439248 8.2593 30.5746015 8.2593M82.6957066 97.79022C81.8861813 97.79022 81.2279692 98.44848 81.2279692 99.25686 81.2279692 100.06578 81.8861813 100.72404 82.6957066 100.72404 83.5057722 100.72404 84.1639843 100.06578 84.1639843 99.25686 84.1639843 98.44848 83.5057722 97.79022 82.6957066 97.79022M101.190657 54.409104C101.190657 55.125144 101.576505 57.728484 101.900207 57.977964 102.090429 57.995244 102.312535 57.930444 102.486005 57.779784 102.657313 57.631284 102.755667 57.415824 102.755667 57.189564L102.755667 36.363384 101.190657 36.363384 101.190657 54.409104z"/>
      <path fill="#1976D2" d="M101.190657,10.364868 L74.5163131,10.364868 C74.2796162,10.364868 74.0580505,10.470168 73.9094394,10.653768 L67.9790455,17.955108 L1.70011111,17.955108 L1.70011111,1.698408 L101.190657,1.698408 L101.190657,10.364868 Z M101.190657,31.045248 L60.3690758,31.045248 C56.6759545,31.045248 53.6718485,34.047108 53.6718485,37.737468 L53.6718485,44.731008 C53.6718485,46.319688 52.9531111,47.792808 51.7004545,48.770748 L51.4551111,48.963528 C49.8203889,50.240088 48.8833283,52.161408 48.8833283,54.235008 C48.8833283,57.062988 46.5806667,59.363388 43.7505707,59.363388 L41.0663838,59.363388 C39.0015,59.363388 37.0284848,60.246288 35.653697,61.786368 C34.2789091,63.325368 33.6244798,65.384388 33.8584747,67.434768 L35.124101,78.515028 C35.281899,79.897428 34.8409293,81.284688 33.9141364,82.322568 C32.9873434,83.360448 31.6574091,83.954988 30.2653283,83.954988 C28.8737879,83.954988 27.5443939,83.360448 26.617601,82.322568 C25.6913485,81.285228 25.2503788,79.897428 25.4076364,78.515028 L26.6732626,67.434768 C26.9072576,65.384388 26.2528283,63.325368 24.8780404,61.786368 C23.5032525,60.246288 21.5302374,59.363388 19.4653535,59.363388 L1.70011111,59.363388 L1.70011111,19.518408 L101.190657,19.518408 L101.190657,31.045248 Z M102.755667,0.917028 C102.755667,0.485568 102.404404,0.135108 101.973162,0.135108 L0.917606061,0.135108 C0.485823232,0.135108 0.13510101,0.485568 0.13510101,0.917028 L0.13510101,102.887388 C0.13510101,103.117428 0.235616162,103.333968 0.410707071,103.483008 C0.5885,103.633668 0.816010101,103.695228 1.05054545,103.658508 C1.42072222,103.598028 1.70011111,103.242708 1.70011111,102.831228 L1.70011111,60.927228 L19.4653535,60.927228 C21.0849444,60.927228 22.6321212,61.619508 23.7102273,62.826948 C24.7888737,64.034388 25.3017172,65.648988 25.1185202,67.257108 L23.8528939,78.337908 C23.644298,80.162028 24.2268535,81.993708 25.4503283,83.363688 C26.6732626,84.733128 28.4284949,85.518828 30.2658687,85.518828 C32.1032424,85.518828 33.8584747,84.733128 35.0814091,83.363688 C36.3048838,81.993708 36.886899,80.162028 36.6788434,78.337908 L35.4132172,67.257108 C35.2294798,65.648988 35.7428636,64.034388 36.8209697,62.826948 C37.8990758,61.619508 39.4467929,60.927228 41.0663838,60.927228 L43.7505707,60.927228 C47.4436919,60.927228 50.4483384,57.924828 50.4483384,54.235008 C50.4483384,52.645788 51.1665354,51.172668 52.4191919,50.194728 L52.6645354,50.002488 C54.2992576,48.725388 55.2363182,46.803528 55.2363182,44.731008 L55.2363182,37.737468 C55.2363182,34.909488 57.5389798,32.608548 60.3690758,32.608548 L101.190657,32.608548 L101.190657,35.968428 L102.755667,35.968428 L102.755667,0.917028 Z"/>
      <path stroke="#1976D2" stroke-width=".5" d="M101.190657,10.364868 L74.5163131,10.364868 C74.2796162,10.364868 74.0580505,10.470168 73.9094394,10.653768 L67.9790455,17.955108 L1.70011111,17.955108 L1.70011111,1.698408 L101.190657,1.698408 L101.190657,10.364868 L101.190657,10.364868 Z M101.190657,31.045248 L60.3690758,31.045248 C56.6759545,31.045248 53.6718485,34.047108 53.6718485,37.737468 L53.6718485,44.731008 C53.6718485,46.319688 52.9531111,47.792808 51.7004545,48.770748 L51.4551111,48.963528 C49.8203889,50.240088 48.8833283,52.161408 48.8833283,54.235008 C48.8833283,57.062988 46.5806667,59.363388 43.7505707,59.363388 L41.0663838,59.363388 C39.0015,59.363388 37.0284848,60.246288 35.653697,61.786368 C34.2789091,63.325368 33.6244798,65.384388 33.8584747,67.434768 L35.124101,78.515028 C35.281899,79.897428 34.8409293,81.284688 33.9141364,82.322568 C32.9873434,83.360448 31.6574091,83.954988 30.2653283,83.954988 C28.8737879,83.954988 27.5443939,83.360448 26.617601,82.322568 C25.6913485,81.285228 25.2503788,79.897428 25.4076364,78.515028 L26.6732626,67.434768 C26.9072576,65.384388 26.2528283,63.325368 24.8780404,61.786368 C23.5032525,60.246288 21.5302374,59.363388 19.4653535,59.363388 L1.70011111,59.363388 L1.70011111,19.518408 L101.190657,19.518408 L101.190657,31.045248 L101.190657,31.045248 Z M102.755667,0.917028 C102.755667,0.485568 102.404404,0.135108 101.973162,0.135108 L0.917606061,0.135108 C0.485823232,0.135108 0.13510101,0.485568 0.13510101,0.917028 L0.13510101,102.887388 C0.13510101,103.117428 0.235616162,103.333968 0.410707071,103.483008 C0.5885,103.633668 0.816010101,103.695228 1.05054545,103.658508 C1.42072222,103.598028 1.70011111,103.242708 1.70011111,102.831228 L1.70011111,60.927228 L19.4653535,60.927228 C21.0849444,60.927228 22.6321212,61.619508 23.7102273,62.826948 C24.7888737,64.034388 25.3017172,65.648988 25.1185202,67.257108 L23.8528939,78.337908 C23.644298,80.162028 24.2268535,81.993708 25.4503283,83.363688 C26.6732626,84.733128 28.4284949,85.518828 30.2658687,85.518828 C32.1032424,85.518828 33.8584747,84.733128 35.0814091,83.363688 C36.3048838,81.993708 36.886899,80.162028 36.6788434,78.337908 L35.4132172,67.257108 C35.2294798,65.648988 35.7428636,64.034388 36.8209697,62.826948 C37.8990758,61.619508 39.4467929,60.927228 41.0663838,60.927228 L43.7505707,60.927228 C47.4436919,60.927228 50.4483384,57.924828 50.4483384,54.235008 C50.4483384,52.645788 51.1665354,51.172668 52.4191919,50.194728 L52.6645354,50.002488 C54.2992576,48.725388 55.2363182,46.803528 55.2363182,44.731008 L55.2363182,37.737468 C55.2363182,34.909488 57.5389798,32.608548 60.3690758,32.608548 L101.190657,32.608548 L101.190657,35.968428 L102.755667,35.968428 L102.755667,0.917028 L102.755667,0.917028 Z"/>
      <mask id="d" fill="white">
        <use xlink:href="#fun-img#c"/>
      </mask>
      <polygon fill="#26C6DA" points="59.349 54.047 106.043 54.047 106.043 31.827 59.349 31.827" mask="url(#fun-img#d)"/>
      <path fill="#1976D2" d="M59.861096,53.53506 L105.530101,53.53506 L105.530101,32.33844 L59.861096,32.33844 L59.861096,53.53506 Z M105.530101,65.9475 C105.530101,69.17184 102.904818,71.79516 99.6780657,71.79516 L92.9997525,71.79516 C91.8724697,71.79516 90.8213838,72.2439 90.0421212,73.0593 C89.263399,73.8747 88.8624192,74.94282 88.914298,76.06872 L89.9594394,98.90262 C90.0523889,100.9341 89.3201414,102.85488 87.8983384,104.31018 C86.514904,105.7266 84.6742879,106.50042 82.7012727,106.50042 C82.6461515,106.50042 82.5910303,106.49988 82.5359091,106.49934 C80.6417929,106.4583 78.8638636,105.65046 77.5296061,104.22486 C76.1110455,102.70854 75.3523182,100.6479 75.4479697,98.56944 L76.4774394,76.06872 C76.5287778,74.94282 76.1283384,73.8747 75.3490758,73.0593 C74.5698131,72.2439 73.5192677,71.79516 72.3914444,71.79516 L65.7142121,71.79516 C62.4863788,71.79516 59.861096,69.17184 59.861096,65.9475 L59.861096,60.65712 L105.530101,60.65712 L105.530101,65.9475 Z M106.042944,31.31514 L59.3487929,31.31514 C59.066702,31.31514 58.8364899,31.54464 58.8364899,31.82652 L58.8364899,65.9475 C58.8364899,69.73614 61.9216566,72.81846 65.7142121,72.81846 L72.3914444,72.81846 C73.2366364,72.81846 74.0240051,73.15488 74.6087222,73.76616 C75.1923586,74.37636 75.4928232,75.17826 75.4539141,76.02228 L74.4244444,98.523 C74.316904,100.87524 75.1761465,103.20858 76.7816869,104.92362 C78.3061667,106.55334 80.3418687,107.47566 82.5137525,107.52156 L82.6996515,107.52372 C84.9504343,107.52372 87.0574697,106.6365 88.6316667,105.02568 C90.2296414,103.38894 91.0867222,101.14038 90.9824242,98.85618 L89.9378232,76.02228 C89.8983737,75.1788 90.1988384,74.3769 90.7835556,73.76562 C91.3671919,73.15488 92.1540202,72.81846 92.9997525,72.81846 L99.6780657,72.81846 C103.470081,72.81846 106.554707,69.73614 106.554707,65.9475 L106.554707,31.82652 C106.554707,31.54464 106.325035,31.31514 106.042944,31.31514 L106.042944,31.31514 Z" mask="url(#fun-img#d)"/>
      <path stroke="#1976D2" stroke-width=".5" d="M59.861096,53.53506 L105.530101,53.53506 L105.530101,32.33844 L59.861096,32.33844 L59.861096,53.53506 Z M105.530101,65.9475 C105.530101,69.17184 102.904818,71.79516 99.6780657,71.79516 L92.9997525,71.79516 C91.8724697,71.79516 90.8213838,72.2439 90.0421212,73.0593 C89.263399,73.8747 88.8624192,74.94282 88.914298,76.06872 L89.9594394,98.90262 C90.0523889,100.9341 89.3201414,102.85488 87.8983384,104.31018 C86.514904,105.7266 84.6742879,106.50042 82.7012727,106.50042 C82.6461515,106.50042 82.5910303,106.49988 82.5359091,106.49934 C80.6417929,106.4583 78.8638636,105.65046 77.5296061,104.22486 C76.1110455,102.70854 75.3523182,100.6479 75.4479697,98.56944 L76.4774394,76.06872 C76.5287778,74.94282 76.1283384,73.8747 75.3490758,73.0593 C74.5698131,72.2439 73.5192677,71.79516 72.3914444,71.79516 L65.7142121,71.79516 C62.4863788,71.79516 59.861096,69.17184 59.861096,65.9475 L59.861096,60.65712 L105.530101,60.65712 L105.530101,65.9475 L105.530101,65.9475 Z M106.042944,31.31514 L59.3487929,31.31514 C59.066702,31.31514 58.8364899,31.54464 58.8364899,31.82652 L58.8364899,65.9475 C58.8364899,69.73614 61.9216566,72.81846 65.7142121,72.81846 L72.3914444,72.81846 C73.2366364,72.81846 74.0240051,73.15488 74.6087222,73.76616 C75.1923586,74.37636 75.4928232,75.17826 75.4539141,76.02228 L74.4244444,98.523 C74.316904,100.87524 75.1761465,103.20858 76.7816869,104.92362 C78.3061667,106.55334 80.3418687,107.47566 82.5137525,107.52156 L82.6996515,107.52372 C84.9504343,107.52372 87.0574697,106.6365 88.6316667,105.02568 C90.2296414,103.38894 91.0867222,101.14038 90.9824242,98.85618 L89.9378232,76.02228 C89.8983737,75.1788 90.1988384,74.3769 90.7835556,73.76562 C91.3671919,73.15488 92.1540202,72.81846 92.9997525,72.81846 L99.6780657,72.81846 C103.470081,72.81846 106.554707,69.73614 106.554707,65.9475 L106.554707,31.82652 C106.554707,31.54464 106.325035,31.31514 106.042944,31.31514 L106.042944,31.31514 Z" mask="url(#fun-img#d)"/>
      <path fill="#1976D2" d="M105.676172,35.235972 L91.410046,35.235972 C89.3457025,35.235972 87.4051116,36.038952 85.9460207,37.497492 C84.9738338,38.467872 83.3936924,38.467872 82.422046,37.497492 C81.6746672,36.750672 80.6808641,36.339192 79.6232934,36.339192 L77.3384652,36.339192 C75.0244551,36.339192 73.1416874,38.220012 73.1416874,40.532292 L73.1416874,42.262992 C73.1416874,43.766892 71.9171318,44.990532 70.4121066,44.990532 C68.9065409,44.990532 67.6819854,43.766892 67.6819854,42.262992 L67.6819854,41.319072 C67.6819854,39.006252 65.7992177,37.125432 63.485748,37.125432 L59.715349,37.125432 C59.3111268,37.125432 58.9825611,37.453752 58.9825611,37.857672 C58.9825611,38.262132 59.3111268,38.590992 59.715349,38.590992 L63.485748,38.590992 C64.9907732,38.590992 66.2153288,39.814632 66.2153288,41.319072 L66.2153288,42.262992 C66.2153288,44.574732 68.0975561,46.455552 70.4121066,46.455552 C72.7255763,46.455552 74.6083439,44.574732 74.6083439,42.262992 L74.6083439,40.532292 C74.6083439,39.027852 75.8328995,37.804752 77.3384652,37.804752 L79.6232934,37.804752 C80.2885308,37.804752 80.9137783,38.063412 81.3850106,38.533212 C82.1329298,39.280572 83.1267328,39.692052 84.1837631,39.692052 C85.2413338,39.692052 86.2351369,39.280572 86.9825157,38.533212 C88.1654601,37.351692 89.7380359,36.700992 91.410046,36.700992 L105.676172,36.700992 C106.080394,36.700992 106.40896,36.372132 106.40896,35.968212 C106.40896,35.564292 106.080394,35.235972 105.676172,35.235972" mask="url(#fun-img#d)"/>
    </g>
  </g>
</svg>
