<svg xmlns="http://www.w3.org/2000/svg" id="AgileM" viewBox="0 0 225 109" xml:space="preserve" width="100%" height="100%" preserveAspectRatio="xMaxYMax">
  <defs>
    <style>
      #AgileM .cls-1 {
        fill: #26c6da;
      }

      #AgileM .cls-2 {
        fill: none;
      }

      #AgileM .cls-3 {
        fill: #1976d2;
      }
    </style>
  </defs>
  <title>Vector Smart Object9</title>
  <g>
    <rect class="cls-1" x="31.21" y="35.75" width="42.96" height="42.57"/>
    <ellipse class="cls-1" cx="105.53" cy="54.5" rx="3.52" ry="3.49"/>
    <ellipse class="cls-1" cx="4.1" cy="54.5" rx="3.52" ry="3.49"/>
    <ellipse class="cls-1" cx="55.42" cy="104.52" rx="3.37" ry="3.34"/>
    <ellipse class="cls-1" cx="55.42" cy="4.44" rx="3.37" ry="3.34"/>
    <ellipse class="cls-2" cx="4.48" cy="54.5" rx="2.43" ry="2.4"/>
    <path class="cls-3" d="M22.31,33.9a0.76,0.76,0,0,0,.76-0.76V22.86H33.45a0.76,0.76,0,1,0,0-1.51H22.31a0.76,0.76,0,0,0-.76.75v11A0.76,0.76,0,0,0,22.31,33.9Z" transform="translate(0 0)"/>
    <path class="cls-3" d="M76.55,22.86H86.93V33.15a0.76,0.76,0,0,0,1.52,0v-11a0.76,0.76,0,0,0-.76-0.75H76.55A0.76,0.76,0,1,0,76.55,22.86Z" transform="translate(0 0)"/>
    <path class="cls-3" d="M33.45,86.14H23.07V75.85a0.76,0.76,0,0,0-1.52,0v11a0.76,0.76,0,0,0,.76.75H33.45A0.76,0.76,0,1,0,33.45,86.14Z" transform="translate(0 0)"/>
    <path class="cls-3" d="M87.69,75.1a0.76,0.76,0,0,0-.76.75V86.14H76.55a0.76,0.76,0,1,0,0,1.51H87.69a0.76,0.76,0,0,0,.76-0.75v-11A0.76,0.76,0,0,0,87.69,75.1Z" transform="translate(0 0)"/>
    <path class="cls-3" d="M105.52,50.06a4.49,4.49,0,0,0-4.37,3.48l0,0.2H77.31V33.15a0.76,0.76,0,0,0-.76-0.75H55.76V8.81l0.21,0a4.47,4.47,0,0,0,3.51-4.33,4.48,4.48,0,0,0-9,0A4.47,4.47,0,0,0,54,8.76l0.21,0V32.39H33.45a0.76,0.76,0,0,0-.76.75v20.6H8.89l0-.2a4.44,4.44,0,1,0,0,1.92l0-.2h23.8v20.6a0.76,0.76,0,0,0,.76.75H54.24v23.58l-0.21,0a4.48,4.48,0,1,0,1.94,0l-0.21,0V76.61H76.55a0.76,0.76,0,0,0,.76-0.75V55.25h23.8l0,0.2A4.47,4.47,0,1,0,105.52,50.06Zm-101,7.36a2.93,2.93,0,1,1,3-2.93A2.94,2.94,0,0,1,4.48,57.43ZM52,4.44a3,3,0,1,1,3,2.93A2.94,2.94,0,0,1,52,4.44ZM58,104.56a3,3,0,1,1-3-2.93A2.94,2.94,0,0,1,58,104.56ZM75.78,75.1H34.22V33.9H75.78V75.1Zm29.74-17.67a2.94,2.94,0,0,1-2.94-2.76V54.61a0.74,0.74,0,0,0,0-.11,0.73,0.73,0,0,0,0-.11V54.33A2.95,2.95,0,1,1,105.52,57.43Z" transform="translate(0 0)"/>
    <path class="cls-3" d="M45.12,65.82a1,1,0,0,1-.44-0.1,1,1,0,0,1-.48-1.36l10-20.61a1,1,0,0,1,1.85,0L66,64.37a1,1,0,0,1-.48,1.36,1,1,0,0,1-1.37-.48L55.1,46.54,46,65.25A1,1,0,0,1,45.12,65.82Z" transform="translate(0 0)"/>
    <path class="cls-3" d="M61.7,59.89H48.61a1,1,0,1,1,0-2H61.7A1,1,0,1,1,61.7,59.89Z" transform="translate(0 0)"/>
  </g>
</svg>
