<svg xmlns="http://www.w3.org/2000/svg" id="software" viewBox="0 0 208 103" xml:space="preserve" width="100%" height="100%" preserveAspectRatio="xMaxYMax">
  <defs>
    <style>
      #software .cls-1 {
        fill: #1976d2;
      }

      #software .cls-2 {
        fill: none;
      }

      #software .cls-3 {
        fill: #3949ab;
      }

      #software .cls-4 {
        fill: #26c6da;
      }
    </style>
  </defs>
  <title>Vector Smart Object12</title>
  <g>
    <path class="cls-1" d="M73.25,39.75a0.74,0.74,0,0,0,1,.24l7.34-4.39a0.71,0.71,0,0,0,.33-0.44,0.7,0.7,0,0,0-.08-0.54,0.72,0.72,0,0,0-.45-0.33l-0.17,0a0.73,0.73,0,0,0-.37.1l-7.34,4.39A0.71,0.71,0,0,0,73.25,39.75Z" transform="translate(0 0)"/>
    <path class="cls-1" d="M3.41,35.6L10.75,40a0.74,0.74,0,0,0,1-.24,0.7,0.7,0,0,0,.08-0.54,0.71,0.71,0,0,0-.33-0.44L4.17,34.37a0.73,0.73,0,0,0-.37-0.1l-0.17,0A0.72,0.72,0,0,0,3.41,35.6Z" transform="translate(0 0)"/>
    <polygon class="cls-2" points="41.2 1.44 21.55 1.44 31.38 17.29 41.2 1.44"/>
    <polygon class="cls-2" points="52.33 17.94 42.5 2.09 32.67 17.94 52.33 17.94"/>
    <polygon class="cls-2" points="20.25 2.09 10.43 17.94 30.08 17.94 20.25 2.09"/>
    <polygon class="cls-2" points="74.57 17.94 64.75 2.09 54.92 17.94 74.57 17.94"/>
    <polygon class="cls-2" points="63.45 1.44 43.8 1.44 53.62 17.29 63.45 1.44"/>
    <polygon class="cls-2" points="46.2 47.62 46.2 47.62 52.71 19.38 32.29 19.38 38.8 47.62 37.31 47.62 30.84 19.57 30.8 19.38 10.51 19.38 30.05 47.62 30.22 47.87 30.39 48.12 30.69 48.12 31 48.12 36.91 48.12 37.17 48.12 37.43 48.12 37.37 47.89 37.37 47.89 37.31 47.64 38.8 47.64 38.85 47.87 38.86 47.87 38.91 48.12 38.91 48.12 39.17 48.12 39.43 48.12 45.57 48.12 45.57 48.12 45.83 48.12 46.09 48.12 46.14 47.87 46.2 47.62"/>
    <path class="cls-1" d="M30.22,47.87L30,47.62,10.51,19.38H30.8l0,0.19,6.47,28H38.8L32.29,19.38H52.71L46.2,47.62h0l-0.06.25-0.06.25h1.49l0.06-.25,0.06-.25h0L54.2,19.38H74.49L55,47.62h1.76L76.33,19.26l0.07-.12a0.71,0.71,0,0,0,.09-0.86h0L65.37,0.34A0.73,0.73,0,0,0,64.75,0H20.25a0.73,0.73,0,0,0-.62.34L8.51,18.29a0.71,0.71,0,0,0,.12.89L8.71,19.3l0,0.05L28.29,47.62l0.17,0.25,0.17,0.25h1.76ZM74.57,17.94H54.92L64.75,2.09ZM63.45,1.43L53.62,17.29,43.8,1.43H63.45ZM52.33,17.94H32.67L42.5,2.09ZM41.2,1.43L31.38,17.29,21.55,1.43H41.2Zm-21,.66,9.83,15.85H10.43Z" transform="translate(0 0)"/>
    <polygon class="cls-3" points="38.85 47.87 38.8 47.64 37.31 47.64 37.37 47.89 37.37 47.89 37.43 48.12 38.91 48.12 38.86 47.87 38.85 47.87"/>
    <polygon class="cls-3" points="56.54 47.89 56.71 47.64 54.95 47.64 54.78 47.89 54.63 48.12 56.38 48.12 56.54 47.89"/>
    <polygon class="cls-4" points="56.67 48.14 56.96 48.14 56.98 48.12 56.38 48.12 56.37 48.14 56.67 48.14"/>
    <rect class="cls-4" x="6.22" y="44.5" width="72.56" height="36.5"/>
    <g>
      <path class="cls-1" d="M26.79,73.56a0.86,0.86,0,0,1-.47-0.14l-8.44-5.53a0.84,0.84,0,0,1,0-1.41l8.44-5.53a0.86,0.86,0,0,1,1.19.24,0.84,0.84,0,0,1-.24,1.17L19.9,67.18,27.26,72a0.84,0.84,0,0,1,.24,1.17A0.86,0.86,0,0,1,26.79,73.56Z" transform="translate(0 0)"/>
      <path class="cls-1" d="M58.21,73.56a0.86,0.86,0,0,1-.72-0.38A0.84,0.84,0,0,1,57.74,72l7.36-4.83-7.36-4.83a0.84,0.84,0,0,1-.24-1.17,0.86,0.86,0,0,1,1.19-.24l8.44,5.53a0.84,0.84,0,0,1,0,1.41l-8.44,5.53A0.86,0.86,0,0,1,58.21,73.56Z" transform="translate(0 0)"/>
      <path class="cls-1" d="M38.57,77.7a0.86,0.86,0,0,1-.32-0.06,0.84,0.84,0,0,1-.48-1.1L45.63,57.2a0.86,0.86,0,0,1,1.11-.47,0.84,0.84,0,0,1,.48,1.1L39.37,77.16A0.86,0.86,0,0,1,38.57,77.7Z" transform="translate(0 0)"/>
    </g>
    <path class="cls-1" d="M84.27,48.11H0.73a0.72,0.72,0,0,0-.73.72V85.49a0.72,0.72,0,0,0,.73.72h41v11l-0.17.06a3,3,0,1,0,1.8,0l-0.18-.05v-11H84.27A0.72,0.72,0,0,0,85,85.49V48.83A0.72,0.72,0,0,0,84.27,48.11Zm-0.73,2.66v34H1.45V49.55h82.1v1.22Z" transform="translate(0 0)"/>
  </g>
</svg>