<svg xmlns="http://www.w3.org/2000/svg" id="ux-ui" viewBox="0 0 225 108" xml:space="preserve" width="100%" height="100%" preserveAspectRatio="xMaxYMax">
  <defs>
    <style>
      #ux-ui .cls-1 {
        fill: #26c6da;
      }

      #ux-ui .cls-2 {
        fill: none;
      }

      #ux-ui .cls-3 {
        fill: #1976d2;
      }
    </style>
  </defs>
  <title>Vector Smart Object10</title>
  <g>
    <rect class="cls-1" x="44.39" width="21.39" height="13.1"/>
    <polygon class="cls-2" points="41.03 74.01 41.03 74.01 41.03 74.01 41.03 74.01"/>
    <path class="cls-3" d="M41.33,74.08l0,0.05,7.27,13.75,3.21,6.23a0.75,0.75,0,0,0,1.34,0l3.21-6.22L63.66,74.1a1.14,1.14,0,0,0,.06-0.16,0.75,0.75,0,0,0,0-.2V3.21A0.76,0.76,0,0,0,63,2.45H42a0.76,0.76,0,0,0-.75.76V73.74a0.76,0.76,0,0,0,0,.16L41,74h0l0.25-.07A0.75,0.75,0,0,0,41.33,74.08Zm13.92,12.7H49.74L43.26,74.5H61.74ZM49.76,73V23.67h5.49V73H49.76Zm12.48,0H56.75V23.67h5.49V73ZM42.76,4H62.24V14.89H42.76V4Zm0,12.44H62.24v5.74H42.76V16.41Zm0,7.26h5.49V73H42.76V23.67Z" transform="translate(0 0)"/>
    <path class="cls-3" d="M101.76,58.11a3.25,3.25,0,0,0-3.14,4.06l0,0.19L87.89,68.89V48.69l0.18-.06a3.24,3.24,0,1,0-1.88,0l0.18,0.06V73.55a29.7,29.7,0,0,1-4.75,16.13L81.41,90l-5.67-9.14,0.13-.15a3.24,3.24,0,1,0-1.59,1l0.19-.05,6,9.68-0.11.14a29.23,29.23,0,0,1-23.47,11.74H56.47v-2.47a0.76,0.76,0,0,0-.75-0.76H49.29a0.76,0.76,0,0,0-.75.76v2.47H48.12A29.23,29.23,0,0,1,24.65,91.51l-0.11-.14,6-9.68,0.19,0.05a3.27,3.27,0,1,0-1.59-1l0.13,0.15L23.59,90l-0.22-.35a29.7,29.7,0,0,1-4.75-16.13V48.69l0.18-.06a3.24,3.24,0,1,0-1.88,0l0.18,0.06V68.89L6.34,62.36l0-.19a3.3,3.3,0,0,0,.1-0.8,3.24,3.24,0,1,0-3.24,3.27,3.22,3.22,0,0,0,2.17-.85l0.14-.13,11.56,7v2.89a31.11,31.11,0,0,0,5.81,18.16,0.92,0.92,0,0,0,.16.24,32,32,0,0,0,3.19,3.73L26.64,96l-16.08,2.4-0.08-.18a3.27,3.27,0,1,0,.28,1.87l0-.19,0.19,0L28.1,97.37l0.09,0.08a30.88,30.88,0,0,0,19.93,7.33h0.41v2.47a0.76,0.76,0,0,0,.75.76h6.42a0.76,0.76,0,0,0,.75-0.76v-2.47h0.41a30.88,30.88,0,0,0,19.93-7.33l0.09-.08L94.21,100l0,0.19a3.26,3.26,0,1,0,.28-1.87l-0.08.18L78.36,96l0.37-.37A31.43,31.43,0,0,0,81.89,92a0.89,0.89,0,0,0,.17-0.23,31.17,31.17,0,0,0,5.83-18.2V70.66l11.56-7,0.14,0.13a3.22,3.22,0,0,0,2.17.85A3.27,3.27,0,0,0,101.76,58.11Z" transform="translate(0 0)"/>
  </g>
</svg>