<svg id="achieve_respect_img" xmlns="http://www.w3.org/2000/svg" viewBox="0 0 158.74 158.14" xml:space="preserve" width="100%" height="100%" preserveAspectRatio="xMaxYMax">
  <defs>
    <style>
      #achieve_respect_img .cls-1 {
        fill: #c2185b;
        opacity: 0.8;
        isolation: isolate;
      }

      #achieve_respect_img .cls-2 {
        fill: #fff;
      }

      #achieve_respect_img .cls-3 {
        fill: #d9d8d7;
      }
    </style>
  </defs>
  <title>achieve respect</title>
  <g>
    <polygon class="cls-1" points="0 113.54 16.54 15.23 112.34 0 158.74 86.89 87.59 158.14 0 113.54"/>
    <g>
      <path class="cls-2" d="M64.54,44.19a7,7,0,0,1,7,7V102a6.89,6.89,0,0,1-5.11,6.71h0a6.39,6.39,0,0,1-.7.2c-0.2,0-.5.1-0.8,0.1h-0.4a6.82,6.82,0,0,1-6.91-6.31h0a7.32,7.32,0,0,1-3.31.8,7,7,0,0,1-7-7,10.06,10.06,0,0,1,.4-2.41H47.3a7,7,0,0,1-7-7,7.28,7.28,0,0,1,1.6-4.51A7,7,0,0,1,42.59,70a6.73,6.73,0,0,1-1.9-4.81,7,7,0,0,1,7-7h0.1a6.46,6.46,0,0,1-.3-2,7,7,0,0,1,7-7,6.05,6.05,0,0,1,3,.7A7.31,7.31,0,0,1,64.54,44.19Z" transform="translate(0 0)"/>
      <path class="cls-2" d="M82.78,44.19a7,7,0,0,0-7,7V102a6.89,6.89,0,0,0,5.11,6.71h0a6.39,6.39,0,0,0,.7.2c0.2,0,.5.1,0.8,0.1h0.4a6.82,6.82,0,0,0,6.91-6.31h0a7.32,7.32,0,0,0,3.31.8,7,7,0,0,0,7-7,10.06,10.06,0,0,0-.4-2.41H100a7,7,0,0,0,7-7,7.28,7.28,0,0,0-1.6-4.51A6.92,6.92,0,0,0,109,76.46,7.17,7.17,0,0,0,104.72,70a6.73,6.73,0,0,0,1.9-4.81,7,7,0,0,0-7-7h-0.2a6.46,6.46,0,0,0,.3-2,7,7,0,0,0-7-7,6.05,6.05,0,0,0-3,.7A6.94,6.94,0,0,0,82.78,44.19Z" transform="translate(0 0)"/>
      <g>
        <path class="cls-3" d="M64.54,110.24a8.22,8.22,0,1,1,0-16.44,1.3,1.3,0,0,1,0,2.61,5.71,5.71,0,1,0,5.71,5.71V51.21a5.71,5.71,0,1,0-5.71,5.71,1.3,1.3,0,1,1,0,2.61,8.22,8.22,0,1,1,8.22-8.22v50.81A8.11,8.11,0,0,1,64.54,110.24Z" transform="translate(0 0)"/>
        <path class="cls-3" d="M54.32,104.82a8.25,8.25,0,0,1-8.22-8.22,8.69,8.69,0,0,1,.5-2.81,1.3,1.3,0,0,1,1.2-.8,0.6,0.6,0,0,1,.4.1,1,1,0,0,1,.7.7,1.17,1.17,0,0,1,0,1,6.46,6.46,0,0,0-.3,2,5.78,5.78,0,0,0,5.71,5.71,5.2,5.2,0,0,0,2.71-.7,1.42,1.42,0,0,1,.6-0.2,1.23,1.23,0,0,1,1.1.7,1.28,1.28,0,0,1-.5,1.7A12.33,12.33,0,0,1,54.32,104.82Z" transform="translate(0 0)"/>
        <path class="cls-3" d="M47.3,95.4a8.25,8.25,0,0,1-8.22-8.22A8.61,8.61,0,0,1,41,81.88a1.23,1.23,0,0,1,1-.5,1.14,1.14,0,0,1,.8.3,1,1,0,0,1,.4.9,1.4,1.4,0,0,1-.3.9,5.34,5.34,0,0,0-1.3,3.61A5.78,5.78,0,0,0,47.3,92.8h0.3A5.79,5.79,0,0,0,53,87.09a1.3,1.3,0,1,1,2.61,0A8.16,8.16,0,0,1,47.9,95.3,1.27,1.27,0,0,1,47.3,95.4Z" transform="translate(0 0)"/>
        <path class="cls-3" d="M64.74,88.39a1.33,1.33,0,0,1-1.3-1.3,3.91,3.91,0,0,0-7.82,0,1.3,1.3,0,1,1-2.61,0,6.41,6.41,0,0,1,12.83,0A1.07,1.07,0,0,1,64.74,88.39Z" transform="translate(0 0)"/>
        <path class="cls-3" d="M45.4,84.88a8.22,8.22,0,1,1,8.22-8.22,1.3,1.3,0,1,1-2.61,0,5.71,5.71,0,1,0-5.71,5.71,1.33,1.33,0,0,1,1.3,1.3A1.22,1.22,0,0,1,45.4,84.88Z" transform="translate(0 0)"/>
        <path class="cls-3" d="M42.69,71.35a1.09,1.09,0,0,1-.9-0.4,7.94,7.94,0,0,1-2.3-5.71A8.25,8.25,0,0,1,47.7,57h0.2c3.91,0.1,7.32,2.71,7.72,6.11,0.3,2,1.6,4.11,3.91,4.11a1.3,1.3,0,0,1,0,2.61c-3.31,0-5.91-2.51-6.41-6.31-0.3-2.41-3-3.91-5.31-3.91H47.7A5.78,5.78,0,0,0,42,65.34a5.53,5.53,0,0,0,1.6,3.91,1.27,1.27,0,0,1,0,1.8A1.4,1.4,0,0,1,42.69,71.35Z" transform="translate(0 0)"/>
        <path class="cls-3" d="M47.9,59.63a1.2,1.2,0,0,1-1.2-.9,8.54,8.54,0,0,1-.3-2.3,8.25,8.25,0,0,1,8.22-8.22,8.65,8.65,0,0,1,3.61.8,1.32,1.32,0,0,1,.6,1.7,1.23,1.23,0,0,1-1.1.7,1.27,1.27,0,0,1-.6-0.1,5.55,5.55,0,0,0-6.51,1.1,5.62,5.62,0,0,0-1.7,4,8.77,8.77,0,0,0,.2,1.6,1.19,1.19,0,0,1-.1,1,1.24,1.24,0,0,1-.8.6H47.9Z" transform="translate(0 0)"/>
      </g>
      <g>
        <path class="cls-3" d="M82.78,110.24A8.25,8.25,0,0,1,74.56,102V51.21a8.22,8.22,0,1,1,8.22,8.22,1.3,1.3,0,1,1,0-2.61,5.71,5.71,0,1,0-5.71-5.71v50.81a5.71,5.71,0,1,0,5.71-5.71,1.3,1.3,0,1,1,0-2.61A8.32,8.32,0,0,1,82.78,110.24Z" transform="translate(0 0)"/>
        <path class="cls-3" d="M93,104.82a7.58,7.58,0,0,1-3.91-1,1.28,1.28,0,0,1-.5-1.7,1.36,1.36,0,0,1,1.1-.7,1.42,1.42,0,0,1,.6.2,6,6,0,0,0,2.71.7,5.78,5.78,0,0,0,5.71-5.71,6.94,6.94,0,0,0-.3-2,1.71,1.71,0,0,1,0-1,1.58,1.58,0,0,1,.7-0.7c0.1,0,.3-0.1.4-0.1a1.3,1.3,0,0,1,1.2.8,9.2,9.2,0,0,1,.5,2.81A8.17,8.17,0,0,1,93,104.82Z" transform="translate(0 0)"/>
        <path class="cls-3" d="M100,95.4h-0.5a8.3,8.3,0,0,1-7.72-8.22,1.3,1.3,0,1,1,2.61,0,5.79,5.79,0,0,0,5.41,5.71h0.3a5.78,5.78,0,0,0,5.71-5.71,6.41,6.41,0,0,0-1.3-3.71,1.62,1.62,0,0,1-.3-0.9,1.39,1.39,0,0,1,.5-0.9,1.14,1.14,0,0,1,.8-0.3,1.39,1.39,0,0,1,1,.5A8.26,8.26,0,0,1,100,95.4Z" transform="translate(0 0)"/>
        <path class="cls-3" d="M93,88.39a1.33,1.33,0,0,1-1.3-1.3,3.91,3.91,0,0,0-7.82,0,1.3,1.3,0,0,1-2.61,0,6.41,6.41,0,0,1,12.83,0A1,1,0,0,1,93,88.39Z" transform="translate(0 0)"/>
        <path class="cls-3" d="M102,84.88a1.3,1.3,0,0,1,0-2.61,5.71,5.71,0,1,0-5.71-5.71,1.3,1.3,0,1,1-2.61,0,8.22,8.22,0,1,1,16.44,0A8.13,8.13,0,0,1,102,84.88Z" transform="translate(0 0)"/>
        <path class="cls-3" d="M104.62,71.35a1.62,1.62,0,0,1-.9-0.3,1.38,1.38,0,0,1-.1-1.8,5.91,5.91,0,0,0,1.6-3.91,5.78,5.78,0,0,0-5.71-5.71h-0.1c-2.41,0-5,1.5-5.31,3.91-0.5,3.71-3.11,6.31-6.41,6.31a1.3,1.3,0,0,1,0-2.61c2.3,0,3.61-2.1,3.91-4.11,0.5-3.41,3.81-6,7.82-6.11h0.2A8.22,8.22,0,0,1,105.53,71,1,1,0,0,1,104.62,71.35Z" transform="translate(0 0)"/>
        <path class="cls-3" d="M99.41,59.63a0.6,0.6,0,0,1-.4-0.1,1.06,1.06,0,0,1-.7-0.6,1.15,1.15,0,0,1-.1-1,4.41,4.41,0,0,0,.2-1.6,5.78,5.78,0,0,0-5.71-5.71,5.43,5.43,0,0,0-2.51.6,1.27,1.27,0,0,1-.6.1,1.23,1.23,0,0,1-1.1-.7,1.32,1.32,0,0,1,.6-1.7,8.65,8.65,0,0,1,3.61-.8,8.25,8.25,0,0,1,8.22,8.22,8.54,8.54,0,0,1-.3,2.3A1.19,1.19,0,0,1,99.41,59.63Z" transform="translate(0 0)"/>
      </g>
    </g>
  </g>
</svg>