<svg id="respect-img" xmlns="http://www.w3.org/2000/svg" width="100%" height="100%" viewBox="0 0 306 180" xmlns:xlink="http://www.w3.org/1999/xlink">
  <defs>
    <rect id="a" width="306" height="180"/>
    <mask id="b" width="306" height="180" x="0" y="0" fill="white">
      <use xlink:href="#respect-img#a"/>
    </mask>
    <polygon id="c" points="0 .051 0 60.582 57.264 60.582 57.264 .051 0 .051"/>
    <polygon id="e" points="59.139 .248 .124 .248 .124 60.795 59.139 60.795 59.139 .248"/>
  </defs>
  <g fill="none" fill-rule="evenodd">
    <use fill="#FFFFFF" stroke="#E1E1E1" stroke-width="2" mask="url(#respect-img#b)" xlink:href="#respect-img#a"/>
    <g transform="translate(100 37)">
      <path fill="#26C6DA" d="M63.2933497,54.7591157 C63.2933497,62.0010142 57.4266312,67.8713695 50.1904201,67.8713695 C42.9536714,67.8713695 37.0869528,62.0010142 37.0869528,54.7591157 C37.0869528,47.5172173 42.9536714,41.6468619 50.1904201,41.6468619 C57.4266312,41.6468619 63.2933497,47.5172173 63.2933497,54.7591157"/>
      <g transform="translate(0 35.265)">
        <mask id="d" fill="white">
          <use xlink:href="#respect-img#c"/>
        </mask>
        <path fill="#1976D2" d="M30.1819578,60.5823898 C24.3555658,60.5823898 18.6506915,58.8901563 13.6647065,55.6192223 C6.90918894,51.187669 2.28291759,44.388603 0.637053266,36.4751919 C-2.75898693,20.1382782 7.75927437,4.08277563 24.0840332,0.683780711 C37.3665508,-2.08190457 50.9614653,4.41368934 57.1475709,16.4777807 C57.4121136,16.9927147 57.2088673,17.6244102 56.6937618,17.888603 C56.180807,18.1527959 55.5479477,17.9499431 55.2844804,17.4344711 C49.5269126,6.20654213 36.8713397,0.161313706 24.5104201,2.73598376 C9.3164201,5.89930355 -0.473273367,20.8431513 2.68833467,36.0479635 C4.21967136,43.4136183 8.5254804,49.7418721 14.8126714,53.8667249 C21.0998623,57.9905015 28.6156714,59.4185421 35.9766261,57.8861157 C36.5428121,57.7704305 37.0977065,58.1320142 37.2154603,58.698603 C37.3332141,59.2651919 36.9697367,59.8204812 36.4035508,59.9383188 C34.3323749,60.3693137 32.2493698,60.5823898 30.1819578,60.5823898" mask="url(#respect-img#d)"/>
      </g>
      <path fill="#1976D2" d="M26.671605 105.751949C26.4129769 105.751949 26.1543487 105.656711 25.9521779 105.465157 25.5317055 105.067523 25.5139618 104.403543 25.9113136 103.98331L35.1665447 94.1990254 25.3892181 84.9372081C24.9692834 84.5395736 24.951002 83.876132 25.3483538 83.4558985 25.7457055 83.035665 26.4086754 83.0173706 26.8291477 83.4150051L37.3673035 93.3978376C37.5689367 93.5888528 37.6861528 93.8519695 37.6942181 94.1301523 37.7017457 94.407797 37.5985095 94.6773706 37.4076302 94.8791472L27.4324342 105.424264C27.2264995 105.642183 26.9495899 105.751949 26.671605 105.751949M70.1532327 95.4489107C61.8303533 95.4489107 53.5424236 92.0402305 47.5767704 85.3530832 38.5436045 75.2255096 37.3660668 60.1950325 44.7135794 48.8013777 45.0270518 48.3154995 45.675504 48.1745249 46.1615744 48.4892964 46.647107 48.8029919 46.786906 49.4519056 46.4734337 49.9383218 39.6351121 60.5415503 40.7314588 74.5308599 49.1398307 83.9567888 54.6909261 90.1806569 62.4067553 93.3531239 70.1521573 93.3536619 76.8259462 93.3542 83.5212427 91.0001391 88.8798457 86.2134589 100.457891 75.8711949 101.469283 58.0309107 91.1343734 46.4446264 90.7488508 46.0130934 90.7870266 45.3507279 91.2182528 44.964931 91.6500166 44.5796721 92.3119111 44.616799 92.696896 45.0488701 103.8007 57.4976822 102.714032 76.6653878 90.2751472 87.7770934 84.5181171 92.9189005 77.3222327 95.4483726 70.1532327 95.4489107"/>
      <path fill="#1976D2" d="M88.3024221,60.5319726 C88.2217688,60.5319726 88.1400402,60.5222873 88.0583116,60.5029168 C87.4953518,60.368399 87.1485427,59.8034244 87.2829648,59.240602 L90.6526583,45.1167746 C90.7870804,44.5534142 91.3559548,44.2079726 91.9140754,44.3408761 L106.028397,47.7129675 C106.590819,47.8474853 106.938166,48.4124599 106.803744,48.9758203 C106.669322,49.5391807 106.102598,49.8862365 105.542327,49.7517188 L92.4469246,46.6228355 L89.3202663,59.7270183 C89.205201,60.2080538 88.7761256,60.5319726 88.3024221,60.5319726"/>
      <g transform="translate(20.97 .29)">
        <mask id="f" fill="white">
          <use xlink:href="#respect-img#e"/>
        </mask>
        <path fill="#1976D2" d="M28.905593,60.7949279 C28.4098442,60.7949279 27.9146332,60.7825523 27.4156583,60.757801 C26.8381809,60.7292832 26.3929749,60.2369482 26.4220101,59.6590599 C26.4499698,59.0806335 26.9537839,58.6372629 27.5194322,58.6647046 C40.1142462,59.2861766 51.6729347,51.3442477 55.6265578,39.3441868 C60.4856482,24.5945827 52.4482814,8.63862335 37.7091658,3.77607513 C30.5697387,1.41986193 22.9399397,1.9875269 16.2263618,5.37414619 C9.51332161,8.76076548 4.51980905,14.5611716 2.16634673,21.7062173 C1.98514573,22.2561259 1.39153769,22.5547553 0.843633166,22.3734254 C0.294115578,22.1920954 -0.00430150754,21.5991411 0.176899497,21.0497706 C2.70564824,13.3725726 8.07124121,7.14117157 15.283794,3.50273503 C22.4963467,-0.136239594 30.6928693,-0.746412183 38.3651457,1.78521218 C54.2011457,7.00988223 62.8369598,24.1533645 57.616005,40.0006335 C53.5247337,52.4182376 41.8515176,60.7938518 28.905593,60.7949279" mask="url(#respect-img#f)"/>
      </g>
      <path fill="#1976D2" d="M21.9282251 23.1215594C21.4771045 23.1215594 21.060396 22.8272345 20.9248985 22.3720264L16.7863106 8.4542802C16.6212402 7.90006701 16.9368633 7.3162599 17.4912201 7.15161015 18.0471899 6.98696041 18.6284312 7.30227005 18.7935015 7.85702132L22.6336724 20.7696508 35.5376573 16.9272853C36.0920141 16.7620975 36.6748683 17.0779452 36.8399387 17.6326964 37.005009 18.1874477 36.6893859 18.7707168 36.1350291 18.9359046L22.2271799 23.0774376C22.1277075 23.1070315 22.0271598 23.1215594 21.9282251 23.1215594M34.3709809 72.1020071C34.1182673 72.1020071 33.8655538 72.0110731 33.6644583 71.8270528 28.6386844 67.224931 25.7561367 60.6771442 25.7561367 53.8640883 25.7561367 50.144403 26.5728854 46.5743015 28.1832623 43.2522508 28.4354382 42.731398 29.0629206 42.5150934 29.5828653 42.7663726 30.1028101 43.019266 30.3200362 43.6461188 30.0678603 44.1669716 28.5967447 47.2016924 27.8509709 50.4640173 27.8509709 53.8640883 27.8509709 60.0906467 30.4851065 66.074535 35.0785789 70.2811746 35.5049658 70.6718142 35.5345387 71.3347178 35.1436392 71.7614081 34.9371668 71.987398 34.6548804 72.1020071 34.3709809 72.1020071M51.7718693 78.1512711C51.2277286 78.1512711 50.768005 77.7304995 50.7282161 77.1784386 50.6868141 76.6016264 51.1207286 76.0996061 51.6976683 76.0581746 55.0598342 75.8155046 58.2558543 74.8302964 61.1980854 73.131068 66.586799 70.0167127 70.4479397 64.742002 71.7910854 58.6585706 71.9158291 58.0935959 72.4761005 57.7368548 73.0401357 57.8616873 73.6047085 57.9865198 73.9617337 58.5455756 73.8369899 59.1110883 72.3669497 65.7670274 68.141794 71.5389157 62.2449648 74.9459817 59.0268995 76.8055553 55.5286985 77.8833117 51.8482211 78.1485807 51.8224121 78.1501949 51.7971407 78.1512711 51.7718693 78.1512711M69.3493884 41.8271157C69.0133332 41.8271157 68.6837302 41.6662325 68.4815593 41.367065 66.590509 38.5744761 64.1397251 36.2968213 61.1980317 34.5970548 55.8093181 31.4837756 49.3140417 30.775136 43.3768859 32.652466 42.826293 32.8278772 42.2375241 32.5206386 42.0627754 31.9691157 41.8885643 31.4170548 42.194509 30.827867 42.7456397 30.653532 49.2430668 28.5997147 56.3491573 29.3750751 62.2454487 32.7821411 65.4635141 34.6417147 68.145504 37.1340599 70.2150668 40.1913797 70.5398307 40.6702629 70.4145492 41.321867 69.9360065 41.6468619 69.7558809 41.7690041 69.5515593 41.8271157 69.3493884 41.8271157"/>
    </g>
  </g>
</svg>
