<svg id="tools-img" xmlns="http://www.w3.org/2000/svg" width="100%" height="100%" viewBox="0 0 306 180" xmlns:xlink="http://www.w3.org/1999/xlink">
  <defs>
    <rect id="a" width="306" height="180"/>
    <mask id="b" width="306" height="180" x="0" y="0" fill="white">
      <use xlink:href="#tools-img#a"/>
    </mask>
    <polygon id="c" points="2.308 .554 .247 .554 .247 15.953 2.308 15.953 2.308 .554"/>
    <polygon id="e" points="58.208 115.283 114.354 115.283 114.354 .554 0 .554 0 115.283 58.208 115.283 58.208 99.885 56.147 99.885 56.147 115.283 58.208 115.283"/>
    <polygon id="g" points="15.597 2.245 15.597 .178 .249 .178 .249 2.245 15.597 2.245"/>
  </defs>
  <g fill="none" fill-rule="evenodd">
    <use fill="#FFFFFF" stroke="#E1E1E1" stroke-width="2" mask="url(#tools-img#b)" xlink:href="#tools-img#a"/>
    <g transform="translate(95 32)">
      <path fill="#26C6DA" d="M20.7971792 88.0844229L53.8396993 59.8431085 9.83952698 83.2686931C12.2780114 82.6604953 16.5394586 84.5349409 20.7971792 88.0844229M98.4471947 19.7534036C98.1391233 19.1931886 97.6472029 18.5606879 97.0614945 17.9730542 96.3888306 17.2988021 95.0876016 16.1690249 93.9310917 16.1690249 93.4975557 16.1690249 93.1217832 16.3260596 92.8143329 16.6345206 92.4149581 17.0345851 92.0714833 17.7705293 92.7019117 19.0000111 93.0863798 19.7496647 93.7012804 20.4432345 94.1503441 20.8937744 94.7360524 21.4814081 95.3658597 21.9755688 95.9248602 22.2846529 96.4149173 22.5551015 96.869571 22.6928184 97.2757781 22.6928184 97.8235986 22.6928184 98.1869489 22.443557 98.3956424 22.2354238 98.8124084 21.8166647 99.1596098 21.046447 98.4471947 19.7534036"/>
      <path fill="#1976D2" d="M17.8821158,94.1654036 C17.7150367,94.1161745 17.5591377,94.0912483 17.4144187,94.0912483 C17.1125584,94.0912483 16.8579026,94.1984307 16.6423768,94.414665 C16.348591,94.7094166 16.1075997,95.259661 16.6280913,96.2049848 C16.8690826,96.6424386 17.2516874,97.1334835 17.7063412,97.5883855 C19.0199924,98.906355 20.1926512,99.3350846 20.8696629,98.6558474 C21.8168582,97.7055383 20.4410959,96.1196128 19.8056986,95.4815037 C19.1144013,94.788557 18.4498118,94.333655 17.8821158,94.1654036"/>
      <path stroke="#1976D2" stroke-width=".5" d="M17.8821158,94.1654036 C17.7150367,94.1161745 17.5591377,94.0912483 17.4144187,94.0912483 C17.1125584,94.0912483 16.8579026,94.1984307 16.6423768,94.414665 C16.348591,94.7094166 16.1075997,95.259661 16.6280913,96.2049848 C16.8690826,96.6424386 17.2516874,97.1334835 17.7063412,97.5883855 C19.0199924,98.906355 20.1926512,99.3350846 20.8696629,98.6558474 C21.8168582,97.7055383 20.4410959,96.1196128 19.8056986,95.4815037 C19.1144013,94.788557 18.4498118,94.333655 17.8821158,94.1654036 L17.8821158,94.1654036 Z"/>
      <path fill="#1976D2"/>
      <path stroke="#1976D2" stroke-width=".5"/>
      <path fill="#1976D2" d="M81.7398496,11.5725828 L81.9727664,12.2829777 C82.0292876,12.4537217 82.0907777,12.6269584 82.1547522,12.8014414 L82.1553733,12.8033108 C83.3187155,16.0237679 85.8037833,19.7832526 89.1521963,23.3900648 L89.3000209,23.5483458 C89.4360444,23.6935405 89.5714467,23.8387353 89.7099546,23.9826838 C89.9323126,24.2157431 90.1565339,24.4463099 90.3832397,24.6731378 C90.7906889,25.0813033 91.1714304,25.4470944 91.552793,25.8054076 L91.7608654,26.0004546 C91.9683167,26.1936322 92.175768,26.3824477 92.3832193,26.5681474 L92.6502973,26.8074383 L59.9245441,54.5122177 L81.7398496,11.5725828 Z M83.2634365,8.51102985 L83.2739954,8.43251251 C83.3696466,8.05550467 83.5255456,7.75576786 83.7385869,7.54202623 C84.1143595,7.16564154 84.6969623,6.97433343 85.4690041,6.97433343 C88.2863666,6.97433343 93.7409694,9.5946937 99.5763136,15.4498435 C102.837771,18.7220223 105.430912,22.2559255 106.877481,25.3991115 C108.162561,28.1933316 108.379329,30.4136274 107.4576,31.3390103 C107.242074,31.5546213 106.937729,31.7122792 106.553261,31.8069985 L106.482454,31.8175921 C106.335251,31.8506192 106.162582,31.8705601 105.981217,31.8824001 C105.890535,31.8880084 105.785567,31.8880084 105.695506,31.8880084 C105.595507,31.8880084 105.503582,31.8855158 105.409173,31.8792843 C105.340851,31.8755454 105.26756,31.8693138 105.193648,31.8630823 C105.048929,31.8475035 104.900483,31.8275626 104.747689,31.8026364 L104.559493,31.7714787 C103.846456,31.6356313 103.057645,31.3894857 102.21169,31.0392734 C101.902377,30.9109038 101.60797,30.7787953 101.305489,30.6348468 C100.388728,30.1973931 99.4334579,29.6589885 98.4452693,29.0246183 L98.3030347,28.9336379 C98.1831601,28.8551206 98.0595589,28.771618 97.9359577,28.6874923 L97.4353417,28.3484968 C97.1577047,28.154073 96.8775834,27.9521712 96.5943565,27.7421685 L96.5080219,27.67923 C95.8664136,27.2006482 95.2136252,26.6828077 94.5701535,26.1406642 L94.3484166,25.9549644 C94.2366165,25.8614914 94.1248164,25.7673952 94.0123952,25.668937 C93.7322738,25.4246608 93.4540158,25.1704142 93.1757578,24.9155445 L92.8161341,24.5896352 C92.4353927,24.2331914 92.0577568,23.8667772 91.6832264,23.4928851 L91.6173886,23.4280772 C91.1850948,22.9931161 90.8000056,22.5893126 90.4267175,22.1880018 C90.2807562,22.030344 90.1410061,21.8739325 90.0018771,21.717521 L89.8236181,21.5181118 C89.6664768,21.3436289 89.5099567,21.1691459 89.3602687,20.9959093 C89.1285941,20.7273301 88.905615,20.4612436 88.6876048,20.1964034 L88.4180423,19.8686247 C88.160281,19.5483238 87.909973,19.2298924 87.6714661,18.915823 L87.6074916,18.8310742 C84.4969643,14.7014362 82.7913916,10.6509388 83.2634365,8.51102985 L83.2634365,8.51102985 Z M94.0142585,28.3584673 C97.1073947,30.8523274 100.086246,32.584694 102.628456,33.4103723 L65.8046084,52.2408233 L94.0142585,28.3584673 Z M32.6148848,104.403752 L32.3813468,103.693358 C32.3248256,103.52199 32.2633355,103.346884 32.1987399,103.172401 L32.1981188,103.171155 C31.0322922,99.9463358 28.5434977,96.1818658 25.1894946,92.5719379 L25.0808001,92.4560314 C24.9149633,92.2784326 24.7758343,92.1294989 24.6335997,91.9824347 C24.4143473,91.7531143 24.1944737,91.5262864 23.9714946,91.3025743 C23.5795732,90.9093645 23.1851673,90.5304872 22.7895191,90.1590877 L22.6013223,89.9821121 C22.3913865,89.7870651 22.1808297,89.595757 21.9702728,89.4063184 L21.704437,89.1676506 L21.9777262,88.9364607 L54.4295691,61.4634944 L32.6148848,104.403752 Z M31.0906767,107.465305 L31.0801178,107.542576 C30.9850877,107.918961 30.8291887,108.219321 30.6155263,108.433686 C30.2316792,108.818795 29.6360331,109.008856 28.8720658,109.008856 C25.8901086,109.008856 20.3404758,106.106831 14.7777996,100.525869 C11.5163422,97.2536898 8.92320092,93.7197866 7.47725293,90.5759774 C6.19155176,87.7823805 5.97478378,85.5620847 6.89651351,84.6367018 C7.11141815,84.4210907 7.41265732,84.2640561 7.79153544,84.1699599 L7.86234217,84.1587431 C8.02010454,84.1250929 8.19401581,84.1051519 8.37538042,84.093312 C8.41202601,84.0908194 8.45053493,84.0908194 8.48904386,84.0901963 C8.67289291,84.0864573 8.81202193,84.0883268 8.95736206,84.0976741 L9.14183223,84.1120066 C9.30642682,84.1288318 9.47599031,84.1506421 9.65238603,84.1811767 L9.77163947,84.2011176 C11.4890133,84.5245342 13.7014131,85.522826 16.0032529,87.0115396 L16.1138108,87.0844486 C16.3877211,87.2626705 16.6715691,87.4558481 16.9579016,87.6552572 C17.1833651,87.8141613 17.4119342,87.979297 17.6417455,88.1481715 L17.8827369,88.3251471 C18.172796,88.5420045 18.4659607,88.7663398 18.7628521,89.0012686 L18.8150255,89.0430199 C19.1330347,89.2960202 19.4547705,89.5577446 19.780233,89.8319322 L19.9808521,90.0001836 C20.1032111,90.1030039 20.224949,90.2058242 20.3479291,90.3117603 C20.6205971,90.5504281 20.8920229,90.7984432 21.1634488,91.0464582 L21.3100311,91.1791899 C21.3864278,91.2471137 21.4622035,91.3156605 21.5386002,91.3873232 C21.9398383,91.7630847 22.3392132,92.1488167 22.7342402,92.5445191 C23.150385,92.962032 23.5466543,93.3776753 23.9298802,93.790826 C24.0671458,93.9385134 24.1969582,94.0843313 24.3273916,94.2307724 L24.4609306,94.3797061 C24.6572019,94.5978098 24.8304921,94.7916105 24.99695,94.9841649 C25.2255191,95.248382 25.4466349,95.5113527 25.6621606,95.7737003 C25.7553274,95.8864911 25.8484941,95.9992819 25.9397976,96.1120727 C26.1950745,96.4292578 26.4435191,96.7445734 26.6801627,97.0567733 L26.7491061,97.1477537 C29.8583911,101.277392 31.5621005,105.326643 31.0906767,107.465305 L31.0906767,107.465305 Z M11.5846645,82.2880365 L50.808488,62.2299732 L20.3504136,88.0166862 L20.1504156,87.8559126 C18.6715487,86.6625737 17.1926818,85.6300084 15.7548083,84.7868818 L15.7548083,84.7868818 L15.536177,84.6603817 C15.3156823,84.5338815 15.0951877,84.4117434 14.8765563,84.2933443 L14.4933304,84.0877036 C14.3045125,83.9911149 14.1163157,83.8995113 13.9287399,83.8085309 C13.7430275,83.7181737 13.5591785,83.630309 13.3778139,83.5486759 C13.156077,83.4483482 12.9374457,83.354252 12.7219199,83.2663874 L12.4424197,83.1560892 C12.1809317,83.0545152 11.9225492,82.9604191 11.670999,82.8769165 L10.9616894,82.6438571 L11.5846645,82.2880365 Z M57.9177323,58.5951191 L106.987418,33.5119463 C107.671262,33.3443181 108.24579,33.0321182 108.694854,32.5809551 C110.201671,31.069808 110.120305,28.2575164 108.466906,24.6644136 C106.935866,21.336151 104.217881,17.6227796 100.813568,14.2078987 C94.5844391,7.95829273 89.0136884,5.26128459 85.4845319,5.26128459 C84.195104,5.26128459 83.1777231,5.62146729 82.5013325,6.3000814 C82.0386043,6.76370757 81.7205951,7.35258758 81.5553794,8.04864998 L81.5299138,8.11782002 L56.5264421,57.3351028 L56.4363809,57.3812162 L7.40893065,82.452549 L7.37352728,82.4612731 C6.68781999,82.6264088 6.11142835,82.9411013 5.65925905,83.3953802 C4.15306323,84.9065273 4.23442886,87.7175725 5.88720704,91.3112985 C7.41824732,94.639561 10.136232,98.3529325 13.5405451,101.767813 C18.9032234,107.147497 25.0764523,110.76241 28.9031214,110.76241 C30.1422392,110.76241 31.1347756,110.396619 31.8534018,109.675631 C32.3155089,109.212005 32.6335181,108.623748 32.7993549,107.927062 L32.8248205,107.858515 L57.8276711,58.6406093 L57.9177323,58.5951191 Z"/>
      <path fill="#1976D2" d="M85.4692525 7.13018411C84.7394463 7.13018411 84.1941102 7.30591339 83.8487722 7.6523867 83.6556064 7.84556427 83.5133719 8.1209981 83.4245529 8.47058719L83.4152362 8.54474245C82.952508 10.6410307 84.6469007 14.642299 87.7313413 18.7376635L87.7953158 18.8224123C88.0319593 19.1346122 88.2816462 19.4511742 88.5387864 19.7702287L88.8071067 20.0973843C89.0244958 20.360355 89.2468537 20.6264416 89.4772862 20.8937744 89.620763 21.0601564 89.7698298 21.2259152 89.9201388 21.3929203L90.1170312 21.6135166C90.2561602 21.769305 90.3952892 21.9250934 90.5406294 22.082128 90.9567742 22.5295522 91.333789 22.9221389 91.7275738 23.3184645L91.7915483 23.381403C92.1766375 23.7665118 92.5567579 24.1341724 92.9219715 24.4756604L93.2797319 24.7997002C93.5579899 25.0551932 93.8350057 25.3081935 94.1138849 25.5518465 94.2263061 25.6496815 94.3368639 25.7425314 94.4480429 25.8353813L94.6697798 26.021081C95.3120093 26.5619782 95.961071 27.0779493 96.6001949 27.5540385L96.6859083 27.6163538C96.9685141 27.8263566 97.2480144 28.027012 97.523788 28.2208127L98.0225406 28.5585619C98.1461419 28.6420644 98.2685009 28.7249438 98.3877543 28.802838L98.5281255 28.8931953C99.509482 29.5232034 100.465994 30.061608 101.372196 30.4940765 101.672193 30.6374018 101.964736 30.768264 102.271566 30.8953873 103.108203 31.2418606 103.887698 31.4848905 104.588312 31.6182453L104.773403 31.6487798C104.92247 31.673706 105.06781 31.6930237 105.209424 31.7073563 105.279609 31.7142109 105.350416 31.7204425 105.417496 31.7235582 105.513769 31.7297898 105.604451 31.7291666 105.705692 31.7316592 105.790163 31.7316592 105.887678 31.7316592 105.972149 31.726674 106.160346 31.7148341 106.321214 31.69427 106.448542 31.665605L106.529907 31.6531419C106.872761 31.568393 107.152261 31.4244446 107.347911 31.2287744 108.221194 30.3519975 107.993246 28.1971329 106.736116 25.464605 105.297001 22.3363746 102.71566 18.8192966 99.4666253 15.5595809 93.6623367 9.736835 88.2543173 7.13018411 85.4692525 7.13018411L85.4692525 7.13018411zM105.695754 32.043236C105.591408 32.043236 105.496999 32.0413665 105.399484 32.0345118 105.330541 32.0307729 105.256007 32.0245414 105.179611 32.0176867 105.029923 32.0021078 104.878992 31.9815438 104.723093 31.9566176L104.534275 31.92546C103.809438 31.7871199 103.009446 31.5378585 102.152933 31.1839074 101.840514 31.0542914 101.543623 30.9209366 101.238657 30.7751187 100.321275 30.3370418 99.3529619 29.7924057 98.3610465 29.156166L98.2200542 29.0651856C98.0976952 28.985422 97.9728517 28.9012963 97.8492505 28.8165474L97.3480134 28.4775519C97.067892 28.2812586 96.7865284 28.0781106 96.5020593 27.8674847L96.4163458 27.8051693C95.7710108 27.3234717 95.1169802 26.8043849 94.470403 26.2597488L94.2492872 26.0740491C94.1362449 25.9799529 94.0232025 25.8858567 93.9101602 25.7861522 93.6294177 25.541876 93.3505386 25.2863831 93.0710383 25.0308902L92.7120358 24.7049809C92.3424743 24.3597539 91.9604907 23.9896008 91.5735381 23.6032456L91.5089425 23.539684C91.111431 23.1396194 90.7319318 22.7445402 90.3133025 22.2946234 90.166099 22.1357192 90.0263489 21.9786846 89.8859777 21.8216499L89.7077186 21.6222408C89.5381551 21.4328021 89.3878461 21.265797 89.242506 21.0981687 89.0102102 20.8283433 88.78661 20.5616336 88.5673576 20.2955471L88.2984162 19.9677684C88.0387915 19.6449749 87.7872413 19.3252972 87.5481133 19.0099815L87.4835177 18.9252326C84.3500093 14.7644371 82.6338777 10.6672031 83.1102704 8.48367341L83.1202082 8.41201076C83.2257971 7.98888957 83.3959817 7.66484977 83.6288986 7.43179038 84.0351057 7.02487118 84.654354 6.81860739 85.4692525 6.81860739 88.3182918 6.81860739 93.8194779 9.45392333 99.6858777 15.3396077 102.960378 18.6242495 105.5647 22.1737316 107.018101 25.3343659 108.331752 28.189655 108.536719 30.476005 107.567164 31.4487476 107.331141 31.6855459 107.002573 31.8569131 106.590155 31.9584871L106.506305 31.9715733C106.372766 32.0014847 106.19637 32.0245414 105.991403 32.0376276 105.896994 32.043236 105.788921 32.043236 105.695754 32.043236L105.695754 32.043236zM94.0163703 28.5604313L66.9340378 51.4881163 102.22933 33.4397229C99.7492311 32.567308 96.9206885 30.8879095 94.0163703 28.5604313L94.0163703 28.5604313zM65.8750424 52.3792257L65.7042367 52.1212402 94.0114014 28.1566279 94.1114004 28.2370147C97.1591954 30.6941087 100.121277 32.4327069 102.67653 33.2621241L103.03367 33.3780307 65.8750424 52.3792257zM81.7090424 11.9764485L60.4123652 53.8959812 92.4132811 26.8037617 92.2797421 26.6847394C92.0716697 26.4977934 91.8635972 26.3083547 91.6555248 26.1151772L91.4468313 25.9188838C91.0642265 25.5593243 90.6828639 25.1922869 90.2735514 24.7834983 90.0462245 24.5560472 89.821382 24.3242342 89.5977818 24.0905516 89.4698328 23.9578199 89.3449894 23.8238419 89.2195248 23.6898639L89.0387813 23.4966864C85.6760827 19.8736722 83.1798349 16.0948697 82.0096605 12.855718 81.9444438 12.6793656 81.8823326 12.5042595 81.8258114 12.331646L81.7090424 11.9764485zM60.0247915 54.6319254L59.7862847 54.4418636 81.7705325 11.1682185 82.1202184 12.2338109C82.1761184 12.4033086 82.2369874 12.5746758 82.3003407 12.7472893 83.4574718 15.9502981 85.9313596 19.6910882 89.2661082 23.284191L89.4456095 23.4761223C89.5704529 23.6094771 89.6946753 23.7422088 89.8220032 23.8743174 90.04374 24.1073768 90.2667191 24.3366972 90.4928038 24.5635251 90.8990108 24.9698211 91.2791312 25.3343659 91.6586304 25.6914328L91.8673239 25.887103C92.073533 26.0784111 92.2797421 26.2666035 92.4865723 26.4523032L92.8871893 26.8106164 92.7505447 26.9271461 60.0247915 54.6319254zM11.3433005 82.6052839L11.719073 82.7286683C11.9737288 82.812794 12.2345957 82.9081365 12.4985682 83.0109568L12.7786895 83.121255C12.997942 83.2109891 13.2178155 83.3050852 13.4414157 83.4066592 13.6240225 83.4882923 13.8091138 83.5774033 13.9960684 83.6683837 14.2053831 83.7699577 14.3842632 83.8571992 14.5643856 83.9488027L14.9494749 84.1556897C15.1699695 84.2753352 15.3917064 84.3980964 15.6134432 84.5252197L15.8320746 84.6517198C17.2767803 85.4992085 18.7624794 86.5361359 20.2481786 87.73446L20.3475565 87.8148468 49.6783132 62.9828049 11.6582041 82.4251926 11.3433005 82.6052839zM20.3525253 88.2186502L20.0537706 87.9774898C18.5798726 86.788513 17.1072168 85.7603098 15.6767966 84.9215453L15.4587864 84.7956683C15.2401551 84.6697913 15.0209027 84.5476532 14.8028925 84.4311235L14.4202877 84.2254829C14.2451342 84.1351256 14.0674963 84.0497536 13.8911006 83.9637584 13.676817 83.8596918 13.4942102 83.7718272 13.3140878 83.6908172 13.0935932 83.5911127 12.8768252 83.4982628 12.6631628 83.4103982L12.3855259 83.3007232C12.1271434 83.2003954 11.8718665 83.1075456 11.6221796 83.0246662L10.5799542 82.6819318 11.5141062 82.1497587 50.7379297 62.0910723 50.9081143 62.3490578 20.3525253 88.2186502zM21.941329 89.1708287L22.0742469 89.2904741C22.2848038 89.4799128 22.4959817 89.671844 22.7065386 89.8675142L22.8953566 90.0457361C23.3413147 90.4638721 23.7295095 90.8390105 24.0810587 91.1923385 24.3046589 91.4166737 24.5257747 91.6441247 24.7456482 91.8746915 24.8878828 92.0217557 25.0270118 92.1713125 25.1940909 92.3495344L25.3027854 92.465441C28.6704529 96.0903246 31.1710485 99.8734892 32.3443285 103.118249 32.4095452 103.294602 32.4716564 103.471577 32.5287987 103.644191L32.6455677 103.999388 53.9422449 62.0798555 21.941329 89.1708287zM32.5840776 104.807618L32.2343917 103.742026C32.1778706 103.572528 32.1170016 103.399291 32.0536482 103.226678 30.8934116 100.018684 28.4157971 96.2729086 25.0760797 92.6785595L24.9673851 92.5626529C24.8021694 92.3850542 24.6636615 92.2373668 24.522048 92.0909257 24.3027956 91.8622284 24.0835432 91.6354006 23.8618063 91.4129348 23.5121204 91.0614762 23.1264101 90.6894536 22.6835575 90.2731871L22.4947395 90.0962115C22.286046 89.9017877 22.0767314 89.7111027 21.8667956 89.5229104L21.4680419 89.163974 54.3291975 61.3439113 54.5677043 61.5339731 32.5840776 104.807618zM8.65264467 84.2441775C8.60295574 84.2441775 8.54954013 84.2448006 8.49239786 84.2460469 8.44022448 84.2466701 8.41227445 84.2472932 8.38618776 84.2485396 8.19364314 84.2610026 8.03339633 84.2815667 7.89488842 84.3108549L7.81538613 84.3239411C7.47812249 84.40869 7.20110668 84.5520153 7.00669873 84.7470623 6.13279459 85.6244624 6.36136369 87.779327 7.61787262 90.5112317 9.05698837 93.6382158 11.6389496 97.1565402 14.8879848 100.415633 20.6972423 106.24461 26.0971873 108.85313 28.8716931 108.85313 29.6058471 108.85313 30.155531 108.674909 30.5058379 108.32345 30.6990037 108.129026 30.8412382 107.854215 30.9294361 107.504003L30.9393739 107.431717C31.401481 105.336052 29.7083305 101.33603 26.6251322 97.241289L26.5561888 97.1503086C26.3207875 96.8399782 26.073585 96.5259089 25.8189292 96.2099701 25.7282469 96.0984256 25.6357013 95.9856348 25.5425345 95.872844 25.3276299 95.6111196 25.1071352 95.3493951 24.8798084 95.0858012 24.7195616 94.9013478 24.5531036 94.7150249 24.366149 94.5068917L24.2121133 94.3342782C24.082301 94.1890834 23.9524886 94.0438887 23.8164652 93.8974476 23.3885192 93.436314 22.9984611 93.030018 22.6239307 92.6548796 22.2419471 92.2716402 21.84133 91.8834156 21.4326386 91.5014226 21.3568629 91.4297599 21.2817084 91.3630825 21.2065539 91.2951588L21.0593504 91.1624271C20.7885457 90.9137889 20.5177411 90.6676433 20.2456941 90.4295986 20.1239562 90.3242857 20.0028395 90.2220885 19.8817227 90.1198914L19.6804825 89.9510168C19.3562622 89.6786987 19.0357686 89.4169743 18.7190016 89.1658434L18.6662071 89.1228459C18.3711791 88.8891633 18.0792566 88.6660744 17.7898186 88.4498401L17.5500695 88.2741109C17.3208792 88.1058594 17.0935524 87.9413469 16.8687099 87.7830659 16.5848619 87.5849031 16.3022561 87.3923487 16.0295881 87.2153731L15.917788 87.1412179C13.6339603 85.6643442 11.4401939 84.6741534 9.74269567 84.3544756L9.62716889 84.3345347C9.45325762 84.3046234 9.28742081 84.2834361 9.12593177 84.2672342L8.94518827 84.2529016C8.8507793 84.2466701 8.75823366 84.2441775 8.65264467 84.2441775L8.65264467 84.2441775zM28.8716931 109.164707C26.0332127 109.164707 20.5401011 106.527522 14.6681113 100.636229 11.3936105 97.350964 8.78991035 93.8021051 7.33588791 90.6414708 6.02223672 87.7861817 5.81726986 85.5004548 6.78682519 84.526466 7.02222652 84.290914 7.34768904 84.1201699 7.75451719 84.0192191L7.83898837 84.0048866C7.98370739 83.9731057 8.15886089 83.9506722 8.36569108 83.9382091 8.39736777 83.9357165 8.4309078 83.9350934 8.46444783 83.9350934 8.67624691 83.929485 8.81786038 83.9326008 8.96754829 83.9419481L9.1538818 83.9569037C9.32530862 83.9737289 9.49859878 83.9967856 9.67934227 84.0273201L9.79735349 84.0478841C11.5364662 84.3750397 13.7693627 85.3808094 16.0867303 86.8807397L16.1991516 86.9542718C16.4736829 87.1331169 16.7587732 87.3269176 17.0463479 87.527573 17.2736748 87.6864771 17.502865 87.8528591 17.7332974 88.0223569L17.9742887 88.1993324C18.2668323 88.4174361 18.5612393 88.6436409 18.8587518 88.8791929L18.9121674 88.9215673C19.2307977 89.1745676 19.5537757 89.4375383 19.8798594 89.712349L20.0804784 89.8812236C20.2034585 89.9834208 20.3258175 90.0868642 20.4494188 90.1940466 20.723329 90.4339607 20.995997 90.6825989 21.268044 90.9312372L21.4140052 91.0633457C21.4904019 91.1318926 21.5674198 91.2010626 21.6450587 91.2733484 22.0556136 91.6584573 22.4593362 92.0485513 22.8438043 92.4349065 23.220198 92.8119143 23.6133617 93.220703 24.043792 93.6849523 24.1810577 93.8332628 24.3121123 93.9797039 24.4431669 94.1261449L24.5767059 94.2757017C24.7853994 94.508138 24.9530995 94.6957072 25.1145886 94.8814069 25.3437788 95.1474934 25.5655157 95.4117105 25.7816625 95.6746812 25.8748293 95.7868489 25.9686171 95.900886 26.0605417 96.0142999 26.3170608 96.3321081 26.5667477 96.6486701 26.8040123 96.9621163L26.8729557 97.054343C30.0052219 101.213269 31.7201113 105.30988 31.2437186 107.492786L31.2337808 107.563826C31.128813 107.985701 30.9586284 108.309117 30.7257115 108.543423 30.3145355 108.955328 29.6909394 109.164707 28.8716931 109.164707L28.8716931 109.164707zM85.4847803 5.41713527C84.2531159 5.41713527 83.2587161 5.76049282 82.6108966 6.41044188 82.1699073 6.85350398 81.8649415 7.41621155 81.7059369 8.08423205L81.6755024 8.17209668 56.6415962 57.4516948 56.506815 57.5196185 7.4625947 82.5996755 7.40917909 82.6127617C6.75328516 82.7710427 6.20111688 83.0714027 5.76944426 83.5057406 4.31231627 84.9664123 4.4042408 87.7157654 6.02844783 91.2459297 7.55203478 94.5573671 10.2588395 98.2545365 13.6507303 101.657578 18.9860797 107.010466 25.1158308 110.606684 28.9027487 110.606684 30.0996309 110.606684 31.0549007 110.255849 31.7430924 109.565395 32.1847028 109.122333 32.4896686 108.559002 32.6480521 107.890982L32.6791077 107.804363 57.7130139 58.5247651 57.8477951 58.4562182 106.917481 33.3730454C107.606915 33.1998088 108.156599 32.900072 108.585166 32.4707192 110.042294 31.0088012 109.950369 28.2600714 108.325541 24.7292839 106.802575 21.4184696 104.095771 17.720677 100.70388 14.317636 95.1480358 8.74477471 89.4586528 5.41713527 85.4847803 5.41713527L85.4847803 5.41713527zM28.9027487 110.918261C25.038813 110.918261 18.8208639 107.285276 13.4308568 101.878174 10.0141215 98.4502067 7.28495676 94.7206333 5.74646313 91.3761687 4.0638716 87.7188811 3.99430709 84.8455206 5.54957073 83.2851443 6.02223672 82.8096782 6.62409393 82.4818995 7.33713014 82.3099092L56.4111638 57.2192586 81.3916544 8.04746599 81.4096666 7.99449795C81.5767456 7.28721878 81.9090404 6.67465894 82.391023 6.18984555 83.0990904 5.48069692 84.1686447 5.10555855 85.4847803 5.10555855 89.5393973 5.10555855 95.3107671 8.46747142 100.923753 14.0976629 104.340489 17.52563 107.069653 21.2552034 108.607526 24.5990448 110.290739 28.2563324 110.360924 31.1309393 108.805039 32.6913156 108.335479 33.1617964 107.736727 33.488952 107.024312 33.6634349L57.9434463 58.7572013 32.9629557 107.928994 32.9449435 107.981339C32.7778645 108.688618 32.4455697 109.301178 31.9629659 109.785368 31.2139053 110.536891 30.1847232 110.918261 28.9027487 110.918261L28.9027487 110.918261zM57.1771187 15.8659231C57.6597225 15.8659231 58.0522651 15.4720901 58.0522651 14.9878999L58.0522651 1.65677808C58.0522651 1.17258785 57.6597225.778754869 57.1771187.778754869 56.6945149.778754869 56.3019724 1.17258785 56.3019724 1.65677808L56.3019724 14.9878999C56.3019724 15.4720901 56.6945149 15.8659231 57.1771187 15.8659231"/>
      <g transform="translate(55.9 .07)">
        <mask id="d" fill="white">
          <use xlink:href="#tools-img#c"/>
        </mask>
        <path fill="#1976D2" d="M1.27712983,0.865373199 C0.88023947,0.865373199 0.557261397,1.18941299 0.557261397,1.58760805 L0.557261397,14.9187298 C0.557261397,15.3169249 0.88023947,15.6409647 1.27712983,15.6409647 C1.67402019,15.6409647 1.99699827,15.3169249 1.99699827,14.9187298 L1.99699827,1.58760805 C1.99699827,1.18941299 1.67402019,0.865373199 1.27712983,0.865373199 M1.27712983,15.9525414 C0.708812647,15.9525414 0.246705558,15.4889153 0.246705558,14.9187298 L0.246705558,1.58760805 C0.246705558,1.01742264 0.708812647,0.553796473 1.27712983,0.553796473 C1.84544702,0.553796473 2.30755411,1.01742264 2.30755411,1.58760805 L2.30755411,14.9187298 C2.30755411,15.4889153 1.84544702,15.9525414 1.27712983,15.9525414" mask="url(#tools-img#d)"/>
      </g>
      <path fill="#1976D2" d="M34.9899537,21.1876536 C35.2216284,21.5902107 35.7806289,21.7428833 36.1855937,21.5098239 C36.387455,21.3920479 36.5327951,21.2026093 36.5930429,20.9764046 C36.6539119,20.7495767 36.6222352,20.5134015 36.5054662,20.3102535 L29.8614346,8.76446636 C29.6999455,8.48342415 29.4049175,8.32576632 29.1024361,8.32576632 C28.9539904,8.32576632 28.8036814,8.36377869 28.6657946,8.44354233 C28.2484075,8.68532587 28.1049307,9.22373045 28.3459221,9.64311272 L34.9899537,21.1876536 Z"/>
      <path fill="#1976D2" d="M29.1021877 8.48174163C28.9767231 8.48174163 28.8525008 8.51539192 28.7438062 8.57833042 28.5773483 8.6749192 28.458716 8.83008441 28.409027 9.0164073 28.3593381 9.20335333 28.3848037 9.39840036 28.4804549 9.56478233L35.1244865 21.1099463C35.3133044 21.4371019 35.7816226 21.5623557 36.1083274 21.3741634 36.2741642 21.2775746 36.3934176 21.1217863 36.4431066 20.9360865 36.4927955 20.7497636 36.4673299 20.5553398 36.3710576 20.3877115L29.727026 8.84254748C29.599077 8.6200817 29.359949 8.48174163 29.1021877 8.48174163M35.766716 21.7742279C35.4039867 21.7742279 35.0412575 21.5885282 34.8555451 21.2657347L28.2115135 9.7205707C28.0742478 9.48190292 28.0376022 9.20335333 28.1090301 8.9360205 28.1804579 8.66931082 28.3506425 8.44559873 28.5885283 8.30850497 28.7444273 8.21814772 28.9220653 8.17016491 29.1021877 8.17016491 29.4705069 8.17016491 29.8127394 8.36770455 29.9959674 8.68675912L36.639999 20.2319231C36.7778858 20.471214 36.8145314 20.7497636 36.7431035 21.0164733 36.6722968 21.283183 36.5021122 21.5056488 36.2629842 21.644612 36.1101907 21.7324766 35.9381428 21.7742279 35.766716 21.7742279M8.11507251 30.5830628L19.6224086 37.2489353C20.0304789 37.4826178 20.5863739 37.3293221 20.8180485 36.9273881 20.9348175 36.7236169 20.9658731 36.4874418 20.9056253 36.2606139 20.8453775 36.033786 20.7000373 35.8443474 20.498176 35.7271945L8.99021887 29.0619452C8.78773646 28.9447924 8.55171402 28.9142579 8.32625048 28.9740806 8.10078695 29.0351496 7.91134788 29.1803444 7.79457889 29.3828692 7.55358756 29.8022515 7.69706435 30.3406561 8.11507251 30.5830628"/>
      <path fill="#1976D2" d="M8.19271147 30.4479008L19.7000475 37.1137733C20.0329634 37.3057046 20.492586 37.1810739 20.6832673 36.8489331 20.7795396 36.6819279 20.8056263 36.4868809 20.7559374 36.3011812 20.7056273 36.1148583 20.586995 35.9590699 20.4205371 35.861858L8.91257991 29.1966087C8.7473642 29.1012662 8.55295625 29.0763401 8.36600163 29.124946 8.18091035 29.1747983 8.02501132 29.2938206 7.92936012 29.4608257 7.73060439 29.8060528 7.84923672 30.2491149 8.19271147 30.4479008M20.0404167 37.5132147C19.8689899 37.5132147 19.6981842 37.4714634 19.5453907 37.3842219L8.03743355 30.7183494C7.54551311 30.4329451 7.37657073 29.7991981 7.66041877 29.3050374 7.79768445 29.0657465 8.02004243 28.8950024 8.28587823 28.8239629 8.55295625 28.7523003 8.82997206 28.7896895 9.06785783 28.9267832L20.575815 35.5920326C20.8143219 35.7309958 20.9845065 35.9540847 21.0553132 36.2207944 21.1267411 36.4868809 21.0900955 36.7660537 20.9522087 37.0047214 20.7664963 37.3275149 20.4031459 37.5132147 20.0404167 37.5132147M15.1932612 57.9877937C15.1932612 57.5036035 14.8007186 57.1097705 14.3181148 57.1097705L1.03067272 57.1097705C.548068944 57.1097705.155526364 57.5036035.155526364 57.9877937.155526364 58.471984.548068944 58.8658169 1.03067272 58.8658169L14.3181148 58.8658169C14.8007186 58.8658169 15.1932612 58.471984 15.1932612 57.9877937"/>
      <path fill="#1976D2" d="M1.0305485 57.2654342C.633658134 57.2654342.310680061 57.589474.310680061 57.9876691.310680061 58.3864873.633658134 58.7099039 1.0305485 58.7099039L14.3179906 58.7099039C14.714881 58.7099039 15.0378591 58.3864873 15.0378591 57.9876691 15.0378591 57.589474 14.714881 57.2654342 14.3179906 57.2654342L1.0305485 57.2654342zM14.3179906 59.0214807L1.0305485 59.0214807C.462231311 59.0214807.000124222336 58.5578545.000124222336 57.9876691.000124222336 57.4174837.462231311 56.9538575 1.0305485 56.9538575L14.3179906 56.9538575C14.8863078 56.9538575 15.3484149 57.4174837 15.3484149 57.9876691 15.3484149 58.5578545 14.8863078 59.0214807 14.3179906 59.0214807L14.3179906 59.0214807zM57.1771187 100.109664C56.6945149 100.109664 56.3019724 100.503497 56.3019724 100.987688L56.3019724 114.318809C56.3019724 114.803 56.6945149 115.196833 57.1771187 115.196833 57.6597225 115.196833 58.0522651 114.803 58.0522651 114.318809L58.0522651 100.987688C58.0522651 100.503497 57.6597225 100.109664 57.1771187 100.109664"/>
      <g transform="translate(0 .07)">
        <mask id="f" fill="white">
          <use xlink:href="#tools-img#e"/>
        </mask>
        <path fill="#1976D2" d="M57.1771808,100.196283 C56.7802905,100.196283 56.4573124,100.520322 56.4573124,100.918518 L56.4573124,114.249639 C56.4573124,114.647834 56.7802905,114.971874 57.1771808,114.971874 C57.5740712,114.971874 57.8970493,114.647834 57.8970493,114.249639 L57.8970493,100.918518 C57.8970493,100.520322 57.5740712,100.196283 57.1771808,100.196283 M57.1771808,115.283451 C56.6088636,115.283451 56.1467566,114.819825 56.1467566,114.249639 L56.1467566,100.918518 C56.1467566,100.348332 56.6088636,99.884706 57.1771808,99.884706 C57.745498,99.884706 58.2076051,100.348332 58.2076051,100.918518 L58.2076051,114.249639 C58.2076051,114.819825 57.745498,115.283451 57.1771808,115.283451" mask="url(#tools-img#f)"/>
      </g>
      <path fill="#1976D2" d="M79.3642837,94.7879339 C79.2021736,94.5068917 78.9071455,94.3492339 78.604043,94.3492339 C78.4562185,94.3492339 78.3059094,94.3866231 78.1686438,94.4657636 C77.9667825,94.5835396 77.8214423,94.7729782 77.7611945,94.9998061 C77.7003255,95.2260108 77.7320022,95.4628091 77.8487712,95.6659571 L84.4928029,107.211744 C84.7244775,107.614301 85.2803725,107.76822 85.6878217,107.532668 C85.8903041,107.415515 86.0350232,107.226077 86.0958921,106.999249 C86.156761,106.772421 86.1250843,106.536869 86.0083153,106.333098 L79.3642837,94.7879339 Z"/>
      <path fill="#1976D2" d="M78.6042915 94.5048976C78.479448 94.5048976 78.3552257 94.5385479 78.24591 94.6008632 78.0800732 94.6980752 77.9608198 94.8538635 77.9111309 95.0395632 77.8614419 95.2258861 77.8869075 95.4209332 77.9831798 95.5879383L84.6272114 107.133725C84.8185138 107.466489 85.2787576 107.589874 85.6104312 107.397319 85.7768891 107.301354 85.8961426 107.144942 85.9458315 106.958619 85.9955204 106.77292 85.9700549 106.578496 85.8737826 106.410867L79.2297509 94.8657034C79.1011808 94.6432377 78.8620528 94.5048976 78.6042915 94.5048976M85.2688198 107.798007C84.9067117 107.798007 84.5439825 107.612307 84.3582701 107.289514L77.7142384 95.7437267C77.5763517 95.5044357 77.5397061 95.2258861 77.6111339 94.9591765 77.6819406 94.6930899 77.8527464 94.4693778 78.0912532 94.3310378 78.5688881 94.0549808 79.224782 94.2350721 79.4986923 94.7099151L86.1427239 106.255079C86.2806107 106.494993 86.3172563 106.77292 86.2458285 107.039006 86.1744006 107.306339 86.004216 107.529428 85.7657091 107.667768 85.6129157 107.756256 85.4408677 107.798007 85.2688198 107.798007M106.239165 85.392587L94.7318289 78.7279608C94.5970476 78.6500666 94.4473597 78.6095617 94.2958085 78.6095617 94.2200328 78.6095617 94.1436361 78.6195321 94.0684816 78.6400962 93.8423969 78.7005421 93.6529579 78.8457368 93.5361889 79.0488848 93.4194199 79.2520329 93.3883643 79.4888312 93.4486121 79.715659 93.50886 79.9418637 93.653579 80.1313024 93.8560614 80.2484552L105.364019 86.9137046C105.771468 87.1492566 106.327984 86.9947145 106.559659 86.5927805 106.80065 86.1733983 106.657173 85.6349937 106.239165 85.392587"/>
      <path fill="#1976D2" d="M94.2958706 78.7654123C94.2318961 78.7654123 94.1691638 78.7741365 94.1095371 78.7903385 93.9219613 78.8401907 93.7666834 78.9598362 93.6710322 79.1268413 93.5747599 79.2944696 93.5486732 79.4888935 93.5983622 79.6752164 93.6486722 79.8615393 93.7673045 80.0173276 93.9337625 80.1132932L105.44172 86.7785426C105.774635 86.9723433 106.233637 86.8477126 106.424939 86.5149487 106.623695 86.1697216 106.505684 85.7266595 106.161588 85.5278736L94.654252 78.8626243C94.5443152 78.7990626 94.4200929 78.7654123 94.2958706 78.7654123M105.783331 87.1792302C105.611283 87.1792302 105.439235 87.137479 105.286442 87.0489912L93.7784845 80.3837418C93.5405988 80.2454018 93.3697931 80.0223128 93.2989863 79.7556032 93.2275585 79.4888935 93.2642041 79.2103439 93.4020909 78.971053 93.5393566 78.7311389 93.7623356 78.5603948 94.0287926 78.4899785 94.281585 78.418939 94.5716442 78.4557051 94.8095299 78.5927988L106.316866 85.257425C106.554752 85.3957651 106.725557 85.618854 106.796364 85.8861868 106.867792 86.1528965 106.831768 86.4320692 106.693881 86.670737 106.508168 86.9935305 106.145439 87.1792302 105.783331 87.1792302M113.323751 57.1096459L100.036309 57.1096459C99.5537052 57.1096459 99.1611626 57.5034789 99.1611626 57.9876691 99.1611626 58.4724825 99.5537052 58.8656923 100.036309 58.8656923L113.323751 58.8656923C113.806355 58.8656923 114.198897 58.4724825 114.198897 57.9876691 114.198897 57.5034789 113.806355 57.1096459 113.323751 57.1096459"/>
      <g transform="translate(98.757 56.776)">
        <mask id="h" fill="white">
          <use xlink:href="#g"/>
        </mask>
        <path fill="#1976D2" d="M1.27955217,0.48930009 C0.882661805,0.48930009 0.559683733,0.813339885 0.559683733,1.21153494 C0.559683733,1.61035315 0.882661805,1.93376979 1.27955217,1.93376979 L14.5669943,1.93376979 C14.9638847,1.93376979 15.2868627,1.61035315 15.2868627,1.21153494 C15.2868627,0.813339885 14.9638847,0.48930009 14.5669943,0.48930009 L1.27955217,0.48930009 Z M14.5669943,2.24534652 L1.27955217,2.24534652 C0.711234982,2.24534652 0.249127894,1.78172035 0.249127894,1.21153494 C0.249127894,0.641349533 0.711234982,0.177723364 1.27955217,0.177723364 L14.5669943,0.177723364 C15.1353115,0.177723364 15.5974186,0.641349533 15.5974186,1.21153494 C15.5974186,1.78172035 15.1353115,2.24534652 14.5669943,2.24534652 L14.5669943,2.24534652 Z" mask="url(#h)"/>
      </g>
    </g>
  </g>
</svg>