<svg id="offerings_grow_img" xmlns="http://www.w3.org/2000/svg" viewBox="0 0 980 360" xml:space="preserve" width="100%" height="100%"  preserveAspectRatio="xMaxYMax">
  <defs>
    <style>
      #offerings_grow_img .cls-1 {
        fill: #f8bbd0;
      }

      #offerings_grow_img .cls-2 {
        fill: #33439b;
      }

      #offerings_grow_img .cls-3 {
        fill: #f2e6d6;
      }

      #offerings_grow_img .cls-4 {
        fill: #a39781;
      }

      #offerings_grow_img .cls-5 {
        fill: #e2d3c0;
      }

      #offerings_grow_img .cls-6 {
        fill: #5e6bb2;
      }

      #offerings_grow_img .cls-7 {
        fill: #f9f2ea;
      }

      #offerings_grow_img .cls-8 {
        fill: #f1f2f2;
      }

      #offerings_grow_img .cls-9 {
        fill: #ec407a;
      }

      #offerings_grow_img .cls-10, #offerings_grow_img .cls-13 {
        fill: #c2185b;
      }

      #offerings_grow_img .cls-11, #offerings_grow_img .cls-13 {
        opacity: 0.3;
      }

      #offerings_grow_img .cls-12 {
        fill: #fff;
      }

      #offerings_grow_img .cls-13 {
        isolation: isolate;
      }

      #offerings_grow_img .cls-14 {
        opacity: 0.6;
      }

      #offerings_grow_img .cls-15 {
        opacity: 0.3;
      }
    </style>
  </defs>
  <title>organisations grow</title>
  <rect class="cls-1" width="980" height="360"/>
  <g>
    <path class="cls-2" d="M307.69,204.07s-10.43.08-12.73,0.37c0,0-9.53-5.14-13-7.45,0,0-.52-8.27.22-13.26a6.46,6.46,0,0,0-2.9-1.56s-2.76,6.11-4.24,18.77c0,0,7.82,9.24,16.53,14.45A139.54,139.54,0,0,0,293.84,232s6.85,1.57,8,1.49,7-1.19,7-1.19l1.56-1.49s1.19-10.5,1.94-13.85c0,0,11.92-15.34,12.36-16.24s-4-15.42-4-15.42l-3.2.3,1,12.66S311.41,202.73,307.69,204.07Z" transform="translate(0 0)"/>
    <polygon class="cls-3" points="282.29 182.32 279.91 180.76 279.91 177.26 283.04 174.65 284.53 175.1 283.93 180.69 282.29 182.32"/>
    <path class="cls-3" d="M307.54,190.52a54.15,54.15,0,0,1-1.86,14.75,7.3,7.3,0,0,1-5.58-1s-1.64-10.13-4.54-14.75C295.55,189.55,302.33,185,307.54,190.52Z" transform="translate(0 0)"/>
    <path class="cls-4" d="M307.54,190.52v0.58a26.12,26.12,0,0,1-8.5.91s1.15,5.3.26,8.35c-0.75-3.36-2-8.06-3.76-10.81C295.55,189.55,302.33,185,307.54,190.52Z" transform="translate(0 0)"/>
    <path class="cls-5" d="M305.38,195.1l2.1-2a51.64,51.64,0,0,1-1.83,12.1l-0.32.07-0.26-5.36,0.89-.82Z" transform="translate(0 0)"/>
    <g>
      <path class="cls-2" d="M323.33,202.68l-3.06-17.33h0.52s4.39,14.52,4,15.42C324.65,200.89,324.12,201.63,323.33,202.68Z" transform="translate(0 0)"/>
      <path class="cls-2" d="M311.26,217.16l1.67-.92-0.55.71c-0.75,3.35-1.94,13.85-1.94,13.85l-1.56,1.49-1,.18Z" transform="translate(0 0)"/>
    </g>
    <path class="cls-2" d="M275.07,201.08l3.08-.32,2.38,4.67,13.12,9.24,2,15.9,7.25,1.49,4.89,0.41c-1.7.32-5.15,1-6,1-1.19.08-8-1.49-8-1.49a139.54,139.54,0,0,1-2.23-16.61C283.39,210.55,276.06,202.23,275.07,201.08Z" transform="translate(0 0)"/>
    <path class="cls-6" d="M310.22,231.25s3.13,19.44,3.46,23.57-9.38,36-9.38,36-2.57-3-2.23-8.6,3.12-27.49,3.12-27.49L303,244.32s-2.12,13.74-2.57,19.21-0.74,28.73-.74,28.73a11.5,11.5,0,0,1-5.47-7.26c-1.23-5.14-2.83-37-2.72-38.89s2.5-14.52,2.5-14.52A22.58,22.58,0,0,0,310.22,231.25Z" transform="translate(0 0)"/>
    <path class="cls-2" d="M294.8,204.35l-2.22.38-12.12-6.56,1.26-14.86a4.37,4.37,0,0,1,.5.42c-0.74,5-.22,13.26-0.22,13.26C285.17,199.13,293.59,203.7,294.8,204.35Z" transform="translate(0 0)"/>
    <g>
      <path class="cls-3" d="M320.5,183.81l-1.79-4.1-4.1-2.76a41.18,41.18,0,0,0,.3,4.17c0.23,1.34,2.46,3.28,2.46,3.28Z" transform="translate(0 0)"/>
      <path class="cls-7" d="M317.32,180.52l-2.69-3V177l4.1,2.76,1.79,4.1-1,.18Z" transform="translate(0 0)"/>
    </g>
    <polygon class="cls-7" points="280.95 176.39 283.04 174.65 284.53 175.1 283.93 180.69 283.04 181.57 280.95 176.39"/>
  </g>
  <g>
    <circle class="cls-8" cx="225.61" cy="92.84" r="2.35"/>
    <circle class="cls-8" cx="213.87" cy="92.84" r="2.35"/>
    <circle class="cls-8" cx="202.12" cy="92.84" r="2.35"/>
    <circle class="cls-8" cx="213.87" cy="116.33" r="2.35"/>
    <circle class="cls-8" cx="202.12" cy="116.33" r="2.35"/>
    <circle class="cls-8" cx="190.37" cy="116.33" r="2.35"/>
    <circle class="cls-8" cx="178.62" cy="116.33" r="2.35"/>
    <circle class="cls-8" cx="155.13" cy="116.33" r="2.35"/>
    <circle class="cls-8" cx="213.87" cy="139.83" r="2.35"/>
    <circle class="cls-8" cx="202.12" cy="139.83" r="2.35"/>
    <circle class="cls-8" cx="190.37" cy="139.83" r="2.35"/>
    <circle class="cls-8" cx="155.13" cy="139.83" r="2.35"/>
    <circle class="cls-8" cx="143.38" cy="139.83" r="2.35"/>
    <circle class="cls-8" cx="213.87" cy="163.32" r="2.35"/>
    <circle class="cls-8" cx="131.63" cy="163.32" r="2.35"/>
    <circle class="cls-8" cx="225.61" cy="186.82" r="2.35"/>
    <circle class="cls-8" cx="225.61" cy="175.07" r="2.35"/>
    <circle class="cls-8" cx="225.61" cy="151.58" r="2.35"/>
    <circle class="cls-8" cx="213.87" cy="186.82" r="2.35"/>
    <circle class="cls-8" cx="131.63" cy="186.82" r="2.35"/>
    <circle class="cls-8" cx="225.61" cy="210.31" r="2.35"/>
    <circle class="cls-8" cx="213.87" cy="210.31" r="2.35"/>
    <circle class="cls-8" cx="131.63" cy="210.31" r="2.35"/>
    <circle class="cls-8" cx="225.61" cy="233.81" r="2.35"/>
    <circle class="cls-8" cx="213.87" cy="233.81" r="2.35"/>
    <circle class="cls-8" cx="131.63" cy="233.81" r="2.35"/>
    <circle class="cls-8" cx="225.61" cy="104.59" r="2.35"/>
    <circle class="cls-8" cx="213.87" cy="104.59" r="2.35"/>
    <circle class="cls-8" cx="202.12" cy="104.59" r="2.35"/>
    <circle class="cls-8" cx="190.37" cy="104.59" r="2.35"/>
    <circle class="cls-8" cx="178.62" cy="104.59" r="2.35"/>
    <circle class="cls-8" cx="166.88" cy="104.59" r="2.35"/>
    <circle class="cls-8" cx="213.87" cy="128.08" r="2.35"/>
    <circle class="cls-8" cx="202.12" cy="128.08" r="2.35"/>
    <circle class="cls-8" cx="190.37" cy="128.08" r="2.35"/>
    <circle class="cls-8" cx="155.13" cy="128.08" r="2.35"/>
    <circle class="cls-8" cx="143.38" cy="128.08" r="2.35"/>
    <circle class="cls-8" cx="213.87" cy="151.58" r="2.35"/>
    <circle class="cls-8" cx="202.12" cy="151.58" r="2.35"/>
    <circle class="cls-8" cx="143.38" cy="151.58" r="2.35"/>
    <circle class="cls-8" cx="131.63" cy="151.58" r="2.35"/>
    <circle class="cls-8" cx="213.87" cy="175.07" r="2.35"/>
    <circle class="cls-8" cx="131.63" cy="175.07" r="2.35"/>
    <circle class="cls-8" cx="119.89" cy="175.07" r="2.35"/>
    <circle class="cls-8" cx="213.87" cy="198.56" r="2.35"/>
    <circle class="cls-8" cx="131.63" cy="198.56" r="2.35"/>
    <circle class="cls-8" cx="119.89" cy="198.56" r="2.35"/>
    <circle class="cls-8" cx="225.61" cy="222.06" r="2.35"/>
    <circle class="cls-8" cx="213.87" cy="222.06" r="2.35"/>
    <circle class="cls-8" cx="131.63" cy="222.06" r="2.35"/>
    <circle class="cls-8" cx="119.89" cy="222.06" r="2.35"/>
    <circle class="cls-8" cx="213.87" cy="245.55" r="2.35"/>
  </g>
  <g>
    <path class="cls-3" d="M180.92,137.07a79.15,79.15,0,0,1-2.72,21.55,10.66,10.66,0,0,1-8.16-1.41s-2.39-14.8-6.64-21.55C163.39,135.65,173.3,129,180.92,137.07Z" transform="translate(0 0)"/>
    <path class="cls-4" d="M180.92,137.07v0.85c-1.72.56-5.62,1.48-12.42,1.33,0,0,1.68,7.74.38,12.2-1.1-4.9-3-11.78-5.5-15.79C163.39,135.65,173.3,129,180.92,137.07Z" transform="translate(0 0)"/>
    <path class="cls-5" d="M177.77,143.76l3.08-2.87a75.48,75.48,0,0,1-2.67,17.69l-0.46.1-0.38-7.84,1.31-1.2Z" transform="translate(0 0)"/>
    <path class="cls-6" d="M184.84,196.61s4.57,28.41,5.06,34.45-13.71,52.59-13.71,52.59-3.76-4.41-3.27-12.57,4.56-40.18,4.56-40.18l-3.27-15.18s-3.1,20.08-3.76,28.08-1.09,42-1.09,42a16.81,16.81,0,0,1-8-10.61c-1.8-7.51-4.14-54.07-4-56.84s3.75-21.23,3.75-21.23A33,33,0,0,0,184.84,196.61Z" transform="translate(0 0)"/>
    <g>
      <path class="cls-3" d="M197,202.87l-2.49,6-5.9,4.15a55.75,55.75,0,0,1,.31-6.1c0.31-2,3.49-4.86,3.49-4.86Z" transform="translate(0 0)"/>
      <path class="cls-7" d="M192.46,207.78l-3.84,4.53v0.75l5.9-4.15,2.49-6-1.39-.24Z" transform="translate(0 0)"/>
    </g>
    <polygon class="cls-3" points="150.3 200.41 146.82 202.69 146.82 207.81 151.39 211.62 153.57 210.97 152.7 202.8 150.3 200.41"/>
    <polygon class="cls-7" points="148.34 209.08 151.39 211.62 153.57 210.97 152.7 202.8 151.4 201.51 148.34 209.08"/>
    <path class="cls-2" d="M149.57,179.35s-0.76,12.08.33,19.37a6.36,6.36,0,0,1-.73.62h0a10.36,10.36,0,0,1-3.52,1.67s-0.23-6.59-2.4-25.1l0.16-.19h-0.16c1.45-1.68,6.89-11,18.71-18.06l-4.55,15.74C152.9,175.87,152.6,177.31,149.57,179.35Z" transform="translate(0 0)"/>
    <path class="cls-2" d="M187.73,160.58c-2.4-2.55-4.76-4.36-6.6-3.7,0,0-15.24.11-18.61,0.55l-0.24-.13h0c-0.61-.33-1.35,5.51-3.75,4.18l-1.16,11.92h0.05s1.09,14.8,3.27,24.27c0,0,10,2.29,11.76,2.18h0.17c1.3-.08,6.33-1,8.82-1.48h0l1.41-.27,2.29-2.18s1.74-15.35,2.83-20.25l0.81-1h0l0.39-.51Z" transform="translate(0 0)"/>
    <path class="cls-2" d="M201.24,178.21h0l0.75,1,0.06,0.08L202.6,180l0.07,0.1,0.37,0.52,0.08,0.12,0.17,0.28h0a1.09,1.09,0,0,1,0,.47c-0.17,3.41-5.87,20.1-5.87,20.1l-4.68-.44,3.55-19a74.11,74.11,0,0,0-11.29-9.7l1.38-13.21C189.4,163.13,197.43,173.1,201.24,178.21Z" transform="translate(0 0)"/>
  </g>
  <g>
    <path class="cls-3" d="M416.66,191.09A62.14,62.14,0,0,0,418.79,208a8.37,8.37,0,0,0,6.41-1.11s1.88-11.62,5.21-16.92C430.41,190,422.64,184.77,416.66,191.09Z" transform="translate(0 0)"/>
    <path class="cls-4" d="M416.66,191.09v0.67a30,30,0,0,0,9.75,1s-1.32,6.08-.3,9.58c0.86-3.85,2.33-9.25,4.32-12.4C430.41,190,422.64,184.77,416.66,191.09Z" transform="translate(0 0)"/>
    <path class="cls-5" d="M419.13,196.35l-2.41-2.25a59.26,59.26,0,0,0,2.1,13.89l0.36,0.08,0.3-6.15-1-.94Z" transform="translate(0 0)"/>
    <path class="cls-6" d="M413.58,237.84s-3.59,22.3-4,27,10.76,41.28,10.76,41.28,3-3.46,2.56-9.87-3.58-31.54-3.58-31.54l2.56-11.92s2.44,15.77,3,22,0.85,33,.85,33a13.2,13.2,0,0,0,6.28-8.33c1.41-5.9,3.25-42.45,3.12-44.63s-3-16.66-3-16.66A25.91,25.91,0,0,1,413.58,237.84Z" transform="translate(0 0)"/>
    <g>
      <path class="cls-3" d="M404,242.75l2,4.74,4.63,3.26a44.41,44.41,0,0,0-.24-4.79c-0.24-1.54-2.74-3.82-2.74-3.82Z" transform="translate(0 0)"/>
      <path class="cls-7" d="M407.59,246.61l3,3.56v0.59L406,247.49l-2-4.74,1.09-.18Z" transform="translate(0 0)"/>
    </g>
    <polygon class="cls-3" points="440.69 240.82 443.43 242.62 443.43 246.63 439.84 249.63 438.13 249.11 438.81 242.7 440.69 240.82"/>
    <polygon class="cls-7" points="442.23 247.63 439.84 249.63 438.13 249.11 438.81 242.7 439.83 241.69 442.23 247.63"/>
    <path class="cls-2" d="M441.26,224.29s0.6,9.49-.26,15.21a5,5,0,0,0,.57.48h0a8.13,8.13,0,0,0,2.76,1.31s0.18-5.18,1.89-19.7l-0.13-.15h0.13c-1.14-1.32-5.41-8.62-14.69-14.18l3.58,12.36C438.65,221.56,438.89,222.69,441.26,224.29Z" transform="translate(0 0)"/>
    <path class="cls-2" d="M411.31,209.55c1.89-2,3.74-3.42,5.18-2.91,0,0,12,.09,14.61.43l0.19-.1h0c0.48-.26,1.06,4.32,2.94,3.28l0.91,9.36h0a160.13,160.13,0,0,1-2.56,19.06s-7.86,1.8-9.23,1.71h-0.14c-1-.06-5-0.79-6.93-1.16h0l-1.11-.21-1.79-1.71s-1.37-12-2.22-15.89l-0.63-.82h0l-0.31-.4Z" transform="translate(0 0)"/>
    <path class="cls-2" d="M400.7,223.39h0l-0.59.79v0.06l-0.42.58-0.06.08-0.29.41-0.06.09-0.14.22h0a0.86,0.86,0,0,0,0,.37c0.13,2.67,4.61,15.78,4.61,15.78l3.67-.34-2.79-14.94a58.18,58.18,0,0,1,8.9-7.64l-1.09-10.37C410,211.55,403.7,219.39,400.7,223.39Z" transform="translate(0 0)"/>
  </g>
  <g>
    <path class="cls-2" d="M810.65,270.52s-10.43.08-12.73,0.37c0,0-9.53-5.14-13-7.45,0,0-.52-8.27.22-13.26a6.46,6.46,0,0,0-2.9-1.56s-2.76,6.11-4.24,18.77c0,0,7.82,9.24,16.53,14.45a139.54,139.54,0,0,0,2.23,16.61s6.85,1.57,8,1.49,7-1.19,7-1.19l1.56-1.49s1.19-10.5,1.94-13.85c0,0,11.92-15.34,12.36-16.24s-4-15.42-4-15.42l-3.2.3,1,12.66S814.37,269.18,810.65,270.52Z" transform="translate(0 0)"/>
    <polygon class="cls-3" points="785.25 248.78 782.87 247.22 782.87 243.72 786 241.11 787.49 241.56 786.89 247.14 785.25 248.78"/>
    <path class="cls-3" d="M810.5,257a54.15,54.15,0,0,1-1.86,14.75,7.3,7.3,0,0,1-5.58-1s-1.64-10.13-4.54-14.75C798.51,256,805.29,251.46,810.5,257Z" transform="translate(0 0)"/>
    <path class="cls-4" d="M810.5,257v0.58a26.12,26.12,0,0,1-8.5.91s1.15,5.3.26,8.35c-0.75-3.36-2-8.06-3.76-10.81C798.51,256,805.29,251.46,810.5,257Z" transform="translate(0 0)"/>
    <path class="cls-5" d="M808.34,261.55l2.1-2a51.64,51.64,0,0,1-1.83,12.1l-0.32.07L808,266.39l0.89-.82Z" transform="translate(0 0)"/>
    <g>
      <path class="cls-2" d="M826.29,269.14l-3.06-17.33h0.52s4.39,14.52,4,15.42C827.61,267.35,827.08,268.08,826.29,269.14Z" transform="translate(0 0)"/>
      <path class="cls-2" d="M814.22,283.62l1.67-.92-0.55.71c-0.75,3.35-1.94,13.85-1.94,13.85l-1.56,1.49-1,.18Z" transform="translate(0 0)"/>
    </g>
    <path class="cls-2" d="M778,267.54l3.08-.32,2.38,4.67,13.12,9.24,2,15.9,7.25,1.49,4.89,0.41c-1.7.32-5.15,1-6,1-1.19.08-8-1.49-8-1.49a139.53,139.53,0,0,1-2.23-16.61C786.35,277,779,268.69,778,267.54Z" transform="translate(0 0)"/>
    <path class="cls-6" d="M813.18,297.71s3.13,19.44,3.46,23.57-9.38,36-9.38,36-2.57-3-2.23-8.6,3.12-27.49,3.12-27.49l-2.23-10.39s-2.12,13.74-2.57,19.21-0.74,28.73-.74,28.73a11.5,11.5,0,0,1-5.47-7.26c-1.23-5.14-2.83-37-2.72-38.89S797,298,797,298A22.58,22.58,0,0,0,813.18,297.71Z" transform="translate(0 0)"/>
    <path class="cls-2" d="M797.76,270.81l-2.22.38-12.12-6.56,1.26-14.86a4.37,4.37,0,0,1,.5.42c-0.74,5-.22,13.26-0.22,13.26C788.13,265.58,796.55,270.15,797.76,270.81Z" transform="translate(0 0)"/>
    <g>
      <path class="cls-3" d="M823.46,250.27l-1.79-4.1-4.1-2.76a41.18,41.18,0,0,0,.3,4.17c0.23,1.34,2.46,3.28,2.46,3.28Z" transform="translate(0 0)"/>
      <path class="cls-7" d="M820.28,247l-2.69-3v-0.51l4.1,2.76,1.79,4.1-1,.18Z" transform="translate(0 0)"/>
    </g>
    <polygon class="cls-7" points="783.91 242.84 786 241.11 787.49 241.56 786.89 247.14 786 248.03 783.91 242.84"/>
  </g>
  <g>
    <path class="cls-3" d="M860.21,241.46a62.14,62.14,0,0,0,2.14,16.92,8.37,8.37,0,0,0,6.41-1.11s1.88-11.62,5.21-16.92C874,240.35,866.2,235.13,860.21,241.46Z" transform="translate(0 0)"/>
    <path class="cls-4" d="M860.21,241.46v0.67a30,30,0,0,0,9.75,1s-1.32,6.08-.3,9.58c0.86-3.85,2.33-9.25,4.32-12.4C874,240.35,866.2,235.13,860.21,241.46Z" transform="translate(0 0)"/>
    <path class="cls-5" d="M862.69,246.71l-2.41-2.25a59.26,59.26,0,0,0,2.1,13.89l0.36,0.08,0.3-6.15-1-.94Z" transform="translate(0 0)"/>
    <path class="cls-6" d="M857.14,288.2s-3.59,22.3-4,27,10.76,41.28,10.76,41.28,3-3.46,2.56-9.87-3.58-31.54-3.58-31.54l2.56-11.92s2.44,15.77,3,22,0.85,33,.85,33a13.2,13.2,0,0,0,6.28-8.33c1.41-5.9,3.25-42.45,3.12-44.63s-3-16.66-3-16.66A25.91,25.91,0,0,1,857.14,288.2Z" transform="translate(0 0)"/>
    <g>
      <path class="cls-3" d="M847.59,293.11l2,4.74,4.63,3.26a44.41,44.41,0,0,0-.24-4.79c-0.24-1.54-2.74-3.82-2.74-3.82Z" transform="translate(0 0)"/>
      <path class="cls-7" d="M851.15,297l3,3.56v0.59l-4.63-3.26-2-4.74,1.09-.18Z" transform="translate(0 0)"/>
    </g>
    <polygon class="cls-3" points="884.25 291.18 886.99 292.98 886.99 296.99 883.4 299.99 881.69 299.47 882.37 293.06 884.25 291.18"/>
    <polygon class="cls-7" points="885.79 297.99 883.4 299.99 881.69 299.47 882.37 293.06 883.39 292.05 885.79 297.99"/>
    <path class="cls-2" d="M884.82,274.65s0.6,9.49-.26,15.21a5,5,0,0,0,.57.48h0a8.13,8.13,0,0,0,2.76,1.31s0.18-5.18,1.89-19.7l-0.13-.15h0.13c-1.14-1.32-5.41-8.62-14.69-14.18L878.68,270C882.21,271.92,882.44,273,884.82,274.65Z" transform="translate(0 0)"/>
    <path class="cls-2" d="M854.86,259.92c1.89-2,3.74-3.42,5.18-2.91,0,0,12,.09,14.61.43l0.19-.1h0c0.48-.26,1.06,4.32,2.94,3.28l0.91,9.36h0A160.12,160.12,0,0,1,876.13,289s-7.86,1.8-9.23,1.71h-0.14c-1-.06-5-0.79-6.93-1.16h0l-1.11-.21-1.79-1.71s-1.37-12-2.22-15.89L854,271h0l-0.31-.4Z" transform="translate(0 0)"/>
    <path class="cls-2" d="M844.26,273.75h0l-0.59.79v0.06l-0.42.58-0.06.08-0.29.41-0.06.09-0.14.22h0a0.86,0.86,0,0,0,0,.37c0.13,2.67,4.61,15.78,4.61,15.78l3.67-.34-2.79-14.94a58.18,58.18,0,0,1,8.9-7.64L856,258.84C853.55,261.91,847.25,269.75,844.26,273.75Z" transform="translate(0 0)"/>
  </g>
  <path class="cls-9" d="M231.84,117.43l3.47-12.93,1.27-4.72,3.47-12.93h0.12c4.95,1.32,8.07,5.71,7.07,9.85h0l-1.48,5.49L244.52,107,243,112.45h0c-1.21,4.09-6.12,6.33-11.06,5h-0.11v0Z" transform="translate(0 0)"/>
  <polygon class="cls-10" points="135.74 360 208.07 360 216.96 268.68 126.84 268.68 135.74 360"/>
  <g>
    <polygon class="cls-10" points="292.26 282.38 280.01 282.38 262.13 282.38 261.11 282.38 268.67 360 269.69 360 286.03 360 294.71 360 299.41 360 331.17 360 338.73 282.38 299.41 282.38 292.26 282.38"/>
    <g class="cls-11">
      <path class="cls-12" d="M287.23,323.58l-3-4.26h-0.14v4.26H282.2V313.44h3a6.71,6.71,0,0,1,1.37.13,3,3,0,0,1,1.16.5,2.69,2.69,0,0,1,1.1,2.31,3,3,0,0,1-.18,1.06,2.55,2.55,0,0,1-.52.84,2.67,2.67,0,0,1-.81.59,3.13,3.13,0,0,1-1.08.28l3.39,4.41h-2.43Zm-0.41-7.09a1.46,1.46,0,0,0-.24-0.85,1.56,1.56,0,0,0-.66-0.53,2.24,2.24,0,0,0-.7-0.16h-1.08V318h0.53a6.27,6.27,0,0,0,.81-0.06,1.71,1.71,0,0,0,.73-0.27,1.39,1.39,0,0,0,.63-1.25h0Z" transform="translate(0 0)"/>
      <path class="cls-12" d="M297.36,320.47h-5.44a1.84,1.84,0,0,0,.53,1.42,2,2,0,0,0,1.46.53,1.77,1.77,0,0,0,1.65-1l1.72,0.12a2.88,2.88,0,0,1-.52,1,3.09,3.09,0,0,1-.79.66,3.52,3.52,0,0,1-1,.39,4.79,4.79,0,0,1-1.1.12,4.52,4.52,0,0,1-1.53-.25,3.48,3.48,0,0,1-1.2-.71,3.21,3.21,0,0,1-.79-1.1,3.56,3.56,0,0,1-.28-1.44,3.67,3.67,0,0,1,.27-1.42,3.21,3.21,0,0,1,.76-1.11,3.4,3.4,0,0,1,1.16-.72,4.2,4.2,0,0,1,1.5-.26,4,4,0,0,1,1.41.35,3.15,3.15,0,0,1,1.1.73,3.38,3.38,0,0,1,.71,1.11,4.79,4.79,0,0,1,.32,1.43,0.17,0.17,0,0,1,0,.1v0.08h0Zm-1.69-1a1.77,1.77,0,0,0-.62-1.07,2,2,0,0,0-.57-0.33,1.92,1.92,0,0,0-.67-0.12,2,2,0,0,0-1.28.41,1.68,1.68,0,0,0-.65,1.08h3.83Z" transform="translate(0 0)"/>
      <path class="cls-12" d="M303.95,323.58v-0.9h0a2.12,2.12,0,0,1-1,.81,3.38,3.38,0,0,1-1.31.27,3.48,3.48,0,0,1-1.42-.28,3.36,3.36,0,0,1-1.81-1.92,3.67,3.67,0,0,1-.25-1.36,3.71,3.71,0,0,1,.25-1.35,3.25,3.25,0,0,1,.7-1.11,3.39,3.39,0,0,1,1.09-.75,3.61,3.61,0,0,1,2.72,0,2.51,2.51,0,0,1,1,.77v-0.83h1.74v6.62h-1.82Zm-2.78-5.15a1.92,1.92,0,0,0-1,1.07,2.06,2.06,0,0,0-.14.75,2.25,2.25,0,0,0,.13.78,1.76,1.76,0,0,0,.39.64,1.92,1.92,0,0,0,.63.43,2.09,2.09,0,0,0,.83.16,2.13,2.13,0,0,0,.85-0.16,1.92,1.92,0,0,0,.63-0.44,1.84,1.84,0,0,0,.39-0.64,2.29,2.29,0,0,0,.13-0.79,2,2,0,0,0-.14-0.76,1.92,1.92,0,0,0-.4-0.62,1.86,1.86,0,0,0-.64-0.42,2.23,2.23,0,0,0-.84-0.15A2,2,0,0,0,301.17,318.43Z" transform="translate(0 0)"/>
      <path class="cls-12" d="M310.72,323.78a4,4,0,0,1-1.45-.26,3.64,3.64,0,0,1-1.18-.73,3.38,3.38,0,0,1-.79-1.09,3.25,3.25,0,0,1-.29-1.37,3.45,3.45,0,0,1,1.08-2.55,3.59,3.59,0,0,1,1.2-.74,4.18,4.18,0,0,1,1.5-.26,3.83,3.83,0,0,1,1,.13,3.34,3.34,0,0,1,1,.41v1.58a3.21,3.21,0,0,0-.8-0.52,2.21,2.21,0,0,0-1-.19,2.16,2.16,0,0,0-.83.16,2.12,2.12,0,0,0-.68.44,2,2,0,0,0-.61,1.47,2.09,2.09,0,0,0,.6,1.48,2,2,0,0,0,.68.44,2.25,2.25,0,0,0,.86.16,2.37,2.37,0,0,0,1-.19,2.56,2.56,0,0,0,.81-0.55v1.58A3.89,3.89,0,0,1,310.72,323.78Z" transform="translate(0 0)"/>
      <path class="cls-12" d="M316.29,318.42v5.16H314.5v-5.16H313.7V317h0.79v-2.12h1.81V317h1.34v1.47h-1.34Z" transform="translate(0 0)"/>
    </g>
  </g>
  <polygon class="cls-10" points="451.72 296.08 419.34 296.08 413.45 296.08 403.36 296.08 388.64 296.08 387.8 296.08 394.02 360 394.87 360 408.32 360 415.47 360 419.34 360 445.5 360 451.72 296.08"/>
  <path class="cls-13" d="M96.33,67.18H93a19,19,0,0,0-37.87,0H51.81A11.37,11.37,0,0,0,40.46,78h67.23A11.37,11.37,0,0,0,96.33,67.18Z" transform="translate(0 0)"/>
  <path class="cls-13" d="M658.47,105h-5.13A29.32,29.32,0,0,0,595,105h-5.13a17.54,17.54,0,0,0-17.51,16.69H676A17.54,17.54,0,0,0,658.47,105Z" transform="translate(0 0)"/>
  <path class="cls-13" d="M888.12,130.4h-9a51.59,51.59,0,0,0-102.75,0h-9a30.86,30.86,0,0,0-30.81,29.37H918.94A30.86,30.86,0,0,0,888.12,130.4Z" transform="translate(0 0)"/>
  <path class="cls-13" d="M646.81,185.13H642.9a22.4,22.4,0,0,0-44.61,0h-3.92A13.4,13.4,0,0,0,581,197.88h79.19A13.4,13.4,0,0,0,646.81,185.13Z" transform="translate(0 0)"/>
  <g>
    <polygon class="cls-9" points="391.92 117.49 339.26 26.57 272.66 64.9 323.93 153.43 368.33 127.87 368.33 127.87 391.92 117.49"/>
    <path class="cls-10" d="M389.16,113.37h0l-19.61,11.32L347.6,137.31l-22.68,13.05h0a2.55,2.55,0,0,0,2.56,4.42h0l22.68-13.05L372.1,129.1l19.61-11.32h0c1.2-.72-1.78.18-2.48-1S390.38,112.69,389.16,113.37Z" transform="translate(0 0)"/>
    <g class="cls-14">
      <path class="cls-10" d="M308.49,82.73a2.91,2.91,0,0,1-.24,1.24,3.5,3.5,0,0,1-.74,1.06,4.92,4.92,0,0,1-1.09.82,4.54,4.54,0,0,1-1.83.58,4.12,4.12,0,0,1-1.82-.24L303,84.4a3.25,3.25,0,0,0,1.33.25,2.69,2.69,0,0,0,1.33-.34,1.57,1.57,0,0,0,.66-0.72,1,1,0,0,0,0-.94,0.72,0.72,0,0,0-.33-0.32,1.16,1.16,0,0,0-.45-0.09,2.55,2.55,0,0,0-.53.05l-0.59.13-0.29.06h-0.3a5.6,5.6,0,0,1-.76.08,2.54,2.54,0,0,1-.75-0.08,2,2,0,0,1-.69-0.34,2.13,2.13,0,0,1-.58-0.69,2.5,2.5,0,0,1-.34-1.2,2.66,2.66,0,0,1,.23-1.13,3.38,3.38,0,0,1,.67-1,4.28,4.28,0,0,1,1-.75,4.48,4.48,0,0,1,1.35-.49,4.17,4.17,0,0,1,1.41,0l-0.14,1.69a2.21,2.21,0,0,0-.88-0.06,2.31,2.31,0,0,0-.85.27,1.41,1.41,0,0,0-.31.25,1.51,1.51,0,0,0-.25.33,1,1,0,0,0-.12.37,0.62,0.62,0,0,0,.08.38,0.63,0.63,0,0,0,.31.28,1,1,0,0,0,.42.08,2.78,2.78,0,0,0,.46,0l0.44-.09q0.52-.13,1-0.2a3.25,3.25,0,0,1,1,0,2.2,2.2,0,0,1,.94.35,2.46,2.46,0,0,1,.76.88A2.79,2.79,0,0,1,308.49,82.73Z" transform="translate(0 0)"/>
      <path class="cls-10" d="M314.67,81.23a4.82,4.82,0,0,1-1.77.59,4.57,4.57,0,0,1-1.76-.11,4.5,4.5,0,0,1-2.78-2.18,4.76,4.76,0,0,1-.6-1.81,4.56,4.56,0,0,1,.15-1.79,4.49,4.49,0,0,1,.84-1.59,5.05,5.05,0,0,1,1.47-1.22,4.56,4.56,0,0,1,1.2-.47,4.11,4.11,0,0,1,1.28-.09l1,1.83a4,4,0,0,0-1.21-.11,2.68,2.68,0,0,0-1.14.34,2.61,2.61,0,0,0-.82.7,2.66,2.66,0,0,0-.46.93,2.7,2.7,0,0,0-.07,1,2.78,2.78,0,0,0,.34,1,2.84,2.84,0,0,0,.7.84,2.75,2.75,0,0,0,.92.49,2.54,2.54,0,0,0,1,.09,2.72,2.72,0,0,0,1-.34,2.87,2.87,0,0,0,.9-0.8,3.23,3.23,0,0,0,.54-1.13l1,1.83A4.73,4.73,0,0,1,314.67,81.23Z" transform="translate(0 0)"/>
      <path class="cls-10" d="M318.87,70.72a2,2,0,0,0-.63,1,2.87,2.87,0,0,0-.06,1.27,3.79,3.79,0,0,0,.44,1.27l1.92,3.43-2,1.12-4.27-7.63,2-1.12,0.59,1.05h0a3,3,0,0,1,.36-1.39,2.55,2.55,0,0,1,1.06-1,0.3,0.3,0,0,1,.12-0.09l0.23-.13,0.24-.12,0.13-.06,1.14,2A1.94,1.94,0,0,0,318.87,70.72Z" transform="translate(0 0)"/>
      <path class="cls-10" d="M330.41,69.92a2.85,2.85,0,0,1-.07,1.38,3.37,3.37,0,0,1-.83,1.35,6.11,6.11,0,0,1-1.4,1.06,6.53,6.53,0,0,1-1.65.66,3.19,3.19,0,0,1-1.6,0,2.71,2.71,0,0,1-1.21-.65,5,5,0,0,1-1-1.26l-2.58-4.6,2-1.12,2.34,4.17a6.54,6.54,0,0,0,.51.78,2.07,2.07,0,0,0,.59.54,1.31,1.31,0,0,0,.73.17,2.51,2.51,0,0,0,1.66-.93,1.37,1.37,0,0,0,.24-0.72A2,2,0,0,0,328,70a6.54,6.54,0,0,0-.4-0.84L325.26,65l2-1.1,2.57,4.59A5,5,0,0,1,330.41,69.92Z" transform="translate(0 0)"/>
      <path class="cls-10" d="M343.21,65l-2.3-4.11q-0.2-.36-0.43-0.72a2.35,2.35,0,0,0-.54-0.59,1.43,1.43,0,0,0-.68-0.29,1.36,1.36,0,0,0-.85.21,1.67,1.67,0,0,0-.71.67,1.57,1.57,0,0,0-.17.81,2.57,2.57,0,0,0,.2.85,8,8,0,0,0,.4.83l2.21,3.94-2,1.1-2.27-4q-0.21-.37-0.46-0.75a2.6,2.6,0,0,0-.57-0.63,1.51,1.51,0,0,0-.71-0.3,1.41,1.41,0,0,0-.88.22,1.39,1.39,0,0,0-.66.69,1.74,1.74,0,0,0-.1.84,3.06,3.06,0,0,0,.25.89q0.2,0.45.41,0.82l2.16,3.86-2,1.12-4.28-7.64,2-1.12,0.54,1a3,3,0,0,1,1.57-2.42A3.32,3.32,0,0,1,335,59.7a2.82,2.82,0,0,1,1.61.51,2.93,2.93,0,0,1,.44-1.64,3.34,3.34,0,0,1,1.23-1.17,3.23,3.23,0,0,1,1.32-.4,2.33,2.33,0,0,1,1.14.2,2.82,2.82,0,0,1,.94.72,6.67,6.67,0,0,1,.79,1.14l2.71,4.84Z" transform="translate(0 0)"/>
    </g>
    <g class="cls-11">
      <circle class="cls-10" cx="336.95" cy="97.25" r="16.59"/>
      <circle class="cls-9" cx="336.95" cy="97.25" r="14.22"/>
      <path class="cls-12" d="M337,85.4A11.85,11.85,0,1,1,325.1,97.25,11.85,11.85,0,0,1,337,85.4h0ZM337,83a14.22,14.22,0,1,0,14.22,14.22A14.22,14.22,0,0,0,337,83h0v0Z" transform="translate(0 0)"/>
      <path class="cls-12" d="M337,90.14a7.11,7.11,0,1,1-7.11,7.11h0A7.12,7.12,0,0,1,337,90.14h0Zm0-2.37a9.48,9.48,0,1,0,9.48,9.48A9.48,9.48,0,0,0,337,87.77h0Z" transform="translate(0 0)"/>
      <path class="cls-12" d="M337,94.88a2.37,2.37,0,1,1-2.37,2.37h0A2.37,2.37,0,0,1,337,94.88h0Zm0-2.37a4.74,4.74,0,1,0,4.74,4.74h0A4.74,4.74,0,0,0,337,92.51h0Z" transform="translate(0 0)"/>
    </g>
  </g>
  <path class="cls-13" d="M79.76,323.1H68.56A64.1,64.1,0,0,0,4.75,264.94c-1.6,0-3.18.08-4.75,0.19v93.75H118A38.33,38.33,0,0,0,79.76,323.1Z" transform="translate(0 0)"/>
  <polygon class="cls-9" points="305.83 120.1 268.57 110.15 292.22 96.53 289.67 92.11 261.56 108.28 244.07 103.61 242.08 111.01 311.25 129.49 305.83 120.1"/>
  <g class="cls-15">
    <path class="cls-12" d="M402.43,327.63v-3.09c0-.19,0-0.38,0-0.58a1.65,1.65,0,0,0-.12-0.54A0.89,0.89,0,0,0,402,323a1.13,1.13,0,0,0-.64-0.15,1.26,1.26,0,0,0-.66.15,1.11,1.11,0,0,0-.4.4,1.7,1.7,0,0,0-.19.57,4,4,0,0,0-.05.66v3H398.5V321.8H400v0.82a2.06,2.06,0,0,1,.77-0.75,2.23,2.23,0,0,1,1-.23,2.51,2.51,0,0,1,1,.17,1.61,1.61,0,0,1,.65.49,2,2,0,0,1,.36.77,4.08,4.08,0,0,1,.11,1v3.57h-1.53Z" transform="translate(0 0)"/>
    <path class="cls-12" d="M411.69,326a2.85,2.85,0,0,1-.73,1,3.39,3.39,0,0,1-1.07.61,3.88,3.88,0,0,1-2.57,0,3.32,3.32,0,0,1-1.06-.61,3,3,0,0,1-.73-1,2.89,2.89,0,0,1-.27-1.27,2.94,2.94,0,0,1,1-2.25,3.2,3.2,0,0,1,1.06-.63,3.91,3.91,0,0,1,2.58,0,3.39,3.39,0,0,1,1.07.61,2.83,2.83,0,0,1,.73,1,3,3,0,0,1,.27,1.28A3,3,0,0,1,411.69,326Zm-1.32-1.27a1.84,1.84,0,0,0-.13-0.69,1.65,1.65,0,0,0-.37-0.56,1.79,1.79,0,0,0-1.29-.52,1.72,1.72,0,0,0-.71.14,1.69,1.69,0,0,0-.9.95,1.89,1.89,0,0,0,0,1.35,1.69,1.69,0,0,0,.35.56,1.62,1.62,0,0,0,.55.38,1.78,1.78,0,0,0,.71.14,1.86,1.86,0,0,0,.72-0.14,1.7,1.7,0,0,0,.56-0.37,1.64,1.64,0,0,0,.36-0.56,1.85,1.85,0,0,0,.13-0.69h0Z" transform="translate(0 0)"/>
    <path class="cls-12" d="M417.72,327.63v-0.8h0a1.78,1.78,0,0,1-.83.73,2.68,2.68,0,0,1-1.1.24,2.84,2.84,0,0,1-2.12-.92,3,3,0,0,1-.6-1,3.36,3.36,0,0,1-.21-1.2,3.41,3.41,0,0,1,.21-1.19,2.89,2.89,0,0,1,.59-1,2.8,2.8,0,0,1,2.1-.9,2.81,2.81,0,0,1,1.1.22,2.13,2.13,0,0,1,.87.67v-4.69h1.52v9.79h-1.51ZM416.08,323a1.64,1.64,0,0,0-.7.14,1.6,1.6,0,0,0-.53.38,1.74,1.74,0,0,0-.34.56,1.84,1.84,0,0,0-.12.66,2.06,2.06,0,0,0,.11.68,1.62,1.62,0,0,0,.33.57,1.58,1.58,0,0,0,.53.38,1.67,1.67,0,0,0,.7.14,1.74,1.74,0,0,0,.73-0.14,1.53,1.53,0,0,0,.53-0.38,1.68,1.68,0,0,0,.33-0.57,2.1,2.1,0,0,0,.11-0.69,1.89,1.89,0,0,0-.12-0.67,1.67,1.67,0,0,0-.34-0.55,1.56,1.56,0,0,0-.53-0.37,1.77,1.77,0,0,0-.71-0.14h0Z" transform="translate(0 0)"/>
    <path class="cls-12" d="M426.64,324.89a0,0,0,0,1,0,0,0,0,0,0,0,0,0H422a1.66,1.66,0,0,0,.44,1.25,1.64,1.64,0,0,0,1.22.46,1.47,1.47,0,0,0,1.38-.83l1.44,0.11a2.56,2.56,0,0,1-.44.81,2.62,2.62,0,0,1-.66.58,2.84,2.84,0,0,1-.82.34,3.78,3.78,0,0,1-.92.11,3.65,3.65,0,0,1-1.28-.22,2.91,2.91,0,0,1-1-.62,2.83,2.83,0,0,1-.66-1,3.25,3.25,0,0,1-.24-1.27,3.38,3.38,0,0,1,.22-1.25,2.79,2.79,0,0,1,1.61-1.61,3.39,3.39,0,0,1,1.25-.22,3.23,3.23,0,0,1,1.26.23,2.63,2.63,0,0,1,.93.64,3,3,0,0,1,.6,1,4.35,4.35,0,0,1,.27,1.26,0.16,0.16,0,0,1,0,.08v0.07h0Zm-1.42-.89a1.6,1.6,0,0,0-.18-0.53,1.54,1.54,0,0,0-.34-0.42,1.69,1.69,0,0,0-.47-0.28,1.49,1.49,0,0,0-.56-0.11,1.65,1.65,0,0,0-1.07.37,1.49,1.49,0,0,0-.55,1h3.18Z" transform="translate(0 0)"/>
    <path class="cls-12" d="M429.87,327.51a1,1,0,0,1-1.14.22,1,1,0,0,1-.54-0.54,0.94,0.94,0,0,1-.08-0.4,1,1,0,0,1,1-1,1,1,0,0,1,.73.3,1,1,0,0,1,.31.72A1,1,0,0,1,429.87,327.51Z" transform="translate(0 0)"/>
    <path class="cls-12" d="M434.88,326.9a2.29,2.29,0,0,1-.43.85,2,2,0,0,1-.75.56,2.74,2.74,0,0,1-1.1.2,2.11,2.11,0,0,1-1.14-.31,2.55,2.55,0,0,1-.83-0.86l1-1a2.21,2.21,0,0,0,.45.53,0.83,0.83,0,0,0,.54.24,0.66,0.66,0,0,0,.44-0.14,0.77,0.77,0,0,0,.23-0.34,1.79,1.79,0,0,0,.09-0.45c0-.16,0-0.31,0-0.46v-7H435v7.1A4.11,4.11,0,0,1,434.88,326.9Z" transform="translate(0 0)"/>
    <path class="cls-12" d="M440.82,326.65a1.93,1.93,0,0,1-.54.64,2.33,2.33,0,0,1-.77.38,3.27,3.27,0,0,1-.9.12,3,3,0,0,1-1.25-.26,2.74,2.74,0,0,1-1-.73l0.69-1a2.17,2.17,0,0,0,.69.58,1.79,1.79,0,0,0,.88.24,1.05,1.05,0,0,0,.62-0.2,0.64,0.64,0,0,0,.28-0.56,0.48,0.48,0,0,0-.09-0.3,0.78,0.78,0,0,0-.23-0.2,1.68,1.68,0,0,0-.33-0.14l-0.39-.12-0.19-.06-0.19-.07a3.68,3.68,0,0,1-.47-0.2,1.7,1.7,0,0,1-.41-0.29,1.35,1.35,0,0,1-.29-0.42,1.42,1.42,0,0,1-.11-0.59,1.67,1.67,0,0,1,.19-0.81,1.78,1.78,0,0,1,.5-0.58,2.26,2.26,0,0,1,.71-0.35,2.83,2.83,0,0,1,.81-0.12,3,3,0,0,1,.95.15,2.77,2.77,0,0,1,.83.44l-0.63.93a1.48,1.48,0,0,0-.49-0.32,1.55,1.55,0,0,0-.58-0.12,1,1,0,0,0-.26,0,1,1,0,0,0-.25.11,0.68,0.68,0,0,0-.19.18,0.41,0.41,0,0,0-.08.25,0.42,0.42,0,0,0,.09.27,0.71,0.71,0,0,0,.22.18l0.28,0.12L439.2,324q0.34,0.09.66,0.21a2.15,2.15,0,0,1,.58.32,1.45,1.45,0,0,1,.43.51,1.63,1.63,0,0,1,.16.76A1.86,1.86,0,0,1,440.82,326.65Z" transform="translate(0 0)"/>
  </g>
  <g class="cls-15">
    <path class="cls-12" d="M151.26,304.66v-3.27c0-.19,0-0.38,0-0.58a1.63,1.63,0,0,0-.12-0.54,1,1,0,0,0-.32-0.41,1,1,0,0,0-.58-0.16,1.17,1.17,0,0,0-.66.17,1.1,1.1,0,0,0-.38.43,1.8,1.8,0,0,0-.17.59,5.5,5.5,0,0,0,0,.64v3.14h-1.57v-3.22q0-.3,0-0.61a1.81,1.81,0,0,0-.14-0.57,1.05,1.05,0,0,0-.33-0.43,1,1,0,0,0-.61-0.17,1,1,0,0,0-.64.19,1.21,1.21,0,0,0-.35.48,2.1,2.1,0,0,0-.15.62q0,0.34,0,.64v3.08h-1.59v-6.09h1.59v0.77a2,2,0,0,1,1.77-.94,2.31,2.31,0,0,1,1.13.28,2,2,0,0,1,.8.86,2,2,0,0,1,.82-0.85,2.31,2.31,0,0,1,1.14-.29,2.25,2.25,0,0,1,1,.18,1.62,1.62,0,0,1,.62.51,2,2,0,0,1,.33.76,4.63,4.63,0,0,1,.09,1v3.85h-1.57Z" transform="translate(0 0)"/>
    <path class="cls-12" d="M160.68,303a3,3,0,0,1-.76,1,3.54,3.54,0,0,1-1.12.64,4,4,0,0,1-2.68,0A3.47,3.47,0,0,1,155,304a3.08,3.08,0,0,1-.76-1,3,3,0,0,1-.28-1.32,3.07,3.07,0,0,1,1-2.35,3.34,3.34,0,0,1,1.11-.66,4.09,4.09,0,0,1,2.69,0,3.54,3.54,0,0,1,1.12.64,3,3,0,0,1,.76,1,3.14,3.14,0,0,1,.28,1.34A3.1,3.1,0,0,1,160.68,303Zm-1.38-1.32a1.93,1.93,0,0,0-.14-0.72,1.72,1.72,0,0,0-.38-0.59,1.87,1.87,0,0,0-1.35-.54,1.79,1.79,0,0,0-.74.15,1.76,1.76,0,0,0-.94,1,2,2,0,0,0,0,1.41,1.77,1.77,0,0,0,.37.59,1.69,1.69,0,0,0,.57.39,1.86,1.86,0,0,0,.74.14,2,2,0,0,0,.75-0.14,1.78,1.78,0,0,0,.59-0.38,1.71,1.71,0,0,0,.38-0.58,1.93,1.93,0,0,0,.14-0.72h0Z" transform="translate(0 0)"/>
    <path class="cls-12" d="M166.18,304.66v-3.22c0-.2,0-0.4,0-0.6a1.72,1.72,0,0,0-.12-0.56,0.93,0.93,0,0,0-.34-0.41,1.18,1.18,0,0,0-.67-0.16,1.31,1.31,0,0,0-.69.16,1.16,1.16,0,0,0-.41.42,1.78,1.78,0,0,0-.2.59,4.18,4.18,0,0,0-.06.69v3.1h-1.59v-6.09h1.59v0.85a2.15,2.15,0,0,1,.81-0.78,2.33,2.33,0,0,1,1.09-.24,2.63,2.63,0,0,1,1,.18,1.68,1.68,0,0,1,.68.51,2.14,2.14,0,0,1,.38.8,4.26,4.26,0,0,1,.12,1v3.73h-1.59Z" transform="translate(0 0)"/>
    <path class="cls-12" d="M175.47,305.65a3,3,0,0,1-.57,1.16,2.6,2.6,0,0,1-1.11.8,4.18,4.18,0,0,1-1.49.25,4.38,4.38,0,0,1-1.12-.15,3.46,3.46,0,0,1-1-.46,2.82,2.82,0,0,1-.78-0.76,2.26,2.26,0,0,1-.38-1.07h1.75a1.12,1.12,0,0,0,.18.49,1.38,1.38,0,0,0,.35.36,1.7,1.7,0,0,0,1,.3,2.2,2.2,0,0,0,.83-0.15,1.22,1.22,0,0,0,.57-0.47,1.8,1.8,0,0,0,.31-0.77,5.7,5.7,0,0,0,.07-0.9v-0.44a3,3,0,0,1-.94.72,2.66,2.66,0,0,1-1.16.25,2.93,2.93,0,0,1-1.22-.25,2.88,2.88,0,0,1-.94-0.67,3,3,0,0,1-.61-1,3.46,3.46,0,0,1-.22-1.23,3.43,3.43,0,0,1,.23-1.25,3.27,3.27,0,0,1,.64-1,3,3,0,0,1,1-.7,3,3,0,0,1,1.25-.26,2.67,2.67,0,0,1,1.12.23,2.18,2.18,0,0,1,.86.73h0v-0.8h1.59v5.61A6,6,0,0,1,175.47,305.65Zm-3.86-5.76a1.69,1.69,0,0,0-.55.4,1.83,1.83,0,0,0-.35.58,1.93,1.93,0,0,0-.12.69,2.17,2.17,0,0,0,.12.71,1.71,1.71,0,0,0,.35.59,1.66,1.66,0,0,0,.56.4,1.75,1.75,0,0,0,.73.15,1.78,1.78,0,0,0,.75-0.15,1.66,1.66,0,0,0,.56-0.4,1.72,1.72,0,0,0,.35-0.59,2.21,2.21,0,0,0,.12-0.73,2,2,0,0,0-.12-0.7,1.74,1.74,0,0,0-.35-0.58,1.62,1.62,0,0,0-.56-0.39,1.88,1.88,0,0,0-.74-0.14A1.69,1.69,0,0,0,171.61,299.9Z" transform="translate(0 0)"/>
    <path class="cls-12" d="M183.42,303a3,3,0,0,1-.76,1,3.54,3.54,0,0,1-1.12.64,4,4,0,0,1-2.68,0,3.47,3.47,0,0,1-1.11-.64,3.08,3.08,0,0,1-.76-1,3,3,0,0,1-.28-1.32,3.07,3.07,0,0,1,1-2.35,3.34,3.34,0,0,1,1.11-.66,4.09,4.09,0,0,1,2.69,0,3.54,3.54,0,0,1,1.12.64,3,3,0,0,1,.76,1,3.14,3.14,0,0,1,.28,1.34A3.1,3.1,0,0,1,183.42,303ZM182,301.64a1.93,1.93,0,0,0-.14-0.72,1.72,1.72,0,0,0-.38-0.59,1.87,1.87,0,0,0-1.35-.54,1.79,1.79,0,0,0-.74.15,1.76,1.76,0,0,0-.94,1,2,2,0,0,0,0,1.41,1.77,1.77,0,0,0,.37.59,1.69,1.69,0,0,0,.57.39,1.86,1.86,0,0,0,.74.14,2,2,0,0,0,.75-0.14,1.78,1.78,0,0,0,.59-0.38,1.71,1.71,0,0,0,.38-0.58,1.93,1.93,0,0,0,.14-0.72h0Z" transform="translate(0 0)"/>
    <path class="cls-12" d="M192.07,301.84a4.8,4.8,0,0,1-1,1.51,4.45,4.45,0,0,1-1.56,1,5.3,5.3,0,0,1-1.85.31h-2.74v-9.31h2.74a5.39,5.39,0,0,1,1.82.3,4.42,4.42,0,0,1,1.54,1,4.56,4.56,0,0,1,1.09,1.53,4.64,4.64,0,0,1,.38,1.88A4.52,4.52,0,0,1,192.07,301.84ZM190.68,300a3.48,3.48,0,0,0-.26-1.36,3,3,0,0,0-1.8-1.67,4.16,4.16,0,0,0-1.27-.18h-0.77v6.4h0.75a4.27,4.27,0,0,0,1.33-.2,2.81,2.81,0,0,0,1.1-.68,3,3,0,0,0,.67-1,3.48,3.48,0,0,0,.23-1.3h0Z" transform="translate(0 0)"/>
    <path class="cls-12" d="M200,302.85a3.22,3.22,0,0,1-.62,1,2.91,2.91,0,0,1-1,.7,3,3,0,0,1-1.25.26,2.8,2.8,0,0,1-1.15-.25,1.93,1.93,0,0,1-.88-0.77h0v0.84h-1.59V294.44h1.59v4.9a2.21,2.21,0,0,1,.91-0.7,3,3,0,0,1,2.38,0,3,3,0,0,1,1,.69,3,3,0,0,1,.62,1,3.55,3.55,0,0,1,.22,1.25A3.51,3.51,0,0,1,200,302.85Zm-2.43.45a1.7,1.7,0,0,0,.56-0.39,1.64,1.64,0,0,0,.35-0.59,2.16,2.16,0,0,0,.12-0.71,2,2,0,0,0-.12-0.69,1.86,1.86,0,0,0-.35-0.59,1.61,1.61,0,0,0-.54-0.4,1.71,1.71,0,0,0-.73-0.15,1.89,1.89,0,0,0-.75.14,1.61,1.61,0,0,0-.56.39,1.64,1.64,0,0,0-.35.58,2.24,2.24,0,0,0,0,1.43,1.64,1.64,0,0,0,.35.58,1.69,1.69,0,0,0,.56.39,1.75,1.75,0,0,0,.73.15A1.78,1.78,0,0,0,197.6,303.3Z" transform="translate(0 0)"/>
  </g>
</svg>
