<svg id="offerings_tailormade_img" xmlns="http://www.w3.org/2000/svg" xmlns:xlink="http://www.w3.org/1999/xlink" viewBox="0 0 979.45 361" xml:space="preserve" width="100%" height="100%" preserveAspectRatio="xMaxYMax">
  <defs>
    <style>
      #offerings_tailormade_img .cls-1, #offerings_tailormade_img .cls-14 {
        fill: none;
      }

      #offerings_tailormade_img .cls-2 {
        clip-path: url(#clip-path);
      }

      #offerings_tailormade_img .cls-3 {
        fill: #e6e8f4;
      }

      #offerings_tailormade_img .cls-4, #offerings_tailormade_img .cls-6 {
        fill: #5e6bb2;
      }

      #offerings_tailormade_img .cls-5, #offerings_tailormade_img .cls-8 {
        fill: #a0a8d5;
      }

      #offerings_tailormade_img .cls-5 {
        opacity: 0.2;
      }

      #offerings_tailormade_img .cls-11, #offerings_tailormade_img .cls-6, #offerings_tailormade_img .cls-7 {
        fill-rule: evenodd;
      }

      #offerings_tailormade_img .cls-7 {
        fill: #293b84;
      }

      #offerings_tailormade_img .cls-9 {
        fill: #8a94c1;
      }

      #offerings_tailormade_img .cls-10 {
        fill: #ffcb28;
      }

      #offerings_tailormade_img .cls-11 {
        fill: #203072;
      }

      #offerings_tailormade_img .cls-12 {
        fill: #f9a823;
      }

      #offerings_tailormade_img .cls-13 {
        fill: #c8c8c8;
      }

      #offerings_tailormade_img .cls-14 {
        stroke: #33439b;
        stroke-miterlimit: 10;
        stroke-dasharray: 6;
      }
    </style>
    <clipPath id="clip-path" transform="translate(0.09 1)">
      <rect class="cls-1" width="980" height="360"/>
    </clipPath>
  </defs>
  <title>Organizations tailormade</title>
  <g class="cls-2">
    <polygon class="cls-3" points="0.09 1 979.45 0 979.45 360 0.09 360 0.09 1"/>
    <polygon class="cls-4" points="0 0 717.78 0 729.78 361 0.09 361 0 0"/>
    <path class="cls-5" d="M146.86,99.4a19.12,19.12,0,0,0-32-14.14A27.93,27.93,0,0,0,61.14,99.68a21.06,21.06,0,0,0-17.8,20.48h124.6A21.08,21.08,0,0,0,146.86,99.4Z" transform="translate(0.09 1)"/>
    <path class="cls-5" d="M221.52,66.18h-3a16.9,16.9,0,0,0-33.66,0h-3a10.11,10.11,0,0,0-10.09,9.62h59.75A10.11,10.11,0,0,0,221.52,66.18Z" transform="translate(0.09 1)"/>
    <path class="cls-6" d="M867.06,360h-212V177.11l70.36-.17c43.28,9.57,113.35,30.4,137,41.65a4.29,4.29,0,0,1,4.33,4.25l0.09,36.28Z" transform="translate(0.09 1)"/>
    <path class="cls-7" d="M866.68,223.05c-0.12-3.16-1.92-4.68-4.63-5.26-42.51-18.86-95-34.82-136.94-40.58,45.88,12.24,79.16,45,115.63,70.62C851.41,226.5,861.38,209.87,866.68,223.05Z" transform="translate(0.09 1)"/>
    <path class="cls-8" d="M909.63,122.68c-51.54,20-16.82,47.25-16.82,47.25L716,203.93s46.19,15.5,82,8.23c37.39-7.6,60.83-20.67,82.32-30.07,14.15-6.18,46.77-12.7,64.07-22.55C969.87,145,944.15,109.26,909.63,122.68Zm32.44,16.39c2.52,8.13-6.93,18.29-21.11,22.69s-27.73,1.36-30.25-6.76,6.93-18.29,21.11-22.69S939.55,130.94,942.07,139.08Z" transform="translate(0.09 1)"/>
    <path class="cls-9" d="M716,151.53l176.81,34s-34.72,27.2,16.82,47.25c34.52,13.42,60.25-22.32,34.72-36.87-17.29-9.85-49.92-16.37-64.07-22.55-21.49-9.4-44.93-22.47-82.32-30.07C762.18,136,716,151.53,716,151.53Zm205,42.17c14.18,4.41,23.63,14.56,21.11,22.69s-16.06,11.16-30.25,6.77-23.64-14.56-21.11-22.69S906.78,189.3,921,193.69Z" transform="translate(0.09 1)"/>
    <circle class="cls-10" cx="877.15" cy="178.83" r="2.86"/>
    <g>
      <path class="cls-6" d="M866.6,131.6a4.3,4.3,0,0,1-4.32,4.26c-23.61,11.32-93.61,32.37-136.85,42.06l-70.37,0V-1H866.51l0.06,96.32Z" transform="translate(0.09 1)"/>
      <path class="cls-11" d="M866.55,131.37c-0.12,3.16-1.91,4.7-4.62,5.27-42.44,19-94.85,35.12-136.81,41,45.84-12.38,79-45.22,115.4-71C851.27,128,861.28,144.56,866.55,131.37Z" transform="translate(0.09 1)"/>
    </g>
    <path class="cls-5" d="M770.91,57.41h-3a17.13,17.13,0,0,0-34.11,0h-3a10.24,10.24,0,0,0-10.23,9.75h60.55A10.24,10.24,0,0,0,770.91,57.41Z" transform="translate(0.09 1)"/>
    <path class="cls-5" d="M501,74.07h-3a17.13,17.13,0,0,0-34.11,0h-3a10.24,10.24,0,0,0-10.23,9.75h60.55A10.24,10.24,0,0,0,501,74.07Z" transform="translate(0.09 1)"/>
    <path class="cls-5" d="M832.43,320.16a54.35,54.35,0,0,0-104.5-28.06,37.19,37.19,0,0,0-62.26,27.52c-0.66,0-1.32,0-2,0a53.78,53.78,0,0,0,.72-8.41A54.38,54.38,0,0,0,559.12,292.1a37.19,37.19,0,0,0-62.26,27.52,41.22,41.22,0,0,0-7.29.66,39,39,0,0,0-75.13-8.92,26.65,26.65,0,0,0-44.61,19.72c-0.48,0-.95,0-1.42,0a38.53,38.53,0,0,0,.51-6,39,39,0,0,0-75.44-13.72,26.65,26.65,0,0,0-44.61,19.72,29.28,29.28,0,0,0-20.74,8.58,23.82,23.82,0,0,0-12-3.22,21.71,21.71,0,0,0-36.35-16.07,31.75,31.75,0,0,0-61.48,11.18,31.4,31.4,0,0,0,.42,4.91l-1.16,0a21.71,21.71,0,0,0-36.35-16.07,31.72,31.72,0,0,0-61,16.38A23.92,23.92,0,0,0,0,360H867.06A41,41,0,0,0,832.43,320.16Z" transform="translate(0.09 1)"/>
    <g>
      <path class="cls-12" d="M320.22,263.35l-0.06,45.47H195.63L196,269.7s0.34-6.34,6.35-6.34H320.22Z" transform="translate(0.09 1)"/>
      <path class="cls-12" d="M195.5,272.67s1.72,6.35,9.92,6.35H318.1s6.35,0.15,6.35,6.35v30.87h-129V272.67Z" transform="translate(0.09 1)"/>
      <path class="cls-10" d="M191.73,293.76V360H318.1c3.51,0,7.06-2,7.06-5.54V288.22a9,9,0,0,1-8.18,5.54H191.73Z" transform="translate(0.09 1)"/>
      <path class="cls-10" d="M318.11,294.81H191.73V292.7H318.11a5.29,5.29,0,0,0,5.29-5.29v-2.05a5.29,5.29,0,0,0-5.29-5.29H202.31a7.41,7.41,0,0,1-7.4-7.4v-3a7.41,7.41,0,0,1,7.4-7.4H320.22v2.11H202.31A5.29,5.29,0,0,0,197,269.7v3a5.29,5.29,0,0,0,5.29,5.29h115.8a7.41,7.41,0,0,1,7.4,7.4v2.05A7.41,7.41,0,0,1,318.11,294.81Z" transform="translate(0.09 1)"/>
      <rect class="cls-4" x="206.38" y="327.36" width="2.11" height="33.64"/>
      <rect class="cls-4" x="221.99" y="309.82" width="2.11" height="51.18"/>
      <rect class="cls-4" x="237.6" y="327.36" width="2.11" height="33.64"/>
      <rect class="cls-4" x="253.21" y="309.82" width="2.11" height="51.18"/>
      <rect class="cls-4" x="268.83" y="327.36" width="2.11" height="33.64"/>
      <rect class="cls-4" x="284.44" y="309.82" width="2.11" height="51.18"/>
      <rect class="cls-4" x="300.05" y="327.36" width="2.11" height="33.64"/>
      <rect class="cls-4" x="315.66" y="309.82" width="2.11" height="51.18"/>
      <path class="cls-4" d="M207,304.66h1.51v18.19h-2.13V307.53a2.26,2.26,0,0,1-1,.66,3.68,3.68,0,0,1-1.26.23v-1.49a3.63,3.63,0,0,0,1.67-.71A3.74,3.74,0,0,0,207,304.66Z" transform="translate(0.09 1)"/>
      <path class="cls-4" d="M236.31,310.73q0-4.25.89-5.23a2.94,2.94,0,0,1,2.57-1q3,0,3,5a10.47,10.47,0,0,1-1.29,4.94c-0.38.7-.76,1.39-1.15,2.07a14.12,14.12,0,0,0-1.82,4.75h4v1.6h-6v-1q0-2.05,2.07-6.06l0.67-1.29c0.44-.85.71-1.35,0.79-1.46a6.17,6.17,0,0,0,.55-1.69,10.81,10.81,0,0,0,.21-2.14,8.25,8.25,0,0,0-.16-1.78,1.93,1.93,0,0,0-.38-0.91,0.76,0.76,0,0,0-.54-0.22,1,1,0,0,0-.51.12c-0.5.31-.74,1.33-0.74,3.08v2.37h-2.08v-1.12Z" transform="translate(0.09 1)"/>
      <path class="cls-4" d="M271.57,313.28q1.88,0.86,1.88,4.57a7,7,0,0,1-.88,3.93,3.14,3.14,0,0,1-2.79,1.28,3,3,0,0,1-2.7-1.23,7.4,7.4,0,0,1-.78-3.87v-0.81h2.07V318a8.45,8.45,0,0,0,.26,2.6,1.12,1.12,0,0,0,1.17.67,1.19,1.19,0,0,0,1.22-.77,8,8,0,0,0,.32-2.74,6.37,6.37,0,0,0-.43-2.78,1.57,1.57,0,0,0-1.52-.8h-0.59v-1.71h0.57a2.19,2.19,0,0,0,1.16-.25c0.53-.33.8-1.3,0.8-2.92v-0.06a4.6,4.6,0,0,0-.41-2.38,1.28,1.28,0,0,0-1.11-.57,1.08,1.08,0,0,0-1,.65,5.78,5.78,0,0,0-.32,2.33v0.43h-2.1v-0.47a6.46,6.46,0,0,1,.8-3.6,3,3,0,0,1,2.67-1.16,3.17,3.17,0,0,1,2.74,1.18,6.06,6.06,0,0,1,.87,3.58Q273.4,312.59,271.57,313.28Z" transform="translate(0.09 1)"/>
      <path class="cls-4" d="M301,304.66h2.2v13.06h1.5v1.69h-1.5v3.44h-1.94v-3.44H297v-1.5Zm0.26,13.06v-9.46l-2.54,9.46h2.54Z" transform="translate(0.09 1)"/>
      <rect class="cls-13" x="189.71" y="293.17" width="5.88" height="67.83"/>
    </g>
    <path class="cls-5" d="M666.88,82h-6.44A36.86,36.86,0,0,0,587,82H580.6a22,22,0,0,0-22,21h130.3A22,22,0,0,0,666.88,82Z" transform="translate(0.09 1)"/>
    <line class="cls-14" x1="723.52" y1="178.91" x2="0.09" y2="178.91"/>
  </g>
</svg>
