<svg id="offerings_techs_img" xmlns="http://www.w3.org/2000/svg" viewBox="0 0 980.47 360.27" xml:space="preserve" width="100%" height="100%" preserveAspectRatio="xMaxYMax">
  <defs>
    <style>
     #offerings_techs_img .cls-1 {
        fill: #f6f4ea;
      }

      #offerings_techs_img .cls-2 {
        fill: #5ac7da;
      }

      #offerings_techs_img .cls-3 {
        fill: #0297a7;
      }

      #offerings_techs_img .cls-4 {
        fill: #fff;
      }

      #offerings_techs_img .cls-5 {
        fill: #267d81;
      }

      #offerings_techs_img .cls-6 {
        fill: #f97552;
      }

      #offerings_techs_img .cls-7 {
        fill: #cdd7c4;
      }

      #offerings_techs_img .cls-8 {
        fill: #b3e0db;
      }

      #offerings_techs_img .cls-9 {
        fill: #e2e1dc;
      }

      #offerings_techs_img .cls-10 {
        fill: #ddd;
      }

      #offerings_techs_img .cls-11 {
        fill: #ffc6ad;
      }

      #offerings_techs_img .cls-12 {
        fill: #e5af9c;
      }

      #offerings_techs_img .cls-13 {
        fill: #3a383f;
      }

      #offerings_techs_img .cls-14 {
        fill: #e1e4f2;
      }

      #offerings_techs_img .cls-15 {
        fill: #898fad;
      }

      #offerings_techs_img .cls-16 {
        fill: #707070;
      }

      #offerings_techs_img .cls-17 {
        fill: #848484;
      }
    </style>
  </defs>
  <title>organisations techs</title>
  <g>
    <g>
      <path class="cls-1" d="M857.13,287.09L919.38-.13h-81a59.47,59.47,0,0,1,2.18,32.92h0A59.77,59.77,0,1,1,723.74,7.43a60.23,60.23,0,0,1,2.19-7.57H676.87l-51.37,237Z" transform="translate(0.27 0.13)"/>
      <path class="cls-2" d="M814.51,70.37a59.58,59.58,0,0,0,26.06-37.58L782.16,20.12Z" transform="translate(0.27 0.13)"/>
      <path class="cls-3" d="M786.56-.13H725.93a60.23,60.23,0,0,0-2.19,7.57,59.77,59.77,0,0,0,90.77,62.93L782.16,20.12Z" transform="translate(0.27 0.13)"/>
      <path class="cls-4" d="M782.16,20.12l58.41,12.66h0A59.47,59.47,0,0,0,838.39-.13H786.56Z" transform="translate(0.27 0.13)"/>
      <polygon class="cls-4" points="782.43 20.25 840.84 32.92 840.84 32.91 782.43 20.25"/>
      <rect class="cls-5" x="803.91" y="208.25" width="9.44" height="9.44" transform="translate(429.46 958.27) rotate(-77.77)"/>
      <rect class="cls-6" x="800.77" y="222.71" width="9.44" height="9.44" transform="translate(412.85 966.59) rotate(-77.77)"/>
      <g>
        <rect class="cls-7" x="817.69" y="216.18" width="5.92" height="2.43" transform="translate(434.61 973.5) rotate(-77.77)"/>
        <rect class="cls-7" x="821.23" y="216.97" width="5.92" height="2.43" transform="translate(436.63 977.59) rotate(-77.77)"/>
        <rect class="cls-7" x="824.82" y="217.71" width="5.92" height="2.43" transform="translate(438.73 981.68) rotate(-77.77)"/>
        <rect class="cls-7" x="830.06" y="218.85" width="5.92" height="2.43" transform="translate(441.62 987.63) rotate(-77.76)"/>
        <rect class="cls-7" x="835.3" y="219.99" width="5.92" height="2.43" transform="translate(444.77 993.72) rotate(-77.77)"/>
        <rect class="cls-7" x="838.86" y="220.76" width="5.92" height="2.43" transform="translate(446.68 997.73) rotate(-77.76)"/>
      </g>
      <g>
        <rect class="cls-7" x="814.54" y="230.63" width="5.92" height="2.43" transform="translate(418.01 981.82) rotate(-77.77)"/>
        <rect class="cls-7" x="819.76" y="231.81" width="5.92" height="2.43" transform="translate(420.98 987.85) rotate(-77.77)"/>
        <rect class="cls-7" x="823.35" y="232.55" width="5.92" height="2.43" transform="translate(423.08 991.93) rotate(-77.77)"/>
        <rect class="cls-7" x="826.92" y="233.31" width="5.92" height="2.43" transform="translate(425.14 996.02) rotate(-77.77)"/>
        <rect class="cls-7" x="830.47" y="234.09" width="5.92" height="2.43" transform="translate(427.18 1000.11) rotate(-77.77)"/>
        <rect class="cls-7" x="834.04" y="234.89" width="5.92" height="2.43" transform="translate(429.07 1004.15) rotate(-77.76)"/>
      </g>
      <rect class="cls-5" x="747.05" y="191.32" width="61.45" height="7.15" transform="translate(422.68 913.8) rotate(-77.76)"/>
      <rect class="cls-6" x="745.5" y="182.35" width="82.79" height="7.15" transform="translate(438.76 915.72) rotate(-77.77)"/>
      <rect class="cls-3" x="728.39" y="193" width="47.16" height="7.15" transform="translate(400.82 889.97) rotate(-77.77)"/>
      <rect class="cls-2" x="733.91" y="192.7" width="50.87" height="7.15" transform="translate(406.93 896.94) rotate(-77.77)"/>
      <rect class="cls-3" x="706.59" y="190.63" width="41.39" height="7.15" transform="translate(383.57 863.92) rotate(-77.76)"/>
      <rect class="cls-2" x="705.68" y="182.35" width="61.45" height="7.15" transform="translate(398.85 866.31) rotate(-77.76)"/>
      <rect class="cls-3" x="685.01" y="188.67" width="34.57" height="7.15" transform="translate(365.91 838.02) rotate(-77.77)"/>
      <rect class="cls-2" x="683.65" y="179.76" width="56.02" height="7.15" transform="translate(381.88 840.08) rotate(-77.76)"/>
      <polygon class="cls-3" points="793.09 230.88 681.32 206.64 700.09 120.05 702.31 120.53 684.02 204.9 793.57 228.66 793.09 230.88"/>
      <rect class="cls-2" x="839.4" y="195.14" width="9.44" height="9.44" transform="translate(108.01 658.51) rotate(-45.23)"/>
      <rect class="cls-3" x="827.71" y="206.96" width="9.44" height="9.44" transform="translate(96.24 653.84) rotate(-45.24)"/>
      <rect class="cls-2" x="887.54" y="202.73" width="3.43" height="83.71" transform="translate(89.61 703.78) rotate(-45.23)"/>
      <rect class="cls-3" x="875.75" y="214.61" width="3.43" height="83.71" transform="translate(77.69 698.93) rotate(-45.23)"/>
      <polygon class="cls-8" points="919.65 0 911.75 36.47 947.92 0 919.65 0"/>
      <polygon class="cls-8" points="625.76 237.01 677.13 0 0 0 0 360 838.26 360 739.03 261.56 625.76 237.01"/>
      <rect class="cls-9" x="724.72" y="143.05" width="212.57" height="148.8" transform="translate(154.48 746.55) rotate(-52.67)"/>
      <polygon class="cls-8" points="980 304.2 924.64 360 980 360 980 304.2"/>
      <polygon class="cls-8" points="980 0 956.11 0 980 23.7 980 0"/>
      <polygon class="cls-1" points="864.33 149.82 851.13 153.26 851.37 153.49 866.23 151.71 864.33 149.82"/>
      <polygon class="cls-1" points="884.95 152.56 885.86 155.89 886.29 153.89 884.95 152.56"/>
      <polygon class="cls-1" points="868.86 153.11 883.35 167.48 885.07 159.53 882.85 151.43 868.86 153.11"/>
      <path class="cls-1" d="M883.12,149.51a0.85,0.85,0,0,1,.93.62l0.17,0.62,2,2,2-9.36-9.09,2.36,3.8,3.77Z" transform="translate(0.27 0.13)"/>
      <polygon class="cls-1" points="849.28 153.74 850.27 153.62 850.16 153.51 849.28 153.74"/>
      <polygon class="cls-1" points="882.17 149.8 878.48 146.15 865.3 149.57 867.32 151.58 882.17 149.8"/>
      <path class="cls-1" d="M879.7,182.94L851.55,155l-14.76,1.77h-0.06a0.86,0.86,0,0,1-.63-1.59l0.06,0,0.12,0L848.48,152l-4-4,0.61-.61,4.37,4.34,13.21-3.42L853.34,139l0.61-.61,9.69,9.61,13.19-3.42L862.2,130.12l0.61-.61,15,14.87,10.87-2.82,0.52-2.39-18.13-18,0.61-.61,17.74,17.6,2.95-13.59-12.43-12.33,0.61-.61,12,11.94L895.51,110l-6.73-6.67,0.61-.61,6.34,6.29,2.94-13.59-1-1,0.61-.61,0.64,0.63,12.59-58.09L713.27,236.14l25.49,25.29,118.36,25.66Z" transform="translate(0.27 0.13)"/>
      <polygon class="cls-1" points="852.91 155.02 880.18 182.07 883.13 168.47 867.77 153.24 852.91 155.02"/>
      <polygon class="cls-1" points="941.7 137.97 898.94 95.55 895.99 109.14 931.91 144.77 941.7 137.97"/>
      <polygon class="cls-1" points="949.07 161.79 959.29 155.43 957.79 153.93 946.96 159.7 949.07 161.79"/>
      <polygon class="cls-1" points="945.7 158.45 956.52 152.68 943.24 139.5 939.46 152.26 945.7 158.45"/>
      <path class="cls-1" d="M960.12,154.82l18.2,1.89-9.1-9-0.15,0-10.75,5.72,1.49,1.47A0.84,0.84,0,0,1,960.12,154.82Z" transform="translate(0.27 0.13)"/>
      <polygon class="cls-1" points="980 156.99 980 149.14 970.89 147.99 979.96 156.98 980 156.99"/>
      <path class="cls-1" d="M925.4,155.66a0.86,0.86,0,0,1,.05.2l0,0.39,8.24,8.17,3.78-12.75-5.36-5.32-9.78,6.8,2,2A0.85,0.85,0,0,1,925.4,155.66Z" transform="translate(0.27 0.13)"/>
      <path class="cls-1" d="M926.38,176.58a0.86,0.86,0,0,1-.12-0.33l0-.33-14.35-14.24L908,163.13l-6.68,4.64,78.36,77.74V229l-52.45-52A0.85,0.85,0,0,1,926.38,176.58Z" transform="translate(0.27 0.13)"/>
      <polygon class="cls-1" points="928.35 176.68 980 227.92 980 211.4 938.58 170.31 928.35 176.68"/>
      <polygon class="cls-1" points="921.93 153.8 914.01 159.3 923.75 155.61 921.93 153.8"/>
      <polygon class="cls-1" points="939.33 169.85 980 210.19 980 193.68 949.56 163.48 939.33 169.85"/>
      <polygon class="cls-1" points="888.71 172.79 885.07 159.53 883.35 167.48 888.71 172.79"/>
      <polygon class="cls-1" points="893.84 143.66 899.56 164.78 907.41 161.8 910.19 159.87 893.84 143.66"/>
      <polygon class="cls-1" points="941.17 140.42 933.15 146 938.07 150.88 941.17 140.42"/>
      <path class="cls-1" d="M898,166l0-.07-0.14-.53L886,153.76l-0.43,2,4.81,17.55,9-6.27-0.49-.48A0.85,0.85,0,0,1,898,166Z" transform="translate(0.27 0.13)"/>
      <path class="cls-1" d="M892,140.7a0.85,0.85,0,0,1,1,.61l0.15,0.55,17.51,17.37,9.79-6.81-28.08-27.85-2.95,13.59,2.55,2.53h0Z" transform="translate(0.27 0.13)"/>
      <polygon class="cls-1" points="889.45 139.31 888.94 141.7 891.25 141.09 889.45 139.31"/>
      <polygon class="cls-1" points="900.1 166.38 900.4 166.68 901.71 165.77 900.1 166.38"/>
      <polygon class="cls-1" points="944.91 158.87 939.18 153.19 936.11 163.57 944.91 158.87"/>
      <polygon class="cls-1" points="935.33 165.88 938.1 168.63 948.32 162.26 946.16 160.12 935.33 165.88"/>
      <polygon class="cls-1" points="931.2 145.27 895.78 110.13 892.83 123.72 921.41 152.07 931.2 145.27"/>
      <polygon class="cls-1" points="897.61 163.9 891.85 142.67 888.54 143.53 886.51 152.89 897.61 163.9"/>
      <polygon class="cls-1" points="928.06 174.88 937.35 169.09 925.94 157.77 928.06 174.88"/>
      <polygon class="cls-1" points="960.55 156.67 960.51 156.67 950.31 163.02 980 192.47 980 175.97 960.55 156.67"/>
      <polygon class="cls-1" points="924.15 157.25 913.02 161.47 926.32 174.66 924.15 157.25"/>
      <path class="cls-1" d="M942.19,137.38a0.85,0.85,0,0,1,1.05,1L957,152.12l10.83-5.78L906.51,85.46l0.61-.61,61.58,61.09a0.84,0.84,0,0,1,.3,0l10.74,1.36v-6.9L915.37,76.53l0.61-.61,63.76,63.25V122.66L924.23,67.59l0.61-.61,54.9,54.46V104.93L933.09,58.66l0.61-.61,46,45.67V23.56L955.85-.13h-8.19L911.48,36.33,898.89,94.42Z" transform="translate(0.27 0.13)"/>
      <polygon class="cls-1" points="980 158.71 961.92 156.82 980 174.75 980 158.71"/>
      <path class="cls-1" d="M979.73,246.71l-79.08-78.45-9.78,6.8,87.32,86.62-0.61.61-87.48-86.78a0.85,0.85,0,0,1-1-.6l-0.17-.6-6-6-2.95,13.6,89.41,88.7-0.61.61-89-88.31L857.13,287.09,738.76,261.43,838,359.87h86.39l55.36-55.8V246.71Z" transform="translate(0.27 0.13)"/>
      <polygon class="cls-7" points="933.96 58.18 933.36 58.79 980 105.06 980 103.85 933.96 58.18"/>
      <polygon class="cls-7" points="925.1 67.12 924.49 67.73 980 122.79 980 121.58 925.1 67.12"/>
      <polygon class="cls-7" points="916.24 76.06 915.63 76.67 980 140.52 980 139.31 916.24 76.06"/>
      <polygon class="cls-7" points="979.96 156.98 970.89 147.99 969.49 147.81 978.59 156.84 979.96 156.98"/>
      <path class="cls-7" d="M968.7,145.94L907.11,84.85l-0.61.61,61.37,60.88,0.61-.32A0.85,0.85,0,0,1,968.7,145.94Z" transform="translate(0.27 0.13)"/>
      <polygon class="cls-7" points="898.51 93.92 897.91 94.53 898.94 95.55 899.15 94.56 898.51 93.92"/>
      <path class="cls-7" d="M943,139.36l13.29,13.18,0.79-.42-13.81-13.7s0,0,0,0Z" transform="translate(0.27 0.13)"/>
      <path class="cls-7" d="M959.58,154.95a0.84,0.84,0,0,1,.22-0.09l-1.49-1.47-0.79.42,1.5,1.49Z" transform="translate(0.27 0.13)"/>
      <polygon class="cls-7" points="961.92 156.82 960.55 156.67 980 175.97 980 174.75 961.92 156.82"/>
      <path class="cls-7" d="M941.93,137.48a0.84,0.84,0,0,1,.26-0.11l-43.3-43-0.22,1,42.76,42.42Z" transform="translate(0.27 0.13)"/>
      <polygon class="cls-7" points="889.65 102.85 889.05 103.46 895.78 110.13 895.99 109.14 889.65 102.85"/>
      <polygon class="cls-7" points="944.91 158.87 945.7 158.45 939.46 152.26 939.18 153.19 944.91 158.87"/>
      <polygon class="cls-7" points="938.07 150.88 933.15 146 932.43 146.5 937.79 151.81 938.07 150.88"/>
      <polygon class="cls-7" points="948.32 162.26 949.07 161.79 946.96 159.7 946.16 160.12 948.32 162.26"/>
      <polygon class="cls-7" points="931.91 144.77 895.99 109.14 895.78 110.13 931.2 145.27 931.91 144.77"/>
      <polygon class="cls-7" points="950.31 163.02 949.56 163.48 980 193.68 980 192.47 950.31 163.02"/>
      <polygon class="cls-7" points="880.79 111.78 880.19 112.39 892.62 124.72 892.83 123.72 880.79 111.78"/>
      <path class="cls-7" d="M934.84,165.87a0.86,0.86,0,0,1-1.23-1l0.13-.43-8.24-8.17,0.17,1.38L937.08,169l0.75-.47-2.77-2.75Z" transform="translate(0.27 0.13)"/>
      <polygon class="cls-7" points="921.41 152.07 892.83 123.72 892.62 124.72 920.69 152.57 921.41 152.07"/>
      <polygon class="cls-7" points="938.58 170.31 980 211.4 980 210.19 939.33 169.85 938.58 170.31"/>
      <path class="cls-7" d="M924.29,155.16l0.09,0-2-2-0.72.5,1.82,1.81Z" transform="translate(0.27 0.13)"/>
      <polygon class="cls-7" points="871.93 120.72 871.33 121.33 889.45 139.31 889.67 138.31 871.93 120.72"/>
      <polygon class="cls-7" points="892.22 140.84 889.67 138.31 889.45 139.31 891.25 141.09 892.22 140.84"/>
      <polygon class="cls-7" points="913.02 161.47 912.14 161.81 926.49 176.05 926.32 174.66 913.02 161.47"/>
      <path class="cls-7" d="M927.56,176.87a0.85,0.85,0,0,1-.28.1l52.45,52v-1.21l-51.65-51.24Z" transform="translate(0.27 0.13)"/>
      <polygon class="cls-7" points="910.9 159.38 893.39 142 893.84 143.66 910.19 159.87 910.9 159.38"/>
      <polygon class="cls-7" points="863.07 129.64 862.47 130.25 877.09 144.76 878.06 144.51 863.07 129.64"/>
      <polygon class="cls-7" points="884.49 150.89 884.95 152.56 886.29 153.89 886.51 152.89 884.49 150.89"/>
      <polygon class="cls-7" points="883.25 149.67 879.45 145.89 878.48 146.15 882.17 149.8 883.25 149.67"/>
      <path class="cls-7" d="M899.06,166.53l-0.13,0,0.49,0.48,0.72-.5-0.3-.3Z" transform="translate(0.27 0.13)"/>
      <polygon class="cls-7" points="886.29 153.89 898.06 165.56 897.61 163.9 886.51 152.89 886.29 153.89"/>
      <polygon class="cls-7" points="901.64 167.9 900.92 168.4 980 246.85 980 245.64 901.64 167.9"/>
      <polygon class="cls-7" points="867.32 151.58 865.3 149.57 864.33 149.82 866.23 151.71 867.32 151.58"/>
      <polygon class="cls-7" points="854.21 138.57 853.61 139.18 862.93 148.43 863.9 148.18 854.21 138.57"/>
      <polygon class="cls-7" points="868.86 153.11 867.77 153.24 883.13 168.47 883.35 167.48 868.86 153.11"/>
      <path class="cls-7" d="M890.11,175.52l87.48,86.78,0.61-.61-87.32-86.62-0.49.34A0.85,0.85,0,0,1,890.11,175.52Z" transform="translate(0.27 0.13)"/>
      <polygon class="cls-7" points="883.35 167.48 883.13 168.47 889.16 174.46 888.71 172.79 883.35 167.48"/>
      <polygon class="cls-7" points="851.82 155.15 879.97 183.07 880.18 182.07 852.91 155.02 851.82 155.15"/>
      <polygon class="cls-7" points="845.35 147.52 844.74 148.13 848.75 152.11 849.72 151.86 845.35 147.52"/>
      <polygon class="cls-7" points="850.16 153.51 850.27 153.62 851.37 153.49 851.13 153.26 850.16 153.51"/>
      <polygon class="cls-7" points="968.99 271.38 969.6 270.77 880.18 182.07 879.97 183.07 968.99 271.38"/>
      <path class="cls-2" d="M835.89,155.36a0.86,0.86,0,0,1,.21-0.15,0.85,0.85,0,0,0-.22,1.37A0.86,0.86,0,0,1,835.89,155.36Z" transform="translate(0.27 0.13)"/>
      <path class="cls-2" d="M835.88,156.58a0.86,0.86,0,0,0,.85.22h0.06l-0.21,0A0.85,0.85,0,0,1,835.88,156.58Z" transform="translate(0.27 0.13)"/>
      <polygon class="cls-2" points="888.54 143.53 888.94 141.7 878.06 144.51 879.45 145.89 888.54 143.53"/>
      <polygon class="cls-2" points="878.48 146.15 877.09 144.76 863.9 148.18 865.3 149.57 878.48 146.15"/>
      <path class="cls-2" d="M980.2,158.57l-0.47-.47v0.47l0.19,0A0.85,0.85,0,0,0,980.2,158.57Z" transform="translate(0.27 0.13)"/>
      <polygon class="cls-2" points="864.33 149.82 862.93 148.43 849.72 151.86 851.13 153.26 864.33 149.82"/>
      <path class="cls-2" d="M849,153.6l0.88-.23-1.41-1.4-12.21,3.16-0.12,0a0.86,0.86,0,0,1,.23-0.07Z" transform="translate(0.27 0.13)"/>
      <path class="cls-2" d="M893,141.32a0.85,0.85,0,0,0-1-.61h0l1.17,1.16Z" transform="translate(0.27 0.13)"/>
      <polygon class="cls-2" points="938.1 168.63 939.33 169.85 949.56 163.48 948.32 162.26 938.1 168.63"/>
      <polygon class="cls-2" points="980 156.99 979.96 156.98 980 157.03 980 156.99"/>
      <polygon class="cls-2" points="960.55 156.67 959.29 155.43 949.07 161.79 950.31 163.02 960.51 156.67 960.55 156.67"/>
      <path class="cls-2" d="M926.26,176.25a0.85,0.85,0,0,0,1,.72l-1.06-1.05Z" transform="translate(0.27 0.13)"/>
      <path class="cls-2" d="M925.45,155.87a0.86,0.86,0,0,0-.05-0.2,0.85,0.85,0,0,0-1-.51l1.12,1.11Z" transform="translate(0.27 0.13)"/>
      <path class="cls-2" d="M979.73,158.58V158.1l-1.41-1.4-18.2-1.89a0.84,0.84,0,0,0-.32,0l1.85,1.83Z" transform="translate(0.27 0.13)"/>
      <polygon class="cls-2" points="928.06 174.88 925.94 157.77 923.75 155.61 914.01 159.3 912.14 160.6 913.02 161.47 924.15 157.25 926.32 174.66 928.35 176.68 938.58 170.31 937.35 169.09 928.06 174.88"/>
      <polygon class="cls-2" points="908.32 163.26 912.14 161.81 911.42 161.1 908.32 163.26"/>
      <polygon class="cls-2" points="891.85 142.67 897.61 163.9 900.1 166.38 901.71 165.77 907.41 161.8 899.56 164.78 893.84 143.66 891.25 141.09 888.94 141.7 888.54 143.53 891.85 142.67"/>
      <path class="cls-2" d="M897.93,166l0,0.07a0.85,0.85,0,0,0,1,.53l-1.14-1.13Z" transform="translate(0.27 0.13)"/>
      <polygon class="cls-2" points="980 157.03 979.96 156.98 978.59 156.84 980 158.24 980 157.03"/>
      <path class="cls-2" d="M961.65,156.68l-1.85-1.83a0.84,0.84,0,0,0-.22.09l-0.56.35,1.26,1.25Z" transform="translate(0.27 0.13)"/>
      <polygon class="cls-2" points="948.32 162.26 949.56 163.48 950.31 163.02 949.07 161.79 948.32 162.26"/>
      <path class="cls-2" d="M924.38,155.15l-0.09,0-0.81.31,2.19,2.17-0.17-1.38Z" transform="translate(0.27 0.13)"/>
      <polygon class="cls-2" points="937.35 169.09 938.58 170.31 939.33 169.85 938.1 168.63 937.35 169.09"/>
      <path class="cls-2" d="M926.22,175.91l1.06,1.05a0.85,0.85,0,0,0,.28-0.1l0.52-.32-2-2Z" transform="translate(0.27 0.13)"/>
      <polygon class="cls-2" points="892.22 140.84 891.25 141.09 893.84 143.66 893.39 142 892.22 140.84"/>
      <polygon class="cls-2" points="912.14 160.6 911.42 161.1 912.14 161.81 913.02 161.47 912.14 160.6"/>
      <polygon class="cls-2" points="879.45 145.89 878.06 144.51 877.09 144.76 878.48 146.15 879.45 145.89"/>
      <path class="cls-2" d="M898.93,166.56l0.13,0,0.77-.29-2.49-2.47,0.45,1.66Z" transform="translate(0.27 0.13)"/>
      <polygon class="cls-2" points="865.3 149.57 863.9 148.18 862.93 148.43 864.33 149.82 865.3 149.57"/>
      <polygon class="cls-2" points="851.13 153.26 849.72 151.86 848.75 152.11 850.16 153.51 851.13 153.26"/>
      <polygon class="cls-3" points="882.17 149.8 867.32 151.58 868.86 153.11 882.85 151.43 885.07 159.53 885.86 155.89 884.95 152.56 882.17 149.8"/>
      <polygon class="cls-3" points="851.37 153.49 852.91 155.02 867.77 153.24 866.23 151.71 851.37 153.49"/>
      <polygon class="cls-3" points="849.28 153.74 837.06 156.91 851.82 155.15 850.27 153.62 849.28 153.74"/>
      <path class="cls-3" d="M836.1,155.21l0.06,0Z" transform="translate(0.27 0.13)"/>
      <path class="cls-3" d="M884.05,150.13a0.85,0.85,0,0,0-.93-0.62l-0.13,0,1.24,1.23Z" transform="translate(0.27 0.13)"/>
      <polygon class="cls-3" points="932.43 146.5 931.2 145.27 921.41 152.07 922.65 153.3 932.43 146.5"/>
      <polygon class="cls-3" points="914.01 159.3 921.93 153.8 920.69 152.57 910.9 159.38 911.71 160.17 914.01 159.3"/>
      <polygon class="cls-3" points="910.19 159.87 907.41 161.8 910.83 160.51 910.19 159.87"/>
      <polygon class="cls-3" points="901.71 165.77 900.4 166.68 901.64 167.9 908.32 163.26 901.71 165.77"/>
      <polygon class="cls-3" points="969.34 147.79 969.49 147.81 968.14 146.47 957.32 152.25 958.59 153.51 969.34 147.79"/>
      <path class="cls-3" d="M979.73,149v-1.72L969,145.92a0.84,0.84,0,0,0-.3,0l1.92,1.91Z" transform="translate(0.27 0.13)"/>
      <path class="cls-3" d="M943.13,137.71a0.85,0.85,0,0,0-.94-0.34l1.05,1A0.86,0.86,0,0,0,943.13,137.71Z" transform="translate(0.27 0.13)"/>
      <path class="cls-3" d="M889.06,174.92a0.85,0.85,0,0,0,1,.6l-1.21-1.2Z" transform="translate(0.27 0.13)"/>
      <polygon class="cls-3" points="890.67 173.44 885.86 155.89 885.07 159.53 888.71 172.79 891.14 175.2 900.92 168.4 899.68 167.17 890.67 173.44"/>
      <polygon class="cls-3" points="946.96 159.7 957.79 153.93 956.52 152.68 945.7 158.45 946.96 159.7"/>
      <polygon class="cls-3" points="946.16 160.12 944.91 158.87 936.11 163.57 939.18 153.19 937.79 151.81 934.01 164.57 935.33 165.88 946.16 160.12"/>
      <polygon class="cls-3" points="941.17 140.42 938.07 150.88 939.46 152.26 943.24 139.5 941.7 137.97 931.91 144.77 933.15 146 941.17 140.42"/>
      <path class="cls-3" d="M970.62,147.85l-1.92-1.91a0.85,0.85,0,0,0-.21.07l-0.61.32,1.35,1.33Z" transform="translate(0.27 0.13)"/>
      <polygon class="cls-3" points="957.79 153.93 958.59 153.51 957.32 152.25 956.52 152.68 957.79 153.93"/>
      <path class="cls-3" d="M941.43,137.83l1.54,1.53,0.27-.93s0,0,0,0l-1.05-1a0.84,0.84,0,0,0-.26.11Z" transform="translate(0.27 0.13)"/>
      <polygon class="cls-3" points="933.15 146 931.91 144.77 931.2 145.27 932.43 146.5 933.15 146"/>
      <polygon class="cls-3" points="946.16 160.12 946.96 159.7 945.7 158.45 944.91 158.87 946.16 160.12"/>
      <polygon class="cls-3" points="939.18 153.19 939.46 152.26 938.07 150.88 937.79 151.81 939.18 153.19"/>
      <polygon class="cls-3" points="922.65 153.3 921.41 152.07 920.69 152.57 921.93 153.8 922.65 153.3"/>
      <path class="cls-3" d="M933.68,165.51a0.86,0.86,0,0,0,1.16.35l0.22-.12-1.32-1.31-0.13.43A0.86,0.86,0,0,0,933.68,165.51Z" transform="translate(0.27 0.13)"/>
      <polygon class="cls-3" points="910.83 160.51 911.71 160.17 910.9 159.38 910.19 159.87 910.83 160.51"/>
      <polygon class="cls-3" points="883.25 149.67 882.17 149.8 884.95 152.56 884.49 150.89 883.25 149.67"/>
      <polygon class="cls-3" points="900.4 166.68 899.68 167.17 900.92 168.4 901.64 167.9 900.4 166.68"/>
      <polygon class="cls-3" points="866.23 151.71 867.77 153.24 868.86 153.11 867.32 151.58 866.23 151.71"/>
      <path class="cls-3" d="M888.9,174.32l1.21,1.2a0.85,0.85,0,0,0,.27-0.12l0.49-.34-2.43-2.41Z" transform="translate(0.27 0.13)"/>
      <polygon class="cls-3" points="851.37 153.49 850.27 153.62 851.82 155.15 852.91 155.02 851.37 153.49"/>
      <path class="cls-3" d="M836.38,155.12a0.86,0.86,0,0,0-.23.07l-0.06,0a0.85,0.85,0,0,0,.48,1.6l0.21,0L849,153.6Z" transform="translate(0.27 0.13)"/>
      <polygon class="cls-3" points="914.01 159.3 911.71 160.17 912.14 160.6 914.01 159.3"/>
      <polygon class="cls-3" points="911.42 161.1 910.83 160.51 907.41 161.8 901.71 165.77 908.32 163.26 911.42 161.1"/>
      <polygon class="cls-3" points="911.71 160.17 910.83 160.51 911.42 161.1 912.14 160.6 911.71 160.17"/>
      <polygon class="cls-3" points="959.8 280.56 834.33 156.11 941.91 47.64 944.35 50.06 839.18 156.09 962.21 278.12 959.8 280.56"/>
      <g>
        <rect class="cls-10" x="788.24" y="205.11" width="7.29" height="20.02" transform="translate(81.73 625.94) rotate(-45.23)"/>
        <rect class="cls-10" x="818.59" y="217.34" width="7.29" height="55.76" transform="translate(69.34 656.39) rotate(-45.23)"/>
        <rect class="cls-10" x="853.67" y="264.21" width="7.29" height="31.6" transform="translate(55.01 691.59) rotate(-45.23)"/>
        <rect class="cls-10" x="880.13" y="288.57" width="7.29" height="35.39" transform="translate(44.2 718.14) rotate(-45.23)"/>
        <rect class="cls-10" x="902.05" y="317.9" width="7.29" height="20.23" transform="translate(35.25 740.13) rotate(-45.23)"/>
        <rect class="cls-10" x="785.68" y="211.89" width="7.29" height="40.03" transform="translate(69.06 629.09) rotate(-45.23)"/>
        <rect class="cls-10" x="821.21" y="241.63" width="7.29" height="51.04" transform="translate(54.55 664.74) rotate(-45.23)"/>
        <rect class="cls-10" x="852.88" y="283.33" width="7.29" height="30.46" transform="translate(41.61 696.52) rotate(-45.23)"/>
        <rect class="cls-10" x="876.04" y="308.64" width="7.29" height="25.81" transform="translate(32.14 719.75) rotate(-45.23)"/>
        <rect class="cls-10" x="894.12" y="331.78" width="7.29" height="15.37" transform="translate(24.77 737.89) rotate(-45.23)"/>
        <rect class="cls-10" x="774.49" y="222.27" width="7.29" height="35.75" transform="translate(59.9 623.59) rotate(-45.23)"/>
        <rect class="cls-10" x="802.64" y="250.58" width="7.29" height="34.96" transform="translate(48.41 651.82) rotate(-45.23)"/>
        <rect class="cls-10" x="849.99" y="270.09" width="7.29" height="89.86" transform="translate(29.07 699.33) rotate(-45.23)"/>
        <rect class="cls-10" x="887.17" y="348.09" width="7.29" height="7.69" transform="translate(13.86 736.64) rotate(-45.23)"/>
      </g>
    </g>
    <polygon class="cls-3" points="242.4 360 493.31 303.62 195.26 360 242.4 360"/>
    <polygon class="cls-2" points="395.69 0 0.69 74.8 0.69 360.27 194.21 360.27 493.31 303.62 436.05 0 395.69 0"/>
    <polygon class="cls-3" points="104.7 119.29 0.69 138.99 0.69 278.78 7.64 315.58 137.1 291.07 104.7 119.29"/>
    <rect class="cls-3" x="139.3" y="101.21" width="131.96" height="174.8" transform="translate(-31.23 41.61) rotate(-10.72)"/>
    <rect class="cls-3" x="289.32" y="72.85" width="131.93" height="174.8" transform="translate(-23.34 69.02) rotate(-10.72)"/>
    <path class="cls-4" d="M436.26,233.7l-7.32-38.56-38.06-5.21-11.51-4.74s-11.58-.35-18.35.94c-7.65,1.46-19.14,6.86-19.14,6.86l-7.15,7.38-35.38,19.49,7.32,38.56Z" transform="translate(0.27 0.13)"/>
    <path class="cls-11" d="M380.63,191.23Q364.89,211,343,198.4l-3.13-16.53,37.64-7.17Z" transform="translate(0.27 0.13)"/>
    <path class="cls-12" d="M353.64,179.26l-6.91,10.25L366.65,202q7.51-2.66,14-10.79l-3.13-16.52Z" transform="translate(0.27 0.13)"/>
    <polygon class="cls-11" points="377.34 157.5 382.05 156.61 383.9 147.03 381.67 135.3 379.02 134.05 373.42 136.87 377.34 157.5"/>
    <polygon class="cls-11" points="335.79 165.42 331.07 166.32 325.85 158.09 323.62 146.36 325.63 144.22 331.87 144.78 335.79 165.42"/>
    <path class="cls-11" d="M350.06,105.31l-8.45,1.61a24.28,24.28,0,0,0-8.73,3.49c-7.52,4.9-11.47,13.64-9,22.08l13.29,45.72c1.77,5.83,7.87,15.68,24.68,12.48h0C373,188.56,381,179.59,380.24,170l-4.38-47.41C374.86,110.87,362.91,102.87,350.06,105.31Z" transform="translate(0.27 0.13)"/>
    <g>
      <path class="cls-13" d="M326.22,145.15L330,157.72l1.8,1.39-4.44-17.24,3.93-16.16c8.88,10.13,24.46,13.36,46.48,9.95,0,0,5.83-8.68,3.93-17.17-2.1-9.38-6.76-14.65-15.87-18.12s-19.59-5.18-30.2-.88S324,110,324,110s-5.54,2-7.68,6.68-2.86,10-.23,14.71S326.22,145.15,326.22,145.15Z" transform="translate(0.27 0.13)"/>
      <polygon class="cls-13" points="374.5 133.78 378.09 149.64 378.94 148.25 377.06 132.32 374.5 133.78"/>
    </g>
    <path class="cls-4" d="M286.26,262.29l-7.32-38.56-38.06-5.21-11.51-4.74s-11.58-.35-18.35.94c-7.65,1.46-19.14,6.86-19.14,6.86L184.73,229l-35.38,19.47L156.67,287Z" transform="translate(0.27 0.13)"/>
    <path class="cls-11" d="M229.42,220q-14.53,19.55-35.21,6.71l-3.13-16.52,35.21-6.71Z" transform="translate(0.27 0.13)"/>
    <path class="cls-12" d="M204,207.78l-6.36,10.15,18.83,12.71q7-2.56,13-10.6l-3.13-16.52Z" transform="translate(0.27 0.13)"/>
    <polygon class="cls-11" points="227.34 186.09 232.05 185.19 233.9 175.61 231.67 163.87 229.02 162.63 223.42 165.45 227.34 186.09"/>
    <polygon class="cls-11" points="185.78 194 181.07 194.9 175.85 186.67 173.62 174.94 175.63 172.8 181.87 173.36 185.78 194"/>
    <path class="cls-11" d="M200.06,133.87l-8.45,1.61a24.28,24.28,0,0,0-8.73,3.49c-7.52,4.9-11.47,13.64-9,22.08l14.85,45.46c1.72,5.84,7.54,15.75,23.16,12.77h0c10.4-2,17.71-10.83,16.86-20.39l-2.86-47.7C224.86,139.45,212.91,131.45,200.06,133.87Z" transform="translate(0.27 0.13)"/>
    <path class="cls-13" d="M177.24,172.87l2.22,2.42-0.6-25c6.68,6.82,35.33.54,37.8-7.2l8.6,23.49L227,163.4s-0.31-17.61-1.53-24-5.19-8.79-13-11.87-29.09,1.8-35.6,6.78-8.11,9.7-7,15.59S177.24,172.87,177.24,172.87Z" transform="translate(0.27 0.13)"/>
    <path class="cls-4" d="M129.59,252.2L91.53,247,80,242.23s-11.58-.35-18.35.94C54,244.64,42.53,250,42.53,250l-7.16,7.36-35,19.25v2.51l6.89,36.28,129.6-24.69Z" transform="translate(0.27 0.13)"/>
    <path class="cls-11" d="M81.28,248.26Q65.54,268,43.65,255.43l-3.13-16.52,37.63-7.17Z" transform="translate(0.27 0.13)"/>
    <path class="cls-12" d="M54.28,236.29l-6.91,10.25,19.92,12.51q7.51-2.66,14-10.79l-3.13-16.52Z" transform="translate(0.27 0.13)"/>
    <polygon class="cls-11" points="77.99 214.54 82.7 213.64 84.55 204.07 82.32 192.33 79.67 191.08 74.07 193.9 77.99 214.54"/>
    <polygon class="cls-11" points="36.44 222.46 31.72 223.36 26.5 215.13 24.27 203.39 26.28 201.25 32.52 201.82 36.44 222.46"/>
    <path class="cls-11" d="M50.73,162.36L42.28,164a24.27,24.27,0,0,0-8.73,3.49c-7.52,4.9-11.47,13.64-9,22.08l13.29,45.72c1.77,5.83,7.87,15.68,24.68,12.48h0c11.21-2.14,19.21-11.11,18.4-20.69l-4.38-47.41C75.51,167.87,63.55,159.87,50.73,162.36Z" transform="translate(0.27 0.13)"/>
    <path class="cls-13" d="M28.49,201.34l3.54,7.3,2.48,1.6L27.73,180.4c15,5.85,30.31,7.42,46,1.51l1.47,19.59,2.19-4.09-0.05-5.54s-0.37-21.59-1.49-27.5S74.73,155,59.19,153.29s-30.17,5.05-33.8,8.86a11.93,11.93,0,0,0-3.33,8.32s-4.86,2.58-3.94,7.39S28.49,201.34,28.49,201.34Z" transform="translate(0.27 0.13)"/>
    <polygon class="cls-14" points="158.44 148.52 160.45 159.54 164.99 158.18 165.6 164.48 161.63 166.1 163.64 174.97 177.73 168.92 180.15 177.76 236.08 159.77 232.85 149.42 228.16 150.8 226.39 142.93 239.29 138.79 235.67 124.21 221.19 128.6 219.78 122.55 164.99 139.49 165.6 145.53 158.44 148.52"/>
    <polygon class="cls-14" points="307.39 111.05 310.74 124.46 316.32 122.6 317.81 126.33 306.46 130.44 310.11 143.02 330.79 135.77 331.7 139.06 383.83 128.43 381.63 116.31 387.36 115.15 384.71 102.85 372.67 106.95 370.86 99.86 379.34 97.85 377.32 88.31 364.68 91.29 363.68 83.53 314.68 97.63 317.35 107.36 307.39 111.05"/>
    <polygon class="cls-14" points="90.05 162.55 78.79 165.51 76.21 156.38 81.61 154.43 79.19 144.15 15.15 164.18 17.66 175.24 7.25 179.75 9.97 191.25 20.9 188.21 22.34 195.42 26.84 193.72 28.81 199.42 75.91 183.29 74.47 179.2 92.26 172.57 90.05 162.55"/>
    <polygon class="cls-15" points="72.47 184.2 71.12 184.56 72.05 189.18 73.91 188.29 72.47 184.2"/>
    <polygon class="cls-15" points="79.7 158.08 78.79 154.26 78.41 154.33 77.81 151.8 78.44 151.57 78.04 149.4 77.29 149.59 77.19 149.15 75.47 149.58 77.85 160.19 79.61 159.43 79.32 158.18 79.7 158.08"/>
    <polygon class="cls-15" points="77.44 170.31 76.33 166.96 75.83 167.12 75.66 166.52 76.32 166.29 75.75 164.51 75.16 164.74 74.93 163.92 75.44 163.63 75.11 162.55 74.6 162.77 74.21 161.38 72.87 161.96 75.48 171.06 76.59 170.59 77.44 170.31"/>
    <polygon class="cls-15" points="90.74 177.21 90.44 175.8 89.92 176.03 89.64 174.74 90.13 174.46 89.47 171.72 89 171.87 88.74 170.67 89.47 170.38 89.28 167.27 88.07 167.61 88.05 167.55 86.31 167.99 88.38 178.16 90.26 177.57 90.21 177.35 90.74 177.21"/>
    <polygon class="cls-15" points="72.36 184.83 73.4 184.46 74.07 186.48 72.73 186.84 72.36 184.83"/>
    <polygon class="cls-15" points="222.55 130.78 222.34 129.76 221.82 130.05 221.55 128.86 222.34 128.6 221.59 125.66 220.87 125.94 220.78 125.55 218.72 125.92 220.26 131.97 222.19 131.6 222.04 130.96 222.55 130.78"/>
    <polygon class="cls-15" points="240.87 141.09 240.46 139.65 239.84 139.98 239.1 136.99 239.44 136.86 238.76 133.78 238.34 133.92 238.06 132.8 238.76 132.62 237.6 127.58 236.81 127.79 236.67 127.21 235.8 127.39 238.82 142.37 240.29 141.79 240.16 141.27 240.87 141.09"/>
    <polygon class="cls-15" points="229.7 152.42 229.36 151.32 228.65 151.55 228.32 150.06 229.02 149.94 228.27 146.75 227.62 146.93 227.39 145.93 226.41 146.2 228.29 154.33 229.16 153.8 228.92 152.76 229.7 152.42"/>
    <polygon class="cls-15" points="237.36 161.63 236.65 159.44 236.12 159.71 235.2 156.74 235.8 156.44 234.86 152.76 234.04 153.02 233.85 152.42 232.65 152.78 235.27 163.35 237.08 162.77 236.78 161.83 237.36 161.63"/>
    <polygon class="cls-15" points="7.25 179.75 9.13 178.93 9.93 182.84 9.33 183.35 10.85 191.01 9.97 191.25 7.25 179.75"/>
    <polygon class="cls-15" points="18.9 193.21 20.04 192.96 20.95 200.19 20.34 200.42 18.9 193.21"/>
    <polygon class="cls-15" points="160.42 151.11 161.34 156.96 161.14 158.67 161.94 162.39 160.13 162.98 157.83 152.15 160.42 151.11"/>
    <polygon class="cls-15" points="165.99 142.49 167.94 148.54 166.6 148.53 165.99 142.49"/>
    <polygon class="cls-15" points="306.66 110.58 308.59 116.84 307.63 117.44 310.17 123.99 307.03 125.13 304.16 111.8 306.66 110.58"/>
    <polygon class="cls-15" points="328.79 135.77 330.28 135.22 331.72 138.46 329.7 139.06 328.79 135.77"/>
    <polygon class="cls-15" points="17.07 163.58 17.91 168.29 16.84 168.53 17.91 172.85 18.87 172.97 19.23 174.41 16.24 175.61 14.32 164.56 17.07 163.58"/>
    <polygon class="cls-15" points="24.66 199.11 26.1 198.63 28.14 203.79 26.81 204.42 24.66 199.11"/>
    <polygon class="cls-15" points="165.61 161.38 167.65 160.8 167.94 162.05 166.97 162.84 166.97 164.28 167.94 164.4 167.94 166.56 164.77 167.76 164.09 161.75 165.61 161.38"/>
    <polygon class="cls-15" points="163.57 168.71 164.41 172.71 165.61 172.21 166.53 177.16 164.41 178.33 162.13 169.56 163.57 168.71"/>
    <polygon class="cls-15" points="178.55 172.33 180.83 171.24 181.67 174.49 180.71 175.09 182.06 180.47 179.39 181.21 179.15 179.05 179.87 177.85 178.55 172.33"/>
    <polygon class="cls-15" points="314.23 97.18 315.06 100.63 314.23 101.53 315.25 106.98 311.71 97.63 314.23 97.18"/>
    <polygon class="cls-15" points="305.94 129.9 309.33 142.6 308.11 143.02 304.46 130.44 305.94 129.9"/>
    <g>
      <path class="cls-3" d="M42.17,178.44a3.22,3.22,0,0,1-.62,1.52,4.17,4.17,0,0,1-1.25,1.13,5.42,5.42,0,0,1-1.59.63,5,5,0,0,1-2.3,0,5.5,5.5,0,0,1-2-1l0.68-1.85a4.73,4.73,0,0,0,1.45.89,2.9,2.9,0,0,0,1.7.1,2.49,2.49,0,0,0,.75-0.3,2.15,2.15,0,0,0,.59-0.51,1.81,1.81,0,0,0,.34-0.68,1.69,1.69,0,0,0,0-.8,1.16,1.16,0,0,0-.37-0.64,2,2,0,0,0-.64-0.38,3.87,3.87,0,0,0-.76-0.2l-0.72-.11a13.59,13.59,0,0,1-1.37-.24,4.93,4.93,0,0,1-1.19-.42,2.92,2.92,0,0,1-.93-0.74,2.76,2.76,0,0,1-.54-1.19,3.94,3.94,0,0,1,0-1.54,3.42,3.42,0,0,1,.51-1.31,3.5,3.5,0,0,1,1-1,4.21,4.21,0,0,1,1.43-.59,5.18,5.18,0,0,1,.94-0.12,5.54,5.54,0,0,1,1.9.27,5.18,5.18,0,0,1,.85.36l-0.6,1.84a3.29,3.29,0,0,0-1.13-.53A2.75,2.75,0,0,0,37,171a1.88,1.88,0,0,0-.6.25,1.82,1.82,0,0,0-.48.43,1.54,1.54,0,0,0-.27.56,1.34,1.34,0,0,0,0,.64,1,1,0,0,0,.3.55,1.67,1.67,0,0,0,.5.33A2.89,2.89,0,0,0,37,174l0.61,0.13,1.53,0.31a8.09,8.09,0,0,1,1,.27,3.18,3.18,0,0,1,.86.44,2.68,2.68,0,0,1,.66.68,2.91,2.91,0,0,1,.4,1A4.74,4.74,0,0,1,42.17,178.44Z" transform="translate(0.27 0.13)"/>
      <path class="cls-3" d="M55.53,173.87a7.63,7.63,0,0,1-.81,2.22l1.79,1.26-1.23,1.25-1.65-1.17a5.39,5.39,0,0,1-1.43,1.09,7,7,0,0,1-1.78.65,6.75,6.75,0,0,1-2.62.08,6.39,6.39,0,0,1-5.2-5,5.89,5.89,0,0,1,0-2.55,6.33,6.33,0,0,1,1-2.27,6.76,6.76,0,0,1,1.77-1.75,6.65,6.65,0,0,1,2.34-1,6.77,6.77,0,0,1,2.61-.08,6.48,6.48,0,0,1,2.33.86,6.32,6.32,0,0,1,2.87,4.08A5.82,5.82,0,0,1,55.53,173.87ZM53.21,172a4.15,4.15,0,0,0-.68-1.54,4.28,4.28,0,0,0-1.19-1.13,4.51,4.51,0,0,0-1.53-.61,4,4,0,0,0-1.69,0,4.22,4.22,0,0,0-1.55.68,4.32,4.32,0,0,0-1.14,1.18,4.38,4.38,0,0,0-.61,1.49,3.79,3.79,0,0,0,0,1.61,4.32,4.32,0,0,0,.7,1.59,4.41,4.41,0,0,0,1.2,1.16,4.32,4.32,0,0,0,1.53.61,4.07,4.07,0,0,0,1.68,0,3.78,3.78,0,0,0,.91-0.33,3.35,3.35,0,0,0,.81-0.58l-2.25-1.5,1.33-1.37,2.12,1.5a4,4,0,0,0,.38-2.77h0Z" transform="translate(0.27 0.13)"/>
      <path class="cls-3" d="M58.37,177.09l-2.64-11.9,2.18-.48,2.22,10,3.44-.76L64,175.87Z" transform="translate(0.27 0.13)"/>
    </g>
    <g>
      <path class="cls-3" d="M330.47,118l-1.26-2-3.56.68L325.2,119l-1.77.34,1.94-9.88,1.44-.28,5.43,8.46Zm-4-6.46h0l-0.63,3.73,2.59-.5Z" transform="translate(0.27 0.13)"/>
      <path class="cls-3" d="M337.05,116.7l-0.61-3.16q-0.06-.29-0.13-0.59a1.73,1.73,0,0,0-.23-0.53,0.92,0.92,0,0,0-.41-0.34,1.17,1.17,0,0,0-.68,0,1.31,1.31,0,0,0-.64.29,1.15,1.15,0,0,0-.33.49,1.77,1.77,0,0,0-.09.62,4.18,4.18,0,0,0,.08.69l0.58,3-1.56.3-1.15-6,1.56-.3L333.6,112a2.15,2.15,0,0,1,.65-0.92,2.34,2.34,0,0,1,1-.44,2.62,2.62,0,0,1,1,0,1.67,1.67,0,0,1,.76.38,2.13,2.13,0,0,1,.52.72,4.27,4.27,0,0,1,.31,1l0.7,3.66Z" transform="translate(0.27 0.13)"/>
      <path class="cls-3" d="M346.36,115.92a3,3,0,0,1-.35,1.24,2.61,2.61,0,0,1-.94,1,4.18,4.18,0,0,1-1.42.53,4.37,4.37,0,0,1-1.13.07,3.48,3.48,0,0,1-1.1-.25,2.83,2.83,0,0,1-.91-0.6,2.25,2.25,0,0,1-.57-1l1.72-.33a1.13,1.13,0,0,0,.27.45,1.37,1.37,0,0,0,.41.29,1.7,1.7,0,0,0,1,.11,2.2,2.2,0,0,0,.79-0.3,1.22,1.22,0,0,0,.48-0.57,1.8,1.8,0,0,0,.16-0.82,5.71,5.71,0,0,0,0-.88l-0.08-.44a3,3,0,0,1-.79.88,2.67,2.67,0,0,1-1.09.46,2.93,2.93,0,0,1-1.24,0,2.89,2.89,0,0,1-1-.48,3,3,0,0,1-.79-0.87,3.57,3.57,0,0,1-.45-2.44,3.26,3.26,0,0,1,.43-1.13,3,3,0,0,1,2-1.36,2.66,2.66,0,0,1,1.15,0,2.17,2.17,0,0,1,1,.56h0l-0.15-.79,1.56-.3,1.06,5.51A6,6,0,0,1,346.36,115.92ZM341.49,111a1.67,1.67,0,0,0-.46.5,1.82,1.82,0,0,0-.24.64,1.94,1.94,0,0,0,0,.7,2.17,2.17,0,0,0,.25.68,1.7,1.7,0,0,0,.45.52,1.66,1.66,0,0,0,.62.29,1.76,1.76,0,0,0,.75,0,1.79,1.79,0,0,0,.71-0.29,1.66,1.66,0,0,0,.47-0.5,1.71,1.71,0,0,0,.23-0.65,2.21,2.21,0,0,0,0-.73,2,2,0,0,0-.25-0.66,1.75,1.75,0,0,0-.45-0.5,1.61,1.61,0,0,0-.63-0.28,1.87,1.87,0,0,0-.75,0A1.68,1.68,0,0,0,341.49,111Z" transform="translate(0.27 0.13)"/>
      <path class="cls-3" d="M353,112.28a2,2,0,0,1-.35.89,2.34,2.34,0,0,1-.84.71,4.25,4.25,0,0,1-1.15.39,4.54,4.54,0,0,1-1.23.07,2.22,2.22,0,0,1-1-.35,1.88,1.88,0,0,1-.65-0.69,3.48,3.48,0,0,1-.36-1l-0.69-3.6,1.56-.3,0.62,3.26a4.55,4.55,0,0,0,.16.63,1.44,1.44,0,0,0,.27.48,0.91,0.91,0,0,0,.44.27,1.75,1.75,0,0,0,1.3-.25,1,1,0,0,0,.32-0.42,1.37,1.37,0,0,0,.08-0.55,4.55,4.55,0,0,0-.08-0.64l-0.63-3.31,1.54-.3,0.69,3.59A3.46,3.46,0,0,1,353,112.28Z" transform="translate(0.27 0.13)"/>
      <path class="cls-3" d="M355,113.27l-1.92-10,1.56-.3,1.92,10Z" transform="translate(0.27 0.13)"/>
      <path class="cls-3" d="M362.73,111.78l-0.16-.81h0a1.88,1.88,0,0,1-.71.9,2.84,2.84,0,0,1-1.09.46,2.92,2.92,0,0,1-1.27,0,3,3,0,0,1-1.08-.5,3.15,3.15,0,0,1-.81-0.89,3.51,3.51,0,0,1-.45-1.19,3.56,3.56,0,0,1,0-1.26,3,3,0,0,1,1.23-2,3,3,0,0,1,2.34-.47,2.21,2.21,0,0,1,1,.52l-0.14-.75,1.56-.3,1.15,6Zm-3.28-4.19a1.68,1.68,0,0,0-.46.5,1.79,1.79,0,0,0-.24.64,2,2,0,0,0,0,.7,2.15,2.15,0,0,0,.25.68,1.63,1.63,0,0,0,.45.51,1.69,1.69,0,0,0,.62.28,1.76,1.76,0,0,0,.75,0,1.79,1.79,0,0,0,.71-0.29,1.66,1.66,0,0,0,.47-0.5,1.7,1.7,0,0,0,.23-0.65,2.19,2.19,0,0,0,0-.73,2,2,0,0,0-.25-0.66,1.75,1.75,0,0,0-.45-0.5,1.62,1.62,0,0,0-.63-0.28,1.88,1.88,0,0,0-.75,0,1.69,1.69,0,0,0-.75.3h0Z" transform="translate(0.27 0.13)"/>
      <path class="cls-3" d="M367.79,105.95a1.38,1.38,0,0,0-.63.5,2,2,0,0,0-.32.82,2.64,2.64,0,0,0,0,.93l0.51,2.68-1.56.3-1.14-6,1.56-.3,0.16,0.82h0a2.06,2.06,0,0,1,.54-0.83,1.77,1.77,0,0,1,.91-0.41h0.55l0.36,1.51A1.35,1.35,0,0,0,367.79,105.95Z" transform="translate(0.27 0.13)"/>
    </g>
    <g>
      <path class="cls-16" d="M505.73,85A52,52,0,0,0,491,63.15a52.18,52.18,0,1,0-73.21,74.38q0.84,0.83,1.73,1.62A52.14,52.14,0,0,0,505.73,85Z" transform="translate(0.27 0.13)"/>
      <path class="cls-10" d="M503.22,82.58a52.1,52.1,0,1,0,.07.2Z" transform="translate(0.27 0.13)"/>
      <path class="cls-4" d="M407.36,116.87A51.59,51.59,0,0,1,450.1,48.45a51.6,51.6,0,0,0,9.06,102.8l0.94-.09A51.51,51.51,0,0,1,407.36,116.87Z" transform="translate(0.27 0.13)"/>
      <path class="cls-17" d="M408.66,113.81c-2.09.64-6.33-17.65,1.31-33.67,6.63-13.9,18.92-22.27,18.92-22.27A59.63,59.63,0,0,0,410,82.67C403.27,99.1,410.73,113.17,408.66,113.81Z" transform="translate(0.27 0.13)"/>
    </g>
    <g>
      <path class="cls-3" d="M189,152.69a2.54,2.54,0,0,1-.24,1,2.19,2.19,0,0,1-.67.8,3,3,0,0,1-1.14.5,2.36,2.36,0,0,1-1.32,0,2.85,2.85,0,0,1-1.13-.71l0.81-1.33a2.47,2.47,0,0,0,.62.46,0.93,0.93,0,0,0,.65.12,0.74,0.74,0,0,0,.45-0.26,0.86,0.86,0,0,0,.16-0.43,2,2,0,0,0,0-.51,1.24,1.24,0,0,0-.1-0.5l-1.82-7.61,1.77-.42,1.84,7.7A4.58,4.58,0,0,1,189,152.69Z" transform="translate(0.27 0.13)"/>
      <path class="cls-3" d="M195.9,151.87l-0.21-.86h0a2,2,0,0,1-.72,1,3,3,0,0,1-1.14.54,3.12,3.12,0,0,1-1.35,0,3.18,3.18,0,0,1-1.17-.49,3.36,3.36,0,0,1-.9-0.91,3.75,3.75,0,0,1-.54-1.25,3.8,3.8,0,0,1-.08-1.34,3.15,3.15,0,0,1,1.21-2.16,3.24,3.24,0,0,1,2.47-.61,2.36,2.36,0,0,1,1.12.5l-0.19-.79,1.65-.39,1.51,6.32Zm-3.7-4.31a1.79,1.79,0,0,0-.47.55,1.91,1.91,0,0,0-.22.7,2.1,2.1,0,0,0,0,.75,2.3,2.3,0,0,0,.3.71,1.74,1.74,0,0,0,.5.52,1.81,1.81,0,0,0,.67.27,1.87,1.87,0,0,0,.8,0,1.91,1.91,0,0,0,.74-0.34,1.77,1.77,0,0,0,.48-0.55,1.82,1.82,0,0,0,.21-0.7,2.34,2.34,0,0,0-.06-0.78,2.09,2.09,0,0,0-.3-0.69,1.87,1.87,0,0,0-.51-0.51,1.73,1.73,0,0,0-.68-0.26,2,2,0,0,0-.8,0,1.8,1.8,0,0,0-.66.34h0Z" transform="translate(0.27 0.13)"/>
      <path class="cls-3" d="M202.32,150.59l-0.77.18-0.86-1-0.9-1.06-1-1.24-1.06-1.3-1-1.19,1.82-.43,2.74,3.53,0.84-4.39,1.82-.43Z" transform="translate(0.27 0.13)"/>
      <path class="cls-3" d="M211,148.26l-0.21-.86h0a2,2,0,0,1-.72,1,3,3,0,0,1-1.14.54,3.12,3.12,0,0,1-1.35,0,3.18,3.18,0,0,1-1.17-.49,3.36,3.36,0,0,1-.9-0.91,3.75,3.75,0,0,1-.54-1.25,3.8,3.8,0,0,1-.08-1.34,3.15,3.15,0,0,1,1.21-2.16,3.24,3.24,0,0,1,2.47-.61,2.36,2.36,0,0,1,1.12.5l-0.19-.79,1.65-.39,1.51,6.32Zm-3.7-4.31a1.79,1.79,0,0,0-.47.55,1.91,1.91,0,0,0-.22.7,2.1,2.1,0,0,0,0,.75,2.3,2.3,0,0,0,.3.71,1.74,1.74,0,0,0,.5.52,1.81,1.81,0,0,0,.67.27,1.87,1.87,0,0,0,.8,0,1.91,1.91,0,0,0,.74-0.34,1.77,1.77,0,0,0,.48-0.55,1.82,1.82,0,0,0,.21-0.7,2.34,2.34,0,0,0-.06-0.78,2.09,2.09,0,0,0-.3-0.69,1.87,1.87,0,0,0-.51-0.51,1.73,1.73,0,0,0-.68-0.26,2,2,0,0,0-.8,0,1.8,1.8,0,0,0-.66.34h0Z" transform="translate(0.27 0.13)"/>
    </g>
  </g>
</svg>
