<svg id="linkedin" xmlns="http://www.w3.org/2000/svg" viewBox="0 0 25 25">
    <defs>
        <style>
            #linkedin .cls-1 {
            fill: #1e88e5;
            }
        </style>
    </defs>
    <g>
        <path class="cls-1" d="M0.82,5a2.91,2.91,0,0,0,2.13.81A3,3,0,0,0,5.08,5a2.48,2.48,0,0,0,.81-2A2.83,2.83,0,0,0,5.08.82,2.91,2.91,0,0,0,2.95,0,3,3,0,0,0,.82.82,2.91,2.91,0,0,0,0,2.95,3,3,0,0,0,.82,5Z" transform="translate(0 0)"/>
        <rect class="cls-1" y="8.33" width="5.39" height="16.67"/>
        <path class="cls-1" d="M25,25V15.24a9.64,9.64,0,0,0-.81-4.06,4.79,4.79,0,0,0-2.24-2.44,6.31,6.31,0,0,0-3.15-.81,5.85,5.85,0,0,0-4.88,2.74V8.33H8.54V25h5.39V15.55a4,4,0,0,1,.2-1.32,2.71,2.71,0,0,1,2.74-1.93c1.83,0,2.74,1.22,2.74,3.56V25H25Z" transform="translate(0 0)"/>
    </g>
</svg>
