<svg id="aa_vision_img" xmlns="http://www.w3.org/2000/svg" viewBox="0 0 481.89 445.84" preserveAspectRatio="xMinYMin slice">
  <defs>
    <style>
      #aa_vision_img .cls-1, #aa_vision_img .cls-7 {
        fill: #b3e0db;
      }

      #aa_vision_img .cls-1 {
        opacity: 0.2;
      }

      #aa_vision_img .cls-1, #aa_vision_img .cls-9 {
        isolation: isolate;
      }

      #aa_vision_img .cls-2 {
        fill: #05bbd3;
      }

      #aa_vision_img .cls-3 {
        fill: #0297a7;
      }

      #aa_vision_img .cls-4 {
        fill: #007177;
      }

      #aa_vision_img .cls-5 {
        fill: #5ac7da;
      }

      #aa_vision_img .cls-6 {
        fill: #f1f2f2;
      }

      #aa_vision_img .cls-8 {
        fill: #ffecb2;
      }

      #aa_vision_img .cls-9 {
        fill: #3c2415;
        opacity: 0.15;
      }
    </style>
  </defs>
  <title>Agile Actors vision image</title>
  <g>
    <path class="cls-1" d="M220.6,392.73c-1,27.84,56.92,50.59,129,52.89s131.31-16.51,132.27-44.35-56.83-52.41-129-54.81S221.55,364.8,220.6,392.73Z" transform="translate(0 0.02)"/>
    <path class="cls-2" d="M409.89,435.92l-10.75,1.34-44-127.19c8.35-1.63,15.65-6,23.52-8.26Z" transform="translate(0 0.02)"/>
    <path class="cls-3" d="M444.06,161.3C446.84,77.5,397.41,7.33,332.52.51c2.3-.1,4.7-0.1,7.1,0,1.25,0,2.5.1,3.74,0.19C409.89,5.41,461,76.54,458.17,161.78S399.81,314.69,333.1,315.07h-3.74c-2.4-.1-4.7-0.29-7.1-0.48C387.52,312,441.37,245.19,444.06,161.3Z" transform="translate(0 0.02)"/>
    <path class="cls-4" d="M453.37,378.43l-10.75,1.34-33.79-97.72a155.22,155.22,0,0,0,17.37-20.35Z" transform="translate(0 0.02)"/>
    <path class="cls-2" d="M325.51,0c1.25,0,2.5.1,3.74,0.19l3.26,0.29c64.89,6.82,114.23,77,111.54,160.78S387.43,311.9,322.25,314.5c-1.06,0-2.21.1-3.26,0.1h-3.74c-68.35-2.21-121.43-74.49-118.55-161.26C199.48,66.36,257.17-2.18,325.51,0Z" transform="translate(0 0.02)"/>
    <path class="cls-5" d="M285.77,309L243.34,409.72l-10.65-2.11,32.83-108.18A105.39,105.39,0,0,0,285.77,309Z" transform="translate(0 0.02)"/>
    <path class="cls-6" d="M221.36,154c-2.3,69.5,40.22,127.28,94.84,129S417,229.93,419.29,160.43,379.17,33.24,324.46,31.52,223.67,84.6,221.36,154Z" transform="translate(0 0.02)"/>
    <path class="cls-2" d="M246.13,154.86c-1.73,52.12,30.14,95.41,71.13,96.76s75.64-39.84,77.37-92S364.48,64.25,323.5,62.91,247.86,102.74,246.13,154.86Z" transform="translate(0 0.02)"/>
    <path class="cls-6" d="M270.89,155.63c-1.15,34.75,20.06,63.64,47.42,64.51s50.39-26.59,51.55-61.24S349.8,95.25,322.44,94.39,271.95,120.88,270.89,155.63Z" transform="translate(0 0.02)"/>
    <ellipse class="cls-2" cx="320.34" cy="157.28" rx="30.53" ry="24.09" transform="translate(152.66 472.33) rotate(-88.13)"/>
    <g>
      <path class="cls-3" d="M278.09,165.9a3.75,3.75,0,0,0,4.51-2.78l7.2-30.72a3.7,3.7,0,0,0-2.78-4.51L11.82,63.48A3.75,3.75,0,0,0,7.3,66.27L0.11,97a3.7,3.7,0,0,0,2.78,4.51Z" transform="translate(0 0.02)"/>
      <path class="cls-6" d="M24.29,106.58l-21.41-5A3.75,3.75,0,0,1,.11,97.08L7.3,66.36a3.67,3.67,0,0,1,4.51-2.78l21.41,5Z" transform="translate(0 0.02)"/>
      <rect class="cls-7" x="5.44" y="82.71" width="39.16" height="7.68" transform="matrix(0.23, -0.97, 0.97, 0.23, -64.96, 91.15)"/>
      <path class="cls-8" d="M272.53,158.61l8.74-6.24-5.57-7.1,8.45-5.09-4.7-8.54L287,127.8s31.29,11.71,28,25.73-37,12.38-37,12.38Z" transform="translate(0 0.02)"/>
      <polygon class="cls-7" points="311.3 142.98 306.79 162.18 325.7 155.46 311.3 142.98"/>
      <path class="cls-9" d="M0.11,97L3.56,82.2,322,156.69l-15.07,5.38,0.1-.38c-9,4.13-22.75,4.22-27.36,4.13a4.12,4.12,0,0,1-1.54,0L24.29,106.58l-7.49-1.73L3,101.59A3.83,3.83,0,0,1,.11,97Z" transform="translate(0 0.02)"/>
    </g>
  </g>
</svg>
