<svg id="become_agile_actor_hero_img" xmlns="http://www.w3.org/2000/svg" xmlns:xlink="http://www.w3.org/1999/xlink" viewBox="0 0 1600.55 490.33" xml:space="preserve" width="100%" height="100%" preserveAspectRatio="xMidYMax slice">
  <defs>
    <style>
      .cls-1 {
        fill: #3949ab;
      }

      .cls-2 {
        opacity: 0.8;
      }

      .cls-3 {
        fill: #a0a8d5;
      }

      .cls-4 {
        opacity: 0.6;
        fill: url(#linear-gradient);
      }

      .cls-4, .cls-6, .cls-7, .cls-8 {
        isolation: isolate;
      }

      .cls-5, .cls-7, .cls-8 {
        fill: #fff;
      }

      .cls-6 {
        fill: #5e6bb2;
        opacity: 0.3;
      }

      .cls-10, .cls-7 {
        opacity: 0.4;
      }

      .cls-8 {
        opacity: 0.2;
      }

      .cls-9 {
        fill: #ffecb2;
      }

      .cls-11 {
        opacity: 0.3;
      }

      .cls-12 {
        fill: #ffd54f;
      }

      .cls-13 {
        fill: #f9a823;
      }
    </style>
    <linearGradient id="linear-gradient" x1="800.5" y1="0.95" x2="800.5" y2="491.28" gradientTransform="matrix(1, 0, 0, -1, 0, 491.28)" gradientUnits="userSpaceOnUse">
      <stop offset="0" stop-color="#b3e0db"/>
      <stop offset="0.17" stop-color="#b0dcd9"/>
      <stop offset="0.36" stop-color="#a6cfd5"/>
      <stop offset="0.55" stop-color="#97b9cd"/>
      <stop offset="0.74" stop-color="#819bc3"/>
      <stop offset="0.94" stop-color="#6575b6"/>
      <stop offset="0.99" stop-color="#5e6bb2"/>
    </linearGradient>
  </defs>
  <title>Vector Smart Object4</title>
  <rect class="cls-1" width="1600" height="490.33"/>
  <g class="cls-2">
    <rect class="cls-3" width="1600" height="490.33"/>
    <rect class="cls-4" x="1" width="1599" height="490.33"/>
  </g>
  <path class="cls-5" d="M800.5,102.49" transform="translate(0 0)"/>
  <path class="cls-6" d="M943.29,480.42c0-78.37-63.76-142.16-142.16-142.16S659,402,659,480.42c0,3.34.16,6.63,0.38,9.91H942.91C943.14,487.06,943.29,483.76,943.29,480.42Z" transform="translate(0 0)"/>
  <path class="cls-6" d="M353,485.13v5.21h74.72c0-1.74-.07-3.47-0.07-5.21,0-205.89,167.51-373.42,373.42-373.42s373.42,167.53,373.42,373.42c0,1.74,0,3.47-.07,5.21h74.72v-5.21C1249.24,237.64,1048.61,37,801.13,37h-0.25C553.51,37.16,353,237.73,353,485.13Z" transform="translate(0 0)"/>
  <path class="cls-6" d="M577.08,485.13c0-123.53,100.52-224,224-224s224.05,100.52,224.05,224c0,1.74,0,3.48-.07,5.21h74.68c0-1.73.07-3.47,0.07-5.21,0-165-133.74-298.74-298.74-298.74S502.39,320.15,502.39,485.13c0,1.74,0,3.47.07,5.21h74.68C577.1,488.6,577.08,486.87,577.08,485.13Z" transform="translate(0 0)"/>
  <path class="cls-7" d="M154.27,121.28a20.06,20.06,0,0,0-33.59-14.85A29.31,29.31,0,0,0,64.3,121.57a22.11,22.11,0,0,0-18.68,21.5H176.39A22.12,22.12,0,0,0,154.27,121.28Z" transform="translate(0 0)"/>
  <path class="cls-8" d="M270.43,81.18h-3.71a21.22,21.22,0,0,0-42.26,0h-3.71a12.69,12.69,0,0,0-12.67,12.08h75A12.69,12.69,0,0,0,270.43,81.18Z" transform="translate(0 0)"/>
  <path class="cls-7" d="M1477.54,122.22h-6.37a36.46,36.46,0,0,0-72.6,0h-6.37A21.81,21.81,0,0,0,1370.42,143h128.9A21.81,21.81,0,0,0,1477.54,122.22Z" transform="translate(0 0)"/>
  <path class="cls-8" d="M1573.47,82.16h-3.71a12.69,12.69,0,0,0-12.67,12.08h43.47V63.75A21.24,21.24,0,0,0,1573.47,82.16Z" transform="translate(0 0)"/>
  <g>
    <path class="cls-9" d="M1132.87,421.61l-3.2-10.52a10.83,10.83,0,0,1,12.22,4.22Z" transform="translate(0 0)"/>
    <path class="cls-9" d="M1132.22,423.57l-11-.21A10.83,10.83,0,0,1,1129,413Z" transform="translate(0 0)"/>
    <path class="cls-9" d="M1132.22,423.57l4.64,10a11,11,0,0,1-14.61-5.34,10.81,10.81,0,0,1-1-4.84Z" transform="translate(0 0)"/>
    <path class="cls-9" d="M1132.22,423.57l10.19,4.13a10.54,10.54,0,0,1-5.56,5.84Z" transform="translate(0 0)"/>
    <path class="cls-9" d="M1132.22,423.57l9-6.3a10.59,10.59,0,0,1,1.18,10.43Z" transform="translate(0 0)"/>
  </g>
  <g>
    <path class="cls-9" d="M1054.58,266.35l-22.46.2-0.25-28.35,17.36-.15,5.14,5.8Zm-21.68-.59,20.89-.18-0.19-21.44-4.69-5.37-16.25.14Z" transform="translate(0 0)"/>
    <rect class="cls-9" x="1048.69" y="238.43" width="0.55" height="5.89" transform="translate(-2.07 9.16) rotate(-0.5)"/>
    <rect class="cls-9" x="1049.07" y="242.65" width="5.34" height="0.55" transform="translate(-2.38 10.53) rotate(-0.57)"/>
    <rect class="cls-9" x="1035.64" y="247.68" width="8.79" height="1.1" transform="translate(-2.13 9.09) rotate(-0.5)"/>
    <rect class="cls-9" x="1035.65" y="249.86" width="15.08" height="1.02" transform="translate(-2.15 9.11) rotate(-0.5)"/>
    <rect class="cls-9" x="1035.67" y="252.14" width="15.08" height="1.1" transform="translate(-2.17 9.11) rotate(-0.5)"/>
  </g>
  <g>
    <g>
      <path class="cls-9" d="M485.7,435.16l-21.28.1-0.13-26.87,16.45-.08,4.86,5.55Zm-20.54-.57,19.87-.1-0.1-20.37-4.5-5.14-15.4.08Z" transform="translate(0 0)"/>
      <rect class="cls-9" x="480.21" y="408.62" width="0.52" height="5.58" transform="translate(-2 2.35) rotate(-0.28)"/>
      <rect class="cls-9" x="480.23" y="413.9" width="4.99" height="0.52" transform="translate(-2.02 2.36) rotate(-0.28)"/>
      <rect class="cls-9" x="467.82" y="417.45" width="8.41" height="0.97" transform="translate(-2.04 2.31) rotate(-0.28)"/>
      <rect class="cls-9" x="467.83" y="419.45" width="14.29" height="1.12" transform="translate(-2.05 2.33) rotate(-0.28)"/>
      <rect class="cls-9" x="467.84" y="421.68" width="14.29" height="0.97" transform="translate(-2.06 2.33) rotate(-0.28)"/>
    </g>
    <polygon class="cls-9" points="463.19 427.14 463.12 412.59 463.09 407.28 483.04 407.19 483.06 411.65 483.65 411.65 483.63 406.51 462.42 406.62 462.45 412.59 462.52 427.15 462.55 433.19 464.41 433.18 464.4 432.43 463.21 432.44 463.19 427.14"/>
    <polygon class="cls-9" points="461.32 425.01 461.25 410.46 461.22 405.21 481.09 405.11 481.1 406.67 481.77 406.67 481.76 404.36 460.62 404.47 460.65 410.46 460.72 425.01 460.75 430.96 462.54 430.95 462.53 430.36 461.34 430.36 461.32 425.01"/>
  </g>
  <g>
    <path class="cls-9" d="M571.29,238.22l0.23,0.72,2.46-.79c-0.14.17-.26,0.32-0.36,0.47l-6.87,7.95a1,1,0,0,0-1.22.37l-5-1.89a1,1,0,0,0-2,.56l-6.06,7a1,1,0,0,0-1.29.33l-4.91-1.62a1,1,0,1,0-2,.51L540,256.16a1,1,0,0,0-.33-0.06,1.05,1.05,0,1,0,.9.52l4.18-4.24a1,1,0,0,0,1.37-.34l4.87,1.61a1,1,0,1,0,2-.51l6.09-7.05a1,1,0,0,0,1.2-.34l5,1.9a1,1,0,1,0,2-.6l7-8h0l0.14-.16L574,241l0.75,0.14,0.83-4.3Z" transform="translate(0 0)"/>
    <rect class="cls-9" x="546.57" y="262.83" width="2.81" height="2.91"/>
    <rect class="cls-9" x="550.67" y="259.9" width="2.81" height="5.85"/>
    <rect class="cls-9" x="554.79" y="257.48" width="2.81" height="8.26"/>
    <rect class="cls-9" x="558.93" y="253.81" width="2.81" height="11.94"/>
    <rect class="cls-9" x="563.15" y="250.64" width="2.81" height="15.11"/>
    <path class="cls-9" d="M798.91,168.24v-6.85h-4.39a3.36,3.36,0,0,1-3.35-3.37V147.41a3.37,3.37,0,0,1,3.34-3.4h17.3a3.39,3.39,0,0,1,3.38,3.4h0V158a3.39,3.39,0,0,1-3.38,3.39h-6.66Zm-4.39-22.54a1.67,1.67,0,0,0-1.65,1.69V158a1.67,1.67,0,0,0,1.64,1.7h6.16v4.16l3.72-4.16h7.41a1.69,1.69,0,0,0,1.69-1.69h0V147.41a1.7,1.7,0,0,0-1.69-1.71H794.52Z" transform="translate(0 0)"/>
    <path class="cls-9" d="M790,154.17h-1.91a1.69,1.69,0,0,1-1.7-1.68h0V141.9a1.66,1.66,0,0,1,1.67-1.65h17.32a1.61,1.61,0,0,1,1.62,1.6s0,0,0,.05v0.93h1.77V141.9a3.44,3.44,0,0,0-3.41-3.42H788.08a3.42,3.42,0,0,0-3.39,3.42v10.59a3.38,3.38,0,0,0,3.38,3.38H790v-1.69h0Z" transform="translate(0 0)"/>
  </g>
  <g class="cls-10">
    <path class="cls-5" d="M1428.29,158.37a0.91,0.91,0,0,1-.67.28,0.93,0.93,0,0,1-.68-0.28,0.9,0.9,0,0,1-.29-0.67,0.92,0.92,0,0,1,.07-0.37,0.94,0.94,0,0,1,.2-0.3,1,1,0,0,1,.3-0.21,0.9,0.9,0,0,1,.37-0.08,1,1,0,0,1,.74,1.59Zm-1.46,7.51v-6h1.55v6h-1.55Z" transform="translate(0 0)"/>
    <path class="cls-5" d="M1439.19,163.14a4.74,4.74,0,0,1-2.62,2.6,5.33,5.33,0,0,1-3.91,0,4.84,4.84,0,0,1-1.58-1,4.79,4.79,0,0,1-1.05-1.56,5,5,0,0,1-.38-2,4.34,4.34,0,0,1,.41-1.87,4.83,4.83,0,0,1,1.09-1.5,5.09,5.09,0,0,1,6.93,0,4.77,4.77,0,0,1,1.09,1.49,4.34,4.34,0,0,1,.41,1.87A5,5,0,0,1,1439.19,163.14Zm-1.62-3.13a3.32,3.32,0,0,0-.69-1,3.27,3.27,0,0,0-1-.68,3.13,3.13,0,0,0-1.24-.25,3.18,3.18,0,0,0-1.25.25,3.26,3.26,0,0,0-1,.68,3.32,3.32,0,0,0-.69,1,2.81,2.81,0,0,0-.26,1.18,3.32,3.32,0,0,0,1.95,3,3.06,3.06,0,0,0,1.24.26,3.11,3.11,0,0,0,1.25-.26,3.23,3.23,0,0,0,1-.7,3.15,3.15,0,0,0,.95-2.3,2.81,2.81,0,0,0-.26-1.19h0Z" transform="translate(0 0)"/>
    <path class="cls-5" d="M1446.45,164.24a2.43,2.43,0,0,1-.7,1,3.14,3.14,0,0,1-1.1.63,4.08,4.08,0,0,1-1.27.2,3.78,3.78,0,0,1-1.69-.38,4.14,4.14,0,0,1-1.34-1l0.83-1.25a3.56,3.56,0,0,0,.93.89,2.18,2.18,0,0,0,1.23.35,1.87,1.87,0,0,0,.6-0.1,1.62,1.62,0,0,0,.52-0.28,1.36,1.36,0,0,0,.36-0.44,1.27,1.27,0,0,0,.13-0.59,0.87,0.87,0,0,0-.16-0.53,1.53,1.53,0,0,0-.41-0.38,2.92,2.92,0,0,0-.52-0.27l-0.51-.19q-0.51-.18-1-0.4a3.72,3.72,0,0,1-.81-0.5,2.2,2.2,0,0,1-.56-0.69,2.07,2.07,0,0,1-.21-1,3,3,0,0,1,.21-1.14,2.57,2.57,0,0,1,.59-0.88,2.64,2.64,0,0,1,.9-0.57,3.17,3.17,0,0,1,1.14-.2,3.9,3.9,0,0,1,.71.07,4.17,4.17,0,0,1,1.35.51,3.9,3.9,0,0,1,.57.4l-0.74,1.25a2.47,2.47,0,0,0-.74-0.58,2.07,2.07,0,0,0-.95-0.22,1.42,1.42,0,0,0-.48.09,1.37,1.37,0,0,0-.42.24,1.16,1.16,0,0,0-.29.36,1,1,0,0,0-.11.47,0.79,0.79,0,0,0,.13.46,1.25,1.25,0,0,0,.32.32,2.18,2.18,0,0,0,.42.23l0.43,0.19,1.07,0.47a6.09,6.09,0,0,1,.71.36,2.39,2.39,0,0,1,.56.46,2,2,0,0,1,.37.61,2.19,2.19,0,0,1,.13.8A3.57,3.57,0,0,1,1446.45,164.24Z" transform="translate(0 0)"/>
  </g>
  <g class="cls-10">
    <path class="cls-5" d="M92.26,168.33a3.16,3.16,0,0,1-.89,1,3.8,3.8,0,0,1-1.26.62,5.34,5.34,0,0,1-1.46.2,4.92,4.92,0,0,1-2-.42,4.47,4.47,0,0,1-1.6-1.2l1.12-1.6a3.53,3.53,0,0,0,1.12.94,2.92,2.92,0,0,0,1.43.39,1.71,1.71,0,0,0,1-.33,1,1,0,0,0,.46-0.91,0.78,0.78,0,0,0-.15-0.48,1.26,1.26,0,0,0-.38-0.33,2.76,2.76,0,0,0-.53-0.23l-0.63-.19-0.31-.1-0.31-.12a6.08,6.08,0,0,1-.76-0.33,2.76,2.76,0,0,1-.67-0.47,2.19,2.19,0,0,1-.47-0.68,2.31,2.31,0,0,1-.18-1,2.71,2.71,0,0,1,.31-1.32,2.89,2.89,0,0,1,.82-0.94,3.67,3.67,0,0,1,1.15-.57,4.65,4.65,0,0,1,1.32-.19,4.86,4.86,0,0,1,1.54.25,4.53,4.53,0,0,1,1.35.71l-1,1.52a2.4,2.4,0,0,0-.8-0.52,2.51,2.51,0,0,0-1-.19,1.53,1.53,0,0,0-.42.07,1.64,1.64,0,0,0-.41.18,1.1,1.1,0,0,0-.31.29,0.67,0.67,0,0,0-.13.4,0.68,0.68,0,0,0,.14.43,1.13,1.13,0,0,0,.36.3,3,3,0,0,0,.46.2l0.46,0.14a10.05,10.05,0,0,1,1.07.35,3.53,3.53,0,0,1,.94.52,2.38,2.38,0,0,1,.7.83,2.67,2.67,0,0,1,.26,1.23A3,3,0,0,1,92.26,168.33Z" transform="translate(0 0)"/>
    <path class="cls-5" d="M98.9,170.19a5.23,5.23,0,0,1-2-.38,5,5,0,0,1-1.61-1,4.88,4.88,0,0,1-1.48-3.54,5.17,5.17,0,0,1,.4-2,5,5,0,0,1,1.09-1.62,4.88,4.88,0,0,1,1.7-1.13,5.48,5.48,0,0,1,2-.38,5,5,0,0,1,1.38.19,4.46,4.46,0,0,1,1.26.6v2.28a4.37,4.37,0,0,0-1.09-.74,2.9,2.9,0,0,0-1.26-.28,2.83,2.83,0,0,0-1.15.23,2.89,2.89,0,0,0-.93.64,2.93,2.93,0,0,0-.62.94,3,3,0,0,0-.22,1.16,3.09,3.09,0,0,0,.22,1.17,3,3,0,0,0,.61,1,2.76,2.76,0,0,0,.93.64,3,3,0,0,0,1.18.23,3.11,3.11,0,0,0,1.28-.28,3.5,3.5,0,0,0,1.11-.78v2.28A5.14,5.14,0,0,1,98.9,170.19Z" transform="translate(0 0)"/>
    <path class="cls-5" d="M108.46,162.47a2.15,2.15,0,0,0-1.12.59,3.12,3.12,0,0,0-.73,1.17,4.12,4.12,0,0,0-.26,1.44v4.26h-2.49v-9.49h2.49v1.31h0a3.22,3.22,0,0,1,1.08-1.12,2.76,2.76,0,0,1,1.52-.37,0.32,0.32,0,0,1,.15,0h0.73v2.51A2.1,2.1,0,0,0,108.46,162.47Z" transform="translate(0 0)"/>
    <path class="cls-5" d="M119.81,167.83a3.09,3.09,0,0,1-.8,1.26,3.66,3.66,0,0,1-1.5.84,6.64,6.64,0,0,1-1.89.26,7.08,7.08,0,0,1-1.91-.25,3.46,3.46,0,0,1-1.51-.85,2.94,2.94,0,0,1-.8-1.25,5.44,5.44,0,0,1-.24-1.7v-5.73h2.49v5.19a7.1,7.1,0,0,0,.07,1,2.25,2.25,0,0,0,.27.82,1.42,1.42,0,0,0,.6.55,2.73,2.73,0,0,0,2.06,0,1.49,1.49,0,0,0,.61-0.55,2.13,2.13,0,0,0,.28-0.82,7.1,7.1,0,0,0,.07-1v-5.19h2.45v5.71A5.41,5.41,0,0,1,119.81,167.83Z" transform="translate(0 0)"/>
    <path class="cls-5" d="M134.55,169.92v-6a2.55,2.55,0,0,0-.19-0.85,1.55,1.55,0,0,0-.49-0.64,1.47,1.47,0,0,0-.91-0.25,1.82,1.82,0,0,0-1,.26,1.7,1.7,0,0,0-.59.68,2.79,2.79,0,0,0-.26.92,8.7,8.7,0,0,0-.06,1v4.9H128.6v-6a2.83,2.83,0,0,0-.21-0.9,1.64,1.64,0,0,0-.51-0.67,1.53,1.53,0,0,0-1-.26,1.5,1.5,0,0,0-1,.3,1.89,1.89,0,0,0-.54.74,3.32,3.32,0,0,0-.23,1q0,0.53,0,1v4.8h-2.49v-9.51H125v1.2a3.2,3.2,0,0,1,2.77-1.47,3.6,3.6,0,0,1,1.77.43,3.06,3.06,0,0,1,1.25,1.34,3.18,3.18,0,0,1,1.28-1.32,3.63,3.63,0,0,1,1.78-.45,3.5,3.5,0,0,1,1.51.29,2.52,2.52,0,0,1,1,.79,3.06,3.06,0,0,1,.51,1.19,7.24,7.24,0,0,1,.14,1.49v6h-2.46Z" transform="translate(0 0)"/>
  </g>
  <g class="cls-11">
    <path class="cls-5" d="M239.82,115.77a4.39,4.39,0,0,1-1.33.2,5.08,5.08,0,0,1-1.93-.37,5.37,5.37,0,0,1-1.61-1,4.61,4.61,0,0,1-1.14-1.6,5,5,0,0,1-.39-2,4.9,4.9,0,0,1,.37-1.88,4.79,4.79,0,0,1,1-1.58,5,5,0,0,1,1.64-1.13,4.93,4.93,0,0,1,2-.41,4.54,4.54,0,0,1,1.37.21,5.83,5.83,0,0,1,1.27.58V109a3.13,3.13,0,0,0-1.16-.91,3.35,3.35,0,0,0-1.44-.33,3.17,3.17,0,0,0-1.3.27,3.22,3.22,0,0,0-1.72,1.77,3.4,3.4,0,0,0-.25,1.29,3.18,3.18,0,0,0,.94,2.28,3.48,3.48,0,0,0,1,.72,3.12,3.12,0,0,0,1.29.27,3.29,3.29,0,0,0,1.41-.33,3.37,3.37,0,0,0,1.17-.89v2.14A7.63,7.63,0,0,1,239.82,115.77Z" transform="translate(0 0)"/>
    <path class="cls-5" d="M246.67,113.22v2.56h-1.39v-2.54h-2.55v-1.38h2.54V109.3h1.4v2.54h2.55v1.38h-2.55Z" transform="translate(0 0)"/>
    <path class="cls-5" d="M255,113.22v2.56h-1.39v-2.54h-2.55v-1.38h2.54V109.3H255v2.54h2.55v1.38H255Z" transform="translate(0 0)"/>
  </g>
  <polygon class="cls-12" points="809.97 490.33 772.45 425.37 734.94 490.33 809.97 490.33"/>
  <polygon class="cls-12" points="866.06 490.33 809.97 393.19 753.87 490.33 866.06 490.33"/>
  <polygon class="cls-13" points="753.87 490.33 809.97 490.33 781.93 441.77 753.87 490.33"/>
</svg>
