<svg width="501px" height="357px" viewBox="0 0 501 357" version="1.1" xmlns="http://www.w3.org/2000/svg" xmlns:xlink="http://www.w3.org/1999/xlink">
  <!-- Generator: sketchtool 40 (33762) - http://www.bohemiancoding.com/sketch -->
  <title>4126B253-0443-442F-BE62-9630F035CAB4</title>
  <desc>Created with sketchtool.</desc>
  <defs>
    <polygon id="path-1" points="43.6502857 36.057943 43.6502857 0.348348778 0.255647241 0.348348778 0.255647241 36.057943 43.6502857 36.057943"></polygon>
    <polygon id="path-3" points="26.372948 26.6878159 26.372948 0.331865583 0.0321945431 0.331865583 0.0321945431 26.6878159 26.372948 26.6878159"></polygon>
  </defs>
  <g id="Desktop" stroke="none" stroke-width="1" fill="none" fill-rule="evenodd">
    <g id="ABOUT" transform="translate(-969.000000, -1185.000000)">
      <g id="Group" transform="translate(553.000000, 681.000000)">
        <g id="Page-1" transform="translate(416.000000, 504.000000)">
          <g id="illustration">
            <g id="Group-5" transform="translate(0.000000, 43.000000)">
              <path d="M173.060683,303.068089 C173.060683,299.59806 170.245514,296.780057 166.778976,296.780057 C163.32136,296.780057 160.497269,299.59806 160.497269,303.068089 C160.497269,306.529187 163.32136,309.356122 166.778976,309.356122 C170.245514,309.356122 173.060683,306.529187 173.060683,303.068089 L173.060683,303.068089 Z M166.778976,292.814309 C172.436081,292.814309 177.022441,297.405287 177.022441,303.068089 C177.022441,308.72196 172.436081,313.32187 166.778976,313.32187 C161.130793,313.32187 156.53551,308.72196 156.53551,303.068089 C156.53551,297.405287 161.130793,292.814309 166.778976,292.814309 L166.778976,292.814309 Z" id="Fill-1" fill="#FFCA28"></path>
              <path d="M86.0773329,254.198733 C87.3399203,255.462591 88.6828136,256.659461 90.1238586,257.749149 C88.6828136,258.852234 87.3399203,260.035706 86.0773329,261.299565 C84.8147455,262.563424 83.632464,263.925533 82.5304884,265.350165 C81.4285128,263.925533 80.2462313,262.563424 78.9836439,261.299565 C77.7165951,260.035706 76.3737018,258.852234 74.9371182,257.749149 C76.3737018,256.659461 77.7165951,255.462591 78.9836439,254.198733 C80.2462313,252.948271 81.4285128,251.590628 82.5304884,250.16153 C83.632464,251.590628 84.8147455,252.948271 86.0773329,254.198733" id="Fill-3" fill="#26C6DA"></path>
              <path d="M30.0157751,64.5734629 C21.2312005,64.5734629 14.0839742,71.7278864 14.0839742,80.521307 C14.0839742,89.3147276 21.2312005,96.469151 30.0157751,96.469151 C38.8003497,96.469151 45.9475759,89.3147276 45.9475759,80.521307 C45.9475759,71.7278864 38.8003497,64.5734629 30.0157751,64.5734629" id="Fill-7" fill="#26C6DA"></path>
              <polygon id="Fill-9" fill="#FFCA28" points="9.97989594 5.86744376 9.97989594 0.660166759 6.01813757 0.660166759 6.01813757 5.86744376 0.816098984 5.86744376 0.816098984 9.8331916 6.01813757 9.8331916 6.01813757 15.0538664 9.97989594 15.0538664 9.97989594 9.8331916 15.1908574 9.8331916 15.1908574 5.86744376"></polygon>
              <path d="M145.040611,143.185035 L142.881274,139.85345 L145.040611,143.185035 L146.102434,142.501748 L145.040611,143.185035 Z M144.018941,151.991854 C143.327418,155.247518 141.404538,158.043192 138.611677,159.85636 C136.57726,161.164879 134.239466,161.861564 131.843673,161.861564 C127.591921,161.861564 123.679238,159.726848 121.368213,156.158568 C119.556868,153.362895 118.941189,150.026844 119.637174,146.766713 C120.33762,143.502117 122.2605,140.715375 125.057823,138.902206 C127.078855,137.589222 129.41665,136.897003 131.812443,136.897003 C136.073117,136.897003 139.9858,139.027252 142.296826,142.599998 C144.10817,145.395672 144.723849,148.727257 144.018941,151.991854 L144.018941,151.991854 Z M267.694509,83.0423257 L268.528798,79.1524988 L249.978132,75.1867509 L247.24327,74.6017138 L244.490561,74.0122107 L243.120899,74.8964653 L235.65245,79.7375359 L239.627592,61.1815874 L235.750601,60.3464581 L230.954554,82.7833017 L223.486104,87.6243722 L227.456785,69.0639578 L223.584255,68.2332944 L218.779285,90.6656721 L163.943731,126.205561 L144.44724,138.839683 C144.625697,139.054048 144.777386,139.290742 144.942459,139.514039 C144.777386,139.290742 144.625697,139.054048 144.44724,138.839683 C141.346539,135.11063 136.755718,132.931255 131.812443,132.931255 C128.653743,132.931255 125.570889,133.842305 122.907409,135.566155 C119.217799,137.959895 116.683701,141.639823 115.760183,145.931584 C114.850049,150.22781 115.653108,154.63122 118.039979,158.32008 C121.08268,163.022706 126.244566,165.827312 131.843673,165.827312 C135.015756,165.827312 138.09415,164.916262 140.76209,163.179014 C144.44724,160.798672 146.981337,157.118744 147.895932,152.826983 C148.676684,149.17385 148.221618,145.467127 146.606576,142.171269 L166.335062,129.389771 L220.938622,94.0017235 L243.352894,98.8115325 L244.182722,94.9217055 L225.64544,90.9559577 L233.11389,86.1148871 L255.528163,90.9246962 L256.349068,87.0393351 L237.811786,83.0691213 L245.284698,78.2325167 L267.694509,83.0423257 Z" id="Fill-11" fill="#26C6DA"></path>
              <polygon id="Fill-18" stroke="#1976D2" stroke-width="0.5" fill="#1976D2" points="236.23556 200.826823 243.164175 217.842025 244.35538 217.355238 237.913061 201.53244"></polygon>
              <polygon id="Fill-20" stroke="#1976D2" fill="#1976D2" points="236.139639 197.180836 236.978389 196.836959 235.314272 196.135808 234.466599 196.479684 234.805668 197.31928 235.372271 197.555974 236.478708 198.020431"></polygon>
              <path d="M214.045698,159.569201 L215.317208,159.747838 C216.834097,147.560309 215.642893,135.024437 211.872976,123.386218 L210.659465,123.806016 C214.36246,135.234336 215.531357,147.564775 214.045698,159.569201" id="Fill-22" stroke="#1976D2" stroke-width="0.5" fill="#1976D2"></path>
              <path d="M207.950479,33.6857357 C209.980434,33.6857357 211.631166,35.3381307 211.631166,37.3745958 C211.631166,39.4110609 209.980434,41.0634558 207.950479,41.0634558 C205.916062,41.0634558 204.26533,39.4110609 204.26533,37.3745958 C204.26533,35.3381307 205.916062,33.6857357 207.950479,33.6857357 M207.950479,42.3541102 C210.689803,42.3541102 212.920522,40.1211441 212.920522,37.3745958 C212.920522,34.6325134 210.689803,32.3995472 207.950479,32.3995472 C205.206693,32.3995472 202.975974,34.6325134 202.975974,37.3745958 C202.975974,40.1211441 205.206693,42.3541102 207.950479,42.3541102" id="Fill-24" fill="#1976D2"></path>
              <g id="Group-28" transform="translate(239.371945, 193.048503)">
                <mask id="mask-2" fill="white">
                  <use xlink:href="#path-1"></use>
                </mask>
                <g id="Clip-27"></g>
                <polygon id="Fill-26" stroke="#1976D2" stroke-width="0.5" fill="#1976D2" mask="url(#mask-2)" points="43.6520703 7.17229325 43.1657734 5.97988934 22.6565355 14.3401145 10.9764866 9.41865717 30.2855972 1.54521862 29.7993003 0.348348778 9.29006245 8.70857394 1.09885933 5.25640832 0.255647241 5.59581917 0.603639531 6.44881223 8.80376553 9.90990972 17.1600419 30.4219365 18.3467849 29.9396158 10.4768054 10.6110611 22.1657772 15.5325184 30.5131307 36.057943 31.6998736 35.5711564 23.838817 16.2381357 35.6839392 21.226582 36.1836204 20.04311 24.3295754 15.0412659"></polygon>
              </g>
              <polygon id="Fill-29" stroke="#1976D2" stroke-width="0.5" fill="#1976D2" points="256.298654 188.959948 255.816818 187.767544 238.827656 194.698671 240.487312 195.399822"></polygon>
              <path d="M231.316376,195.849988 L230.977307,195.010393 L231.695599,194.715641 L231.695599,194.711175 L231.82498,194.657584 L193.179991,178.374795 C192.99261,178.772263 192.80523,179.160799 192.617849,179.540403 L209.85239,186.802009 L230.843464,195.649021 L230.843464,195.649021 L231.316376,195.849988 Z" id="Fill-31" stroke="#1976D2" stroke-width="0.5" fill="#1976D2"></path>
              <polygon id="Fill-33" fill="#1976D2" points="231.055462 195.733849 230.843464 195.649021 230.843464 195.649021"></polygon>
              <path d="M193.873298,129.502759 L192.664248,129.91809 C201.448823,157.34338 190.772598,187.309786 166.524674,203.020935 C142.928119,218.325685 111.742657,216.244561 90.4080523,198.028023 L89.5514559,198.992664 C101.289504,209.023148 116.275479,214.538575 131.854826,214.538575 C144.467316,214.538575 156.696122,210.930101 167.220658,204.110623 C176.464761,198.117342 184.080438,189.859833 189.251247,180.217885 L189.38509,179.945463 L189.380629,179.945463 L189.434166,179.842747 L190.121228,178.431512 L190.139073,178.440444 C190.304147,178.118897 190.464758,177.783952 190.62537,177.444541 L190.620909,177.444541 L191.241049,176.153887 L191.370431,175.863601 L191.379354,175.863601 L191.52212,175.564384 C197.910901,161.018843 198.749652,144.682462 193.873298,129.502759" id="Fill-35" stroke="#1976D2" stroke-width="0.5" fill="#1976D2"></path>
              <path d="M187.904338,37.375489 C187.904338,39.4119541 186.253606,41.064349 184.219189,41.064349 C182.184773,41.064349 180.53404,39.4119541 180.53404,37.375489 C180.53404,35.3390238 182.184773,33.6866289 184.219189,33.6866289 C186.253606,33.6866289 187.904338,35.3390238 187.904338,37.375489 M179.244684,37.375489 C179.244684,40.1220373 181.475404,42.3550034 184.219189,42.3550034 C186.958513,42.3550034 189.189233,40.1220373 189.189233,37.375489 C189.189233,34.6334066 186.958513,32.4004404 184.219189,32.4004404 C181.475404,32.4004404 179.244684,34.6334066 179.244684,37.375489" id="Fill-37" stroke="#1976D2" stroke-width="0.5" fill="#1976D2"></path>
              <path d="M131.901225,193.04181 C140.306578,193.04181 148.479935,190.621274 155.537932,186.052626 C172.000644,175.379048 179.321867,155.063522 173.513073,136.413789 L172.2951,136.838052 C177.912052,154.925078 170.804979,174.619839 154.846409,184.958472 C135.256228,197.655118 108.973887,192.036975 96.2810914,172.418135 C90.1332277,162.896767 88.0541968,151.562231 90.4276827,140.500117 C92.7877842,129.442469 99.3193318,119.956829 108.822198,113.798308 C124.348008,103.732097 144.857246,105.009353 158.977702,116.835142 L159.834299,115.870501 C152.013395,109.318978 142.095615,105.719437 131.811996,105.719437 C123.375414,105.719437 115.17975,108.135506 108.117291,112.70862 C98.3333537,119.05471 91.6010413,128.82617 89.1695567,140.232161 C86.7291492,151.642618 88.8706403,163.325497 95.2058845,173.11482 C103.267706,185.592635 116.986633,193.04181 131.901225,193.04181" id="Fill-39" stroke="#1976D2" stroke-width="0.5" fill="#1976D2"></path>
              <path d="M164.172603,37.375489 C164.172603,39.4119541 162.52187,41.064349 160.487453,41.064349 C158.453037,41.064349 156.802304,39.4119541 156.802304,37.375489 C156.802304,35.3390238 158.453037,33.6866289 160.487453,33.6866289 C162.52187,33.6866289 164.172603,35.3390238 164.172603,37.375489 M155.51741,37.375489 C155.51741,40.1220373 157.74813,42.3550034 160.487453,42.3550034 C163.231239,42.3550034 165.461959,40.1220373 165.461959,37.375489 C165.461959,34.6334066 163.231239,32.4004404 160.487453,32.4004404 C157.74813,32.4004404 155.51741,34.6334066 155.51741,37.375489" id="Fill-41" stroke="#1976D2" stroke-width="0.5" fill="#1976D2"></path>
              <polygon id="Fill-43" stroke="#1976D2" stroke-width="0.5" fill="#1976D2" points="150.013332 8.26743575 152.226206 8.26743575 152.226206 6.97678133 150.013332 6.97678133"></polygon>
              <path d="M147.315945,87.3818721 L147.655015,86.135877 C142.493129,84.8496885 137.184016,84.1931965 131.857057,84.1931965 C119.244567,84.1931965 106.993454,87.8106016 96.4332265,94.6479439 C76.0221403,107.880501 64.5428562,131.94741 67.0412624,156.143831 L68.3172341,155.983057 C65.8857495,132.273423 77.1375002,108.688835 97.1425954,95.7376313 C111.945652,86.1448089 130.197401,83.1079749 147.315945,87.3818721" id="Fill-45" stroke="#1976D2" stroke-width="0.5" fill="#1976D2"></path>
              <polygon id="Fill-46" stroke="#1976D2" stroke-width="0.5" fill="#1976D2" points="140.242779 8.26743575 142.451192 8.26743575 142.451192 6.97678133 140.242779 6.97678133"></polygon>
              <polygon id="Fill-47" stroke="#1976D2" stroke-width="0.5" fill="#1976D2" points="130.463303 8.26743575 132.676177 8.26743575 132.676177 6.97678133 130.463303 6.97678133"></polygon>
              <polygon id="Fill-48" stroke="#1976D2" stroke-width="0.5" fill="#1976D2" points="120.697212 8.26743575 122.905625 8.26743575 122.905625 6.97678133 120.697212 6.97678133"></polygon>
              <polygon id="Fill-49" stroke="#1976D2" stroke-width="0.5" fill="#1976D2" points="110.926659 8.26743575 113.135072 8.26743575 113.135072 6.97678133 110.926659 6.97678133"></polygon>
              <polygon id="Fill-50" stroke="#1976D2" stroke-width="0.5" fill="#1976D2" points="101.160568 8.26743575 103.368981 8.26743575 103.368981 6.97678133 101.160568 6.97678133"></polygon>
              <path d="M88.938008,264.444474 C87.943107,265.199217 86.9883589,266.038812 86.0916095,266.94093 C85.2483974,267.780526 84.4051854,268.745167 83.5842805,269.799127 L82.5269193,271.170168 L81.4695581,269.794661 C80.6486532,268.740701 79.8054411,267.77606 78.9666905,266.945396 C78.0744025,266.043278 77.1196545,265.203683 76.120292,264.444474 L74.7238614,263.377116 L76.1158306,262.309759 C77.0705786,261.586278 78.0297882,260.746682 78.9666905,259.808837 C79.8232869,258.960309 80.666499,258.0046 81.4740195,256.959572 L82.5269193,255.592997 L83.5887419,256.964038 C84.3962625,258.009066 85.2350131,258.960309 86.0871481,259.799905 C87.0240504,260.742216 87.9832599,261.581812 88.938008,262.305293 L90.3299772,263.377116 L88.938008,264.444474 Z M87.0017432,258.911184 C85.5428525,257.450824 84.2178049,255.789498 83.0756763,253.971863 L82.5269193,253.109938 L81.9870851,253.971863 C80.8360337,255.789498 79.5154475,257.450824 78.0565568,258.911184 C76.5708974,260.39834 74.9112419,261.720256 73.1355889,262.832273 L72.2656082,263.377116 L73.1355889,263.926426 C74.9246262,265.056307 76.5798203,266.373757 78.0565568,267.851981 C79.5511391,269.352534 80.8717252,271.013861 81.9870851,272.791302 L82.5269193,273.653227 L83.0756763,272.786836 C84.1865748,271.018327 85.5071609,269.357 87.0017432,267.851981 C88.4784797,266.373757 90.1381352,265.051841 91.9227111,263.926426 L92.7926918,263.377116 L91.9227111,262.832273 C90.1470581,261.720256 88.4874026,260.39834 87.0017432,258.911184 L87.0017432,258.911184 Z" id="Fill-51" stroke="#1976D2" stroke-width="0.5" fill="#1976D2"></path>
              <polygon id="Fill-52" stroke="#1976D2" stroke-width="0.5" fill="#1976D2" points="91.3766309 8.26743575 93.5850435 8.26743575 93.5850435 6.97678133 91.3766309 6.97678133"></polygon>
              <polygon id="Fill-53" stroke="#1976D2" stroke-width="0.5" fill="#1976D2" points="88.7309972 303.831764 90.9438712 303.831764 90.9438712 302.541109 88.7309972 302.541109"></polygon>
              <polygon id="Fill-54" stroke="#1976D2" stroke-width="0.5" fill="#1976D2" points="81.6060781 8.26743575 83.8144907 8.26743575 83.8144907 6.97678133 81.6060781 6.97678133"></polygon>
              <polygon id="Fill-55" stroke="#1976D2" stroke-width="0.5" fill="#1976D2" points="78.9649059 303.831764 81.1733185 303.831764 81.1733185 302.541109 78.9649059 302.541109"></polygon>
              <path d="M205.262461,187.777815 C198.686299,200.411938 188.875594,211.192698 176.852014,218.990216 C158.310271,231.00804 136.159223,235.067572 114.490011,230.427468 C92.8297218,225.787365 74.2924402,213.001401 62.2911676,194.43652 C37.4721791,156.060765 48.4696277,104.617691 86.8157012,79.7647781 C117.568404,59.8288565 158.180889,62.628996 185.873045,86.5038698 L186.734103,85.5347625 C171.587515,72.4808426 152.207022,65.2638961 132.072545,65.2103049 L130.734113,65.2103049 L130.734113,57.3815256 C130.734113,49.2758586 124.144566,42.6841426 116.051515,42.6841426 L54.6264144,42.6841426 C47.2427318,42.6841426 41.2331727,36.6685319 41.2331727,29.2729481 L41.2331727,21.6763973 C41.2331727,14.2808135 47.2427318,8.26520278 54.6264144,8.26520278 L59.3956933,8.26520278 L59.3956933,6.9790143 L54.6264144,6.9790143 C46.5289015,6.9790143 39.9438166,13.5707303 39.9438166,21.6763973 L39.9438166,29.2729481 C39.9438166,37.3786151 46.5289015,43.974797 54.6264144,43.974797 L116.051515,43.974797 C123.435197,43.974797 129.444757,49.9859418 129.444757,57.3815256 L129.444757,65.13885 L126.88389,65.3666125 C112.357443,66.2106737 98.2592938,70.8195158 86.1197166,78.6840225 C67.28798,90.8894153 54.3185751,109.735649 49.6072948,131.761627 C44.900476,153.783139 49.0183848,176.291438 61.2114993,195.142138 C75.3185713,216.958217 98.2994467,230.8428 124.269487,233.223142 L125.482998,233.325858 L125.482998,289.132148 C125.482998,296.527732 119.473439,302.538876 112.085295,302.538876 L101.703525,302.538876 L101.703525,303.829531 L112.085295,303.829531 C120.182808,303.829531 126.767893,297.237815 126.767893,289.132148 L126.767893,233.419643 L128.168785,233.4777 C129.431372,233.540223 130.69396,233.571485 131.961009,233.571485 C148.160496,233.571485 163.9183,228.90012 177.543537,220.070971 C189.785727,212.139476 199.765968,201.162214 206.458127,188.278 L206.06552,188.117226 L205.262461,187.777815 Z" id="Fill-56" stroke="#1976D2" stroke-width="0.5" fill="#1976D2"></path>
              <polygon id="Fill-57" stroke="#1976D2" stroke-width="0.5" fill="#1976D2" points="71.8355254 8.26743575 74.0483994 8.26743575 74.0483994 6.97678133 71.8355254 6.97678133"></polygon>
              <polygon id="Fill-58" stroke="#1976D2" stroke-width="0.5" fill="#1976D2" points="69.1943531 303.831764 71.4027658 303.831764 71.4027658 302.541109 69.1943531 302.541109"></polygon>
              <path d="M30.0157751,65.6845869 C38.4657417,65.6845869 45.3363587,72.5621225 45.3363587,81.0205982 C45.3363587,89.474608 38.4657417,96.3521436 30.0157751,96.3521436 C21.5658085,96.3521436 14.6951915,89.474608 14.6951915,81.0205982 C14.6951915,72.5621225 21.5658085,65.6845869 30.0157751,65.6845869 M30.0157751,97.6383321 C39.1706492,97.6383321 46.6212533,90.1802252 46.6212533,81.0205982 C46.6212533,71.8520393 39.1706492,64.3939325 30.0157751,64.3939325 C20.860901,64.3939325 13.4102969,71.8520393 13.4102969,81.0205982 C13.4102969,90.1802252 20.860901,97.6383321 30.0157751,97.6383321" id="Fill-60" stroke="#1976D2" stroke-width="0.5" fill="#1976D2"></path>
              <polygon id="Fill-61" stroke="#1976D2" stroke-width="0.5" fill="#1976D2" points="29.3710971 88.2670199 30.6604531 88.2670199 30.6604531 81.6619061 37.2589223 81.6619061 37.2589223 80.3712517 30.6604531 80.3712517 30.6604531 73.7661379 29.3710971 73.7661379 29.3710971 80.3712517 22.7726279 80.3712517 22.7726279 81.6619061 29.3710971 81.6619061"></polygon>
            </g>
            <polygon id="Fill-1" fill="#26C6DA" points="380.210291 22.6364113 380.210291 15 330 15 330 58.7521964 380.210291 58.7521964 380.210291 26.5403452"></polygon>
            <polygon id="Fill-2" fill="#FFCA28" points="495.032144 5.12611143 495.032144 0 491.132998 0 491.132998 5.12611143 486 5.12611143 486 9.03004536 491.132998 9.03004536 491.132998 14.1693458 495.032144 14.1693458 495.032144 9.03004536 500.160751 9.03004536 500.160751 5.12611143"></polygon>
            <g id="Group-7" transform="translate(473.000000, 49.122218)">
              <mask id="mask-4" fill="white">
                <use xlink:href="#path-3"></use>
              </mask>
              <g id="Clip-6"></g>
              <path d="M24.5774965,21.1528465 L20.8408146,24.9029092 L10.8602294,14.9100693 L7.55824957,20.4802092 L1.95542214,2.23986932 L20.1514385,7.84957618 L14.6056932,11.164403 L24.5774965,21.1528465 Z M0.0321945431,0.331865583 L7.18062954,23.5796162 L11.1192943,16.9587553 L20.8408146,26.6878159 L26.3733871,21.1528465 L16.643085,11.4149933 L23.2558264,7.48028513 L0.0321945431,0.331865583 Z" id="Fill-5" stroke="#1976D2" stroke-width="0.5" fill="#1976D2" mask="url(#mask-4)"></path>
            </g>
            <polygon id="Fill-10" stroke="#1976D2" stroke-width="0.5" fill="#1976D2" points="470 40.3927548 471.519262 40.3927548 471.519262 39.1222178 470 39.1222178"></polygon>
            <polygon id="Fill-12" stroke="#1976D2" stroke-width="0.5" fill="#1976D2" points="464 47.4170978 465.268979 47.4170978 465.268979 45.1222178 464 45.1222178"></polygon>
            <polygon id="Fill-13" stroke="#1976D2" stroke-width="0.5" fill="#1976D2" points="464 33.4170978 465.268979 33.4170978 465.268979 31.1222178 464 31.1222178"></polygon>
            <polygon id="Fill-14" stroke="#1976D2" stroke-width="0.5" fill="#1976D2" points="458 40.3927548 459.523653 40.3927548 459.523653 39.1222178 458 39.1222178"></polygon>
            <path d="M442.963896,75.7859106 L442.963896,63.5905134 C442.963896,55.6155853 436.478491,49.1222178 428.513343,49.1222178 L382.746674,49.1222178 L382.746674,50.3927548 L428.513343,50.3927548 C435.784724,50.3927548 441.699308,56.3102042 441.699308,63.5905134 L441.699308,75.7859106 C441.699308,83.0662198 435.784724,88.9880655 428.513343,88.9880655 L326.454943,88.9880655 C318.485404,88.9880655 312,95.4770368 312,103.456361 L312,109.958521 C312,117.937846 318.485404,124.426817 326.454943,124.426817 L340.896714,124.426817 L340.896714,123.160676 L326.454943,123.160676 C319.183562,123.160676 313.268979,117.238831 313.268979,109.958521 L313.268979,103.456361 C313.268979,96.176052 319.183562,90.2586026 326.454943,90.2586026 L428.513343,90.2586026 C436.478491,90.2586026 442.963896,83.765235 442.963896,75.7859106" id="Fill-15" stroke="#1976D2" stroke-width="0.5" fill="#1976D2"></path>
            <path d="M323.264588,64.7827444 L376.109438,64.7827444 L376.109438,18.3971511 L323.264588,18.3971511 L323.264588,64.7827444 Z M322,66.0488851 L377.378417,66.0488851 L377.378417,17.1222178 L322,17.1222178 L322,66.0488851 Z" id="Fill-16" stroke="#1976D2" stroke-width="0.5" fill="#1976D2"></path>
            <polygon id="Fill-17" stroke="#1976D2" stroke-width="0.5" fill="#1976D2" points="331 30.3927548 374.101375 30.3927548 374.101375 29.1222178 331 29.1222178"></polygon>
            <polygon id="Fill-18" stroke="#1976D2" stroke-width="0.5" fill="#1976D2" points="361.728894 54.0189915 371.621661 47.0640102 361.728894 40.1222178 361 41.1597497 369.413023 47.0640102 361 52.9814596"></polygon>
            <polygon id="Fill-26" stroke="#1976D2" stroke-width="0.5" fill="#1976D2" points="351.976057 40.1222178 346 52.4539009 347.128469 53.0034412 353.108917 40.671758"></polygon>
            <polygon id="Fill-27" stroke="#1976D2" stroke-width="0.5" fill="#1976D2" points="337.892767 54.0189915 338.621661 52.9814596 330.208638 47.0640102 338.621661 41.1597497 337.892767 40.1222178 328 47.0640102"></polygon>
            <polygon id="Fill-28" fill="#1976D2" points="310 50.3927548 312.204247 50.3927548 312.204247 49.1222178 310 49.1222178"></polygon>
            <polygon id="Fill-29" fill="#1976D2" points="300 50.3927548 302.204247 50.3927548 302.204247 49.1222178 300 49.1222178"></polygon>
            <polygon id="Fill-30" fill="#1976D2" points="290 50.3927548 292.204247 50.3927548 292.204247 49.1222178 290 49.1222178"></polygon>
            <path d="M281.298583,49.1222178 L281,50.3575842 C281.702549,50.463096 282.409489,50.5158518 283.112038,50.5158518 L283.335975,50.5158518 L283.335975,49.2497111 L283.112038,49.2497111 C282.506089,49.2497111 281.900141,49.2057479 281.298583,49.1222178" id="Fill-31" fill="#1976D2"></path>
            <path d="M357.930877,24.9906546 C357.417138,24.9906546 357,24.573004 357,24.0586343 C357,23.5398683 357.417138,23.1222178 357.930877,23.1222178 C358.444616,23.1222178 358.861755,23.5398683 358.861755,24.0586343 C358.861755,24.573004 358.444616,24.9906546 357.930877,24.9906546" id="Fill-35" fill="#1976D2"></path>
            <path d="M362.930877,24.9906546 C362.417138,24.9906546 362,24.573004 362,24.0586343 C362,23.5398683 362.417138,23.1222178 362.930877,23.1222178 C363.444616,23.1222178 363.861755,23.5398683 363.861755,24.0586343 C363.861755,24.573004 363.444616,24.9906546 362.930877,24.9906546" id="Fill-36" fill="#1976D2"></path>
            <path d="M367.930877,24.9906546 C367.417138,24.9906546 367,24.573004 367,24.0586343 C367,23.5398683 367.417138,23.1222178 367.930877,23.1222178 C368.444616,23.1222178 368.861755,23.5398683 368.861755,24.0586343 C368.861755,24.573004 368.444616,24.9906546 367.930877,24.9906546" id="Fill-37" fill="#1976D2"></path>
          </g>
        </g>
      </g>
    </g>
  </g>
</svg>