<svg id="whyJoin_horse_img" xmlns="http://www.w3.org/2000/svg" viewBox="0 0 118 95.87" xml:space="preserve" width="100%" height="100%" preserveAspectRatio="xMaxYMax">
  <defs>
    <style>
      #whyJoin_horse_img .cls-1 {
        fill: #fff;
      }
    </style>
  </defs>
  <title>icon2</title>
  <path class="cls-1" d="M42.44,67.31c5.61-13.67,14.28-33.86,3.37-51.5C41.12,8.06,34.79,5.51,29.08,5c-1.63-5-5.51-5-5.51-5V5.1a28.31,28.31,0,0,0-6.22,1.43l1.84,4.28L0,29.88V34l6,6h4.08l3-3,7-3H30.3L9.09,55.48v8.26h0l3.57,3.57s4.49,4.49-7.44,13.05v15.5H49.89V80.36C40,73.22,42.44,67.31,42.44,67.31Z" transform="translate(-0.02 0)"/>
</svg>
