<?xml version="1.0" encoding="UTF-8" standalone="no"?>
<svg id="facebook" width="58px" height="58px" viewBox="0 0 58 58" version="1.1" xmlns="http://www.w3.org/2000/svg" xmlns:xlink="http://www.w3.org/1999/xlink">
  <!-- Generator: sketchtool 40 (33762) - http://www.bohemiancoding.com/sketch -->
  <title>80B9C0DE-C967-42A6-8AE8-18CDBCBBED51</title>
  <desc>Created with sketchtool.</desc>
  <defs>
    <polygon id="path-1" points="0 26.9426106 12.8586957 26.9426106 12.8586957 5.74468086e-05 0 5.74468086e-05"></polygon>
  </defs>
  <g id="Desktop" stroke="none" stroke-width="1" fill="none" fill-rule="evenodd">
    <g id="Elements" transform="translate(-241.000000, -122.000000)">
      <g id="facebook" transform="translate(241.000000, 122.000000)">
        <g id="FACEBOOK">
          <ellipse id="Oval-11-Copy-2" fill="#FFFFFF" cx="29" cy="29" rx="29" ry="29"></ellipse>
          <g id="facebook" transform="translate(23.000000, 16.000000)">
            <mask id="mask-2" fill="white">
              <use xlink:href="#facebook#path-1"></use>
            </mask>
            <g id="Clip-2"></g>
            <path d="M3.33478261,26.9426106 L3.33478261,14.3043128 L0,14.3043128 L0,9.76601489 L3.25,9.76601489 L3.25,5.85963191 C3.25,2.81495106 5.17173913,5.74468086e-05 9.69347826,5.74468086e-05 C10.751,-0.00281489362 11.8073913,0.055206383 12.8586957,0.172397872 L12.7456522,4.4234617 L9.86304348,4.4234617 C8.22391304,4.4234617 7.99782609,5.17027021 7.99782609,6.4341 L7.99782609,9.76601489 L12.8586957,9.76601489 L12.6326087,14.3043128 L7.99782609,14.3043128 L7.99782609,26.9426106 L3.30652174,26.9426106 L3.33478261,26.9426106 Z" id="Fill-1" fill="#1976D2" mask="url(#facebook#mask-2)"></path>
          </g>
        </g>
      </g>
    </g>
  </g>
</svg>