<?xml version="1.0" encoding="UTF-8" standalone="no"?>
<svg id="linkedin" width="58px" height="58px" viewBox="0 0 58 58" version="1.1" xmlns="http://www.w3.org/2000/svg" xmlns:xlink="http://www.w3.org/1999/xlink">
    <!-- Generator: sketchtool 40 (33762) - http://www.bohemiancoding.com/sketch -->
    <title>1976A6FA-6F2E-4BA7-8C16-9F1E0CB13DC3</title>
    <desc>Created with sketchtool.</desc>
    <defs>
        <polygon id="path-1" points="5.80937625 0.398 0 0.398 0 6.10226002 5.80937625 6.10226002 5.80937625 0.398"></polygon>
        <polygon id="path-3" points="0 25.6023 24.604 25.6023 24.604 1.0003 0 1.0003"></polygon>
    </defs>
    <g id="Desktop" stroke="none" stroke-width="1" fill="none" fill-rule="evenodd">
        <g id="Elements" transform="translate(-121.000000, -121.000000)">
            <g id="linked-in" transform="translate(121.000000, 121.000000)">
                <g id="LINKED-IN">
                    <ellipse id="Oval-11-Copy" fill="#FFFFFF" cx="29" cy="29" rx="29" ry="29"></ellipse>
                    <g id="linked-in" transform="translate(18.000000, 15.000000)">
                        <g id="Group-3" transform="translate(0.000000, 0.602300)">
                            <mask id="mask-2" fill="white">
                                <use xlink:href="#linkedin#path-1"></use>
                            </mask>
                            <g id="Clip-2"></g>
                            <path d="M0.8022,5.3 C1.3642,5.842 2.1222,6.131 2.9022,6.1 C3.6792,6.115 4.4322,5.829 5.0022,5.3 C5.5642,4.793 5.8602,4.055 5.8022,3.3 C5.8432,2.519 5.5522,1.756 5.0022,1.2 C4.4402,0.658 3.6822,0.369 2.9022,0.4 C2.1252,0.385 1.3722,0.671 0.8022,1.2 C0.2602,1.762 -0.0288,2.52 0.0022,3.3 C0.0122,4.043 0.2972,4.755 0.8022,5.3" id="Fill-1" fill="#1976D2" mask="url(#linkedin#mask-2)"></path>
                        </g>
                        <mask id="mask-4" fill="white">
                            <use xlink:href="#linkedin#path-3"></use>
                        </mask>
                        <g id="Clip-5"></g>
                        <polygon id="Fill-4" fill="#1976D2" mask="url(#linkedin#mask-4)" points="0.002 25.6023 5.302 25.6023 5.302 9.2023 0.002 9.2023"></polygon>
                        <path d="M24.6023,25.6023 L24.6023,16.0023 C24.6283,14.6263 24.3553,13.2623 23.8023,12.0023 C23.3773,10.9663 22.5973,10.1153 21.6023,9.6023 C20.6563,9.0693 19.5883,8.7933 18.5023,8.8023 C16.5483,8.8293 14.7403,9.8463 13.7023,11.5023 L13.7023,9.2023 L8.4023,9.2023 L8.4023,25.6023 L13.7023,25.6023 L13.7023,16.3023 C13.6953,15.8603 13.7633,15.4213 13.9023,15.0023 C14.2563,13.8213 15.3713,13.0363 16.6023,13.1023 C18.4023,13.1023 19.3023,14.3023 19.3023,16.6023 L19.3023,25.6023 L24.6023,25.6023 L24.6023,25.6023 Z" id="Fill-6" fill="#1976D2" mask="url(#linkedin#mask-4)"></path>
                    </g>
                </g>
            </g>
        </g>
    </g>
</svg>