<svg id="twitter" xmlns="http://www.w3.org/2000/svg" viewBox="0 0 28.31 23"  xml:space="preserve" width="100%" height="100%" preserveAspectRatio="xMaxYMax">
  <defs>
    <style>
      #twitter .cls-1 {
        fill: #1976d2;
      }
    </style>
  </defs>
  <path class="cls-1" d="M28.29,2.73a11.52,11.52,0,0,1-3.34.91A5.81,5.81,0,0,0,27.5.43,11.65,11.65,0,0,1,23.8,1.84a5.8,5.8,0,0,0-9.88,5.28A16.45,16.45,0,0,1,2,1,5.87,5.87,0,0,0,1.16,4,5.79,5.79,0,0,0,3.74,8.8a5.85,5.85,0,0,1-2.62-.72V8.15a5.82,5.82,0,0,0,4.68,5.7,6.22,6.22,0,0,1-1.54.2A5.25,5.25,0,0,1,3.17,14,5.82,5.82,0,0,0,8.6,18a11.59,11.59,0,0,1-7.21,2.49A12.67,12.67,0,0,1,0,20.4,16.33,16.33,0,0,0,8.89,23c10.67,0,16.52-8.84,16.52-16.52V5.73a11.5,11.5,0,0,0,2.9-3h0Z" transform="translate(0 0)"/>
</svg>
