<?xml version="1.0" encoding="UTF-8" standalone="no"?>
<svg id="twitter" width="58px" height="58px" viewBox="0 0 58 58" version="1.1" xmlns="http://www.w3.org/2000/svg" xmlns:xlink="http://www.w3.org/1999/xlink">
  <!-- Generator: sketchtool 40 (33762) - http://www.bohemiancoding.com/sketch -->
  <title>6D09C5A5-DAC0-4848-88E7-67BA5EBDD6AA</title>
  <desc>Created with sketchtool.</desc>
  <defs>
    <polygon id="path-1" points="26.7358696 10.8268175 26.7358696 0 0 0 0 10.8268175 0 21.653635 26.7358696 21.653635 26.7358696 10.8268175"></polygon>
  </defs>
  <g id="Desktop" stroke="none" stroke-width="1" fill="none" fill-rule="evenodd">
    <g id="Elements" transform="translate(-1.000000, -122.000000)">
      <g id="twitter" transform="translate(1.000000, 122.000000)">
        <g id="TWITTER">
          <ellipse id="Oval-11" fill="#FFFFFF" cx="29" cy="29" rx="29" ry="29"></ellipse>
          <g id="twitter" transform="translate(17.000000, 19.000000)">
            <mask id="mask-2" fill="white">
              <use xlink:href="#twitter#path-1"></use>
            </mask>
            <g id="Clip-2"></g>
            <path d="M26.7182609,2.57216358 C25.7151522,3.01628432 24.650413,3.30592829 23.5604348,3.43231838 C24.7061739,2.74770538 25.5619565,1.66987875 25.9669565,0.401296707 C24.8893043,1.03851343 23.7101087,1.48790042 22.4804348,1.72956296 C20.4143478,-0.472316296 16.9483696,-0.587003603 14.7402391,1.4726868 C13.311,2.80563417 12.704087,4.79744841 13.1478261,6.69739578 C8.7386087,6.48089423 4.62991304,4.40423479 1.84891304,0.986436026 C1.36173913,1.82201497 1.10230435,2.76994067 1.0976087,3.73659082 C1.0935,5.5622255 2.00563043,7.26849175 3.5276087,8.28312333 C2.66008696,8.25386637 1.81134783,8.02156606 1.05065217,7.60436172 L1.05065217,7.67457844 C1.053,10.2842998 2.90308696,12.5300645 5.47043478,13.040306 C4.99676087,13.1626001 4.50958696,13.2257952 4.02065217,13.2275506 C3.6761087,13.2322317 3.33156522,13.2006342 2.99347826,13.1339283 C3.71073913,15.3633091 5.76978261,16.891693 8.1176087,16.9373339 C6.17771739,18.4610366 3.77823913,19.2854979 1.30891304,19.2778911 C0.871630435,19.2784763 0.434934783,19.2550707 0,19.2076744 C2.50454348,20.8138818 5.42171739,21.6635041 8.39934783,21.6535568 C18.4773913,21.6535568 24.0006522,13.3270243 24.0006522,6.10055367 L24.0006522,5.39838649 C25.0771304,4.63243912 26.0039348,3.67632147 26.7358696,2.57801497 L26.7182609,2.57216358 Z" id="Fill-1" fill="#1976D2"></path>
          </g>
        </g>
      </g>
    </g>
  </g>
</svg>