<svg id="offerings_dreamteam_img" xmlns="http://www.w3.org/2000/svg" viewBox="0 0 980 360" xml:space="preserve" width="100%" height="100%" preserveAspectRatio="xMaxYMax">
  <defs>
    <style>
      #offerings_dreamteam_img .cls-1 {
        fill: #ffecb3;
        opacity: 0.6;
      }

      #offerings_dreamteam_img .cls-2 {
        fill: #5e6bb2;
      }

      #offerings_dreamteam_img .cls-10, #offerings_dreamteam_img .cls-11, #offerings_dreamteam_img .cls-12, #offerings_dreamteam_img .cls-14, #offerings_dreamteam_img .cls-2, #offerings_dreamteam_img .cls-3, #offerings_dreamteam_img .cls-4, #offerings_dreamteam_img .cls-5, #offerings_dreamteam_img .cls-6, #offerings_dreamteam_img .cls-7, #offerings_dreamteam_img .cls-9 {
        fill-rule: evenodd;
      }

      #offerings_dreamteam_img .cls-3 {
        fill: #33439b;
      }

      #offerings_dreamteam_img .cls-15, #offerings_dreamteam_img .cls-4 {
        fill: #f9bf2c;
      }

      #offerings_dreamteam_img .cls-5 {
        fill: #edb026;
      }

      #offerings_dreamteam_img .cls-17, #offerings_dreamteam_img .cls-6 {
        fill: #f9a823;
      }

      #offerings_dreamteam_img .cls-7 {
        fill: #ffc6ad;
      }

      #offerings_dreamteam_img .cls-10, #offerings_dreamteam_img .cls-8 {
        fill: #a0a8d5;
      }

      #offerings_dreamteam_img .cls-9 {
        fill: #e5af9c;
      }

      #offerings_dreamteam_img .cls-11 {
        fill: #a0512e;
      }

      #offerings_dreamteam_img .cls-12 {
        fill: #6b471a;
      }

      #offerings_dreamteam_img .cls-13 {
        opacity: 0.8;
      }

      #offerings_dreamteam_img .cls-14 {
        fill: #2c3d84;
      }

      #offerings_dreamteam_img .cls-16 {
        opacity: 0.6;
      }

      #offerings_dreamteam_img .cls-17 {
        opacity: 0.2;
      }
    </style>
  </defs>
  <title>Organizations dream team</title>
  <rect class="cls-1" width="980" height="360"/>
  <g>
    <path class="cls-2" d="M265.62,149.65a18.82,18.82,0,0,0,1-2.27s-26.81-7.22-20.83-46.22c25.18-24.35,59.83,9.29,59.83,9.29l6.61,0.62s13.42-11.35,28.28,0H388.6c28.48-29.71,99.67-7.18,99.67-7.18s-38.8-13.74-51.21-16.25a134.46,134.46,0,0,0-23.49-2.36H251C213.63,113.33,248.09,147.17,265.62,149.65Z" transform="translate(0 0)"/>
    <path class="cls-3" d="M241.56,100.47c28.68-28.33,63.38,6.69,64.08,10,0,1.29-29-30.63-58.93-8.46C245.13,102,241.56,101.53,241.56,100.47Z" transform="translate(0 0)"/>
    <path class="cls-4" d="M345.25,118.08c3.3,8.25-2.12,17.33-2.12,17.33s-4,8.25-1.5,8.25,62.83-1.24,62.83-1.24a29.22,29.22,0,0,0,12-19.81c-7,.21-24.35,7.84-24.35,7.84S363.82,113.33,345.25,118.08Z" transform="translate(0 0)"/>
    <path class="cls-5" d="M341.63,143.67s45.24-1.12,51.42-1.12c-40.17-4.25-46.74-15.06-46.74-15.06s-0.72,6.83-3.76,7.59A16.15,16.15,0,0,1,341.63,143.67Z" transform="translate(0 0)"/>
    <path class="cls-4" d="M316.15,193.18c1.24,0.41,7,0,7,0s10.32-8.87,11.35-21c-0.21-.83-7.22,2.27-8.46,2.27,19.4-29.09,17.13-38.79,17.13-38.79s0.83-7-11.76-9.29-19.81,9.08-19.81,9.08S300.88,174.62,316.15,193.18Z" transform="translate(0 0)"/>
    <path class="cls-2" d="M399.72,155.43c-11.55,11.14-60.87,38.58-76.55,37.76,6.81-5,10.52-18.36,11.35-21s28.06-3.71,28.06-3.71a3.52,3.52,0,0,0,3.3-3.92c0-1.86-3.71-5.36-.62-8s7.43,1,9.7,1.44C389.2,158.11,399.51,154.19,399.72,155.43Z" transform="translate(0 0)"/>
    <path class="cls-2" d="M404.46,142.43s8.26-6.6,12-19.81c9.29-1,24.35,9.28,30.33,14.65,3.51,0.41,2.89-.83,3.51-2.06a19.58,19.58,0,0,1,2.06-3.51c5.37-3.1,10.73,1.86,10.73,1.86s1.24,2.27,10.52,2.89c3.3,0.41,17.74,4.75,16.3,5.57S404.46,142.43,404.46,142.43Z" transform="translate(0 0)"/>
    <path class="cls-4" d="M308.32,133.35a9.55,9.55,0,0,0,3.3,2.06c8.88-12,21.26-8.67,21.26-8.67s9.9,1.65,10.31,8.87c1.45-1.24,10.32-20.22-9.49-28.68-14.65-4.33-20.84,3.1-21.87,3.92C313.47,125.09,308.32,133.35,308.32,133.35Z" transform="translate(0 0)"/>
    <path class="cls-6" d="M311.82,110.86s-5-.21-6.6-0.41c0.83,18-2.89,24.55-2.89,24.55s5,0,6.4-1.65C314.71,121.17,311.82,110.86,311.82,110.86Z" transform="translate(0 0)"/>
    <path class="cls-4" d="M239.82,129.28H131.29s0.82-5.36,2.06-6c5.16-1.86,25-10.94,35.49-11.14s15.47,5.57,15.47,5.57,11-9.18,15.12-9.18c4.75,0.21,37.09,15,37.09,15Z" transform="translate(0 0)"/>
    <path class="cls-6" d="M201.86,123s22.68,3.68,32.35,6a33,33,0,0,1,4.75.18s-1.23-3-2.44-5.68c-5.47-2.06-18.31-7.68-20.06-8.56C208.54,123,201.86,123,201.86,123Z" transform="translate(0 0)"/>
    <path class="cls-7" d="M133.35,123.19s-15.26,1.24-25.58,3.09c-3.09-.41-4.33-1-5.78-0.62s-2.89,2.48-1.24,3.3c5.57-.41,22.28.41,22.28,0.41l-11.35.62s-0.62,2.06,2.06,1.86,5.37,1.86,9.91,1.44,7.63-4.13,7.63-4.13Z" transform="translate(0 0)"/>
    <path class="cls-4" d="M305.65,110.45l-5.78-4.75a30.84,30.84,0,0,1,1.65,10.94c-2.89,17.13-25,29.51-25,29.51a3.59,3.59,0,0,1,1,1.86c6,0.21,12.17-7.22,24.75-13C306.06,130.46,305.65,110.45,305.65,110.45Z" transform="translate(0 0)"/>
    <path class="cls-4" d="M266.65,147.38c-6-1-26.41-10.73-21.25-46,21.67-19,42.92-3.3,47.25-1.24,1.86,0,4.33-1.65,5-1,14.65,29.5-15.47,43.54-21,47-2.68-2.48-7.22-3.51-7.22-3.51S267.47,147,266.65,147.38Z" transform="translate(0 0)"/>
    <path class="cls-7" d="M277.81,148c-2.06-4.54-8.48-5.36-8.48-5.36s-3.3,4.75-4.13,8c-1,1.65-5.16,2.68-5.16,3.71s3.51,2.68,3.51,3.51-0.62,3.07.62,4.31,3.1-1.42,4.33-1.22,1,1,2.89,1.24a2.76,2.76,0,0,0,2.68-1.24,4.68,4.68,0,0,1,2.27.21c1.17,0.29,2.75-.92,2.27-0.43,0,0,1.86.85,2.48,0.23s-0.21-6.19-.21-6.19S279.67,149.85,277.81,148Z" transform="translate(0 0)"/>
    <path class="cls-7" d="M236.73,124.06l-20.63-9.28s-6.19,7.84-14.24,8.25c-1-.21-3.92-3.71-3.92-5.36s2.48-2.68,2.48-2.68-2.68-8-2.89-12.17c0.41-1.65,4.13-3.71,4.13-4.54s-1.24-3.92-1.24-5.16,4.75-5.78,4.75-5.78A23.87,23.87,0,0,0,213.62,89c0,2.68,8.83,10.17,8.83,10.17l5-.27a100.13,100.13,0,0,0,10.32,1.24A32,32,0,0,0,236.73,124.06Z" transform="translate(0 0)"/>
    <path class="cls-8" d="M266.65,147.38a18.82,18.82,0,0,1-1,2.27c-17.29-1.94-40.52-24-27.94-49.67l8.55,1.26c-0.14.13-.28-0.21-0.42-0.08C239.84,140.16,266.65,147.38,266.65,147.38Z" transform="translate(0 0)"/>
    <path class="cls-6" d="M327,174.43l-6.68,6.4a0.61,0.61,0,0,1-.65-0.84c5.29-4.45,20.14-29.49,19-50.65,4.18,1.95,4.21,4.9,4.47,7C344.84,145.59,327,174.43,327,174.43Z" transform="translate(0 0)"/>
    <path class="cls-5" d="M297.6,99.1A30.15,30.15,0,0,1,300,123.47c-4.45,13.92-23.23,22.44-23.23,22.44s-0.77-.67-1.88-1.51C311.37,128.53,297.6,99.1,297.6,99.1Z" transform="translate(0 0)"/>
    <path class="cls-6" d="M289.7,109c-2,1.2-18.22,5.77-19.21,33.41-0.77.66-1.16,0.23-1.16,0.23S268,115.81,289.7,109Z" transform="translate(0 0)"/>
    <path class="cls-6" d="M276.58,118.63c-13.19,1.41-18.29-2.11-18.29-2.11l-0.18.88s6.15,3.52,17.23,3.17A6.11,6.11,0,0,0,276.58,118.63Z" transform="translate(0 0)"/>
    <path class="cls-6" d="M312.1,135.33s8.75-10.6,20.4-8.44C317.17,121.36,311,135,311,135Z" transform="translate(0 0)"/>
    <path class="cls-6" d="M192,111.95a30.49,30.49,0,0,0-7.39,7.74,3,3,0,0,1-1.23-.35c-12-10.9-25.5-4.4-27.78-4.57,20.92-7.39,28.7,3,28.7,3S191.13,112.12,192,111.95Z" transform="translate(0 0)"/>
    <path class="cls-9" d="M270.49,142.4s-7.09,9.63-6.39,16.31c-1.41-3.17,1.58-12,5.23-16.08C269.73,142.54,270.49,142.4,270.49,142.4Z" transform="translate(0 0)"/>
    <path class="cls-5" d="M311.23,116c0.18,1.06,1.23,10.37-3.69,17.93l-1.23.35S312.46,125.48,311.23,116Z" transform="translate(0 0)"/>
    <path class="cls-6" d="M345.25,118.08c22.6-3.5,46.84,12.38,46.84,12.38s7.06-3,12.51-5c-10.73,5.28-12.66,7.21-12.66,7.21s-24.62-16.7-45.72-11.25C345.87,120.21,345.68,119.64,345.25,118.08Z" transform="translate(0 0)"/>
    <path class="cls-5" d="M416.43,122.62s-3,10.25-14.47,19.92c1.41,0,1.31-.11,2.5-0.11C415.5,131.46,416.43,122.62,416.43,122.62Z" transform="translate(0 0)"/>
    <path class="cls-6" d="M334.52,172.14s-2.89,14-10.8,20.86c-1.76,0-3.34.35-5.63,0.35C328.29,188.78,334.52,172.14,334.52,172.14Z" transform="translate(0 0)"/>
    <path class="cls-3" d="M456.12,130.76s1.41-1.23,8.44,3.87c3.52,1.76,9,1.82,9,1.82s-7.62-.41-9.38-0.23C463.33,134.1,456.12,130.76,456.12,130.76Z" transform="translate(0 0)"/>
    <path class="cls-2" d="M446.76,137.27S425.52,122.14,416.2,125c0.7-.7.23-1.51,0.23-2.34C427.11,120.91,446.76,137.27,446.76,137.27Z" transform="translate(0 0)"/>
    <path class="cls-2" d="M368.38,168.74a108.6,108.6,0,0,0-33.94,3,9.06,9.06,0,0,1-.53,3.69C342.88,168.39,368.38,170,368.38,168.74Z" transform="translate(0 0)"/>
    <path class="cls-2" d="M323.72,193c16.18-.35,46.42-17.93,46.42-17.93s-31.83,15.65-43.43,14.77C325.48,190.72,325.12,191.77,323.72,193Z" transform="translate(0 0)"/>
    <path class="cls-10" d="M274.24,87.79h142s-92.91,13.8-132.16,3.07C279.76,89.32,274.24,87.79,274.24,87.79Z" transform="translate(0 0)"/>
    <path class="cls-11" d="M227.45,98.89c-0.21,1.24-3.45,1.31-7.17,4.61,0.93-4.65-5-8.53-6.66-14.51-3.09,1-8.46-1.65-8.46-1.65A30.77,30.77,0,0,1,202.89,90a9.77,9.77,0,0,1-6.19-3.51s-5-5.16,1-7.84,8.72,0.65,10.37,1.69,5.16,1.24,5.16,1.24,4.54-1.86,7-.41,5.49,6.68,5.49,6.68S224.66,95.17,227.45,98.89Z" transform="translate(0 0)"/>
    <path class="cls-12" d="M198.34,78.36c-3.16,6.51,5.1,10.73,5.1,10.73l-0.55.93C195,84.87,197.11,79.42,198.34,78.36Z" transform="translate(0 0)"/>
    <path class="cls-12" d="M215.75,87.57c-5.45,2.64-13.36-2-13.36-2s-0.7-.29-0.53.24C210.47,90.91,215.75,88.27,215.75,87.57Z" transform="translate(0 0)"/>
    <path class="cls-4" d="M310,142.94l2.09-7.6s9.11-11.32,20.4-8.44c4.55,3.68-10.9,42.7-19,42.31S310,142.94,310,142.94Z" transform="translate(0 0)"/>
    <path class="cls-2" d="M411.6,134.44s4.25,5.41,34.76,8.11H404.46Z" transform="translate(0 0)"/>
    <path class="cls-6" d="M338.71,128.66c3.29-12.37-5.56-21.68-16.47-23,28.16-2.73,25.89,27,20.94,30C343.37,131.06,339.73,128.77,338.71,128.66Z" transform="translate(0 0)"/>
    <path class="cls-4" d="M270.49,142.4a8.28,8.28,0,0,0,2.82,1.19c31.42-23.74,19.76-34.3,16.4-34.61C269.35,118.22,270.49,142.4,270.49,142.4Z" transform="translate(0 0)"/>
    <path class="cls-6" d="M245.38,110.31s7.91-26.76,43.52-9.08a9.53,9.53,0,0,0,3.75-1.11s-26.32-18.91-46.42,1.11C244.92,103.1,245.38,110.31,245.38,110.31Z" transform="translate(0 0)"/>
    <path class="cls-10" d="M240,100.3s-11.15,25.37,11.89,44.22c-24.9-18.62-12.82-44.45-12.82-44.45Z" transform="translate(0 0)"/>
    <path class="cls-9" d="M232.12,121.71c-4-1.4-16-6.94-16-6.94s-6.32,8.1-13.54,8.33c11.87-3.72,16.76-15.59,16.76-15.59S217.69,112.64,232.12,121.71Z" transform="translate(0 0)"/>
    <path class="cls-7" d="M276.78,145.91c4.91,13.73-2.7,15.08-2.7,15.08a17,17,0,0,0,3.19.28c0.93-1.4,3,0,3,0l0.8-.28A22.65,22.65,0,0,0,276.78,145.91Z" transform="translate(0 0)"/>
    <path class="cls-9" d="M107.77,126.28a122.44,122.44,0,0,1,25-1.07l0.61-2S108.16,125.49,107.77,126.28Z" transform="translate(0 0)"/>
    <path class="cls-9" d="M121.57,129.16l-20.82-.2s-2.05-1.68,1.24-3.3C101.33,128.46,121.57,129.16,121.57,129.16Z" transform="translate(0 0)"/>
  </g>
  <g class="cls-13">
    <path class="cls-6" d="M635.75,103.92a12,12,0,0,0,.65-1.44s-17-4.59-13.23-29.35c16-15.46,38,5.9,38,5.9l4.2,0.39s8.52-7.21,18,0h30.52c18.09-18.87,63.29-4.56,63.29-4.56s-24.64-8.73-32.52-10.32A85.39,85.39,0,0,0,729.71,63H626.45C602.74,80.86,624.62,102.35,635.75,103.92Z" transform="translate(0 0)"/>
    <path class="cls-6" d="M620.48,72.69c18.21-18,40.25,4.25,40.7,6.33,0,0.82-18.43-19.45-37.43-5.37C622.74,73.65,620.48,73.36,620.48,72.69Z" transform="translate(0 0)"/>
    <path class="cls-2" d="M686.32,83.87c2.1,5.24-1.34,11-1.34,11s-2.52,5.24-1,5.24,39.9-.79,39.9-0.79a18.56,18.56,0,0,0,7.6-12.58c-4.45.13-15.46,5-15.46,5S698.11,80.86,686.32,83.87Z" transform="translate(0 0)"/>
    <path class="cls-14" d="M684,100.12s28.73-.71,32.66-0.71C691.17,96.71,687,89.85,687,89.85s-0.46,4.34-2.39,4.82A10.25,10.25,0,0,1,684,100.12Z" transform="translate(0 0)"/>
    <path class="cls-2" d="M667.84,131.57a24.85,24.85,0,0,0,4.46,0s6.55-5.63,7.21-13.37c-0.13-.52-4.59,1.44-5.37,1.44C686.45,101.17,685,95,685,95s0.52-4.46-7.47-5.9S665,94.88,665,94.88,658.15,119.77,667.84,131.57Z" transform="translate(0 0)"/>
    <path class="cls-6" d="M720.91,107.59c-7.34,7.08-38.65,24.5-48.61,24,4.33-3.15,6.68-11.66,7.21-13.37s17.82-2.36,17.82-2.36a2.24,2.24,0,0,0,2.1-2.49c0-1.18-2.36-3.41-.39-5.11s4.72,0.65,6.16.92C714.23,109.29,720.78,106.8,720.91,107.59Z" transform="translate(0 0)"/>
    <path class="cls-6" d="M723.93,99.33a26,26,0,0,0,7.6-12.58c5.9-.66,15.46,5.9,19.26,9.3,2.23,0.26,1.83-.52,2.23-1.31a12.44,12.44,0,0,1,1.31-2.23c3.41-2,6.81,1.18,6.81,1.18s0.79,1.44,6.68,1.83c2.1,0.26,11.27,3,10.35,3.54S723.93,99.33,723.93,99.33Z" transform="translate(0 0)"/>
    <path class="cls-2" d="M662.87,93.57A6.07,6.07,0,0,0,665,94.88a13.2,13.2,0,0,1,13.5-5.5s6.29,1,6.55,5.64c0.92-.79,6.55-12.84-6-18.21-9.3-2.75-13.23,2-13.89,2.49C666.14,88.33,662.87,93.57,662.87,93.57Z" transform="translate(0 0)"/>
    <path class="cls-6" d="M665.09,79.29S662,79.15,660.9,79c0.52,11.4-1.83,15.59-1.83,15.59s3.14,0,4.06-1A21.66,21.66,0,0,0,665.09,79.29Z" transform="translate(0 0)"/>
    <path class="cls-2" d="M619.37,91H550.44s0.52-3.41,1.31-3.8c3.28-1.18,15.85-6.94,22.54-7.08s9.83,3.54,9.83,3.54,7-5.83,9.6-5.83c3,0.13,23.55,9.5,23.55,9.5Z" transform="translate(0 0)"/>
    <path class="cls-3" d="M595.26,87s14.4,2.34,20.54,3.79a21,21,0,0,1,3,.11S618,89,617.27,87.31c-3.47-1.31-11.62-4.88-12.74-5.44C599.5,87,595.26,87,595.26,87Z" transform="translate(0 0)"/>
    <path class="cls-7" d="M551.75,87.11s-9.69.79-16.25,2c-2-.26-2.75-0.66-3.67-0.39s-1.83,1.57-.79,2.1c3.54-.26,14.15.26,14.15,0.26l-7.21.39s-0.39,1.31,1.31,1.18,3.41,1.18,6.29.92a8,8,0,0,0,4.84-2.62Z" transform="translate(0 0)"/>
    <path class="cls-2" d="M661.17,79l-3.67-3a19.59,19.59,0,0,1,1,6.94c-1.83,10.88-15.86,18.74-15.86,18.74a2.28,2.28,0,0,1,.66,1.18c3.8,0.13,7.73-4.59,15.72-8.26C661.43,91.73,661.17,79,661.17,79Z" transform="translate(0 0)"/>
    <path class="cls-2" d="M636.41,102.48c-3.8-.66-16.77-6.81-13.5-29.22,13.76-12.05,27.26-2.1,30-.79,1.18,0,2.75-1,3.14-.66,9.3,18.74-9.83,27.65-13.37,29.88a11.7,11.7,0,0,0-4.59-2.23S636.93,102.22,636.41,102.48Z" transform="translate(0 0)"/>
    <path class="cls-7" d="M643.5,102.87c-1.31-2.88-5.39-3.41-5.39-3.41a20.84,20.84,0,0,0-2.62,5.11c-0.66,1-3.28,1.7-3.28,2.36s2.23,1.7,2.23,2.23-0.39,2,.39,2.74,2-.9,2.75-0.77,0.66,0.66,1.83.79a1.76,1.76,0,0,0,1.7-.79,3,3,0,0,1,1.44.13c0.74,0.19,1.75-.58,1.44-0.28,0,0,1.18.54,1.57,0.14s-0.13-3.93-.13-3.93S644.68,104.05,643.5,102.87Z" transform="translate(0 0)"/>
    <path class="cls-7" d="M617.41,87.67l-13.1-5.9s-3.93,5-9,5.24a5.73,5.73,0,0,1-2.49-3.41c0-1,1.57-1.7,1.57-1.7a41.52,41.52,0,0,1-1.83-7.73c0.26-1,2.62-2.36,2.62-2.88s-0.79-2.49-.79-3.28,3-3.67,3-3.67a15.16,15.16,0,0,0,5.37,1c0,1.7,5.61,6.46,5.61,6.46l3.17-.17a63.59,63.59,0,0,0,6.55.79A20.34,20.34,0,0,0,617.41,87.67Z" transform="translate(0 0)"/>
    <path class="cls-15" d="M636.41,102.48a12,12,0,0,1-.65,1.44c-11-1.23-25.73-15.27-17.74-31.54l5.43,0.8c-0.09.08-.18-0.14-0.27-0.05C619.38,97.89,636.41,102.48,636.41,102.48Z" transform="translate(0 0)"/>
    <path class="cls-3" d="M674.74,119.65l-4.24,4.07a0.39,0.39,0,0,1-.41-0.53c3.36-2.83,12.79-18.73,12.08-32.17,2.65,1.24,2.67,3.11,2.84,4.42C686.06,101.34,674.74,119.65,674.74,119.65Z" transform="translate(0 0)"/>
    <path class="cls-3" d="M656.06,71.82a19.14,19.14,0,0,1,1.53,15.48c-2.83,8.84-14.75,14.25-14.75,14.25s-0.49-.43-1.2-1C664.81,90.51,656.06,71.82,656.06,71.82Z" transform="translate(0 0)"/>
    <path class="cls-3" d="M651,78.1c-1.3.76-11.57,3.66-12.2,21.22-0.49.42-.74,0.15-0.74,0.15S637.24,82.43,651,78.1Z" transform="translate(0 0)"/>
    <path class="cls-3" d="M642.71,84.22c-8.37.89-11.61-1.34-11.61-1.34l-0.11.56s3.91,2.23,10.94,2A3.88,3.88,0,0,0,642.71,84.22Z" transform="translate(0 0)"/>
    <path class="cls-3" d="M665.27,94.83s5.55-6.73,13-5.36C668.49,86,664.6,94.6,664.6,94.6Z" transform="translate(0 0)"/>
    <path class="cls-3" d="M589,80a19.36,19.36,0,0,0-4.69,4.91,1.93,1.93,0,0,1-.78-0.22c-7.59-6.92-16.19-2.79-17.64-2.9,13.29-4.69,18.23,1.88,18.23,1.88S588.45,80.09,589,80Z" transform="translate(0 0)"/>
    <path class="cls-9" d="M638.85,99.32s-4.5,6.12-4.06,10.36c-0.89-2,1-7.59,3.32-10.21Z" transform="translate(0 0)"/>
    <path class="cls-5" d="M664.72,82.54c0.11,0.67.78,6.59-2.34,11.39l-0.78.22S665.5,88.57,664.72,82.54Z" transform="translate(0 0)"/>
    <path class="cls-3" d="M686.32,83.87c14.35-2.22,29.74,7.86,29.74,7.86s4.48-1.93,7.95-3.16c-6.81,3.35-8,4.58-8,4.58s-15.63-10.61-29-7.15C686.72,85.22,686.59,84.86,686.32,83.87Z" transform="translate(0 0)"/>
    <path class="cls-3" d="M731.53,86.75s-1.93,6.51-9.19,12.65c0.89,0,.83-0.07,1.59-0.07C730.93,92.37,731.53,86.75,731.53,86.75Z" transform="translate(0 0)"/>
    <path class="cls-3" d="M679.51,118.2s-1.83,8.9-6.86,13.25c-1.12,0-2.12.22-3.57,0.22C675.55,128.77,679.51,118.2,679.51,118.2Z" transform="translate(0 0)"/>
    <path class="cls-4" d="M756.73,91.92s0.89-.78,5.36,2.46a15.91,15.91,0,0,0,5.73,1.15s-4.84-.26-6-0.15C761.31,94,756.73,91.92,756.73,91.92Z" transform="translate(0 0)"/>
    <path class="cls-6" d="M750.79,96.06s-13.49-9.61-19.41-7.82c0.45-.45.14-1,0.14-1.48C738.31,85.67,750.79,96.06,750.79,96.06Z" transform="translate(0 0)"/>
    <path class="cls-6" d="M701,116a69,69,0,0,0-21.55,1.9,5.75,5.75,0,0,1-.34,2.34C684.82,115.82,701,116.82,701,116Z" transform="translate(0 0)"/>
    <path class="cls-6" d="M672.65,131.45c10.28-.22,29.48-11.39,29.48-11.39s-20.21,9.94-27.58,9.38C673.77,130,673.54,130.67,672.65,131.45Z" transform="translate(0 0)"/>
    <path class="cls-4" d="M641.23,64.63h90.16s-59,8.76-83.93,1.95C644.73,65.61,641.23,64.63,641.23,64.63Z" transform="translate(0 0)"/>
    <path class="cls-11" d="M611.51,71.69c-0.13.79-2.19,0.83-4.55,2.93,0.59-3-3.18-5.42-4.23-9.22-2,.65-5.37-1-5.37-1a19.54,19.54,0,0,1-1.44,1.7A6.2,6.2,0,0,1,592,63.82s-3.14-3.28.66-5,5.54,0.42,6.59,1.07a9.07,9.07,0,0,0,3.28.79s2.88-1.18,4.46-.26,3.49,4.24,3.49,4.24S609.74,69.32,611.51,71.69Z" transform="translate(0 0)"/>
    <path class="cls-12" d="M593,58.65c-2,4.13,3.24,6.81,3.24,6.81l-0.35.59C590.91,62.78,592.25,59.32,593,58.65Z" transform="translate(0 0)"/>
    <path class="cls-12" d="M604.08,64.49c-3.46,1.68-8.49-1.27-8.49-1.27s-0.45-.18-0.33.15C600.73,66.62,604.08,64.94,604.08,64.49Z" transform="translate(0 0)"/>
    <path class="cls-2" d="M663.94,99.66l1.33-4.83s5.79-7.19,13-5.36c2.89,2.34-6.92,27.11-12.07,26.87S663.94,99.66,663.94,99.66Z" transform="translate(0 0)"/>
    <path class="cls-6" d="M728.46,94.26s2.7,3.43,22.08,5.15H723.93Z" transform="translate(0 0)"/>
    <path class="cls-3" d="M682.17,90.59c2.09-7.85-3.53-13.77-10.46-14.63,17.88-1.73,16.44,17.16,13.3,19A4.36,4.36,0,0,0,682.17,90.59Z" transform="translate(0 0)"/>
    <path class="cls-2" d="M638.85,99.32a5.26,5.26,0,0,0,1.79.76c20-15.07,12.55-21.78,10.41-22C638.12,84,638.85,99.32,638.85,99.32Z" transform="translate(0 0)"/>
    <path class="cls-3" d="M622.9,78.94s5-17,27.64-5.76a6.05,6.05,0,0,0,2.38-.7s-16.72-12-29.48.7C622.61,74.36,622.9,78.94,622.9,78.94Z" transform="translate(0 0)"/>
    <path class="cls-4" d="M619.49,72.58s-7.08,16.11,7.55,28.08c-15.81-11.82-8.14-28.23-8.14-28.23Z" transform="translate(0 0)"/>
    <path class="cls-9" d="M614.48,86.18c-2.51-.89-10.17-4.4-10.17-4.4s-4,5.14-8.6,5.29c7.54-2.36,10.64-9.9,10.64-9.9S605.31,80.42,614.48,86.18Z" transform="translate(0 0)"/>
    <path class="cls-7" d="M642.84,101.55c3.12,8.72-1.72,9.58-1.72,9.58a10.81,10.81,0,0,0,2,.18c0.59-.89,1.92,0,1.92,0l0.51-.18A14.39,14.39,0,0,0,642.84,101.55Z" transform="translate(0 0)"/>
    <path class="cls-9" d="M535.51,89.08a77.76,77.76,0,0,1,15.86-.68l0.39-1.28S535.76,88.58,535.51,89.08Z" transform="translate(0 0)"/>
    <path class="cls-9" d="M544.28,90.91l-13.22-.13s-1.3-1.07.79-2.1C531.42,90.47,544.28,90.91,544.28,90.91Z" transform="translate(0 0)"/>
  </g>
  <g class="cls-16">
    <path class="cls-6" d="M532.52,245.15A9.17,9.17,0,0,0,533,244s-13.06-3.52-10.15-22.52C535.14,209.66,552,226,552,226l3.22,0.3a11,11,0,0,1,13.78,0h23.42c13.88-14.48,48.56-3.5,48.56-3.5s-18.91-6.7-24.95-7.92a65.51,65.51,0,0,0-11.45-1.15H525.39C507.19,227.46,524,243.94,532.52,245.15Z" transform="translate(0 0)"/>
    <path class="cls-6" d="M520.8,221.19c14-13.8,30.88,3.26,31.22,4.86,0,0.63-14.14-14.92-28.71-4.12C522.54,221.93,520.8,221.71,520.8,221.19Z" transform="translate(0 0)"/>
    <path class="cls-2" d="M571.32,229.77c1.61,4-1,8.44-1,8.44s-1.94,4-.73,4,30.61-.6,30.61-0.6A14.24,14.24,0,0,0,606,232c-3.42.1-11.86,3.82-11.86,3.82S580.36,227.46,571.32,229.77Z" transform="translate(0 0)"/>
    <path class="cls-14" d="M569.55,242.23s22-.54,25.05-0.54c-19.57-2.07-22.77-7.34-22.77-7.34s-0.35,3.33-1.83,3.7A7.87,7.87,0,0,1,569.55,242.23Z" transform="translate(0 0)"/>
    <path class="cls-2" d="M557.14,266.36a19.07,19.07,0,0,0,3.42,0s5-4.32,5.53-10.25c-0.1-.4-3.52,1.11-4.12,1.11,9.45-14.17,8.34-18.9,8.34-18.9s0.4-3.42-5.73-4.52-9.65,4.42-9.65,4.42S549.7,257.31,557.14,266.36Z" transform="translate(0 0)"/>
    <path class="cls-6" d="M597.86,248c-5.63,5.43-29.66,18.8-37.3,18.4,3.32-2.41,5.13-8.95,5.53-10.25s13.67-1.81,13.67-1.81a1.72,1.72,0,0,0,1.61-1.91c0-.9-1.81-2.61-0.3-3.92s3.62,0.5,4.73.7C592.73,249.27,597.76,247.36,597.86,248Z" transform="translate(0 0)"/>
    <path class="cls-6" d="M600.17,241.63A19.93,19.93,0,0,0,606,232c4.52-.5,11.86,4.52,14.78,7.14,1.71,0.2,1.41-.4,1.71-1a9.54,9.54,0,0,1,1-1.71c2.61-1.51,5.23.9,5.23,0.9s0.6,1.11,5.13,1.41c1.61,0.2,8.65,2.31,7.94,2.71S600.17,241.63,600.17,241.63Z" transform="translate(0 0)"/>
    <path class="cls-2" d="M553.32,237.21a4.65,4.65,0,0,0,1.61,1A10.13,10.13,0,0,1,565.29,234s4.83,0.8,5,4.32c0.71-.6,5-9.85-4.62-14-7.14-2.11-10.15,1.51-10.66,1.91C555.84,233.19,553.32,237.21,553.32,237.21Z" transform="translate(0 0)"/>
    <path class="cls-6" d="M555,226.25s-2.41-.1-3.22-0.2c0.4,8.75-1.41,12-1.41,12s2.41,0,3.12-.8A16.62,16.62,0,0,0,555,226.25Z" transform="translate(0 0)"/>
    <path class="cls-2" d="M519.95,235.22H467.07s0.4-2.61,1-2.92c2.51-.9,12.16-5.33,17.29-5.43s7.54,2.71,7.54,2.71,5.35-4.48,7.36-4.48c2.31,0.1,18.07,7.29,18.07,7.29Z" transform="translate(0 0)"/>
    <path class="cls-3" d="M501.46,232.18s11,1.8,15.76,2.91a16.09,16.09,0,0,1,2.31.09s-0.6-1.46-1.19-2.77c-2.67-1-8.92-3.74-9.78-4.17C504.71,232.18,501.46,232.18,501.46,232.18Z" transform="translate(0 0)"/>
    <path class="cls-7" d="M468.08,232.26s-7.44.6-12.46,1.51c-1.51-.2-2.11-0.5-2.81-0.3s-1.41,1.21-.6,1.61c2.71-.2,10.86.2,10.86,0.2l-5.53.3s-0.3,1,1,.9,2.61,0.9,4.83.7a6.12,6.12,0,0,0,3.72-2Z" transform="translate(0 0)"/>
    <path class="cls-2" d="M552,226l-2.81-2.31a15,15,0,0,1,.8,5.33c-1.41,8.34-12.16,14.38-12.16,14.38a1.75,1.75,0,0,1,.5.9c2.92,0.1,5.93-3.52,12.06-6.33C552.22,235.8,552,226,552,226Z" transform="translate(0 0)"/>
    <path class="cls-2" d="M533,244c-2.92-.5-12.87-5.23-10.35-22.42,10.56-9.25,20.91-1.61,23-.6,0.9,0,2.11-.8,2.41-0.5,7.14,14.38-7.54,21.21-10.25,22.92a9,9,0,0,0-3.52-1.71A9.31,9.31,0,0,1,533,244Z" transform="translate(0 0)"/>
    <path class="cls-7" d="M538.46,244.35c-1-2.21-4.13-2.61-4.13-2.61a16,16,0,0,0-2,3.92c-0.5.8-2.51,1.31-2.51,1.81s1.71,1.31,1.71,1.71-0.3,1.5.3,2.1,1.51-.69,2.11-0.59,0.5,0.5,1.41.6a1.35,1.35,0,0,0,1.31-.6,2.28,2.28,0,0,1,1.11.1c0.57,0.14,1.34-.45,1.11-0.21a1.52,1.52,0,0,0,1.21.11c0.3-.3-0.1-3-0.1-3A9.27,9.27,0,0,0,538.46,244.35Z" transform="translate(0 0)"/>
    <path class="cls-7" d="M518.45,232.68l-10.05-4.52s-3,3.82-6.94,4a4.39,4.39,0,0,1-1.91-2.61c0-.8,1.21-1.31,1.21-1.31a31.85,31.85,0,0,1-1.41-5.93c0.2-.8,2-1.81,2-2.21s-0.6-1.91-.6-2.51,2.31-2.81,2.31-2.81a11.63,11.63,0,0,0,4.12.8c0,1.31,4.3,5,4.3,5l2.43-.13a48.78,48.78,0,0,0,5,.6A15.6,15.6,0,0,0,518.45,232.68Z" transform="translate(0 0)"/>
    <path class="cls-15" d="M533,244a9.17,9.17,0,0,1-.5,1.11c-8.42-.95-19.74-11.72-13.61-24.2l4.17,0.61c-0.07.06-.14-0.1-0.2,0C520,240.53,533,244,533,244Z" transform="translate(0 0)"/>
    <path class="cls-3" d="M562.43,257.22l-3.26,3.12a0.3,0.3,0,0,1-.32-0.41c2.58-2.17,9.81-14.37,9.27-24.68a3.53,3.53,0,0,1,2.18,3.39C571.12,243.17,562.43,257.22,562.43,257.22Z" transform="translate(0 0)"/>
    <path class="cls-3" d="M548.1,220.52a14.69,14.69,0,0,1,1.17,11.87C547.1,239.18,538,243.33,538,243.33s-0.38-.33-0.92-0.74C554.81,234.86,548.1,220.52,548.1,220.52Z" transform="translate(0 0)"/>
    <path class="cls-3" d="M544.25,225.34c-1,.58-8.88,2.81-9.36,16.28-0.37.32-.57,0.11-0.57,0.11S533.66,228.67,544.25,225.34Z" transform="translate(0 0)"/>
    <path class="cls-3" d="M537.86,230c-6.42.69-8.91-1-8.91-1l-0.09.43s3,1.71,8.4,1.54A3,3,0,0,0,537.86,230Z" transform="translate(0 0)"/>
    <path class="cls-3" d="M555.17,238.17s4.26-5.17,9.94-4.11A8,8,0,0,0,554.65,238Z" transform="translate(0 0)"/>
    <path class="cls-3" d="M496.66,226.78a14.85,14.85,0,0,0-3.6,3.77,1.48,1.48,0,0,1-.6-0.17c-5.83-5.31-12.42-2.14-13.54-2.23,10.19-3.6,14,1.44,14,1.44A38.79,38.79,0,0,1,496.66,226.78Z" transform="translate(0 0)"/>
    <path class="cls-9" d="M534.89,241.62s-3.46,4.69-3.11,7.95c-0.69-1.54.77-5.83,2.55-7.84Z" transform="translate(0 0)"/>
    <path class="cls-5" d="M554.74,228.75a13.83,13.83,0,0,1-1.8,8.74l-0.6.17S555.34,233.38,554.74,228.75Z" transform="translate(0 0)"/>
    <path class="cls-3" d="M571.32,229.77c11-1.7,22.82,6,22.82,6s3.44-1.48,6.1-2.42c-5.23,2.57-6.17,3.51-6.17,3.51s-12-8.14-22.27-5.48C571.62,230.81,571.53,230.53,571.32,229.77Z" transform="translate(0 0)"/>
    <path class="cls-3" d="M606,232a22.69,22.69,0,0,1-7.05,9.71c0.69,0,.64-0.06,1.22-0.06C605.54,236.29,606,232,606,232Z" transform="translate(0 0)"/>
    <path class="cls-3" d="M566.09,256.11s-1.41,6.82-5.26,10.17c-0.86,0-1.63.17-2.74,0.17C563.05,264.22,566.09,256.11,566.09,256.11Z" transform="translate(0 0)"/>
    <path class="cls-4" d="M625.33,235.95s0.69-.6,4.11,1.88a12.21,12.21,0,0,0,4.4.88s-3.71-.2-4.57-0.11C628.85,237.57,625.33,235.95,625.33,235.95Z" transform="translate(0 0)"/>
    <path class="cls-6" d="M620.78,239.12s-10.35-7.37-14.89-6A1.32,1.32,0,0,0,606,232C611.2,231.15,620.78,239.12,620.78,239.12Z" transform="translate(0 0)"/>
    <path class="cls-6" d="M582.59,254.45a52.91,52.91,0,0,0-16.53,1.46,4.41,4.41,0,0,1-.26,1.8C570.17,254.28,582.59,255.05,582.59,254.45Z" transform="translate(0 0)"/>
    <path class="cls-6" d="M560.83,266.27c7.88-.17,22.62-8.74,22.62-8.74s-15.51,7.62-21.16,7.2C561.68,265.16,561.51,265.67,560.83,266.27Z" transform="translate(0 0)"/>
    <path class="cls-4" d="M536.72,215h69.17s-45.27,6.72-64.39,1.49C539.41,215.76,536.72,215,536.72,215Z" transform="translate(0 0)"/>
    <path class="cls-11" d="M513.92,220.42c-0.1.6-1.68,0.64-3.49,2.25,0.45-2.27-2.44-4.16-3.24-7.07-1.51.5-4.12-.8-4.12-0.8A15,15,0,0,1,502,216.1a4.76,4.76,0,0,1-3-1.71s-2.41-2.51.5-3.82,4.25,0.32,5.05.82a7,7,0,0,0,2.51.6s2.21-.9,3.42-0.2,2.67,3.25,2.67,3.25S512.56,218.61,513.92,220.42Z" transform="translate(0 0)"/>
    <path class="cls-12" d="M499.74,210.42c-1.54,3.17,2.48,5.23,2.48,5.23l-0.27.45C498.11,213.59,499.14,210.93,499.74,210.42Z" transform="translate(0 0)"/>
    <path class="cls-12" d="M508.22,214.9c-2.66,1.29-6.51-1-6.51-1s-0.34-.14-0.26.12C505.65,216.53,508.22,215.25,508.22,214.9Z" transform="translate(0 0)"/>
    <path class="cls-2" d="M554.15,241.88l1-3.7s4.44-5.52,9.94-4.11c2.22,1.8-5.31,20.8-9.26,20.61S554.15,241.88,554.15,241.88Z" transform="translate(0 0)"/>
    <path class="cls-6" d="M603.64,237.74s2.07,2.63,16.94,4H600.17Z" transform="translate(0 0)"/>
    <path class="cls-3" d="M568.13,234.93c1.6-6-2.71-10.56-8-11.23,13.72-1.33,12.61,13.17,10.2,14.62A3.35,3.35,0,0,0,568.13,234.93Z" transform="translate(0 0)"/>
    <path class="cls-2" d="M534.89,241.62a4,4,0,0,0,1.37.58c15.31-11.57,9.63-16.71,8-16.86C534.34,229.84,534.89,241.62,534.89,241.62Z" transform="translate(0 0)"/>
    <path class="cls-3" d="M522.66,226s3.86-13,21.2-4.42a4.65,4.65,0,0,0,1.83-.54s-12.82-9.21-22.61.54C522.43,222.47,522.66,226,522.66,226Z" transform="translate(0 0)"/>
    <path class="cls-4" d="M520,221.11s-5.43,12.36,5.79,21.54c-12.13-9.07-6.24-21.66-6.24-21.66Z" transform="translate(0 0)"/>
    <path class="cls-9" d="M516.2,231.54c-1.93-.68-7.8-3.38-7.8-3.38s-3.08,3.95-6.6,4.06c5.78-1.81,8.16-7.6,8.16-7.6S509.17,227.12,516.2,231.54Z" transform="translate(0 0)"/>
    <path class="cls-7" d="M538,243.33c2.39,6.69-1.32,7.35-1.32,7.35a8.3,8.3,0,0,0,1.55.14c0.45-.68,1.47,0,1.47,0l0.39-.14A11,11,0,0,0,538,243.33Z" transform="translate(0 0)"/>
    <path class="cls-9" d="M455.61,233.76a59.66,59.66,0,0,1,12.17-.52l0.3-1S455.8,233.38,455.61,233.76Z" transform="translate(0 0)"/>
    <path class="cls-9" d="M462.34,235.17l-10.14-.1s-1-.82.6-1.61C452.47,234.83,462.34,235.17,462.34,235.17Z" transform="translate(0 0)"/>
  </g>
  <path class="cls-17" d="M176.28,275.69a24.55,24.55,0,0,0-41.1-18.16A35.86,35.86,0,0,0,66.2,276a27,27,0,0,0-22.86,26.3h160A27.07,27.07,0,0,0,176.28,275.69Z" transform="translate(0 0)"/>
  <path class="cls-17" d="M272.15,232.33h-3.79a21.7,21.7,0,0,0-43.22,0h-3.79a13,13,0,0,0-13,12.35h76.73A13,13,0,0,0,272.15,232.33Z" transform="translate(0 0)"/>
  <path class="cls-17" d="M903.47,64.92h-3.79a21.7,21.7,0,0,0-43.22,0h-3.79a13,13,0,0,0-13,12.35h76.73A13,13,0,0,0,903.47,64.92Z" transform="translate(0 0)"/>
  <path class="cls-17" d="M943.37,256.35a37.41,37.41,0,0,0-25.26,9.81,54.84,54.84,0,0,0-105.48,28.32,41.36,41.36,0,0,0-35,40.22H980V285.55A37.59,37.59,0,0,0,943.37,256.35Z" transform="translate(0 0)"/>
</svg>
