<svg id="home-hero" xmlns="http://www.w3.org/2000/svg" viewBox="0 0 336.16 283">
  <defs>
    <style>
      #home-hero .cls-1 {
        fill: #26c6da;
      }

      #home-hero .cls-2 {
        fill: #fff;
      }

      #home-hero .cls-3 {
        fill: none;
        stroke: #fff;
        stroke-linecap: round;
        stroke-miterlimit: 10;
      }
    </style>
  </defs>
  <title>Vector Smart Object21</title>
  <g>
    <path class="cls-1" d="M293.92,91.14a75.63,75.63,0,1,0,0,106.95A75.7,75.7,0,0,0,293.92,91.14Zm-16.78,90.17a51.9,51.9,0,1,1,0-73.39A51.92,51.92,0,0,1,277.14,181.31Z" transform="translate(0 0)"/>
    <path class="cls-2" d="M253.31,131.75a18.2,18.2,0,1,0,0,25.73A18.21,18.21,0,0,0,253.31,131.75Z" transform="translate(0 0)"/>
    <g>
      <g>
        <path class="cls-2" d="M283.27,100.58L278.34,85.8l25.9-25.9,4.93,14.8Zm-3-14.34L284,97.47l23.24-23.24L303.51,63Z" transform="translate(0 0)"/>
        <path class="cls-2" d="M296.88,104.33L282.09,99.4,308,73.5l14.79,4.93ZM285.2,98.66l11.23,3.74,23.24-23.24-11.23-3.74Z" transform="translate(0 0)"/>
      </g>
      <g>
        <path class="cls-2" d="M283.27,100.58L278.34,85.8l25.9-25.9,4.93,14.8Zm-3-14.34L284,97.47l23.24-23.24L303.51,63Z" transform="translate(0 0)"/>
        <path class="cls-2" d="M296.88,104.33L282.09,99.4,308,73.5l14.79,4.93ZM285.2,98.66l11.23,3.74,23.24-23.24-11.23-3.74Z" transform="translate(0 0)"/>
      </g>
      <path class="cls-2" d="M239.22,144.43a0.84,0.84,0,0,1-.59-1.43l72.71-72.71a0.84,0.84,0,1,1,1.19,1.19l-72.71,72.71A0.84,0.84,0,0,1,239.22,144.43Z" transform="translate(0 0)"/>
    </g>
    <g>
      <g>
        <path class="cls-2" d="M98.24,243.22a0.88,0.88,0,0,1-.88-0.88c0-18.06,8.87-35,23.15-44.3a0.88,0.88,0,1,1,1,1.48c-13.79,8.95-22.35,25.35-22.35,42.82A0.88,0.88,0,0,1,98.24,243.22Z" transform="translate(0 0)"/>
        <path class="cls-2" d="M219.23,243.22a0.88,0.88,0,0,1-.88-0.88c0-17.51-8.59-33.93-22.42-42.87a0.88,0.88,0,0,1,1-1.48c14.33,9.25,23.23,26.25,23.23,44.35A0.88,0.88,0,0,1,219.23,243.22Z" transform="translate(0 0)"/>
        <path class="cls-3" d="M122.67,187.27" transform="translate(0 0)"/>
        <path class="cls-2" d="M193.92,185a0.88,0.88,0,0,1-.77-1.31,94.26,94.26,0,0,0,11.57-44c0.82-44-27-80.36-62-81a49.34,49.34,0,0,0-10.34,1c0.34,1.69.68,3.87,1,6.16,0.49,3.16,1,6.43,1.52,8.5L135,74.77,96.45,114.51,97,126.83,110.86,139c2.58-3.35,13.61-16,34.58-18.66l1.68-.21-0.79,1.5c-12.91,24.62-20.08,44.31-22.57,62a0.88,0.88,0,0,1-1.75-.24c2.47-17.5,9.45-36.92,22-61-22.12,3.48-32.14,18.3-32.24,18.46l-0.56.85-15.89-14-0.63-13.83,0.27-.27,38.15-39.31c-0.5-2.14-1-5.21-1.44-8.17-0.42-2.68-.81-5.22-1.2-6.93l-0.19-.87,0.88-.18a51.68,51.68,0,0,1,11.6-1.2c36,0.67,64.6,37.82,63.76,82.81a96,96,0,0,1-11.8,44.85A0.88,0.88,0,0,1,193.92,185Z" transform="translate(0 0)"/>
        <path class="cls-2" d="M190.85,119.43c-9.47-26.14-30.72-42.6-56.85-44l0.1-1.76C161,75.1,182.79,92,192.51,118.83Z" transform="translate(0 0)"/>
        <path class="cls-2" d="M146.67,120.89l-1.57-.8c2.49-4.91,5.26-10.1,8.21-15.43l1.55,0.86C151.9,110.83,149.15,116,146.67,120.89Z" transform="translate(0 0)"/>
        <path class="cls-2" d="M198.25,199.37H120.8a4.89,4.89,0,0,1-4.89-4.89v-6a4.89,4.89,0,0,1,4.89-4.89h11.66v1.77H120.8a3.13,3.13,0,0,0-3.12,3.12v6a3.13,3.13,0,0,0,3.12,3.12h77.45a3.13,3.13,0,0,0,3.12-3.12v-6a3.13,3.13,0,0,0-3.12-3.12H172.51v-1.77h25.74a4.89,4.89,0,0,1,4.89,4.89v6A4.89,4.89,0,0,1,198.25,199.37Z" transform="translate(0 0)"/>
        <path class="cls-2" d="M220.28,258.46H98.77a4.9,4.9,0,0,1-4.89-4.89v-6a4.89,4.89,0,0,1,4.89-4.89h13.66v1.77H98.77a3.13,3.13,0,0,0-3.12,3.12v6a3.13,3.13,0,0,0,3.12,3.12H220.28a3.13,3.13,0,0,0,3.12-3.12v-6a3.13,3.13,0,0,0-3.12-3.12H181.86v-1.77h38.42a4.89,4.89,0,0,1,4.89,4.89v6A4.9,4.9,0,0,1,220.28,258.46Z" transform="translate(0 0)"/>
      </g>
      <rect class="cls-2" x="158.16" y="183.58" width="8.01" height="1.77"/>
    </g>
    <path class="cls-2" d="M307.25,283a28.91,28.91,0,1,1,28.91-28.91A28.94,28.94,0,0,1,307.25,283Zm0-56.51a27.6,27.6,0,1,0,27.6,27.6A27.64,27.64,0,0,0,307.25,226.49Z" transform="translate(0 0)"/>
    <polygon class="cls-2" points="300.92 262.7 293 254.78 293.92 253.86 300.92 260.86 320.35 241.43 321.27 242.35 300.92 262.7"/>
    <polygon class="cls-2" points="226.72 49.65 226.68 47.88 254.41 47.24 253.76 19.51 255.53 19.47 256.21 48.97 226.72 49.65"/>
    <path class="cls-2" d="M253.55,47.92a134.54,134.54,0,0,0-9.34-9.87c-52.92-50.51-137.63-48-188.82,5.66l-1.28-1.22C106-11.85,191.8-14.41,245.43,36.78a136.64,136.64,0,0,1,9.46,10Z" transform="translate(0 0)"/>
    <path class="cls-2" d="M11.25,216.36c-0.83-2.21-1.63-4.47-2.35-6.7l1.68-.55c0.72,2.21,1.5,4.44,2.33,6.63Zm-4.4-13.5c-0.63-2.28-1.21-4.6-1.74-6.89l1.72-.39c0.52,2.27,1.1,4.56,1.72,6.81ZM3.7,189c-0.42-2.32-.79-4.68-1.1-7l1.75-.23c0.31,2.31.67,4.65,1.08,6.94ZM1.82,174.92c-0.2-2.34-.35-4.72-0.45-7.09l1.76-.07c0.1,2.34.25,4.7,0.45,7ZM3,160.73H1.25c0-2.36.08-4.75,0.2-7.1l1.76,0.09C3.09,156,3,158.4,3,160.73Zm0.71-14L2,146.54c0.23-2.36.51-4.73,0.85-7.06l1.75,0.25C4.23,142,3.95,144.37,3.72,146.7Zm2-13.9L4,132.47c0.44-2.31.94-4.65,1.49-6.95l1.72,0.41C6.65,128.21,6.15,130.52,5.72,132.8Z" transform="translate(0 0)"/>
    <circle class="cls-1" cx="29.06" cy="85" r="29.06"/>
    <g>
      <g>
        <line class="cls-2" x1="40.68" y1="73.39" x2="17.45" y2="96.61"/>
        <rect class="cls-2" x="12.64" y="84.25" width="32.85" height="1.51" transform="translate(-51.59 45.45) rotate(-45)"/>
      </g>
      <g>
        <line class="cls-2" x1="17.45" y1="73.39" x2="40.68" y2="96.61"/>
        <rect class="cls-2" x="28.31" y="68.58" width="1.51" height="32.85" transform="translate(-51.59 45.45) rotate(-45)"/>
      </g>
    </g>
  </g>
</svg>
