<?xml version="1.0" encoding="UTF-8" standalone="no"?>
<svg width="173px" height="36px" viewBox="0 0 173 36" version="1.1" xmlns="http://www.w3.org/2000/svg" xmlns:xlink="http://www.w3.org/1999/xlink">
    <!-- Generator: sketchtool 40 (33762) - http://www.bohemiancoding.com/sketch -->
    <title>71211D47-15C4-4118-A822-91231FC07D5F</title>
    <desc>Created with sketchtool.</desc>
    <defs>
        <polygon id="path-1" points="4.50304499e-05 35.8138866 29.0809781 35.8138866 29.0809781 0.146801476 4.50304499e-05 0.146801476"></polygon>
        <polygon id="path-3" points="0 36.0216781 179.905226 36.0216781 179.905226 0.354592937 0 0.354592937"></polygon>
    </defs>
    <g id="Mobile" stroke="none" stroke-width="1" fill="none" fill-rule="evenodd">
        <g id="LOGGED-OUT-HEADER-M" transform="translate(-18.000000, -12.000000)">
            <g id="HEADER">
                <g id="LOGO" transform="translate(18.000000, 12.000000)">
                    <g id="Group-3" transform="translate(0.000000, 0.207791)">
                        <mask id="mask-2" fill="white">
                            <use xlink:href="#path-1"></use>
                        </mask>
                        <g id="Clip-2"></g>
                        <path d="M15.0606955,0.679293689 C15.0606955,0.384981552 14.8226994,0.146695098 14.5295363,0.146695098 C14.2360196,0.146695098 13.9983772,0.384981552 13.9983772,0.679293689 L0.0492612967,35.032612 C-0.0734499018,35.2989113 0.0411277014,35.614499 0.306,35.7389611 C0.567335953,35.8722881 0.887375246,35.7680378 1.02034185,35.5059936 C1.03590177,35.475144 1.04863261,35.442876 1.05818075,35.4098989 L14.5472181,2.2951737 L23.7392417,24.8763611 L24.3361768,26.3128171 L28.0486326,35.4336566 C28.1320904,35.713785 28.4252534,35.874061 28.705332,35.7928593 L28.7647426,35.7928593 C29.0306758,35.6634328 29.1509116,35.3492635 29.0395167,35.074454 L24.9150766,24.9001188 L24.3181415,23.4640174 L15.0606955,0.679293689 Z" id="Fill-1" fill="#1976D2" mask="url(#mask-2)"></path>
                    </g>
                    <path d="M16.2723536,28.4116881 L12.7986012,28.4116881 L14.5236306,24.1622464 L16.2723536,28.4116881 Z M34.3635914,35.1865408 L22.1812338,5.08833773 C22.1815874,4.79438018 21.9442986,4.55538454 21.6507819,4.55538454 C21.3572652,4.55502995 21.1192692,4.79296181 21.1189155,5.08727395 L21.1189155,5.08833773 L11.5272849,28.7109646 C11.518444,28.729758 11.518444,28.7517428 11.5272849,28.7708908 L11.4915678,28.872659 L11.4915678,28.9322306 C11.5251631,29.2368259 11.782609,29.4669567 12.0881493,29.4651838 L17.072275,29.4651838 C17.3633163,29.5027706 17.6296031,29.2967521 17.6670884,29.0049221 C17.6677957,28.9985395 17.6685029,28.9925114 17.6692102,28.9861287 L17.6692102,28.9265571 C17.6692102,28.8364905 17.6465776,28.7478423 17.6034342,28.6691226 L15.1739646,22.684303 L21.6560864,6.70457233 L33.3727073,35.5755293 C33.456165,35.8556577 33.7493281,36.0159337 34.0294067,35.9347319 L34.0891709,35.9347319 C34.3568723,35.7914764 34.4749862,35.4698606 34.3635914,35.1865408 L34.3635914,35.1865408 Z" id="Fill-4" fill="#26C6DA"></path>
                    <path d="M49.0502318,14.830495 L47.1915285,19.496938 L50.8951434,19.496938 L49.0569509,14.8166659 L49.0502318,14.830495 Z M51.2576189,20.4493747 L46.8428448,20.4493747 L45.5718821,23.5807849 L44.4169116,23.5807849 L49.0502318,12.6171259 L53.6902711,23.5807849 L52.5218625,23.5807849 L51.2576189,20.4493747 Z" id="Fill-6" fill="#1976D2"></path>
                    <path d="M65.0546365,23.3066136 C64.3494892,23.6044717 63.5920039,23.7580104 62.8267387,23.7587196 C62.1032024,23.7597834 61.3870923,23.6129819 60.7222593,23.32718 C59.4208841,22.7768518 58.382613,21.7432134 57.8245776,20.4425665 C57.5356582,19.7791231 57.3888998,19.0624908 57.3942043,18.3387666 C57.3878389,17.5951852 57.5342436,16.8579865 57.8245776,16.1736221 C58.1000589,15.5204619 58.4993124,14.9268734 59.0000589,14.4261881 C59.4947937,13.9347223 60.0793517,13.5439609 60.7222593,13.2751795 C61.4093713,12.9932781 62.1456385,12.8510863 62.8882711,12.8571144 C63.8126719,12.8464766 64.7232809,13.0829901 65.5260314,13.5421879 C66.3220629,14.0106052 66.996444,14.6609287 67.4943615,15.4403239 L66.5239882,16.009091 C66.129332,15.3832345 65.593222,14.8598553 64.9588016,14.48115 C64.3176621,14.1017356 63.5849312,13.9074187 62.8405305,13.9191202 C62.2570334,13.918411 61.680609,14.0471283 61.1526326,14.2960525 C60.1076424,14.7790081 59.2808448,15.637123 58.8359725,16.7012564 C58.6089391,17.233855 58.4925933,17.8075864 58.4943615,18.3866366 C58.4933006,19.553602 58.9470138,20.6748249 59.7586051,21.5113096 C60.1507859,21.915191 60.6144008,22.2424802 61.1254028,22.4775754 C62.1357367,22.9275538 63.2825737,22.9598217 64.3166012,22.5665782 C64.7848134,22.3836082 65.2208448,22.1268829 65.6080747,21.8059763 C65.9804519,21.5169831 66.2760904,21.1404054 66.4691749,20.709575 C66.6474067,20.2741348 66.7446562,19.8096181 66.7563261,19.3390733 L63.3395088,19.3390733 L63.3395088,18.3182002 L68.006778,18.3182002 C68.0191552,18.9724242 67.9526719,19.625939 67.8087426,20.2642062 C67.6520825,20.9007006 67.3422986,21.4889702 66.9066208,21.9772447 C66.4016306,22.5598409 65.7672102,23.0151382 65.0546365,23.3066136" id="Fill-8" fill="#1976D2"></path>
                    <mask id="mask-4" fill="white">
                        <use xlink:href="#path-3"></use>
                    </mask>
                    <g id="Clip-11"></g>
                    <polygon id="Fill-10" fill="#1976D2" mask="url(#mask-4)" points="72.7357564 23.5807849 73.8359136 23.5807849 73.8359136 13.035191 72.7357564 13.035191"></polygon>
                    <polygon id="Fill-12" fill="#1976D2" mask="url(#mask-4)" points="79.1729312 13.0352264 80.2730884 13.0352264 80.2730884 22.5666846 83.0749352 22.5666846 83.0749352 23.5808204 79.1729312 23.5808204"></polygon>
                    <polygon id="Fill-13" fill="#1976D2" mask="url(#mask-4)" points="87.428 13.0352264 92.65578 13.0352264 92.65578 14.0426249 88.555387 14.0426249 88.555387 17.3999109 92.5737367 17.3999109 92.5737367 18.4073094 88.5348762 18.4073094 88.5348762 22.5734218 92.6352692 22.5734218 92.6352692 23.5875576 87.4074892 23.5875576 87.4074892 13.0352264"></polygon>
                    <path d="M109.083804,14.8404236 L107.190798,19.5068666 L110.894766,19.5068666 L109.036063,14.8265945 L109.083804,14.8404236 Z M111.291191,20.4593033 L106.869697,20.4593033 L105.578224,23.5907135 L104.457556,23.5907135 L109.083804,12.6270545 L113.703332,23.5907135 L112.548361,23.5907135 L111.291191,20.4593033 Z" id="Fill-14" fill="#26C6DA" mask="url(#mask-4)"></path>
                    <path d="M120.707843,23.302855 C120.056094,23.0354919 119.462342,22.6447305 118.958413,22.1518463 C117.404542,20.617168 116.941635,18.2871379 117.790004,16.2726954 C118.062656,15.6365557 118.452008,15.05786 118.937902,14.5663942 C119.453147,14.052589 120.060692,13.6412612 120.728354,13.3536863 C121.411222,13.0537007 122.148904,12.8998074 122.894719,12.9012257 C123.491654,12.9019349 124.083992,13.0086674 124.644149,13.2164589 C125.197234,13.4242503 125.712479,13.7231722 126.167961,14.1004591 L126.167961,15.5393972 C125.969218,15.2837357 125.739709,15.0536049 125.484385,14.853969 C125.230122,14.6600067 124.954994,14.4947664 124.66466,14.3607303 C124.376802,14.2270487 124.076919,14.1217346 123.769257,14.0454971 C123.467607,13.9699689 123.157823,13.9309636 122.846625,13.9291907 C122.261006,13.9263539 121.681045,14.0476247 121.145289,14.2855566 C120.632872,14.5178149 120.168904,14.8458134 119.778491,15.2514677 C119.367214,15.6627955 119.037627,16.1485879 118.808118,16.6836686 C118.580377,17.2208769 118.464031,17.799218 118.466507,18.382878 C118.455191,19.5314045 118.923403,20.632061 119.75798,21.4185481 C120.159002,21.7993809 120.620849,22.1100043 121.124778,22.3365892 C121.653108,22.5840951 122.229179,22.7128123 122.812676,22.7135215 C123.11468,22.7099756 123.414916,22.6709703 123.707725,22.597215 C124.01857,22.5199137 124.320574,22.4121175 124.609847,22.27489 C124.900181,22.1394355 125.177077,21.9766774 125.436644,21.7883885 C125.6902,21.6082553 125.919709,21.3962087 126.12022,21.1582769 L126.12022,22.597215 C125.637862,22.940461 125.111301,23.2170435 124.555033,23.419516 C123.997705,23.6152513 123.410318,23.7127644 122.819395,23.7070909 C122.096212,23.7106368 121.379041,23.5730548 120.707843,23.302855" id="Fill-15" fill="#26C6DA" mask="url(#mask-4)"></path>
                    <polygon id="Fill-16" fill="#26C6DA" mask="url(#mask-4)" points="133.985583 23.5906426 132.864916 23.5906426 132.864916 14.0524472 130.281615 14.0524472 130.281615 13.0450486 136.637136 13.0450486 136.637136 14.0524472 134.012813 14.0524472 134.012813 23.5906426"></polygon>
                    <path d="M144.188224,14.2785356 C143.680405,14.50122 143.217143,14.8146801 142.821426,15.2036686 C142.421819,15.5965576 142.099658,16.0614289 141.871564,16.5741703 C141.639933,17.1007408 141.521112,17.6702171 141.523234,18.246076 C141.521112,18.8347003 141.63958,19.4180057 141.871564,19.9591145 C142.32068,21.0225387 143.163037,21.8696612 144.222527,22.322831 C145.313843,22.7891207 146.547674,22.7891207 147.639344,22.322831 C148.151053,22.0927002 148.615022,21.7671839 149.005788,21.3636571 C149.40787,20.956939 149.730031,20.4782385 149.95565,19.9520226 C150.188342,19.4137505 150.306809,18.8325727 150.304334,18.246076 C150.306102,17.6702171 150.187281,17.1007408 149.95565,16.5741703 C149.727556,16.0614289 149.405395,15.5965576 149.005788,15.2036686 C148.611839,14.8072337 148.148578,14.4866817 147.639344,14.2579692 C146.534943,13.7884882 145.286613,13.7959346 144.188224,14.2785356 M143.744059,23.3369668 C143.089128,23.0628665 142.4929,22.6653678 141.98791,22.1653917 C141.482212,21.6639973 141.076593,21.0711179 140.791917,20.4179577 C140.495572,19.7424582 140.344216,19.0116421 140.347752,18.2733797 C140.344216,17.5432728 140.498047,16.820967 140.798637,16.1561052 C141.089324,15.5128736 141.499894,14.9313412 142.00842,14.4430667 C142.518715,13.9519555 143.117065,13.5611941 143.771289,13.2917035 C145.128538,12.732865 146.650935,12.732865 148.008185,13.2917035 C148.662762,13.5615487 149.260758,13.9519555 149.771407,14.4430667 C150.27958,14.9316958 150.690149,15.5132282 150.980837,16.1561052 C151.276122,16.8152935 151.427831,17.5301529 151.425002,18.2528133 C151.43066,18.990012 151.284255,19.7201188 150.994629,20.3973913 C150.118676,22.441265 148.108263,23.7610599 145.889914,23.7482946 C145.154354,23.7571594 144.424452,23.6174498 143.744059,23.3369668" id="Fill-17" fill="#26C6DA" mask="url(#mask-4)"></path>
                    <path d="M158.545717,13.9976271 L157.281473,13.9976271 L157.281473,17.9102056 L158.04002,17.9102056 C158.342024,17.9109148 158.643674,17.8878662 158.942141,17.8417691 C159.545796,17.7527663 160.061749,17.3595227 160.308939,16.8003297 C160.5678,16.1943303 160.537741,15.5032287 160.226896,14.9227601 C160.052554,14.6195831 159.786974,14.3795237 159.46835,14.2373319 C159.17943,14.1004591 158.865049,14.0256399 158.545717,14.0181935 L158.545717,13.9976271 Z M157.527603,18.7942058 L157.274754,18.7942058 L157.274754,23.5907844 L156.140295,23.5907844 L156.140295,13.0451905 L158.01279,13.0451905 C158.442456,13.0437721 158.871768,13.0735579 159.297544,13.1341933 C159.713772,13.1962471 160.108428,13.3607782 160.445442,13.6139575 C160.80332,13.8685553 161.08446,14.2171201 161.258802,14.6210015 C161.434558,15.0372936 161.522967,15.4851445 161.518369,15.9368959 C161.526149,16.3368767 161.456483,16.73473 161.313261,17.1084709 C161.183477,17.4403699 160.982967,17.7396464 160.725521,17.9857339 C160.465953,18.2272117 160.158644,18.4116 159.823752,18.5268427 C159.452083,18.6569783 159.062024,18.7264785 158.668782,18.7325066 L162.085599,23.5907844 L160.759823,23.5907844 L157.527603,18.7942058 Z" id="Fill-18" fill="#26C6DA" mask="url(#mask-4)"></path>
                    <path d="M170.743776,23.5221352 C170.320829,23.6753194 169.874542,23.7515569 169.424719,23.7483655 C168.739375,23.7621946 168.065348,23.5685869 167.491045,23.193073 C166.926644,22.8129494 166.477175,22.2842513 166.192499,21.665132 L166.951045,20.9800585 C167.179493,21.4715243 167.518629,21.9034185 167.941929,22.2406364 C168.380436,22.5704078 168.918314,22.7399032 169.465741,22.7204006 C169.764562,22.7221736 170.061261,22.66863 170.340633,22.5629613 C170.618943,22.4601294 170.876389,22.3069452 171.099179,22.1105007 C171.31631,21.9193751 171.493128,21.6864076 171.618314,21.4254272 C171.74633,21.1534544 171.811752,20.8559509 171.809984,20.5552561 C171.808923,20.3116508 171.737843,20.0737189 171.604876,19.869828 C171.469434,19.6670008 171.30075,19.4886406 171.105898,19.3421937 C170.892303,19.1886549 170.663147,19.0578101 170.422676,18.9517869 L169.7391,18.643291 L169.39077,18.4652854 L168.768727,18.1500522 L168.147037,17.8415564 L167.818864,17.6773798 C167.117253,17.2944195 166.701026,16.5373636 166.75301,15.7381111 C166.746644,15.3441583 166.818786,14.9526877 166.964837,14.5867478 C167.086134,14.2544942 167.271792,13.9491897 167.511556,13.6892731 C167.774306,13.433257 168.085505,13.232912 168.427116,13.0999396 C168.795957,12.9591662 169.187784,12.889666 169.582086,12.8942757 C170.112185,12.8999492 170.634149,13.0286664 171.105898,13.271208 C171.58189,13.4988567 171.993167,13.8428118 172.30189,14.2718693 L171.686919,15.0324711 C171.459532,14.6966716 171.160711,14.415834 170.812028,14.2101701 C170.442479,14.0048608 170.024837,13.9030926 169.602597,13.9155034 C169.368491,13.9155034 169.136861,13.9594729 168.919375,14.045639 C168.708609,14.1286137 168.515878,14.2520121 168.352145,14.4087422 C168.011242,14.7385136 167.820633,15.1945201 167.825937,15.6696746 C167.822754,15.8412976 167.855289,16.0115022 167.921418,16.1696507 C167.985073,16.3160976 168.072774,16.4504883 168.18134,16.5671494 C168.293442,16.6870018 168.41969,16.7926705 168.5569,16.8823825 C168.695171,16.975995 168.838747,17.0603881 168.987627,17.1359164 L169.281497,17.2798812 L169.568295,17.4238459 L171.426998,18.2528842 C171.857018,18.4581935 172.23187,18.7638526 172.520436,19.1436216 C172.790259,19.5478576 172.924287,20.0279764 172.903069,20.5141233 C172.905898,20.9509818 172.815014,21.3832306 172.636782,21.7817931 C172.458196,22.1757458 172.19969,22.5278566 171.878236,22.8164953 C171.551477,23.1260549 171.165662,23.3664689 170.743776,23.5221352" id="Fill-19" fill="#26C6DA" mask="url(#mask-4)"></path>
                </g>
            </g>
        </g>
    </g>
</svg>