<svg id="agile-logo" xmlns="http://www.w3.org/2000/svg" viewBox="0 0 320 50.22" xml:space="preserve" height="100%" preserveAspectRatio="xMaxYMax">
  <defs>
    <style>
      #agile-logo .cls-1 {
        fill: #1e88e5;
      }

      #agile-logo .cls-2, #agile-logo .cls-3 {
        fill: #26c6da;
      }

      #agile-logo .cls-2 {
        fill-opacity: 0.62;
      }
    </style>
  </defs>
  <g>
    <path class="cls-1" d="M21.26,0.64a0.75,0.75,0,0,0-1.5,0L0.07,49a0.75,0.75,0,0,0,.36,1h0a0.75,0.75,0,0,0,1.06-.46l19-46.63,13,31.8,0.84,2L39.6,49.58a0.75,0.75,0,0,0,.93.51h0.08a0.79,0.79,0,0,0,.39-1L35.18,34.74l-0.84-2Z" transform="translate(0 0.11)"/>
    <path class="cls-2" d="M48.52,48.93L31.32,6.56a0.75,0.75,0,1,0-1.5,0h0L16.27,39.82a0.1,0.1,0,0,0,0,.08L16.22,40h0v0.08a0.84,0.84,0,0,0,.84.75h7a0.75,0.75,0,0,0,.84-0.65v0h0V40.12a0.75,0.75,0,0,0-.09-0.36l-3.43-8.43,9.15-22.5L47.12,49.48A0.75,0.75,0,0,0,48,50h0.08A0.84,0.84,0,0,0,48.52,48.93ZM23,39.4h-4.9l2.44-6Z" transform="translate(0 0.11)"/>
    <g>
      <path class="cls-1" d="M82.25,28.18H76l-1.79,4.41H72.59l6.54-15.44,6.55,15.44H84Zm-3.12-7.91-2.62,6.57h5.23l-2.6-6.59h0v0Z" transform="translate(0 0.11)"/>
      <path class="cls-1" d="M101.73,32.21a8.12,8.12,0,0,1-3.15.64,7.52,7.52,0,0,1-3-.61,7.72,7.72,0,0,1-4.09-4.06,7.26,7.26,0,0,1-.61-3,7.62,7.62,0,0,1,.61-3,7.72,7.72,0,0,1,1.66-2.46,7.62,7.62,0,0,1,2.43-1.62,7.91,7.91,0,0,1,3.06-.59,7.34,7.34,0,0,1,3.72,1,8.27,8.27,0,0,1,2.78,2.67l-1.37.8a6.62,6.62,0,0,0-2.21-2.15,5.71,5.71,0,0,0-3-.79,5.59,5.59,0,0,0-2.38.53A6.49,6.49,0,0,0,93,22.91a6,6,0,0,0-.48,2.37,6.3,6.3,0,0,0,1.78,4.4A6.44,6.44,0,0,0,96.18,31a5.92,5.92,0,0,0,4.51.13,6.68,6.68,0,0,0,1.82-1.07,4.05,4.05,0,0,0,1.22-1.54,5.43,5.43,0,0,0,.41-1.93H99.31V25.18h6.59a11.44,11.44,0,0,1-.28,2.74,5.64,5.64,0,0,1-1.27,2.41A6.94,6.94,0,0,1,101.73,32.21Z" transform="translate(0 0.11)"/>
      <path class="cls-1" d="M112.58,17.74h1.55V32.59h-1.55V17.74Z" transform="translate(0 0.11)"/>
      <path class="cls-1" d="M121.66,17.74h1.55V31.17h4v1.43h-5.51V17.74h0Z" transform="translate(0 0.11)"/>
      <path class="cls-1" d="M133.32,17.74h7.38v1.42h-5.79v4.73h5.67v1.42h-5.7v5.87h5.79V32.6h-7.38V17.74h0Z" transform="translate(0 0.11)"/>
    </g>
    <g>
      <path class="cls-3" d="M167,28.18h-6.24l-1.82,4.41h-1.58l6.53-15.44,6.52,15.44h-1.63Zm-3.12-7.91-2.67,6.57h5.23l-2.62-6.59h0Z" transform="translate(0 0.11)"/>
      <path class="cls-3" d="M180.3,32.19a7.72,7.72,0,0,1-2.47-1.62,7.52,7.52,0,0,1-1.65-8.28,7.78,7.78,0,0,1,1.62-2.4,8.14,8.14,0,0,1,2.53-1.71,7.58,7.58,0,0,1,3.06-.64,7.13,7.13,0,0,1,2.47.44A7.52,7.52,0,0,1,188,19.23v2a5.55,5.55,0,0,0-1-1,6.16,6.16,0,0,0-1.16-.69,7,7,0,0,0-1.26-.44,5.51,5.51,0,0,0-1.3-.16,5.87,5.87,0,0,0-2.4.5A6.28,6.28,0,0,0,179,20.85a6.44,6.44,0,0,0-1.37,2,6.06,6.06,0,0,0-.48,2.39A5.79,5.79,0,0,0,179,29.53a6.94,6.94,0,0,0,1.93,1.29,5.65,5.65,0,0,0,2.38.53,5.44,5.44,0,0,0,1.26-.16,6.81,6.81,0,0,0,1.27-.45,7.13,7.13,0,0,0,1.17-.69,5.21,5.21,0,0,0,1-.89v2a9.29,9.29,0,0,1-2.21,1.16,7.2,7.2,0,0,1-2.45.41A7.9,7.9,0,0,1,180.3,32.19Z" transform="translate(0 0.11)"/>
      <path class="cls-3" d="M199.05,32.59h-1.58V19.16h-3.65V17.74h9v1.42h-3.7V32.59h0Z" transform="translate(0 0.11)"/>
      <path class="cls-3" d="M212.83,32.24a7.82,7.82,0,0,1-2.48-1.65,7.92,7.92,0,0,1-1.69-2.46,7.41,7.41,0,0,1-.63-3,7.13,7.13,0,0,1,.64-3,7.8,7.8,0,0,1,1.71-2.41,8,8,0,0,1,2.49-1.62,7.87,7.87,0,0,1,6,0,8,8,0,0,1,2.49,1.62A7.81,7.81,0,0,1,223,22.12a7.14,7.14,0,0,1,.63,3,7.52,7.52,0,0,1-.61,3A7.94,7.94,0,0,1,212.83,32.24Zm0.63-12.75a6.44,6.44,0,0,0-1.93,1.3,6.29,6.29,0,0,0-1.34,1.93,5.79,5.79,0,0,0-.49,2.35,6,6,0,0,0,.49,2.41,6.28,6.28,0,0,0,3.32,3.33,6.16,6.16,0,0,0,4.82,0,6.26,6.26,0,0,0,1.93-1.35,6.44,6.44,0,0,0,1.34-2,6,6,0,0,0,.49-2.4,5.79,5.79,0,0,0-.49-2.35,6.3,6.3,0,0,0-1.34-1.93,6.44,6.44,0,0,0-1.93-1.33A6.16,6.16,0,0,0,213.46,19.48Z" transform="translate(0 0.11)"/>
      <path class="cls-3" d="M232.29,25.84h-0.36v6.75h-1.6V17.74H233a12.63,12.63,0,0,1,1.81.13,3.58,3.58,0,0,1,1.62.68A3.39,3.39,0,0,1,237.56,20a4.63,4.63,0,0,1,.37,1.85,4.36,4.36,0,0,1-.29,1.65,3.44,3.44,0,0,1-.83,1.23,3.59,3.59,0,0,1-1.27.76,5.19,5.19,0,0,1-1.63.29l4.82,6.84h-1.87Zm1.44-6.75h-1.78v5.51H233a8.26,8.26,0,0,0,1.27-.1A2.51,2.51,0,0,0,236.22,23a3,3,0,0,0-.12-2.64,2.33,2.33,0,0,0-1.07-1,3.22,3.22,0,0,0-1.3-.31v0Z" transform="translate(0 0.11)"/>
      <path class="cls-3" d="M250.95,32.5a5.36,5.36,0,0,1-1.86.32,4.82,4.82,0,0,1-2.73-.78,5.23,5.23,0,0,1-1.83-2.15l1.07-1a4.92,4.92,0,0,0,1.4,1.78,3.39,3.39,0,0,0,2.15.68,3.43,3.43,0,0,0,1.23-.22,3.4,3.4,0,0,0,1.07-.64,3,3,0,0,0,.73-1,2.83,2.83,0,0,0,.27-1.23,1.78,1.78,0,0,0-.29-1,3,3,0,0,0-.7-0.74,5.36,5.36,0,0,0-1-.55l-1-.43L249,25.38l-0.88-.44-0.88-.43-0.46-.23a2.89,2.89,0,0,1-1.51-2.73,4.19,4.19,0,0,1,.3-1.62,3.77,3.77,0,0,1,.77-1.26,3.86,3.86,0,0,1,1.29-.83,4.43,4.43,0,0,1,1.63-.29,4.82,4.82,0,0,1,2.15.53,4.44,4.44,0,0,1,1.69,1.41l-0.87,1.07A3.86,3.86,0,0,0,251,19.38a3.33,3.33,0,0,0-1.71-.41,2.63,2.63,0,0,0-1,.18,2.47,2.47,0,0,0-.8.51,2.43,2.43,0,0,0-.74,1.78,1.74,1.74,0,0,0,.14.7,2,2,0,0,0,.37.56,2.89,2.89,0,0,0,.53.44,5.62,5.62,0,0,0,.61.36l0.41,0.2,0.41,0.2,2.62,1.17a4.23,4.23,0,0,1,1.54,1.25,3.22,3.22,0,0,1,.54,1.93,4.29,4.29,0,0,1-.38,1.78,4.39,4.39,0,0,1-1.07,1.46A4.69,4.69,0,0,1,250.95,32.5Z" transform="translate(0 0.11)"/>
    </g>
  </g>
</svg>
