<svg xmlns="http://www.w3.org/2000/svg" id="levelup-team" viewBox="0 0 246 309.45"  xml:space="preserve" width="100%" height="100%" preserveAspectRatio="xMaxYMax">
  <defs>
    <style>
       #levelup-team .cls-0 {
        fill: #fff;
        opacity: 0.2;
        isolation: isolate;
      }

      #levelup-team .cls-1 {
        fill: #fff;
      }

      #levelup-team .cls-2 {
        fill: #1e88e5;
      }

      #levelup-team .cls-3 {
        fill: #ccff90;
      }
    </style>
  </defs>
  <title>Vector Smart Object41</title>
  <circle class="cls-0" cx="89" cy="178" r="132"/>
  <g>
    <path class="cls-1" d="M117.08,259h15.43s20.74,0,20.75-.05c0.33,0,.66.05,1,0.05a11.75,11.75,0,0,0,.36-23.5,26.84,26.84,0,0,0,.19-3,25.62,25.62,0,0,0-32.63-24.71,37.69,37.69,0,0,0-75,5.16c0,0.09,0,.17,0,0.25A23,23,0,0,0,49.78,259H74.36" transform="translate(0 0)"/>
    <path class="cls-1" d="M28.11,9.54L13.18,24.46C5.66,32.38,1,38.39,1,48.15A29.23,29.23,0,0,0,30.26,77.38C40,77.38,47,72.52,53.94,65.22L68.86,50.3Z" transform="translate(0 0)"/>
    <path class="cls-2" d="M28.11,8.09L12.4,23.79C5.38,31.18,0,37.68,0,48.15A30.29,30.29,0,0,0,30.26,78.41c11.06,0,18.53-6.28,24.38-12.42L70.32,50.3ZM53.17,64.54c-8,8.39-14.63,11.81-22.91,11.81a28.23,28.23,0,0,1-28.2-28.2c0-9,3.64-14.32,11.82-22.93L28.11,11,67.41,50.3Z" transform="translate(0 0)"/>
    <path class="cls-2" d="M2.28,29.8A29.92,29.92,0,0,0,18.77,56.48l0.8-1.9A27.75,27.75,0,0,1,32.09,2.06a27.6,27.6,0,0,1,10,1.87L43,2.06A29.83,29.83,0,0,0,2.28,29.8Z" transform="translate(0 0)"/>
    <circle class="cls-1" cx="47.18" cy="31.19" r="28.88"/>
    <path class="cls-2" d="M47.18,1.29a29.9,29.9,0,1,0,29.9,29.9A29.94,29.94,0,0,0,47.18,1.29Zm0,57.75A27.85,27.85,0,1,1,75,31.19,27.88,27.88,0,0,1,47.18,59Z" transform="translate(0 0)"/>
    <circle class="cls-3" cx="95.44" cy="70.51" r="7.14"/>
    <circle class="cls-3" cx="118.03" cy="73.42" r="4.75"/>
    <circle class="cls-3" cx="56.45" cy="110.58" r="6.17"/>
    <path class="cls-3" d="M108.55,87.71a12.82,12.82,0,0,0-9.08.37A24,24,0,0,0,85.8,103.27,18.29,18.29,0,0,0,86.07,115a20.75,20.75,0,0,1,6.62-9.91A12.87,12.87,0,1,0,108.55,87.71Z" transform="translate(0 0)"/>
    <path class="cls-3" d="M85.67,125.36c-1-2.75-2.48-5.89-3.86-8.71V52.77c0-7.79-2.35-11.45-3.52-13-7.65-9.82-21.56-16.39-37.44-16.39a70.94,70.94,0,0,0-21.3,3.73,34,34,0,0,0-.4,5c0,12.69,9.25,23.85,22.27,26.45a17.63,17.63,0,0,0,2.53.35A28.27,28.27,0,0,1,72.21,87.13v31.26a76.85,76.85,0,0,0-3.9,9.33,28.42,28.42,0,0,0-16.08,25.61c0,0.93.67,14.06,11.39,27.85,1.72,2.3,2.32,5.87,2.5,8.61h29c0.2-2.74.82-6.31,2.55-8.61,10.71-13.79,11.39-26.92,11.39-27.85A28.42,28.42,0,0,0,85.67,125.36Z" transform="translate(0 0)"/>
    <rect class="cls-2" x="73.81" y="218.03" width="2.06" height="91.42"/>
    <polygon class="cls-2" points="80.73 225.43 102.58 225.43 102.58 238.43 80.73 238.43 80.73 240.49 102.58 240.49 102.58 253.49 80.73 253.49 80.73 255.54 102.58 255.55 102.58 268.55 80.73 268.55 80.73 270.6 102.58 270.6 102.58 283.6 80.73 283.6 80.73 285.66 102.58 285.66 102.58 298.66 80.73 298.66 80.73 300.71 102.58 300.71 102.58 309.45 104.64 309.45 104.64 218.03 102.58 218.03 102.58 223.38 80.73 223.38 80.73 225.43"/>
    <path class="cls-2" d="M95.18,191.16v-2.06H89.37l5.15-28.59L91.89,160l-2.58,1.73L86,159.56h-2.1l-3.29,2.21-3.28-2.21h-2.1L72,161.77,69.41,160l-2.62.47,5.15,28.59H66.12v2.06h5.14v6.58H66.12v2.06H95.18v-2.06H73.32v-6.58H95.18ZM69.42,163.54H73l3.28-2.21,3.28,2.21h2.1L85,161.34l3.29,2.21h3.61l-4.6,25.56H74Z" transform="translate(0 0)"/>
    <rect class="cls-2" x="71.8" y="206.39" width="17.7" height="2.06"/>
  </g>
</svg>