<svg id="fourSteps_measure_img" xmlns="http://www.w3.org/2000/svg" viewBox="0 0 270 198.43" xml:space="preserve" width="100%" height="100%" preserveAspectRatio="xMaxYMax">
  <defs>
    <style>
      #fourSteps_measure_img .cls-1 {
        fill: #f7f7f7;
      }
      #fourSteps_measure_img .cls-1:hover {
        fill: #D3DBFF;
      }
      #fourSteps_measure_img  .cls-01 {
        pointer-events: none;
      }
      #fourSteps_measure_img .cls-2 {
        fill: #a0a8d5;
      }

      #fourSteps_measure_img .cls-3 {
        fill: #33439b;
      }
    </style>
  </defs>
  <title>coaching step measure</title>
  <g>
    <circle class="cls-1" cx="99.21" cy="99.21" r="99.21"/>
    <g class="cls-01">
      <rect class="cls-2" x="11.24" y="83.67" width="175.94" height="32.84"/>
      <rect class="cls-3" x="11.24" y="82.79" width="175.94" height="0.88"/>
      <g>
        <g>
          <rect class="cls-3" x="12.51" y="83.67" width="1.66" height="5.28"/>
          <rect class="cls-3" x="15.44" y="83.67" width="1.66" height="5.28"/>
          <rect class="cls-3" x="18.28" y="83.67" width="1.66" height="5.28"/>
          <rect class="cls-3" x="21.11" y="83.67" width="1.66" height="5.28"/>
          <rect class="cls-3" x="24.05" y="83.67" width="1.66" height="32.84"/>
          <rect class="cls-3" x="26.88" y="83.67" width="1.66" height="5.28"/>
          <rect class="cls-3" x="29.81" y="83.67" width="1.66" height="5.28"/>
          <rect class="cls-3" x="32.65" y="83.67" width="1.66" height="5.28"/>
          <rect class="cls-3" x="35.58" y="83.67" width="1.66" height="5.28"/>
          <rect class="cls-3" x="38.41" y="83.67" width="1.66" height="11.14"/>
          <rect class="cls-3" x="41.35" y="83.67" width="1.66" height="5.28"/>
          <rect class="cls-3" x="44.18" y="83.67" width="1.66" height="5.28"/>
          <rect class="cls-3" x="47.11" y="83.67" width="1.66" height="5.28"/>
          <rect class="cls-3" x="49.95" y="83.67" width="1.66" height="5.28"/>
          <rect class="cls-3" x="52.78" y="83.67" width="1.66" height="32.84"/>
        </g>
        <g>
          <rect class="cls-3" x="55.62" y="83.67" width="1.66" height="5.28"/>
          <rect class="cls-3" x="58.55" y="83.67" width="1.66" height="5.28"/>
          <rect class="cls-3" x="61.38" y="83.67" width="1.66" height="5.28"/>
          <rect class="cls-3" x="64.32" y="83.67" width="1.66" height="5.28"/>
          <rect class="cls-3" x="67.15" y="83.67" width="1.66" height="11.14"/>
          <rect class="cls-3" x="70.08" y="83.67" width="1.66" height="5.28"/>
          <rect class="cls-3" x="72.92" y="83.67" width="1.66" height="5.28"/>
          <rect class="cls-3" x="75.85" y="83.67" width="1.66" height="5.28"/>
          <rect class="cls-3" x="78.69" y="83.67" width="1.66" height="5.28"/>
          <rect class="cls-3" x="84.45" y="83.67" width="1.66" height="5.28"/>
          <rect class="cls-3" x="87.29" y="83.67" width="1.66" height="5.28"/>
          <rect class="cls-3" x="90.22" y="83.67" width="1.66" height="5.28"/>
          <rect class="cls-3" x="93.05" y="83.67" width="1.66" height="5.28"/>
          <rect class="cls-3" x="95.99" y="83.67" width="1.66" height="11.14"/>
          <rect class="cls-3" x="98.82" y="83.67" width="1.66" height="5.28"/>
          <rect class="cls-3" x="101.75" y="83.67" width="1.66" height="5.28"/>
          <rect class="cls-3" x="104.59" y="83.67" width="1.66" height="5.28"/>
          <rect class="cls-3" x="107.52" y="83.67" width="1.66" height="5.28"/>
        </g>
        <g>
          <rect class="cls-3" x="113.29" y="83.67" width="1.66" height="5.28"/>
          <rect class="cls-3" x="116.02" y="83.67" width="1.66" height="5.28"/>
          <rect class="cls-3" x="118.96" y="83.67" width="1.66" height="5.28"/>
          <rect class="cls-3" x="121.79" y="83.67" width="1.66" height="5.28"/>
          <rect class="cls-3" x="124.72" y="83.67" width="1.66" height="11.14"/>
          <rect class="cls-3" x="127.56" y="83.67" width="1.66" height="5.28"/>
          <rect class="cls-3" x="130.49" y="83.67" width="1.66" height="5.28"/>
          <rect class="cls-3" x="133.33" y="83.67" width="1.66" height="5.28"/>
          <rect class="cls-3" x="136.26" y="83.67" width="1.66" height="5.28"/>
          <rect class="cls-3" x="142.03" y="83.67" width="1.66" height="5.28"/>
          <rect class="cls-3" x="144.86" y="83.67" width="1.66" height="5.28"/>
          <rect class="cls-3" x="147.69" y="83.67" width="1.66" height="5.28"/>
          <rect class="cls-3" x="150.63" y="83.67" width="1.66" height="5.28"/>
          <rect class="cls-3" x="153.46" y="83.67" width="1.66" height="11.14"/>
          <rect class="cls-3" x="156.39" y="83.67" width="1.66" height="5.28"/>
          <rect class="cls-3" x="159.23" y="83.67" width="1.66" height="5.28"/>
          <rect class="cls-3" x="162.16" y="83.67" width="1.66" height="5.28"/>
          <rect class="cls-3" x="165" y="83.67" width="1.66" height="5.28"/>
        </g>
        <g>
          <rect class="cls-3" x="170.76" y="83.67" width="1.66" height="5.28"/>
          <rect class="cls-3" x="173.6" y="83.67" width="1.66" height="5.28"/>
          <rect class="cls-3" x="176.53" y="83.67" width="1.66" height="5.28"/>
          <rect class="cls-3" x="179.36" y="83.67" width="1.66" height="5.28"/>
          <rect class="cls-3" x="182.2" y="83.67" width="1.66" height="11.14"/>
          <rect class="cls-3" x="185.13" y="83.67" width="1.66" height="5.28"/>
        </g>
      </g>
      <g>
        <path class="cls-3" d="M50,107.91V111H48.38v-3.13h-4v-1.76L47.6,94.81H50v11.73h1.27v1.37H50ZM48.29,97.16l-2.44,9.38h2.44V97.16Z" transform="translate(0 0)"/>
        <path class="cls-3" d="M61.78,108.69a5,5,0,0,1-.2,1.27,2.63,2.63,0,0,1-.68.78,3.47,3.47,0,0,1-.88.39,4,4,0,0,1-1.08.1c-0.39,0-.78-0.1-1.08-0.1a1.84,1.84,0,0,1-.88-0.39A5.59,5.59,0,0,1,56.3,110a2.49,2.49,0,0,1-.2-1.27V97.36a5,5,0,0,1,.2-1.27A2.63,2.63,0,0,1,57,95.3a1.76,1.76,0,0,1,.88-0.39,4.16,4.16,0,0,1,1.08-.2,5,5,0,0,1,1.08.2c0.29,0.1.68,0.29,1,.39a1.74,1.74,0,0,1,.68.78A2.45,2.45,0,0,1,62,97.36v11.34h-0.2ZM60.11,97.36a1.65,1.65,0,0,0-.29-1,1.47,1.47,0,0,0-1.76,0,1.49,1.49,0,0,0-.39,1v11.34a1,1,0,0,0,.39.88,1.58,1.58,0,0,0,.88.29,1.36,1.36,0,0,0,.88-0.29,1,1,0,0,0,.39-0.88V97.36h-0.1Z" transform="translate(0 0)"/>
      </g>
      <g>
        <path class="cls-3" d="M21.21,107.91V111H19.55v-3.13h-4v-1.76l3.23-11.34h2.44v11.73h1.27v1.37H21.21ZM19.55,97.16l-2.44,9.38h2.44V97.16Z" transform="translate(0 0)"/>
        <path class="cls-3" d="M29.81,111V96.77l-0.29.59a2.59,2.59,0,0,1-.49.59,1.72,1.72,0,0,1-.49.39,1.39,1.39,0,0,1-.39.2V97A2.52,2.52,0,0,0,29,96.08a5.54,5.54,0,0,0,.78-1.27h1.66V111H29.81Z" transform="translate(0 0)"/>
      </g>
      <g>
        <path class="cls-3" d="M79.86,108.69a5,5,0,0,1-.2,1.27,2.63,2.63,0,0,1-.68.78,3.47,3.47,0,0,1-.88.39,3.67,3.67,0,0,1-1.08.1c-0.39,0-.78-0.1-1.08-0.1a1.84,1.84,0,0,1-.88-0.39,5.59,5.59,0,0,1-.68-0.78,2.49,2.49,0,0,1-.2-1.27v-1.27h1.66v1.27a1,1,0,0,0,.39.88,1.58,1.58,0,0,0,.88.29,1.36,1.36,0,0,0,.88-0.29,1,1,0,0,0,.39-0.88v-3.91a6.07,6.07,0,0,0-.29-1,1.58,1.58,0,0,0-.68-0.39,1.91,1.91,0,0,0-.68-0.1,1,1,0,0,0-.39.1V102h0.59a1.81,1.81,0,0,0,.68-0.2,2,2,0,0,0,.59-0.39,1.19,1.19,0,0,0,.29-0.88V97.26a1.25,1.25,0,0,0-.39-1A1.36,1.36,0,0,0,77.22,96a1.19,1.19,0,0,0-.88.29,1.49,1.49,0,0,0-.39,1v1.37H74.29V97.36a2.71,2.71,0,0,1,.29-1.27,2.63,2.63,0,0,1,.68-0.78,1.74,1.74,0,0,1,1-.39,4.91,4.91,0,0,1,1.17-.2,3.47,3.47,0,0,1,1,.2,7.75,7.75,0,0,1,.88.39,2.63,2.63,0,0,1,.68.78,2.45,2.45,0,0,1,.29,1.27v3.13a3.51,3.51,0,0,1-.2,1.08,2,2,0,0,1-.59.68,1.48,1.48,0,0,1-.78.39,5.8,5.8,0,0,1,.78.39,4.25,4.25,0,0,1,.59.68,1.93,1.93,0,0,1,.2,1.08l-0.39,3.91h0Z" transform="translate(0 0)"/>
        <path class="cls-3" d="M90.9,108.5a5,5,0,0,1-.2,1.27,1.36,1.36,0,0,1-.68.78,1.76,1.76,0,0,1-.88.39,3.51,3.51,0,0,1-1.08.2,5,5,0,0,1-1.08-.2,7.75,7.75,0,0,1-.88-0.39,1.74,1.74,0,0,1-.68-0.78,2.45,2.45,0,0,1-.29-1.27V107H86.8v1.56a1.25,1.25,0,0,0,.39,1,1.47,1.47,0,0,0,1.76,0,1.49,1.49,0,0,0,.39-1V104a3.06,3.06,0,0,1-1.08.88,2.2,2.2,0,0,1-1.37.1,2.66,2.66,0,0,1-1.17-.59,1.62,1.62,0,0,1-.49-1.17V97.36a5,5,0,0,1,.2-1.27,2.63,2.63,0,0,1,.68-0.78A3.47,3.47,0,0,1,87,94.91a4,4,0,0,1,1.08-.1c0.39,0,.78.1,1.08,0.1a2.41,2.41,0,0,1,.88.39,1.81,1.81,0,0,1,.68.78,2.49,2.49,0,0,1,.2,1.27V108.5h0ZM89.24,97.26a1,1,0,0,0-.39-0.88A1.58,1.58,0,0,0,88,96.08a1.36,1.36,0,0,0-.88.29,1,1,0,0,0-.39.88v5.38a0.65,0.65,0,0,0,.39.68,1.47,1.47,0,0,0,1.76,0,0.74,0.74,0,0,0,.39-0.68V97.26Z" transform="translate(0 0)"/>
      </g>
      <rect class="cls-3" x="81.62" y="83.67" width="1.66" height="32.84"/>
      <g>
        <path class="cls-3" d="M108.6,108.69a5,5,0,0,1-.2,1.27,2.63,2.63,0,0,1-.68.78,3.47,3.47,0,0,1-.88.39,3.67,3.67,0,0,1-1.08.1c-0.39,0-.78-0.1-1.08-0.1a1.84,1.84,0,0,1-.88-0.39,2.63,2.63,0,0,1-.68-0.78,2.49,2.49,0,0,1-.2-1.27v-1.27h1.66v1.27a1,1,0,0,0,.39.88,1.58,1.58,0,0,0,.88.29,1.36,1.36,0,0,0,.88-0.29,1,1,0,0,0,.39-0.88v-3.91a6.07,6.07,0,0,0-.29-1,1.58,1.58,0,0,0-.68-0.39,1.91,1.91,0,0,0-.68-0.1,1,1,0,0,0-.39.1V102h0.59a2.49,2.49,0,0,0,.68-0.2,2,2,0,0,0,.59-0.39,1.19,1.19,0,0,0,.29-0.88V97.26a1.25,1.25,0,0,0-.39-1A1.36,1.36,0,0,0,106,96a1.19,1.19,0,0,0-.88.29,1.49,1.49,0,0,0-.39,1v1.37H103V97.36a2.71,2.71,0,0,1,.29-1.27A2.63,2.63,0,0,1,104,95.3a1.74,1.74,0,0,1,1-.39,4.91,4.91,0,0,1,1.17-.2,3.47,3.47,0,0,1,1,.2,7.75,7.75,0,0,1,.88.39,2.63,2.63,0,0,1,.68.78,2.45,2.45,0,0,1,.29,1.27v3.13a3.51,3.51,0,0,1-.2,1.08,1.31,1.31,0,0,1-.59.68,1.48,1.48,0,0,1-.78.39,5.8,5.8,0,0,1,.78.39,2.12,2.12,0,0,1,.59.68,1.93,1.93,0,0,1,.2,1.08l-0.39,3.91h0Z" transform="translate(0 0)"/>
        <path class="cls-3" d="M119.74,108.69a5,5,0,0,1-.2,1.27,2.63,2.63,0,0,1-.68.78,3.47,3.47,0,0,1-.88.39,3.67,3.67,0,0,1-1.08.1c-0.39,0-.78-0.1-1.08-0.1a1.84,1.84,0,0,1-.88-0.39,5.59,5.59,0,0,1-.68-0.78,2.49,2.49,0,0,1-.2-1.27v-3.62a1.93,1.93,0,0,1,.2-1.08,2,2,0,0,1,.59-0.68,2,2,0,0,1,.78-0.39,5.8,5.8,0,0,1-.78-0.39,2.12,2.12,0,0,1-.59-0.68,1.93,1.93,0,0,1-.2-1.08V97.55a5,5,0,0,1,.2-1.27,2.63,2.63,0,0,1,.68-0.78,1.76,1.76,0,0,1,.88-0.39,4.16,4.16,0,0,1,1.08-.2,5,5,0,0,1,1.08.2c0.29,0.1.68,0.29,1,.39a1.74,1.74,0,0,1,.68.78,2.45,2.45,0,0,1,.29,1.27v3.23a3.51,3.51,0,0,1-.2,1.08,2,2,0,0,1-.59.68,1.48,1.48,0,0,1-.78.39,5.8,5.8,0,0,1,.78.39,4.25,4.25,0,0,1,.59.68,1.93,1.93,0,0,1,.2,1.08v3.62h-0.2ZM118,97.36a1.25,1.25,0,0,0-.39-1,1.47,1.47,0,0,0-1.76,0,1.46,1.46,0,0,0-.29,1v3.32a6.23,6.23,0,0,0,.2.88,1.47,1.47,0,0,0,.39.39,1.06,1.06,0,0,0,.59.1,0.65,0.65,0,0,0,.59-0.1,0.76,0.76,0,0,0,.39-0.39,1.86,1.86,0,0,0,.29-0.88V97.36h0Zm0,7.53a8.47,8.47,0,0,0-.2-1,0.74,0.74,0,0,0-.39-0.39,1.81,1.81,0,0,0-1.17,0,0.76,0.76,0,0,0-.39.39,2.45,2.45,0,0,0-.2,1v3.81a1,1,0,0,0,.39.88,1.58,1.58,0,0,0,.88.29,1.36,1.36,0,0,0,.88-0.29,1,1,0,0,0,.39-0.88v-3.81H118Z" transform="translate(0 0)"/>
      </g>
      <rect class="cls-3" x="110.36" y="83.67" width="1.66" height="32.84"/>
      <g>
        <path class="cls-3" d="M137.33,108.69a5,5,0,0,1-.2,1.27,2.63,2.63,0,0,1-.68.78,3.47,3.47,0,0,1-.88.39,3.67,3.67,0,0,1-1.08.1c-0.39,0-.78-0.1-1.08-0.1a1.84,1.84,0,0,1-.88-0.39,5.59,5.59,0,0,1-.68-0.78,2.49,2.49,0,0,1-.2-1.27v-1.27h1.66v1.27a1,1,0,0,0,.39.88,1.58,1.58,0,0,0,.88.29,1.36,1.36,0,0,0,.88-0.29,1,1,0,0,0,.39-0.88v-3.91a6.07,6.07,0,0,0-.29-1,1.58,1.58,0,0,0-.68-0.39,1.91,1.91,0,0,0-.68-0.1,1,1,0,0,0-.39.1V102h0.59a2.49,2.49,0,0,0,.68-0.2,2,2,0,0,0,.59-0.39,1.19,1.19,0,0,0,.29-0.88V97.26a1.25,1.25,0,0,0-.39-1,1.36,1.36,0,0,0-.88-0.29,1.19,1.19,0,0,0-.88.29,1.49,1.49,0,0,0-.39,1v1.37h-1.66V97.36a2.71,2.71,0,0,1,.29-1.27,2.63,2.63,0,0,1,.68-0.78,1.74,1.74,0,0,1,1-.39,4.91,4.91,0,0,1,1.17-.2,3.47,3.47,0,0,1,1,.2,7.75,7.75,0,0,1,.88.39,2.63,2.63,0,0,1,.68.78,2.45,2.45,0,0,1,.29,1.27v3.13a3.51,3.51,0,0,1-.2,1.08,1.31,1.31,0,0,1-.59.68,1.48,1.48,0,0,1-.78.39,5.8,5.8,0,0,1,.78.39,4.25,4.25,0,0,1,.59.68,1.93,1.93,0,0,1,.2,1.08l-0.39,3.91h0Z" transform="translate(0 0)"/>
        <path class="cls-3" d="M145.06,111H143.3l3.32-14.66h-4V94.81h5.86v1.37Z" transform="translate(0 0)"/>
      </g>
      <rect class="cls-3" x="139.09" y="83.67" width="1.66" height="32.84"/>
      <g>
        <path class="cls-3" d="M166.17,108.69A5,5,0,0,1,166,110a2.63,2.63,0,0,1-.68.78,3.47,3.47,0,0,1-.88.39,3.67,3.67,0,0,1-1.08.1c-0.39,0-.78-0.1-1.08-0.1a1.84,1.84,0,0,1-.88-0.39,5.59,5.59,0,0,1-.68-0.78,2.49,2.49,0,0,1-.2-1.27v-1.27h1.66v1.27a1,1,0,0,0,.39.88,1.58,1.58,0,0,0,.88.29,1.36,1.36,0,0,0,.88-0.29,1,1,0,0,0,.39-0.88v-3.91a6.07,6.07,0,0,0-.29-1,1.58,1.58,0,0,0-.68-0.39,1.91,1.91,0,0,0-.68-0.1,1,1,0,0,0-.39.1V102h0.59a2.49,2.49,0,0,0,.68-0.2,2,2,0,0,0,.59-0.39,1.19,1.19,0,0,0,.29-0.88V97.26a1.25,1.25,0,0,0-.39-1,1.36,1.36,0,0,0-.88-0.29,1.19,1.19,0,0,0-.88.29,1.49,1.49,0,0,0-.39,1v1.37H160.6V97.36a2.71,2.71,0,0,1,.29-1.27,2.63,2.63,0,0,1,.68-0.78,1.74,1.74,0,0,1,1-.39,4.91,4.91,0,0,1,1.17-.2,3.47,3.47,0,0,1,1,.2,7.75,7.75,0,0,1,.88.39,2.63,2.63,0,0,1,.68.78,2.45,2.45,0,0,1,.29,1.27v3.13a3.51,3.51,0,0,1-.2,1.08,2,2,0,0,1-.59.68,1.48,1.48,0,0,1-.78.39,5.8,5.8,0,0,1,.78.39,4.25,4.25,0,0,1,.59.68,1.93,1.93,0,0,1,.2,1.08l-0.39,3.91h0Z" transform="translate(0 0)"/>
        <path class="cls-3" d="M177.21,108.69A5,5,0,0,1,177,110a2.63,2.63,0,0,1-.68.78,3.47,3.47,0,0,1-.88.39,3.67,3.67,0,0,1-1.08.1c-0.39,0-.78-0.1-1.08-0.1a1.84,1.84,0,0,1-.88-0.39,5.59,5.59,0,0,1-.68-0.78,2.49,2.49,0,0,1-.2-1.27V97.36a5,5,0,0,1,.2-1.27,2.63,2.63,0,0,1,.68-0.78,1.76,1.76,0,0,1,.88-0.39,3.65,3.65,0,0,1,1.17-.2,5,5,0,0,1,1.08.2c0.29,0.1.68,0.29,1,.39a1.74,1.74,0,0,1,.68.78,2.45,2.45,0,0,1,.29,1.27v1.47h-1.66V97.26a1.25,1.25,0,0,0-.39-1,1.36,1.36,0,0,0-.88-0.29,1.19,1.19,0,0,0-.88.29,1.46,1.46,0,0,0-.29,1v4a2,2,0,0,1,1.08-.78,2.2,2.2,0,0,1,1.37-.1A2.66,2.66,0,0,1,177,101a1.62,1.62,0,0,1,.49,1.17v6.55h-0.29Zm-1.66-6.06a0.65,0.65,0,0,0-.39-0.68,3.11,3.11,0,0,0-.88-0.29,1.58,1.58,0,0,0-.88.29,0.74,0.74,0,0,0-.39.68v6.06a1,1,0,0,0,.39.88,1.58,1.58,0,0,0,.88.29,1.36,1.36,0,0,0,.88-0.29,1,1,0,0,0,.39-0.88v-6.06Z" transform="translate(0 0)"/>
      </g>
      <rect class="cls-3" x="167.93" y="83.67" width="1.66" height="32.84"/>
    </g>
  </g>
</svg>