<svg id="levelup-team-02" xmlns="http://www.w3.org/2000/svg" xmlns:xlink="http://www.w3.org/1999/xlink" viewBox="0 0 1600 490.49" xml:space="preserve" width="100%" height="100%"  preserveAspectRatio="xMidYMax slice">
  <defs>
    <style>
      .cls-1 {
        fill: url(#radial-gradient);
        filter: url(#luminosity-noclip);
      }

      .cls-2 {
        fill: url(#radial-gradient-2);
        filter: url(#luminosity-noclip-2);
      }

      .cls-3 {
        fill: #31e5fd;
      }

      .cls-4 {
        opacity: 0.6;
        fill: url(#linear-gradient);
      }

      .cls-12, .cls-4, .cls-5, .cls-6 {
        isolation: isolate;
      }

      .cls-14, .cls-5, .cls-7 {
        fill: #fff;
      }

      .cls-5, .cls-6 {
        opacity: 0.3;
      }

      .cls-6 {
        fill: #f1f2f2;
      }

      .cls-8 {
        fill: #0297a7;
      }

      .cls-9 {
        fill: #067c82;
      }

      .cls-10 {
        fill: #3949ab;
      }

      .cls-11 {
        fill: #33439b;
      }

      .cls-12 {
        fill: #515151;
        opacity: 0.2;
      }

      .cls-13 {
        mask: url(#mask);
      }

      .cls-14 {
        opacity: 0.3;
      }

      .cls-15 {
        fill: none;
      }

      .cls-16 {
        mask: url(#mask-2);
      }
    </style>
    <radialGradient id="radial-gradient" cx="282.01" cy="333.19" r="84.81" gradientUnits="userSpaceOnUse">
      <stop offset="0" stop-color="#231f20"/>
      <stop offset="0.52" stop-color="#231f20"/>
      <stop offset="0.58" stop-color="#fff"/>
      <stop offset="0.59" stop-color="#231f20"/>
      <stop offset="1" stop-color="#231f20"/>
    </radialGradient>
    <radialGradient id="radial-gradient-2" cx="1059.02" cy="133.52" r="60.93" xlink:href="#radial-gradient"/>
    <linearGradient id="linear-gradient" x1="800" y1="0.95" x2="800" y2="491.28" gradientTransform="matrix(1, 0, 0, -1, 0, 491.28)" gradientUnits="userSpaceOnUse">
      <stop offset="0" stop-color="#b3e0db"/>
      <stop offset="0.26" stop-color="#88d6d9"/>
      <stop offset="0.85" stop-color="#1bbdd4"/>
      <stop offset="0.99" stop-color="#00b7d3"/>
    </linearGradient>
    <filter id="luminosity-noclip" x="197.2" y="248.38" width="169.62" height="169.62" filterUnits="userSpaceOnUse" color-interpolation-filters="sRGB">
      <feFlood flood-color="#fff" result="bg"/>
      <feBlend in="SourceGraphic" in2="bg"/>
    </filter>
    <mask id="mask" x="197.2" y="248.38" width="169.62" height="169.62" maskUnits="userSpaceOnUse">
      <circle class="cls-1" cx="282.01" cy="333.19" r="84.81"/>
    </mask>
    <filter id="luminosity-noclip-2" x="998.09" y="72.59" width="121.86" height="121.86" filterUnits="userSpaceOnUse" color-interpolation-filters="sRGB">
      <feFlood flood-color="#fff" result="bg"/>
      <feBlend in="SourceGraphic" in2="bg"/>
    </filter>
    <mask id="mask-2" x="998.09" y="72.59" width="121.86" height="121.86" maskUnits="userSpaceOnUse">
      <circle class="cls-2" cx="1059.02" cy="133.52" r="60.93"/>
    </mask>
  </defs>
  <title>levelup-team-03</title>
  <g>
    <rect class="cls-3" width="1600" height="490.33"/>
    <rect class="cls-4" x="0.5" width="1599" height="490.33"/>
    <path class="cls-5" d="M230.85,125.51a20.06,20.06,0,0,0-33.59-14.85,29.31,29.31,0,0,0-56.38,15.14,22.11,22.11,0,0,0-18.68,21.5H253A22.12,22.12,0,0,0,230.85,125.51Z"/>
    <path class="cls-6" d="M315.11,77.28h-3.79a21.7,21.7,0,0,0-43.22,0h-3.79a13,13,0,0,0-13,12.35H328A13,13,0,0,0,315.11,77.28Z"/>
    <path class="cls-6" d="M1353,77.28h-3.79a21.7,21.7,0,0,0-43.22,0h-3.79a13,13,0,0,0-13,12.35h76.73A13,13,0,0,0,1353,77.28Z"/>
    <path class="cls-6" d="M1442.39,65.25h-2.57a14.69,14.69,0,0,0-29.26,0H1408a8.79,8.79,0,0,0-8.77,8.36h51.94A8.79,8.79,0,0,0,1442.39,65.25Z"/>
    <g>
      <circle class="cls-7" cx="1425.99" cy="234.64" r="2.08"/>
      <circle class="cls-7" cx="1433.2" cy="234.64" r="2.08"/>
      <circle class="cls-7" cx="1440.41" cy="234.64" r="2.08"/>
    </g>
    <polygon class="cls-8" points="1189.28 474.49 1059.91 250.49 930.56 474.49 1189.28 474.49"/>
    <polygon class="cls-8" points="1485.14 474.49 1382.71 297.13 1280.29 474.49 1485.14 474.49"/>
    <polygon class="cls-8" points="1382.71 474.49 1189.28 139.5 995.83 474.49 1382.71 474.49"/>
    <polygon class="cls-9" points="995.83 474.5 1189.31 474.5 1092.61 307.03 995.83 474.5"/>
    <polygon class="cls-9" points="1279.64 474.5 1382.71 474.5 1331.2 385.28 1279.64 474.5"/>
    <rect class="cls-10" y="458.49" width="1600" height="32"/>
    <circle class="cls-7" cx="1582.13" cy="474.99" r="5.5"/>
    <rect class="cls-7" x="16.86" y="458.49" width="4" height="8"/>
    <rect class="cls-7" x="33" y="458.49" width="4" height="8"/>
    <rect class="cls-7" x="49" y="458.49" width="4" height="8"/>
    <rect class="cls-7" x="65.14" y="458.49" width="4" height="8"/>
    <rect class="cls-7" x="81" y="458.49" width="4" height="8"/>
    <rect class="cls-7" x="97.14" y="458.49" width="4" height="8"/>
    <rect class="cls-7" x="113" y="458.49" width="4" height="8"/>
    <rect class="cls-7" x="129.14" y="458.49" width="4" height="8"/>
    <rect class="cls-7" x="145.14" y="458.49" width="4" height="8"/>
    <rect class="cls-7" x="161.27" y="458.49" width="4" height="8"/>
    <rect class="cls-7" x="177.14" y="458.49" width="4" height="8"/>
    <rect class="cls-7" x="193.27" y="458.49" width="4" height="8"/>
    <rect class="cls-7" x="209" y="458.49" width="4" height="8"/>
    <rect class="cls-7" x="225.14" y="458.49" width="4" height="8"/>
    <rect class="cls-7" x="241.14" y="458.49" width="4" height="8"/>
    <rect class="cls-7" x="257.27" y="458.49" width="4" height="8"/>
    <rect class="cls-7" x="273.14" y="458.49" width="4" height="8"/>
    <rect class="cls-7" x="289.27" y="458.49" width="4" height="8"/>
    <rect class="cls-7" x="305.68" y="458.49" width="4" height="8"/>
    <rect class="cls-7" x="321.82" y="458.49" width="4" height="8"/>
    <rect class="cls-7" x="337.82" y="458.49" width="4" height="8"/>
    <rect class="cls-7" x="353.95" y="458.49" width="4" height="8"/>
    <rect class="cls-7" x="369.82" y="458.49" width="4" height="8"/>
    <rect class="cls-7" x="385.95" y="458.49" width="4" height="8"/>
    <rect class="cls-7" x="401.82" y="458.49" width="4" height="8"/>
    <rect class="cls-7" x="417.95" y="458.49" width="4" height="8"/>
    <rect class="cls-7" x="433.95" y="458.49" width="4" height="8"/>
    <rect class="cls-7" x="450.09" y="458.49" width="4" height="8"/>
    <rect class="cls-7" x="465.95" y="458.49" width="4" height="8"/>
    <rect class="cls-7" x="482.09" y="458.49" width="4" height="8"/>
    <rect class="cls-7" x="497.82" y="458.49" width="4" height="8"/>
    <rect class="cls-7" x="513.95" y="458.49" width="4" height="8"/>
    <rect class="cls-7" x="529.95" y="458.49" width="4" height="8"/>
    <rect class="cls-7" x="546.09" y="458.49" width="4" height="8"/>
    <rect class="cls-7" x="561.95" y="458.49" width="4" height="8"/>
    <rect class="cls-7" x="578.09" y="458.49" width="4" height="8"/>
    <rect class="cls-7" x="594.91" y="458.49" width="4" height="8"/>
    <rect class="cls-7" x="611.05" y="458.49" width="4" height="8"/>
    <rect class="cls-7" x="627.05" y="458.49" width="4" height="8"/>
    <rect class="cls-7" x="643.18" y="458.49" width="4" height="8"/>
    <rect class="cls-7" x="659.05" y="458.49" width="4" height="8"/>
    <rect class="cls-7" x="675.18" y="458.49" width="4" height="8"/>
    <rect class="cls-7" x="691.05" y="458.49" width="4" height="8"/>
    <rect class="cls-7" x="707.18" y="458.49" width="4" height="8"/>
    <rect class="cls-7" x="723.18" y="458.49" width="4" height="8"/>
    <rect class="cls-7" x="739.32" y="458.49" width="4" height="8"/>
    <rect class="cls-7" x="755.18" y="458.49" width="4" height="8"/>
    <rect class="cls-7" x="771.32" y="458.49" width="4" height="8"/>
    <rect class="cls-7" x="787.05" y="458.49" width="4" height="8"/>
    <rect class="cls-7" x="803.18" y="458.49" width="4" height="8"/>
    <rect class="cls-7" x="819.18" y="458.49" width="4" height="8"/>
    <rect class="cls-7" x="835.32" y="458.49" width="4" height="8"/>
    <rect class="cls-7" x="851.18" y="458.49" width="4" height="8"/>
    <rect class="cls-7" x="867.32" y="458.49" width="4" height="8"/>
    <rect class="cls-7" x="883.73" y="458.49" width="4" height="8"/>
    <rect class="cls-7" x="899.86" y="458.49" width="4" height="8"/>
    <rect class="cls-7" x="915.86" y="458.49" width="4" height="8"/>
    <rect class="cls-7" x="932" y="458.49" width="4" height="8"/>
    <rect class="cls-7" x="947.86" y="458.49" width="4" height="8"/>
    <rect class="cls-7" x="964" y="458.49" width="4" height="8"/>
    <rect class="cls-7" x="979.86" y="458.49" width="4" height="8"/>
    <rect class="cls-7" x="996" y="458.49" width="4" height="8"/>
    <rect class="cls-7" x="1012" y="458.49" width="4" height="8"/>
    <rect class="cls-7" x="1028.14" y="458.49" width="4" height="8"/>
    <rect class="cls-7" x="1044" y="458.49" width="4" height="8"/>
    <rect class="cls-7" x="1060.14" y="458.49" width="4" height="8"/>
    <rect class="cls-7" x="1075.86" y="458.49" width="4" height="8"/>
    <rect class="cls-7" x="1092" y="458.49" width="4" height="8"/>
    <rect class="cls-7" x="1108" y="458.49" width="4" height="8"/>
    <rect class="cls-7" x="1124.14" y="458.49" width="4" height="8"/>
    <rect class="cls-7" x="1140" y="458.49" width="4" height="8"/>
    <rect class="cls-7" x="1156.14" y="458.49" width="4" height="8"/>
    <rect class="cls-7" x="1173.36" y="458.49" width="4" height="8"/>
    <rect class="cls-7" x="1189.77" y="458.49" width="4" height="8"/>
    <rect class="cls-7" x="1205.91" y="458.49" width="4" height="8"/>
    <rect class="cls-7" x="1221.91" y="458.49" width="4" height="8"/>
    <rect class="cls-7" x="1238.05" y="458.49" width="4" height="8"/>
    <rect class="cls-7" x="1253.91" y="458.49" width="4" height="8"/>
    <rect class="cls-7" x="1270.05" y="458.49" width="4" height="8"/>
    <rect class="cls-7" x="1285.91" y="458.49" width="4" height="8"/>
    <rect class="cls-7" x="1302.05" y="458.49" width="4" height="8"/>
    <rect class="cls-7" x="1318.05" y="458.49" width="4" height="8"/>
    <rect class="cls-7" x="1334.18" y="458.49" width="4" height="8"/>
    <rect class="cls-7" x="1350.05" y="458.49" width="4" height="8"/>
    <rect class="cls-7" x="1366.18" y="458.49" width="4" height="8"/>
    <rect class="cls-7" x="1381.91" y="458.49" width="4" height="8"/>
    <rect class="cls-7" x="1398.05" y="458.49" width="4" height="8"/>
    <rect class="cls-7" x="1414.05" y="458.49" width="4" height="8"/>
    <rect class="cls-7" x="1430.18" y="458.49" width="4" height="8"/>
    <rect class="cls-7" x="1446.05" y="458.49" width="4" height="8"/>
    <rect class="cls-7" x="1462.18" y="458.49" width="4" height="8"/>
    <rect class="cls-7" x="1475.7" y="458.49" width="4" height="8"/>
    <rect class="cls-7" x="1491.84" y="458.49" width="4" height="8"/>
    <rect class="cls-7" x="1507.57" y="458.49" width="4" height="8"/>
    <rect class="cls-7" x="1523.7" y="458.49" width="4" height="8"/>
    <rect class="cls-7" x="1539.7" y="458.49" width="4" height="8"/>
    <rect class="cls-7" x="1555.84" y="458.49" width="4" height="8"/>
    <circle class="cls-11" cx="1382.41" cy="234.64" r="7.29"/>
    <polygon class="cls-11" points="1387.32 189.69 1387.32 204.87 1382.88 204.87 1377.51 204.87 1377.51 189.69 1387.32 189.69"/>
    <g>
      <path class="cls-7" d="M1382.41,251.58a16.94,16.94,0,1,1,16.94-16.94h0A17,17,0,0,1,1382.41,251.58Zm0-30.14a13.2,13.2,0,1,0,13.2,13.2h0A13.22,13.22,0,0,0,1382.41,221.44Z"/>
      <path class="cls-7" d="M1382.41,288.8a54.14,54.14,0,0,1-35.55-13.3l2.45-2.82a50.43,50.43,0,0,0,66.92-.65l2.51,2.77A54,54,0,0,1,1382.41,288.8Z"/>
      <rect class="cls-7" x="1380.55" y="204.87" width="3.74" height="14.7"/>
      <polygon class="cls-7" points="1288.78 459.18 1289.75 428.44 1289.91 428.1 1373.43 247.05 1376.83 248.61 1293.46 429.32 1293.1 440.73 1380.71 248.93 1384.11 250.48 1288.78 459.18"/>
      <polygon class="cls-7" points="1476.98 459.18 1381.65 250.48 1385.05 248.93 1472.66 440.73 1472.3 429.32 1388.94 248.61 1392.33 247.05 1476.01 428.44 1476.98 459.18"/>
    </g>
    <circle class="cls-12" cx="1269.39" cy="400.49"/>
    <g>
      <circle class="cls-7" cx="387.68" cy="258.37" r="2.08" transform="translate(-76.92 292.96) rotate(-37.94)"/>
      <circle class="cls-7" cx="393.37" cy="253.94" r="2.08" transform="translate(-72.99 295.52) rotate(-37.94)"/>
      <circle class="cls-7" cx="399.05" cy="249.5" r="2.08" transform="translate(-69.07 298.08) rotate(-37.94)"/>
      <polygon class="cls-7" points="364.77 266.02 364.65 268.17 372.62 269.3 363.39 276.49 364.62 278.07 373.85 270.88 372.75 278.55 374.67 278.72 376.03 267.45 364.77 266.02"/>
    </g>
    <g>
      <circle class="cls-7" cx="282.01" cy="340.4" r="2.08"/>
      <circle class="cls-7" cx="282.01" cy="333.19" r="2.08"/>
      <circle class="cls-7" cx="282.01" cy="325.99" r="2.08"/>
    </g>
    <g class="cls-13">
      <circle class="cls-14" cx="282.01" cy="333.19" r="81.61"/>
    </g>
    <circle class="cls-15" cx="282.01" cy="333.19" r="46.36"/>
    <g class="cls-16">
      <circle class="cls-14" cx="1059.02" cy="133.52" r="58.63"/>
    </g>
    <circle class="cls-15" cx="1059.02" cy="133.52" r="33.31"/>
  </g>
</svg>
