<svg xmlns="http://www.w3.org/2000/svg" xmlns:xlink="http://www.w3.org/1999/xlink" width="632px" height="333px" viewBox="0 0 632 333" version="1.1">
  <defs>
    <polygon id="path-1" points="30.8023712 1.49751018 30.8023712 0.39922622 0.101654432 0.39922622 0.101654432 1.49751018 30.8023712 1.49751018"/>
    <polygon id="path-3" points="0 332.901716 631.926421 332.901716 631.926421 0.010749094 0 0.010749094"/>
  </defs>
  <g id="Desktop" stroke="none" stroke-width="1" fill="none" fill-rule="evenodd">
    <g id="Careers" transform="translate(-806.000000, -136.000000)">
      <g id="IMAGE" transform="translate(806.000000, 136.000000)">
        <path d="M480.673719,0.121785603 L480.673719,30.8034463" id="Stroke-1" stroke="#FFFFFF"/>
        <path d="M406.492448,21.2006005 L421.846763,47.7746793" id="Stroke-3" stroke="#FFFFFF"/>
        <path d="M352.79763,76.5212735 L379.388767,91.8610056" id="Stroke-4" stroke="#FFFFFF"/>
        <path d="M333.974991,151.250381 L364.680324,151.250381" id="Stroke-5" stroke="#FFFFFF"/>
        <path d="M355.070275,225.374664 L381.663611,210.032735" id="Stroke-6" stroke="#FFFFFF"/>
        <path d="M410.433194,279.02935 L425.785311,252.457468" id="Stroke-7" stroke="#FFFFFF"/>
        <path d="M559.409184,276.754035 L544.059266,250.179957" id="Stroke-8" stroke="#FFFFFF"/>
        <path d="M613.109938,221.437096 L586.517701,206.092971" id="Stroke-9" stroke="#FFFFFF"/>
        <g id="Group-12" transform="translate(601.124050, 146.304369)">
          <mask id="mask-2" fill="white">
            <use xlink:href="#path-1"/>
          </mask>
          <g id="Clip-11"/>
          <path d="M30.802591,0.39922622 L0.101654432,0.39922622" id="Stroke-10" stroke="#FFFFFF" mask="url(#mask-2)"/>
        </g>
        <path d="M610.832896,72.5815093 L584.236263,87.9190448" id="Stroke-13" stroke="#FFFFFF"/>
        <path d="M555.468987,18.9269331 L540.114672,45.4933238" id="Stroke-14" stroke="#FFFFFF"/>
        <g id="Group-40" transform="translate(0.000000, 0.110927)">
          <path d="M544.220844,78.7025753 C540.101152,78.7025753 536.74978,82.0523413 536.74978,86.1687096 C536.74978,90.2850779 540.101152,93.6337457 544.220844,93.6337457 C548.340535,93.6337457 551.693006,90.2850779 551.693006,86.1687096 C551.693006,82.0523413 548.340535,78.7025753 544.220844,78.7025753 L544.220844,78.7025753 Z" id="Fill-15" fill="#FFFFFF"/>
          <path d="M551.583309,93.9993644 C549.655363,95.8093364 547.069015,96.9284878 544.221063,96.9284878 C538.282244,96.9284878 533.452488,92.1015298 533.452488,86.1685998 C533.452488,82.6815482 535.128724,79.5854857 537.709576,77.6173609 C523.233498,64.5093418 504.02659,56.5215226 482.951091,56.5215226 C437.899382,56.5215226 401.376138,93.0142037 401.376138,138.030667 C401.376138,183.046031 437.899382,219.538713 482.951091,219.538713 C528.003899,219.538713 564.524945,183.046031 564.524945,138.030667 C564.524945,121.804619 559.761139,106.69992 551.583309,93.9993644" id="Fill-17" fill="#26C6DA"/>
          <mask id="mask-4" fill="white">
            <use xlink:href="#path-3"/>
          </mask>
          <g id="Clip-20"/>
          <polygon id="Fill-19" fill="#FFFFFF" mask="url(#mask-4)" points="217.966647 48.4472684 219.021851 48.4472684 219.021851 41.3831059 217.966647 41.3831059"/>
          <polygon id="Fill-21" fill="#FFFFFF" mask="url(#mask-4)" points="211.758092 53.3985521 205.880826 49.8642743 206.408428 48.9142587 212.285694 52.4485365"/>
          <polygon id="Fill-22" fill="#FFFFFF" mask="url(#mask-4)" points="206.894591 65.0035696 206.366989 64.053554 212.244255 60.5203745 212.771857 61.4703901"/>
          <polygon id="Fill-23" fill="#FFFFFF" mask="url(#mask-4)" points="218.937215 71.6584016 219.992419 71.6584016 219.992419 64.5931409 218.937215 64.5931409"/>
          <polygon id="Fill-24" fill="#FFFFFF" mask="url(#mask-4)" points="231.551078 64.1261505 225.673813 60.592971 226.201414 59.6429554 232.07868 63.1761349"/>
          <polygon id="Fill-25" fill="#FFFFFF" mask="url(#mask-4)" points="225.714042 52.5223412 225.18644 51.5723255 231.064805 48.0380477 231.592407 48.9880634"/>
          <path d="M465.063407,153.609715 C463.668559,148.735531 462.962892,143.672442 462.962892,138.563225 C462.962892,133.025677 463.79936,127.533159 465.451414,122.238332 L466.392304,122.530475 C464.771027,127.731948 463.947748,133.125621 463.947748,138.563225 C463.947748,143.581284 464.642424,148.553216 466.010892,153.338439 L465.063407,153.609715 Z" id="Fill-26" fill="#FFFFFF" mask="url(#mask-4)"/>
          <path d="M505.239964,217.011561 L504.254008,217.011561 C504.254008,213.567343 502.452467,208.347199 501.717122,208.347199 L464.875119,208.347199 C464.140873,208.347199 462.34153,213.567343 462.34153,217.011561 L461.356673,217.011561 C461.356673,215.441015 462.58005,207.362038 464.875119,207.362038 L501.717122,207.362038 C504.014389,207.362038 505.239964,215.441015 505.239964,217.011561" id="Fill-27" fill="#FFFFFF" mask="url(#mask-4)"/>
          <path d="M478.899328,207.740946 L477.913372,207.740946 L477.913372,186.050936 C461.079572,176.07083 450.635253,157.591104 450.635253,137.750604 C450.635253,132.104326 451.471721,126.50857 453.121577,121.11929 L453.228196,120.771134 L512.677942,120.771134 L512.784562,121.11929 C514.43112,126.50857 515.266489,132.104326 515.266489,137.750604 C515.266489,157.691048 504.722145,176.253145 487.748751,186.194812 L487.250827,185.34474 C503.923048,175.579897 514.281632,157.342892 514.281632,137.750604 C514.281632,132.321787 513.495725,126.94349 511.948093,121.755197 L453.959145,121.755197 C452.406017,126.94349 451.620109,132.322885 451.620109,137.750604 C451.620109,157.3374 461.979793,175.575504 478.656411,185.34474 L478.899328,185.487517 L478.899328,207.740946 Z" id="Fill-28" fill="#FFFFFF" mask="url(#mask-4)"/>
          <path d="M502.015107,174.019236 L501.695249,173.087891 C519.816177,166.871604 532.144475,148.664252 532.49621,127.683734 L513.815804,127.683734 L513.815804,126.698573 L533.490959,126.698573 L533.486563,127.194997 C533.320588,148.801538 520.67353,167.618437 502.015107,174.019236" id="Fill-29" fill="#FFFFFF" mask="url(#mask-4)"/>
          <path d="M463.897077,174.022091 C445.237555,167.621292 432.5861,148.803295 432.41463,127.194558 L432.410233,126.699232 L452.085388,126.699232 L452.085388,127.683294 L433.406082,127.683294 C433.762213,148.666009 446.094908,166.874459 464.216935,173.090746 L463.897077,174.022091 Z" id="Fill-30" fill="#FFFFFF" mask="url(#mask-4)"/>
          <polygon id="Fill-31" fill="#FFFFFF" mask="url(#mask-4)" points="446.771118 254.40846 519.824201 254.40846 519.824201 241.656285 446.771118 241.656285"/>
          <polygon id="Fill-32" fill="#FFFFFF" mask="url(#mask-4)" points="447.757074 253.423299 518.838244 253.423299 518.838244 242.640347 447.757074 242.640347"/>
          <path d="M469.515158,231.065532 L473.430404,231.065532 L473.430404,230.080372 L469.515158,230.080372 L469.515158,231.065532 Z M477.37203,231.065532 L481.313656,231.065532 L481.313656,230.080372 L477.37203,230.080372 L477.37203,231.065532 Z M485.256381,231.065532 L489.198008,231.065532 L489.198008,230.080372 L485.256381,230.080372 L485.256381,231.065532 Z M493.139634,231.065532 L497.08126,231.065532 L497.08126,230.080372 L493.139634,230.080372 L493.139634,231.065532 Z" id="Fill-33" fill="#FFFFFF" mask="url(#mask-4)"/>
          <polygon id="Fill-34" fill="#FFFFFF" mask="url(#mask-4)" points="514.727896 232.877701 513.74194 232.877701 513.74194 219.051404 452.853379 219.051404 452.853379 232.877701 451.867423 232.877701 451.867423 218.066243 514.727896 218.066243"/>
          <polygon id="Fill-35" fill="#FFFFFF" mask="url(#mask-4)" points="4.98363992 259.753478 4.39448443 259.164798 111.007447 152.644433 168.243463 209.848553 167.653208 210.437233 111.007447 153.821794"/>
          <polygon id="Fill-36" fill="#FFFFFF" mask="url(#mask-4)" points="161.196899 135.418179 123.614055 135.418179 123.614055 134.584581 159.913068 134.584581 154.760156 122.989997 159.913068 111.405298 106.327398 111.405298 106.327398 110.571701 161.196899 110.571701 155.672467 122.989997"/>
          <polygon id="Fill-37" fill="#FFFFFF" mask="url(#mask-4)" points="110.325961 155.484925 111.160231 155.484925 111.160231 93.5032696 110.325961 93.5032696"/>
          <polygon id="Fill-38" fill="#FFFFFF" mask="url(#mask-4)" points="292.966142 181.558845 292.131871 181.558845 292.131871 121.558494 232.07868 121.558494 232.07868 120.724897 292.966142 120.724897"/>
          <polygon id="Fill-39" fill="#FFFFFF" mask="url(#mask-4)" points="0.589595159 332.901716 0.000439668277 332.313036 103.09056 229.30718 143.397149 269.582351 290.235362 122.862596 290.824517 123.451277 143.397149 270.76081 103.09056 230.485638"/>
        </g>
      </g>
    </g>
  </g>
</svg>