<svg width="632px" height="334px" viewBox="0 0 632 334" version="1.1" xmlns="http://www.w3.org/2000/svg" xmlns:xlink="http://www.w3.org/1999/xlink">
  <!-- Generator: sketchtool 40.1 (33804) - http://www.bohemiancoding.com/sketch -->
  <title>E4C90062-102C-4BC5-B59F-55ADA3947EB8</title>
  <desc>Created with sketchtool.</desc>
  <defs></defs>
  <g id="Desktop" stroke="none" stroke-width="1" fill="none" fill-rule="evenodd">
    <g id="Careers" transform="translate(-808.000000, -136.000000)">
      <g id="IMAGE" transform="translate(808.000000, 136.000000)">
        <path d="M480,0.121785603 L480,30.8034463" id="Stroke-1" stroke="#FFFFFF" stroke-width="2"></path>
        <path d="M406.492448,21.2006005 L421.846763,47.7746793" id="Stroke-3" stroke="#FFFFFF" stroke-width="2"></path>
        <path d="M352.79763,76.5212735 L379.388767,91.8610056" id="Stroke-4" stroke="#FFFFFF" stroke-width="2"></path>
        <path d="M333.974991,151 L364.680324,151" id="Stroke-5" stroke="#FFFFFF" stroke-width="2"></path>
        <path d="M355.070275,225.374664 L381.663611,210.032735" id="Stroke-6" stroke="#FFFFFF" stroke-width="2"></path>
        <path d="M410.433194,279.02935 L425.785311,252.457468" id="Stroke-7" stroke="#FFFFFF" stroke-width="2"></path>
        <path d="M559.409184,276.754035 L544.059266,250.179957" id="Stroke-8" stroke="#FFFFFF" stroke-width="2"></path>
        <path d="M613.109938,221.437096 L586.517701,206.092971" id="Stroke-9" stroke="#FFFFFF" stroke-width="2"></path>
        <g id="Group-12" transform="translate(601.124050, 146.304369)" stroke="#FFFFFF" stroke-width="2">
          <path d="M30.802591,0 L0.101654432,0" id="Stroke-10"></path>
        </g>
        <path d="M610.832896,72.5815093 L584.236263,87.9190448" id="Stroke-13" stroke="#FFFFFF" stroke-width="2"></path>
        <path d="M555.468987,18.9269331 L540.114672,45.4933238" id="Stroke-14" stroke="#FFFFFF" stroke-width="2"></path>
        <g id="Group-40" transform="translate(0.000000, 41.110927)">
          <path d="M544.220844,37.7025753 C540.101152,37.7025753 536.74978,41.0523413 536.74978,45.1687096 C536.74978,49.2850779 540.101152,52.6337457 544.220844,52.6337457 C548.340535,52.6337457 551.693006,49.2850779 551.693006,45.1687096 C551.693006,41.0523413 548.340535,37.7025753 544.220844,37.7025753 L544.220844,37.7025753 Z" id="Fill-15" fill="#FFFFFF"></path>
          <path d="M551.583309,52.9993644 C549.655363,54.8093364 547.069015,55.9284878 544.221063,55.9284878 C538.282244,55.9284878 533.452488,51.1015298 533.452488,45.1685998 C533.452488,41.6815482 535.128724,38.5854857 537.709576,36.6173609 C523.233498,23.5093418 504.02659,15.5215226 482.951091,15.5215226 C437.899382,15.5215226 401.376138,52.0142037 401.376138,97.0306667 C401.376138,142.046031 437.899382,178.538713 482.951091,178.538713 C528.003899,178.538713 564.524945,142.046031 564.524945,97.0306667 C564.524945,80.8046195 559.761139,65.6999202 551.583309,52.9993644" id="Fill-17" fill="#26C6DA"></path>
          <polygon id="Fill-19" stroke="#FFFFFF" fill="#FFFFFF" points="217.966647 7.44726835 219.021851 7.44726835 219.021851 0.383105915 217.966647 0.383105915"></polygon>
          <polygon id="Fill-21" stroke="#FFFFFF" fill="#FFFFFF" points="211.758092 12.3985521 205.880826 8.86427432 206.408428 7.91425869 212.285694 11.4485365"></polygon>
          <polygon id="Fill-22" stroke="#FFFFFF" fill="#FFFFFF" points="206.894591 24.0035696 206.366989 23.053554 212.244255 19.5203745 212.771857 20.4703901"></polygon>
          <polygon id="Fill-23" stroke="#FFFFFF" fill="#FFFFFF" points="218.937215 30.6584016 219.992419 30.6584016 219.992419 23.5931409 218.937215 23.5931409"></polygon>
          <polygon id="Fill-24" stroke="#FFFFFF" fill="#FFFFFF" points="231.551078 23.1261505 225.673813 19.592971 226.201414 18.6429554 232.07868 22.1761349"></polygon>
          <polygon id="Fill-25" stroke="#FFFFFF" fill="#FFFFFF" points="225.714042 11.5223412 225.18644 10.5723255 231.064805 7.03804775 231.592407 7.98806338"></polygon>
          <path d="M465.063407,112.609715 C463.668559,107.735531 462.962892,102.672442 462.962892,97.5632246 C462.962892,92.0256769 463.79936,86.5331588 465.451414,81.2383318 L466.392304,81.5304754 C464.771027,86.7319482 463.947748,92.1256207 463.947748,97.5632246 C463.947748,102.581284 464.642424,107.553216 466.010892,112.338439 L465.063407,112.609715 Z" id="Fill-26" stroke="#FFFFFF" fill="#FFFFFF"></path>
          <path d="M505.239964,176.011561 L504.254008,176.011561 C504.254008,172.567343 502.452467,167.347199 501.717122,167.347199 L464.875119,167.347199 C464.140873,167.347199 462.34153,172.567343 462.34153,176.011561 L461.356673,176.011561 C461.356673,174.441015 462.58005,166.362038 464.875119,166.362038 L501.717122,166.362038 C504.014389,166.362038 505.239964,174.441015 505.239964,176.011561" id="Fill-27" stroke="#FFFFFF" fill="#FFFFFF"></path>
          <path d="M478.899328,166.740946 L477.913372,166.740946 L477.913372,145.050936 C461.079572,135.07083 450.635253,116.591104 450.635253,96.7506043 C450.635253,91.1043265 451.471721,85.5085697 453.121577,80.1192903 L453.228196,79.7711343 L512.677942,79.7711343 L512.784562,80.1192903 C514.43112,85.5085697 515.266489,91.1043265 515.266489,96.7506043 C515.266489,116.691048 504.722145,135.253145 487.748751,145.194812 L487.250827,144.34474 C503.923048,134.579897 514.281632,116.342892 514.281632,96.7506043 C514.281632,91.3217867 513.495725,85.9434901 511.948093,80.7551967 L453.959145,80.7551967 C452.406017,85.9434901 451.620109,91.322885 451.620109,96.7506043 C451.620109,116.3374 461.979793,134.575504 478.656411,144.34474 L478.899328,144.487517 L478.899328,166.740946 Z" id="Fill-28" stroke="#FFFFFF" fill="#FFFFFF"></path>
          <path d="M502.015107,133.019236 L501.695249,132.087891 C519.816177,125.871604 532.144475,107.664252 532.49621,86.6837335 L513.815804,86.6837335 L513.815804,85.6985728 L533.490959,85.6985728 L533.486563,86.1949972 C533.320588,107.801538 520.67353,126.618437 502.015107,133.019236" id="Fill-29" stroke="#FFFFFF" fill="#FFFFFF"></path>
          <path d="M463.897077,133.022091 C445.237555,126.621292 432.5861,107.803295 432.41463,86.1945579 L432.410233,85.6992318 L452.085388,85.6992318 L452.085388,86.6832942 L433.406082,86.6832942 C433.762213,107.666009 446.094908,125.874459 464.216935,132.090746 L463.897077,133.022091 Z" id="Fill-30" stroke="#FFFFFF" fill="#FFFFFF"></path>
          <polygon id="Fill-31" fill="#FFFFFF" points="446.771118 213.40846 519.824201 213.40846 519.824201 200.656285 446.771118 200.656285"></polygon>
          <polygon id="Fill-32" fill="#FFFFFF" points="447.757074 212.423299 518.838244 212.423299 518.838244 201.640347 447.757074 201.640347"></polygon>
          <path d="M469.515158,190.065532 L473.430404,190.065532 L473.430404,189.080372 L469.515158,189.080372 L469.515158,190.065532 Z M477.37203,190.065532 L481.313656,190.065532 L481.313656,189.080372 L477.37203,189.080372 L477.37203,190.065532 Z M485.256381,190.065532 L489.198008,190.065532 L489.198008,189.080372 L485.256381,189.080372 L485.256381,190.065532 Z M493.139634,190.065532 L497.08126,190.065532 L497.08126,189.080372 L493.139634,189.080372 L493.139634,190.065532 Z" id="Fill-33" stroke="#FFFFFF" fill="#FFFFFF"></path>
          <polygon id="Fill-34" stroke="#FFFFFF" fill="#FFFFFF" points="514.727896 191.877701 513.74194 191.877701 513.74194 178.051404 452.853379 178.051404 452.853379 191.877701 451.867423 191.877701 451.867423 177.066243 514.727896 177.066243"></polygon>
          <polygon id="Fill-35" stroke="#FFFFFF" fill="#FFFFFF" points="4.98363992 218.753478 4.39448443 218.164798 111.007447 111.644433 168.243463 168.848553 167.653208 169.437233 111.007447 112.821794"></polygon>
          <polygon id="Fill-36" stroke="#FFFFFF" fill="#FFFFFF" points="161.196899 94.4181787 123.614055 94.4181787 123.614055 93.5845812 159.913068 93.5845812 154.760156 81.9899974 159.913068 70.4052981 106.327398 70.4052981 106.327398 69.5717006 161.196899 69.5717006 155.672467 81.9899974"></polygon>
          <polygon id="Fill-37" stroke="#FFFFFF" fill="#FFFFFF" points="110.325961 114.484925 111.160231 114.484925 111.160231 52.5032696 110.325961 52.5032696"></polygon>
          <polygon id="Fill-38" stroke="#FFFFFF" fill="#FFFFFF" points="292.966142 140.558845 292.131871 140.558845 292.131871 80.5584941 232.07868 80.5584941 232.07868 79.7248965 292.966142 79.7248965"></polygon>
          <polygon id="Fill-39" stroke="#FFFFFF" fill="#FFFFFF" points="0.589595159 291.901716 0.000439668277 291.313036 103.09056 188.30718 143.397149 228.582351 291.449919 80.6407251 292.039075 81.2294053 290.189316 83.0859703 143.397149 229.76081 103.09056 189.485638"></polygon>
        </g>
      </g>
    </g>
  </g>
</svg>