<svg id="bus_active_img" width="106px" height="65px" viewBox="0 0 106 65" version="1.1" xmlns="http://www.w3.org/2000/svg" xmlns:xlink="http://www.w3.org/1999/xlink">
    <defs>
        <polygon id="path-1-active" points="0 65 106 65 106 0 0 0"></polygon>
    </defs>
    <g id="Desktop-active" stroke="none" stroke-width="1" fill="none" fill-rule="evenodd">
        <g id="contact-illustrations-active" transform="translate(-477.000000, -182.000000)">
            <g id="Group-active" transform="translate(281.000000, 36.000000)">
                <g id="bus-active" transform="translate(196.000000, 146.000000)">
                    <polygon id="Fill-1-active" fill="#FFCA28" points="0 34.1526525 0 56.1865508 70.6666667 56.1865508 106 56.1865508 106 34.1526525"></polygon>
                    <polygon id="Fill-2-active" fill="#FFCA28" points="66.2503313 7.71164407 0.00033125 7.71164407 0.00033125 14.3218136 102.687831 14.3218136 101.58256 7.71164407"></polygon>
                    <polygon id="Fill-3-active" fill="#26C6DA" points="0 14.3221441 0 35.2543475 106 35.2543475 102.688604 14.3221441"></polygon>
                    <polygon id="Fill-4-active" fill="#FFFFFF" points="97.1666667 47.3728814 106 47.3728814 106 42.9661017 97.1666667 42.9661017"></polygon>
                    <polygon id="Fill-5-active" fill="#FFFFFF" points="0 47.3728814 8.83333333 47.3728814 8.83333333 42.9661017 0 42.9661017"></polygon>
                    <g id="Group-18-active">
                        <path d="M81.8195229,58.3898305 L79.5791688,58.3898305 C80.1157938,62.1223729 83.3421688,65 87.2288354,65 C91.1166063,65 94.3429813,62.1223729 94.8796063,58.3898305 L92.6392521,58.3898305 C92.1258146,60.9005932 89.8953979,62.7966102 87.2288354,62.7966102 C84.5622729,62.7966102 82.3329604,60.9005932 81.8195229,58.3898305 L81.8195229,58.3898305 Z" id="Fill-6-active" fill="#1976D2"></path>
                        <path d="M21.9723646,58.3898305 C21.4589271,60.9005932 19.2296146,62.7966102 16.5630521,62.7966102 C13.8964896,62.7966102 11.6660729,60.9005932 11.1526354,58.3898305 L8.91228125,58.3898305 C9.44890625,62.1223729 12.6752812,65 16.5630521,65 C20.4497187,65 23.6760937,62.1223729 24.2127187,58.3898305 L21.9723646,58.3898305 Z" id="Fill-8-active" fill="#1976D2"></path>
                        <path d="M34.2292771,65 C38.1170479,65 41.3423187,62.1223729 41.8800479,58.3898305 L39.6385896,58.3898305 C39.1262562,60.9005932 36.8958396,62.7966102 34.2292771,62.7966102 C31.5627146,62.7966102 29.3322979,60.9005932 28.8199646,58.3898305 L26.5785062,58.3898305 C27.1162354,62.1223729 30.3415062,65 34.2292771,65" id="Fill-10-active" fill="#1976D2"></path>
                        <polygon id="Fill-12-active" fill="#1976D2" points="6.62511042 6.61016949 8.83344375 6.61016949 8.83344375 2.20338983 86.1251104 2.20338983 86.1251104 6.61016949 88.3334438 6.61016949 88.3334438 2.20338983 94.9584438 2.20338983 94.9584438 0 0.000110416667 0 0.000110416667 2.20338983 6.62511042 2.20338983"></polygon>
                        <mask id="mask-2-active" fill="white">
                            <use xlink:href="#bus_active_img#path-1-active"></use>
                        </mask>
                        <g id="Clip-15-active"></g>
                        <path d="M70.6666667,35.2542373 L86.125,35.2542373 L86.125,15.4237288 L70.6666667,15.4237288 L70.6666667,35.2542373 Z M53,35.2542373 L68.4583333,35.2542373 L68.4583333,15.4237288 L53,15.4237288 L53,35.2542373 Z M35.3333333,35.2542373 L50.7916667,35.2542373 L50.7916667,15.4237288 L35.3333333,15.4237288 L35.3333333,35.2542373 Z M17.6666667,35.2542373 L33.125,35.2542373 L33.125,15.4237288 L17.6666667,15.4237288 L17.6666667,35.2542373 Z M102.871896,15.4237288 L102.503104,13.220339 L0,13.220339 L0,15.4237288 L15.4583333,15.4237288 L15.4583333,35.2542373 L0,35.2542373 L0,37.4576271 L50.7916667,37.4576271 L50.7916667,56.1864407 L53,56.1864407 L53,37.4576271 L68.4583333,37.4576271 L68.4583333,56.1864407 L70.6666667,56.1864407 L70.6666667,37.4576271 L106,37.4576271 L106,35.2542373 L88.3333333,35.2542373 L88.3333333,15.4237288 L102.871896,15.4237288 Z" id="Fill-14-active" fill="#1976D2" mask="url(#bus_active_img#mask-2-active)"></path>
                        <polygon id="Fill-16-active" fill="#1976D2" mask="url(#bus_active_img#mask-2-active)" points="101.583333 50.6779661 103.791667 50.6779661 103.791667 48.4745763 101.583333 48.4745763"></polygon>
                        <polygon id="Fill-17-active" fill="#1976D2" mask="url(#bus_active_img#mask-2-active)" points="0 50.6779661 2.20833333 50.6779661 2.20833333 48.4745763 0 48.4745763"></polygon>
                    </g>
                </g>
            </g>
        </g>
    </g>
</svg>