<?xml version="1.0" encoding="UTF-8" standalone="no"?>
<svg id="taxi_img" width="85px" height="74px" viewBox="0 0 85 74" version="1.1" xmlns="http://www.w3.org/2000/svg" xmlns:xlink="http://www.w3.org/1999/xlink">
    <!--Generator: sketchtool 40 (33762) - http://www.bohemiancoding.com/sketch -->
    <title>164C5F2F-6CFC-44FB-900C-A0E437B0C08C</title>
    <desc>Created with sketchtool.</desc>
    <defs></defs>
    <g id="Desktop" stroke="none" stroke-width="1" fill="none" fill-rule="evenodd">
        <g id="contact-illustrations" transform="translate(-723.000000, -173.000000)">
            <g id="Group" transform="translate(281.000000, 36.000000)">
                <g id="taxi-copy" transform="translate(442.000000, 137.000000)">
                    <polygon id="Fill-1" fill="#FFCA28" points="29.5652174 7.4000925 55.4347826 7.4000925 55.4347826 9.25000004e-05 29.5652174 9.25000004e-05"></polygon>
                    <polygon id="Fill-2" fill="#1976D2" points="73.1686467 28.82596 74.9878315 28.495735 70.988212 6.475185 14.0123424 6.475185 10.0127228 28.495735 11.8309837 28.82596 15.5534293 8.325185 69.447125 8.325185"></polygon>
                    <path d="M0,62.9000925 L85,62.9000925 L85,27.7491675 L0,27.7491675 L0,62.9000925 Z M66.5217391,49.9500925 L79.4565217,49.9500925 L79.4565217,35.1500925 L66.5217391,35.1500925 L66.5217391,49.9500925 Z M5.54347826,49.9500925 L18.477337,49.9500925 L18.477337,35.1500925 L5.54347826,35.1500925 L5.54347826,49.9500925 Z" id="Fill-3" fill="#FFCA28"></path>
                    <polygon id="Fill-4" fill="#26C6DA" points="69.2167935 46.8670675 76.7623913 46.8670675 76.7623913 38.2340425 69.2167935 38.2340425"></polygon>
                    <polygon id="Fill-5" fill="#26C6DA" points="8.23853261 46.8670675 15.7841304 46.8670675 15.7841304 38.2340425 8.23853261 38.2340425"></polygon>
                    <polygon id="Fill-6" fill="#1976D2" points="21.2503696 62.90037 21.2503696 72.15037 10.1624891 72.15037 10.1624891 62.90037 8.31558696 62.90037 8.31558696 74 23.0981957 74 23.0981957 62.90037"></polygon>
                    <polygon id="Fill-7" fill="#0C7ED3" points="74.8369565 62.90037 74.8369565 72.15037 63.75 72.15037 63.75 62.90037 61.9021739 62.90037 61.9021739 74.00037 76.6847826 74.00037 76.6847826 62.90037"></polygon>
                    <polygon id="Fill-8" fill="#1976D2" points="0 58.2750925 85 58.2750925 85 56.4250925 0 56.4250925"></polygon>
                    <path d="M67.4456522,49.0250925 L78.5326087,49.0250925 L78.5326087,36.0750925 L67.4456522,36.0750925 L67.4456522,49.0250925 Z M65.5978261,50.8750925 L80.3804348,50.8750925 L80.3804348,34.2250925 L65.5978261,34.2250925 L65.5978261,50.8750925 Z" id="Fill-9" fill="#1976D2"></path>
                    <path d="M6.4673913,49.0250925 L17.5543478,49.0250925 L17.5543478,36.0750925 L6.4673913,36.0750925 L6.4673913,49.0250925 Z M4.61956522,50.8750925 L19.4021739,50.8750925 L19.4021739,34.2250925 L4.61956522,34.2250925 L4.61956522,50.8750925 Z" id="Fill-10" fill="#1976D2"></path>
                    <polygon id="Fill-11" fill="#26C6DA" points="25.2533152 50.8750925 59.7457609 50.8750925 59.7457609 34.2250925 25.2533152 34.2250925"></polygon>
                    <path d="M25.8695652,49.9500925 L59.1304348,49.9500925 L59.1304348,35.1500925 L25.8695652,35.1500925 L25.8695652,49.9500925 Z M24.0217391,51.8000925 L60.9782609,51.8000925 L60.9782609,33.3000925 L24.0217391,33.3000925 L24.0217391,51.8000925 Z" id="Fill-12" fill="#1976D2"></path>
                    <polygon id="Fill-13" fill="#1976D2" points="24.9456522 43.4750925 60.0543478 43.4750925 60.0543478 41.6250925 24.9456522 41.6250925"></polygon>
                </g>
            </g>
        </g>
    </g>
</svg>