<?xml version="1.0" encoding="UTF-8" standalone="no"?>
<svg id="tube_img" width="49px" height="81px" viewBox="0 0 49 81" version="1.1" xmlns="http://www.w3.org/2000/svg" xmlns:xlink="http://www.w3.org/1999/xlink">
    <!-- Generator: sketchtool 40 (33762) - http://www.bohemiancoding.com/sketch -->
    <title>FA604764-A350-4AA4-8064-B3F4D2F8D0F1</title>
    <desc>Created with sketchtool.</desc>
    <defs>
			<style>
				#tube_img {
					opacity:0.7;
				}
				#tube_img:hover{
					opacity:1;
				}
			</style>
    </defs>
    <g id="Desktop" stroke="none" stroke-width="1" fill="none" fill-rule="evenodd">
        <g id="contact-illustrations" transform="translate(-281.000000, -165.000000)">
            <g id="Group" transform="translate(281.000000, 36.000000)">
                <g id="tube-copy" transform="translate(0.000000, 129.000000)">
                    <polygon id="Fill-1" fill="#1976D2" points="36 8 38 8 38 0 12 0 12 8 14 8 14 2 36 2"></polygon>
                    <polygon id="Fill-2" fill="#FFCA28" points="1 58 49 58 49 8 1 8"></polygon>
                    <g id="Group-14" transform="translate(0.000000, 14.709600)">
                        <polygon id="Fill-5" fill="#1976D2" points="41.065 49 7.829 49 0 64.554 1.789 65.5 9.064 51 39.829 51 47.105 65.448 48.894 64.606"></polygon>
                        <polygon id="Fill-7" fill="#1976D2" points="6 60 44 60 44 58 6 58"></polygon>
                        <polygon id="Fill-9" fill="#1976D2" points="6 40 44 40 44 38 6 38"></polygon>
                        <polygon id="Fill-10" fill="#1976D2" points="6 32 12 32 12 30 6 30"></polygon>
                        <polygon id="Fill-11" fill="#1976D2" points="38 32 44 32 44 30 38 30"></polygon>
                        <polygon id="Fill-12" fill="#1976D2" points="6 24 44 24 44 0 6 0"></polygon>
                        <polygon id="Fill-13" fill="#26C6DA" points="8 22 42 22 42 2 8 2"></polygon>
                    </g>
                </g>
            </g>
        </g>
    </g>
</svg>