<svg xmlns="http://www.w3.org/2000/svg" id="talent" viewBox="0 0 246 309.45" xml:space="preserve" width="100%" height="100%" preserveAspectRatio="xMaxYMax">
  <defs>
    <style>
      #talent .cls-0 {
        fill: #fff;
        opacity: 0.2;
        isolation: isolate;
      }

      #talent .cls-1 {
        fill: #1976d2;
      }

      #talent .cls-2 {
        fill: #ccff90;
      }
    </style>
  </defs>
  <title>Vector Smart Object31</title>
  <circle class="cls-0" cx="89" cy="178" r="132"/>
  <svg x="3" y="93">
    <g>
      <path class="cls-1" d="M172,58.48V56.19H115.81V0h-2.29V56.19h-55V0H56.19V56.19H0v2.29H56.19v55H0v2.29H56.19V172h2.29V115.82h55V172h2.29V115.82H172v-2.29H115.81v-55H172Zm-58.48,55h-55v-55h55v55Z" transform="translate(0 0)"/>
      <polygon class="cls-2" points="98.76 74.86 97.95 74.05 97.14 73.24 86 84.39 74.86 73.24 73.24 74.86 84.39 86 73.24 97.14 74.05 97.95 74.86 98.76 86 87.61 97.14 98.76 98.76 97.14 87.61 86 98.76 74.86"/>
      <polygon class="cls-2" points="17.8 41.71 28.95 30.56 40.09 41.71 41.71 40.09 30.56 28.95 41.71 17.81 40.09 16.19 28.95 27.34 17.8 16.19 16.19 17.81 27.34 28.95 16.19 40.09 17.8 41.71"/>
      <polygon class="cls-2" points="155.27 131.37 144.13 142.52 132.99 131.37 131.37 132.99 142.52 144.13 131.37 155.28 132.99 156.89 144.13 145.74 155.27 156.89 156.89 155.28 145.74 144.13 156.89 132.99 155.27 131.37"/>
    </g>
  </svg>
</svg>