<svg width="488px" height="336px" viewBox="0 0 488 336" version="1.1" xmlns="http://www.w3.org/2000/svg" xmlns:xlink="http://www.w3.org/1999/xlink">
  <!-- Generator: sketchtool 40 (33762) - http://www.bohemiancoding.com/sketch -->
  <title>D40F7EE3-DEE0-40AE-933E-90A5EED3117B</title>
  <desc>Created with sketchtool.</desc>
  <defs>
    <polygon id="path-1" points="144.212 32.4043125 144.212 0.0200194992 0.32116793 0.0200194992 0.32116793 32.4043125 144.212 32.4043125"></polygon>
    <polygon id="path-3" points="144.212 32.5974192 144.212 0.212789515 0.321282321 0.212789515 0.321282321 32.5974192 144.212 32.5974192"></polygon>
  </defs>
  <g id="Desktop" stroke="none" stroke-width="1" fill="none" fill-rule="evenodd">
    <g id="ORGANIZATIONS" transform="translate(-952.000000, -141.000000)">
      <g id="hero-image" transform="translate(-1.000000, 68.000000)">
        <g id="Page-1" transform="translate(952.000000, 73.000000)">
          <g id="Group-5">
            <g id="Group-2" transform="translate(250.000000, 0.000000)">
              <path d="M93.7653982,211.40325 L93.1853869,211.739819 L49.0553035,237.280888 L49.0553035,185.536319 L49.6353148,185.19975 L93.7653982,159.658681 L93.7653982,211.40325 Z M47.9654024,183.643991 L3.2608802,157.770543 L47.9719037,131.893371 L48.5523794,132.228543 L92.6759615,157.766819 L47.9654024,183.643991 Z M46.8759656,237.272974 L2.17887353,211.403716 L2.17887353,159.665664 L46.8759656,185.535853 L46.8759656,237.272974 Z M95.4000178,156.820888 L48.5170865,129.686353 C48.1859831,129.49456 47.7578243,129.495026 47.4285785,129.685888 L0.544718382,156.820888 C0.208506866,157.015474 0,157.38044 0,157.774267 L0,212.034491 C0,212.423198 0.208506866,212.785371 0.544718382,212.979957 L47.4350798,240.119147 C47.4485468,240.124267 47.4610851,240.130319 47.4726946,240.135905 L47.5692858,240.18106 C47.964938,240.345853 48.3044002,240.236922 48.5161577,240.115422 L95.4000178,212.979957 C95.7357649,212.785371 95.9442718,212.423198 95.9442718,212.034491 L95.9442718,157.766819 C95.9442718,157.377647 95.7357649,157.015474 95.4000178,156.820888 L95.4000178,156.820888 Z" id="Fill-24" fill="#FFFFFF"></path>
              <path d="M165.578413,81.8635345 L164.998402,82.2001034 L120.868319,107.740707 L120.868319,55.9966034 L121.44833,55.6600345 L165.578413,30.1189655 L165.578413,81.8635345 Z M119.778418,54.1038103 L75.0738955,28.2308276 L119.784919,2.35365517 L120.365395,2.68882759 L164.488977,28.2271034 L119.778418,54.1038103 Z M118.688981,107.733259 L73.9918888,81.864 L73.9918888,30.1259483 L118.688981,55.9961379 L118.688981,107.733259 Z M167.213033,27.2807069 L120.330102,0.146637931 C119.99389,-0.0484137931 119.577341,-0.0484137931 119.241594,0.145706897 L72.3577336,27.2807069 C72.0215221,27.4752931 71.8130153,27.8407241 71.8130153,28.2345517 L71.8130153,82.4943103 C71.8130153,82.8830172 72.0215221,83.2456552 72.3577336,83.4402414 L119.245309,110.578034 C119.25924,110.584086 119.271778,110.589672 119.283852,110.595259 L119.382301,110.641345 C119.691578,110.770293 120.025468,110.751672 120.326851,110.576172 L167.213033,83.4402414 C167.54878,83.2456552 167.757287,82.8830172 167.757287,82.4943103 L167.757287,28.2271034 C167.757287,27.837931 167.54878,27.4752931 167.213033,27.2807069 L167.213033,27.2807069 Z" id="Fill-26" fill="#FFFFFF"></path>
              <path d="M236.548392,211.404134 L235.968381,211.740703 L191.852229,237.273859 L191.852229,185.536272 L192.43224,185.199703 L236.548392,159.666548 L236.548392,211.404134 Z M190.762792,183.643479 L190.182317,183.308307 L146.052233,157.766772 L190.754898,131.894721 L191.335373,132.229893 L235.465921,157.771428 L190.762792,183.643479 Z M189.673355,237.282238 L144.961868,211.4046 L144.962332,159.658634 L189.673355,185.535807 L189.673355,237.282238 Z M238.183476,156.821772 L238.183476,156.821307 L191.300081,129.688169 C191.131046,129.59041 190.942507,129.541066 190.754433,129.541066 C190.566359,129.541066 190.379214,129.589945 190.212501,129.686772 L143.304493,156.834807 C142.985928,157.025669 142.782994,157.384583 142.782994,157.766772 L142.782994,212.03491 C142.782994,212.423617 142.991501,212.786255 143.327712,212.980841 L190.210644,240.11491 C190.414971,240.233617 190.65552,240.282031 190.887246,240.24991 L190.917431,240.243393 C190.962476,240.23641 190.993589,240.231755 191.023774,240.224307 L191.052101,240.215462 C191.095753,240.201497 191.122223,240.194979 191.147299,240.184738 L191.336767,240.094428 L238.183012,212.980841 C238.518759,212.786721 238.727266,212.424083 238.727266,212.03491 L238.727266,157.766772 C238.727266,157.3776 238.518759,157.015428 238.183476,156.821772 L238.183476,156.821772 Z" id="Fill-28" fill="#FFFFFF"></path>
              <path d="M20.4252676,191.34644 L20.4248032,191.347371 C17.7615807,192.889164 17.5163878,197.113733 19.8554726,201.173974 C21.6456596,204.283629 24.2768398,206.125216 26.6089589,206.125216 C27.3217831,206.125216 28.0067444,205.952509 28.6304075,205.592198 C31.2936299,204.04994 31.5383584,199.825836 29.199738,195.765595 C26.8606532,191.704888 23.0889544,189.80744 20.4252676,191.34644" id="Fill-30" fill="#26C6DA"></path>
              <path d="M92.238515,61.8065845 L92.2375862,61.80705 C89.5748282,63.3493086 89.3291709,67.5743431 91.6682557,71.634119 C93.4589071,74.7437741 96.0900873,76.5853603 98.421742,76.5853603 C99.1345661,76.5853603 99.8195274,76.4126534 100.443655,76.0523431 C103.106413,74.5100845 103.351142,70.285981 101.012985,66.2257397 C98.6739006,62.1650328 94.9017374,60.267119 92.238515,61.8065845" id="Fill-32" fill="#26C6DA"></path>
              <path d="M218.30237,191.347231 C215.635897,189.807766 211.866055,191.705679 209.528364,195.765921 C208.5527,197.459007 207.981976,199.291283 207.920678,200.926179 C207.840805,203.044283 208.634896,204.746214 210.098159,205.59299 L210.098159,205.593455 C210.718107,205.951903 211.410498,206.129731 212.138647,206.129731 C213.12917,206.129731 214.187029,205.80061 215.218883,205.149817 C216.600415,204.278834 217.897894,202.866921 218.872165,201.1743 C219.847828,199.481679 220.419016,197.649403 220.480315,196.014507 C220.560188,193.895938 219.766097,192.194472 218.30237,191.347231" id="Fill-34" fill="#26C6DA"></path>
              <path d="M122.035864,142.228971 C122.035864,143.707919 120.83962,144.906626 119.364747,144.906626 C117.88941,144.906626 116.693166,143.707919 116.693166,142.228971 C116.693166,140.750022 117.88941,139.551316 119.364747,139.551316 C120.83962,139.551316 122.035864,140.750022 122.035864,142.228971" id="Fill-36" fill="#95E81F"></path>
              <path d="M119.364933,141.8067 C119.132743,141.8067 118.94374,141.996166 118.94374,142.228924 C118.94374,142.461683 119.132743,142.650683 119.364933,142.650683 C119.597123,142.650683 119.785198,142.461683 119.785198,142.228924 C119.785198,141.996166 119.597123,141.8067 119.364933,141.8067 M119.364933,147.162476 C116.650629,147.162476 114.442964,144.948941 114.442964,142.228924 C114.442964,139.508441 116.650629,137.294907 119.364933,137.294907 C122.078309,137.294907 124.286438,139.508441 124.286438,142.228924 C124.286438,144.948941 122.078309,147.162476 119.364933,147.162476" id="Fill-38" fill="#FFFFFF"></path>
              <path d="M34.4896361,95.318519 C33.8970866,95.318519 33.3189328,95.0778466 32.8991328,94.657019 C32.4788684,94.2357259 32.239248,93.6566224 32.239248,93.0626224 C32.239248,92.4686224 32.4788684,91.889519 32.8991328,91.4686914 C33.0040828,91.3634845 33.1169272,91.2731741 33.2372018,91.1903121 C33.3644421,91.1079155 33.4916823,91.0325017 33.6268171,90.9794328 C33.7693819,90.9198466 33.9045166,90.8821397 34.0470815,90.851881 C34.7817315,90.701519 35.5618908,90.9421914 36.0801395,91.4686914 C36.4999395,91.889519 36.7400243,92.4686224 36.7400243,93.0626224 C36.7400243,93.6566224 36.4999395,94.2357259 36.0801395,94.657019 C35.9747251,94.7622259 35.862345,94.8525362 35.7420705,94.9349328 C35.6148302,95.0177948 35.4875899,95.0852948 35.3519908,95.1453466 C35.2168561,95.2058638 35.0742912,95.2435707 34.9321908,95.2733638 C34.7817315,95.3036224 34.6396311,95.318519 34.4896361,95.318519" id="Fill-40" fill="#FFFFFF"></path>
              <path d="M50.3399659,104.838533 C49.2593523,104.214274 48.8924917,102.838205 49.5142972,101.763326 C50.1370316,100.680067 51.5097405,100.311843 52.590354,100.935636 C53.6700388,101.559895 54.0378282,102.935964 53.4150938,104.019222 C52.9952938,104.740774 52.2378892,105.147171 51.4651599,105.147171 C51.0829747,105.147171 50.6924307,105.048947 50.3399659,104.838533 M67.3153968,114.666533 C66.2347832,114.04274 65.8679226,112.658757 66.4906569,111.583878 C67.1124625,110.500619 68.4851714,110.132395 69.5657849,110.756653 C70.638504,111.380912 71.0062934,112.764429 70.3905248,113.839774 C69.9711891,114.561791 69.2133201,114.967722 68.4331608,114.967722 C68.0584056,114.967722 67.6678616,114.869964 67.3153968,114.666533 M84.2908277,124.48755 C83.2111429,123.863291 82.8433535,122.487688 83.4660878,121.411878 C84.0888221,120.329084 85.461531,119.960395 86.5412158,120.584653 C87.6139349,121.208912 87.9817243,122.584981 87.3664201,123.667774 C86.94662,124.389791 86.188751,124.795722 85.409056,124.795722 C85.0264065,124.795722 84.6432925,124.698429 84.2908277,124.48755 M101.266259,134.31555 C100.186574,133.691291 99.8187844,132.307774 100.441519,131.232895 C101.064253,130.149636 102.436962,129.781878 103.516647,130.405205 C104.58983,131.029464 104.957155,132.413447 104.334421,133.488791 C103.922051,134.210809 103.164646,134.61674 102.384487,134.61674 C102.001837,134.61674 101.618723,134.518981 101.266259,134.31555" id="Fill-42" fill="#FFFFFF"></path>
              <path d="M119.367116,144.445252 C119.217585,144.445252 119.06759,144.42989 118.924561,144.399631 C118.782461,144.369372 118.639896,144.324683 118.504761,144.272079 C118.369162,144.211562 118.234492,144.144062 118.114681,144.0612 C117.994407,143.978803 117.875061,143.881045 117.776612,143.782821 C117.672127,143.678079 117.574607,143.564959 117.491947,143.436941 C117.409752,143.317303 117.342417,143.181372 117.289477,143.046372 C117.229572,142.911372 117.184063,142.767993 117.154807,142.624614 C117.132052,142.482166 117.116728,142.331803 117.116728,142.189355 C117.116728,142.038993 117.132052,141.888166 117.154807,141.745252 C117.184063,141.602803 117.229572,141.459424 117.282047,141.324424 C117.342417,141.189424 117.409752,141.053493 117.491947,140.932924 C117.574607,140.813286 117.664697,140.692717 117.769182,140.587045 C118.294861,140.068459 119.07502,139.827786 119.80224,139.9707 C119.94527,140.000959 120.08737,140.045648 120.222505,140.106166 C120.36507,140.158769 120.49231,140.226269 120.612584,140.309597 C120.739825,140.391528 120.852669,140.489286 120.957619,140.587045 C121.063034,140.692717 121.152195,140.813286 121.235319,140.932924 C121.317978,141.053493 121.385314,141.189424 121.438253,141.324424 C121.497229,141.459424 121.542739,141.602803 121.565493,141.745252 C121.595678,141.888166 121.610074,142.038993 121.610074,142.189355 C121.610074,142.331803 121.595678,142.482166 121.565493,142.624614 C121.542739,142.767993 121.497229,142.911372 121.438253,143.046372 C121.385314,143.181372 121.317978,143.317303 121.235319,143.436941 C121.152195,143.564959 121.063034,143.678079 120.957619,143.782821 C120.852669,143.881045 120.739825,143.978803 120.612584,144.0612 C120.49231,144.144062 120.357639,144.211562 120.222505,144.272079 C120.08737,144.324683 119.94527,144.369372 119.80224,144.399631 C119.66014,144.42989 119.510145,144.445252 119.367116,144.445252" id="Fill-44" fill="#FFFFFF"></path>
              <path d="M204.238001,95.318519 C203.645452,95.318519 203.067298,95.0778466 202.647498,94.657019 C202.542083,94.5513466 202.452922,94.4386914 202.369798,94.3181224 C202.287139,94.1905707 202.219803,94.0625534 202.159898,93.9275534 C202.107888,93.7920879 202.062378,93.6491741 202.032194,93.5062603 C202.002473,93.3558983 201.987613,93.2129845 201.987613,93.0626224 C201.987613,92.9197086 202.002473,92.7693466 202.032194,92.6189845 C202.062378,92.4760707 202.107888,92.3331569 202.159898,92.1976914 C202.219803,92.0622259 202.287139,91.9346741 202.369798,91.8066569 C202.452922,91.6865534 202.542083,91.5738983 202.647498,91.4686914 C203.164818,90.9421914 203.944977,90.701519 204.680556,90.851881 C204.822656,90.8821397 204.965686,90.9198466 205.100356,90.9794328 C205.235955,91.0325017 205.363195,91.1079155 205.4909,91.1903121 C205.61071,91.2657259 205.730056,91.3634845 205.828505,91.4686914 C206.248305,91.889519 206.488389,92.4686224 206.488389,93.0626224 C206.488389,93.2129845 206.473065,93.3558983 206.44288,93.5062603 C206.41316,93.6491741 206.375545,93.7920879 206.31564,93.9275534 C206.2627,94.0625534 206.187935,94.1905707 206.11317,94.3181224 C206.03051,94.4386914 205.93299,94.5513466 205.828505,94.657019 C205.730056,94.7622259 205.61071,94.8525362 205.4909,94.9349328 C205.363195,95.0177948 205.235955,95.0852948 205.100356,95.1453466 C204.965686,95.1984155 204.822656,95.2435707 204.680556,95.2733638 C204.530097,95.3036224 204.387532,95.318519 204.238001,95.318519" id="Fill-46" fill="#FFFFFF"></path>
              <path d="M185.311754,104.019036 C184.68902,102.936243 185.064239,101.55226 186.137423,100.935916 C187.217107,100.311657 188.589816,100.680347 189.212551,101.755226 C189.835285,102.838019 189.467496,104.222002 188.387811,104.838347 C188.034882,105.04876 187.644802,105.146984 187.262617,105.146984 C186.489887,105.146984 185.732018,104.741053 185.311754,104.019036 M168.336323,113.839588 C167.721019,112.764243 168.088808,111.380726 169.161063,110.756467 C170.241677,110.132674 171.614385,110.500898 172.23712,111.583691 C172.859854,112.666484 172.492065,114.043019 171.411451,114.666812 C171.058986,114.869778 170.669371,114.967536 170.286257,114.967536 C169.513992,114.967536 168.756123,114.561605 168.336323,113.839588 M151.367858,123.66014 C150.745588,122.58526 151.112913,121.209191 152.185632,120.584933 C153.266246,119.960674 154.638954,120.329364 155.261689,121.412157 C155.884423,122.487502 155.516634,123.863105 154.43602,124.487364 C154.083555,124.698243 153.69394,124.796002 153.318721,124.796002 C152.538561,124.788088 151.780692,124.389605 151.367858,123.66014 M134.384997,133.488605 C133.769693,132.405812 134.137482,131.029278 135.210201,130.405019 C136.290815,129.781691 137.663524,130.149916 138.286258,131.232709 C138.908992,132.308053 138.541203,133.691571 137.460589,134.315829 C137.108124,134.51926 136.725939,134.616553 136.342825,134.616553 C135.562666,134.616553 134.804797,134.210622 134.384997,133.488605" id="Fill-48" fill="#FFFFFF"></path>
              <path d="M119.367116,144.445252 C119.217585,144.445252 119.06759,144.42989 118.924561,144.399631 C118.782461,144.369372 118.639896,144.324683 118.504761,144.272079 C118.369162,144.211562 118.234492,144.144062 118.114681,144.0612 C117.994407,143.978803 117.875061,143.881045 117.776612,143.782821 C117.672127,143.678079 117.574607,143.564959 117.491947,143.436941 C117.409752,143.317303 117.342417,143.181372 117.289477,143.046372 C117.229572,142.911372 117.184063,142.767993 117.154807,142.624614 C117.132052,142.482166 117.116728,142.331803 117.116728,142.189355 C117.116728,142.038993 117.132052,141.888166 117.154807,141.745252 C117.184063,141.602803 117.229572,141.459424 117.282047,141.324424 C117.342417,141.189424 117.409752,141.053493 117.491947,140.932924 C117.574607,140.813286 117.664697,140.692717 117.769182,140.587045 C118.294861,140.068459 119.07502,139.827786 119.80224,139.9707 C119.94527,140.000959 120.08737,140.045648 120.222505,140.106166 C120.36507,140.158769 120.49231,140.226269 120.612584,140.309597 C120.739825,140.391528 120.852669,140.489286 120.957619,140.587045 C121.063034,140.692717 121.152195,140.813286 121.235319,140.932924 C121.317978,141.053493 121.385314,141.189424 121.438253,141.324424 C121.497229,141.459424 121.542739,141.602803 121.565493,141.745252 C121.595678,141.888166 121.610074,142.038993 121.610074,142.189355 C121.610074,142.331803 121.595678,142.482166 121.565493,142.624614 C121.542739,142.767993 121.497229,142.911372 121.438253,143.046372 C121.385314,143.181372 121.317978,143.317303 121.235319,143.436941 C121.152195,143.564959 121.063034,143.678079 120.957619,143.782821 C120.852669,143.881045 120.739825,143.978803 120.612584,144.0612 C120.49231,144.144062 120.357639,144.211562 120.222505,144.272079 C120.08737,144.324683 119.94527,144.369372 119.80224,144.399631 C119.66014,144.42989 119.510145,144.445252 119.367116,144.445252" id="Fill-50" fill="#FFFFFF"></path>
              <path d="M117.116728,161.838279 C117.116728,160.59721 118.121647,159.582383 119.367116,159.582383 C120.605154,159.582383 121.617504,160.59721 121.617504,161.838279 C121.617504,163.086797 120.605154,164.094176 119.367116,164.094176 C118.121647,164.094176 117.116728,163.086797 117.116728,161.838279 M117.116728,181.494745 C117.116728,180.246228 118.121647,179.238848 119.367116,179.238848 C120.605154,179.238848 121.617504,180.246228 121.617504,181.494745 C121.617504,182.735814 120.605154,183.750641 119.367116,183.750641 C118.121647,183.750641 117.116728,182.735814 117.116728,181.494745 M117.116728,201.150745 C117.116728,199.903159 118.121647,198.894848 119.367116,198.894848 C120.605154,198.894848 121.617504,199.903159 121.617504,201.150745 C121.617504,202.391814 120.605154,203.406641 119.367116,203.406641 C118.121647,203.406641 117.116728,202.391814 117.116728,201.150745 M117.116728,220.800693 C117.116728,219.559624 118.121647,218.544797 119.367116,218.544797 C120.605154,218.544797 121.617504,219.559624 121.617504,220.800693 C121.617504,222.048279 120.605154,223.05659 119.367116,223.05659 C118.121647,223.05659 117.116728,222.048279 117.116728,220.800693" id="Fill-52" fill="#FFFFFF"></path>
              <path d="M119.367116,242.712776 C119.217585,242.712776 119.06759,242.697414 118.924561,242.667155 C118.782461,242.636897 118.639896,242.599655 118.504761,242.539603 C118.369162,242.487466 118.234492,242.411586 118.114681,242.336638 C117.994407,242.253776 117.875061,242.156017 117.776612,242.051276 C117.356812,241.637897 117.116728,241.050879 117.116728,240.456879 C117.116728,240.3135 117.132052,240.164069 117.154807,240.013241 C117.184063,239.869862 117.229572,239.727879 117.282047,239.591948 C117.342417,239.456483 117.409752,239.328931 117.491947,239.208362 C117.574607,239.08081 117.664697,238.96769 117.769182,238.862483 C118.294861,238.335983 119.07502,238.095776 119.80224,238.245672 C119.94527,238.275931 120.08737,238.321552 120.222505,238.37369 C120.36507,238.433741 120.49231,238.501241 120.612584,238.584103 C120.739825,238.667431 120.852669,238.757741 120.957619,238.862483 C121.063034,238.96769 121.152195,239.08081 121.235319,239.208362 C121.317978,239.328931 121.385314,239.456483 121.438253,239.591948 C121.497229,239.727879 121.542739,239.869862 121.565493,240.013241 C121.595678,240.164069 121.610074,240.3135 121.610074,240.456879 C121.610074,241.050879 121.377884,241.629517 120.957619,242.051276 C120.852669,242.156017 120.739825,242.253776 120.612584,242.336638 C120.49231,242.411586 120.357639,242.487466 120.222505,242.539603 C120.08737,242.599655 119.94527,242.636897 119.80224,242.667155 C119.66014,242.697414 119.510145,242.712776 119.367116,242.712776" id="Fill-54" fill="#FFFFFF"></path>
            </g>
            <g id="Group-4" transform="translate(0.000000, 204.000000)">
              <g id="Group-3" transform="translate(0.735266, 31.710269)">
                <mask id="mask-2" fill="white">
                  <use xlink:href="#path-1"></use>
                </mask>
                <g id="Clip-2"></g>
                <path d="M122.269598,30.8022713 L74.1179468,11.3359281 L93.4482911,1.62225205 L141.599565,21.0893523 L122.269598,30.8022713 Z M22.2636268,30.8022713 L2.93365914,21.0893523 L51.0845566,1.62225205 L70.4149009,11.3359281 L22.2636268,30.8022713 Z M143.734909,20.3042329 L93.6980235,0.0751049625 C93.4968816,-0.00628398376 93.2693727,0.0031798472 93.0735042,0.100846583 L72.2666122,10.556487 L51.4589669,0.100468029 C51.2642283,0.00280129396 51.0355894,-0.00628398376 50.8348241,0.0751049625 L0.797938412,20.3042329 C0.520709055,20.4159061 0.333503904,20.6827862 0.321827124,20.9826003 C0.309397003,21.282793 0.473625264,21.563301 0.741061194,21.6973088 L21.8892165,32.3244339 C22.0832017,32.4205864 22.3114639,32.4311859 22.5129825,32.3494184 L72.2666122,12.2353706 L72.4775476,12.3209237 L122.019865,32.3494184 C122.221384,32.4311859 122.451153,32.4202079 122.644385,32.3240553 L143.791786,21.6973088 C144.059222,21.563301 144.223827,21.282793 144.211397,20.9833574 C144.199344,20.6827862 144.012515,20.4159061 143.734909,20.3042329 L143.734909,20.3042329 Z" id="Fill-1" fill="#FFFFFF" mask="url(#mask-2)"></path>
              </g>
              <path d="M22.9646914,63.3428591 C22.5454573,63.3428591 22.2038173,63.6858283 22.2038173,64.1079152 L22.2038173,109.969261 C22.2038173,110.39097 22.5454573,110.733939 22.9646914,110.733939 C23.3843021,110.733939 23.7259421,110.39097 23.7259421,109.969261 L23.7259421,64.1079152 C23.7259421,63.6858283 23.3843021,63.3428591 22.9646914,63.3428591" id="Fill-4" fill="#FFFFFF"></path>
              <path d="M73.0018784,84.5244649 C72.5826444,84.5244649 72.2410044,84.8674341 72.2410044,85.289521 L72.2410044,131.150489 C72.2410044,131.571818 72.5826444,131.914788 73.0018784,131.914788 C73.4211125,131.914788 73.7627525,131.571818 73.7627525,131.150489 L73.7627525,85.289521 C73.7627525,84.8674341 73.4211125,84.5244649 73.0018784,84.5244649" id="Fill-6" fill="#FFFFFF"></path>
              <path d="M123.039103,63.3428591 C122.619492,63.3428591 122.277852,63.6858283 122.277852,64.1079152 L122.277852,109.969261 C122.277852,110.39097 122.619492,110.733939 123.039103,110.733939 C123.458337,110.733939 123.799977,110.39097 123.799977,109.969261 L123.799977,64.1079152 C123.799977,63.6858283 123.458337,63.3428591 123.039103,63.3428591" id="Fill-8" fill="#FFFFFF"></path>
              <path d="M71.1501671,83.6545874 L51.8198228,93.3682635 L3.6689254,73.9015417 L22.998893,64.1882442 L71.1501671,83.6545874 Z M1.81683742,74.7343589 L51.8537231,94.9631083 L73.0018784,84.3363618 L22.9649927,64.1076124 L1.81683742,74.7343589 Z" id="Fill-10" fill="#FFFFFF"></path>
              <polygon id="Fill-12" fill="#231F1F" points="112.988314 68.740574 112.988314 68.1727442 112.986639 68.1727442"></polygon>
              <polygon id="Fill-14" fill="#231F1F" points="112.984492 67.6049143 112.986167 68.1727442 112.988177 68.1727442 112.988177 67.6049143"></polygon>
              <polygon id="Fill-16" fill="#26C6DA" points="33.019303 1.37585174 33.019303 68.1723278 73.0017278 84.336551 112.984529 68.1723278 112.984529 1.37585174"></polygon>
              <path d="M58.6119044,51.0343141 L48.6316475,43.8789008 L58.6119044,36.723109 C58.9531677,36.478185 59.0330218,35.9996937 58.7896928,35.6567245 C58.6412847,35.4477631 58.4069958,35.3364684 58.1689401,35.3364684 C58.016012,35.3364684 57.8615771,35.3822734 57.7278592,35.4780474 L46.8797539,43.2561807 C46.6797419,43.3996524 46.5607141,43.6324627 46.5607141,43.8789008 C46.5607141,44.125339 46.6797419,44.3581492 46.8801305,44.5016209 L57.7282358,52.2797543 C58.059329,52.5163501 58.5550272,52.4304185 58.7900695,52.1006986 C59.0330218,51.7581079 58.9531677,51.2792381 58.6119044,51.0343141" id="Fill-18" fill="#FFFFFF"></path>
              <path d="M99.4236442,43.2562565 L88.5751623,35.4777445 C88.4448343,35.3842419 88.2919062,35.3354085 88.1348347,35.3354085 C88.0930243,35.3354085 88.0504605,35.339194 88.0078968,35.346008 C87.8075082,35.3796992 87.6323565,35.4902368 87.5144586,35.6568002 C87.2703763,35.9997694 87.3502304,36.4782607 87.6918704,36.7231847 L97.6721272,43.8789765 L87.6918704,51.0343898 C87.3502304,51.2793138 87.2703763,51.7581836 87.514082,52.1011529 C87.7483709,52.4301156 88.2448224,52.5164258 88.5747856,52.27983 L99.4240209,44.5016966 C99.6236562,44.3582249 99.7430607,44.1254147 99.7430607,43.8789765 C99.7430607,43.6325384 99.6236562,43.3997281 99.4236442,43.2562565" id="Fill-20" fill="#FFFFFF"></path>
              <path d="M78.4716965,29.5758345 C78.3846857,29.543279 78.2950381,29.5277583 78.2068973,29.5277583 C77.8984043,29.5277583 77.6068615,29.717792 77.4927304,30.0244201 L67.3855356,57.1977287 C67.2390108,57.5925597 67.4390228,58.0343313 67.8318899,58.1815885 C68.2127036,58.3258173 68.6684747,58.1164774 68.8112328,57.733003 L78.9184275,30.5604515 C79.0649523,30.1656205 78.8649403,29.7242274 78.4716965,29.5758345" id="Fill-22" fill="#FFFFFF"></path>
              <path d="M112.988522,68.740574 L112.986639,68.1727442 L112.984379,68.1727442 L112.986639,68.1727442 L112.984379,67.6049143 L112.988522,67.6049143 L112.988522,68.1727442 L112.988522,68.1727442 L112.988522,68.1727442 L112.988522,68.740574 Z M112.223504,67.6563975 L73.0019538,83.5120999 L72.7910184,83.4269255 L33.780403,67.6563975 L33.780403,2.14056714 L112.223504,2.14056714 L112.223504,67.6563975 Z M112.984379,0.611212059 L33.0191523,0.611212059 C32.5999182,0.611212059 32.2586549,0.954559846 32.2586549,1.3758896 L32.2586549,68.1727442 C32.2586549,68.4861862 32.4458601,68.7644229 32.7355196,68.8817744 L72.7179443,85.0456191 C72.8987461,85.1190584 73.1044081,85.1190584 73.2863399,85.0456191 L113.268011,68.8817744 C113.558047,68.7644229 113.745253,68.4861862 113.745253,68.1727442 L113.745253,1.3758896 C113.745253,0.954559846 113.403989,0.611212059 112.984379,0.611212059 L112.984379,0.611212059 Z" id="Fill-56" fill="#FFFFFF"></path>
              <polygon id="Fill-58" fill="#26C6DA" points="123.039103 64.1076502 73.0018408 84.3363996 94.1499961 94.9631461 144.186882 74.7343967"></polygon>
              <polygon id="Fill-60" fill="#26C6DA" points="22.998893 64.1883199 3.6689254 73.9016175 51.8198228 93.3683392 71.1501671 83.6546631"></polygon>
              <g id="Group-64" transform="translate(0.735266, 62.373081)">
                <mask id="mask-4" fill="white">
                  <use xlink:href="#path-3"></use>
                </mask>
                <g id="Clip-63"></g>
                <path d="M93.4484418,30.9952578 L74.1180975,21.2815817 L122.269748,1.81523849 L141.599716,11.528536 L93.4484418,30.9952578 Z M51.1186076,32.5901026 L1.08172183,12.3613532 L22.2295005,1.73460665 L72.2667628,21.963356 L51.1186076,32.5901026 Z M143.79156,10.9205795 L122.643782,0.293075917 C122.448667,0.196166288 122.221534,0.185945351 122.020016,0.268091403 L72.2667628,20.3821392 L72.0558275,20.2965861 L22.5135099,0.268091403 C22.3112379,0.186702457 22.083729,0.195787735 21.8882371,0.29345447 L0.741211862,10.9205795 C0.474152603,11.0545874 0.309171001,11.3350953 0.321977792,11.6349095 C0.333654572,11.9354808 0.520483052,12.2016037 0.79771241,12.3136554 L50.8345981,32.5424048 C51.0368701,32.6241723 51.2636256,32.6139514 51.4591175,32.5170418 L72.2667628,22.0610228 L93.0744082,32.5170418 C93.2668867,32.6135729 93.4977856,32.6245509 93.6977975,32.5424048 L143.735437,12.3136554 C144.012289,12.2016037 144.199118,11.9354808 144.211548,11.635288 C144.223978,11.3350953 144.058996,11.0549659 143.79156,10.9205795 L143.79156,10.9205795 Z" id="Fill-62" fill="#FFFFFF" mask="url(#mask-4)"></path>
              </g>
            </g>
          </g>
        </g>
      </g>
    </g>
  </g>
</svg>