<svg id="fourSteps_prioritize_img" xmlns="http://www.w3.org/2000/svg" viewBox="0 0 270 200.28" xml:space="preserve" width="100%" height="100%" preserveAspectRatio="xMaxYMax">
  <defs>
    <style>
      #fourSteps_prioritize_img .cls-1 {
        fill: #f7f7f7;
      }
      #fourSteps_prioritize_img .cls-1:hover {
       fill: #FFE9B3;
      }
      #fourSteps_prioritize_img .cls-01 {
              pointer-events: none;
       }

      #fourSteps_prioritize_img .cls-2 {
        fill: #f9a823;
      }

      #fourSteps_prioritize_img .cls-3 {
        fill: #f9bf2c;
      }

      #fourSteps_prioritize_img .cls-4 {
        fill: #f4f1d0;
      }

      #fourSteps_prioritize_img .cls-5 {
        fill: #ffcb28;
      }

      #fourSteps_prioritize_img .cls-6 {
        fill: #ffecb2;
      }

      #fourSteps_prioritize_img .cls-7 {
        fill: #f9f7ef;
      }

      #fourSteps_prioritize_img .cls-8 {
        fill: #efebdc;
      }
    </style>
  </defs>
  <title>coaching step prioritize</title>
  <g>
    <circle class="cls-1" cx="99.21" cy="99.21" r="99.21"/>
    <g class="cls-01">
      <polygon class="cls-2" points="186.6 200.28 85.14 200.28 136.75 99.6 186.6 200.28"/>
      <polygon class="cls-3" points="136.75 99.6 156.98 200.28 186.7 200.28 136.75 99.6"/>
      <polygon class="cls-3" points="136.75 99.6 85.04 200.28 108.99 200.28 136.75 99.6 128.44 115.73 136.75 99.6"/>
      <polygon class="cls-4" points="136.75 99.6 127.75 117.1 132.25 115.93 140.27 117.39 145.35 116.91 136.75 99.6"/>
      <polygon class="cls-2" points="170.27 200.28 28.44 200.28 99.31 74.97 170.27 200.28"/>
      <polygon class="cls-3" points="99.31 74.97 60.7 200.28 28.44 200.28 99.31 74.97"/>
      <polygon class="cls-5" points="99.31 74.97 132.06 200.28 170.76 200.28 99.31 74.97"/>
      <polygon class="cls-4" points="99.31 74.97 83.77 102.54 92.08 98.63 106.84 103.61 112.41 97.75 99.31 74.97"/>
      <polygon class="cls-2" points="120.91 200.28 12.8 200.28 66.86 94.03 120.91 200.28"/>
      <polygon class="cls-3" points="66.86 94.03 40.66 200.28 12.71 200.28 66.86 94.03"/>
      <polygon class="cls-5" points="66.86 94.03 84.65 200.28 121.01 200.28 66.86 94.03"/>
      <polygon class="cls-6" points="66.86 94.03 54.45 118.27 62.17 113 69.11 107.13 75.95 111.72 66.86 94.03"/>
      <polygon class="cls-2" points="142.42 200.28 56.4 200.28 99.31 124.24 142.42 200.28"/>
      <polygon class="cls-3" points="99.31 124.24 83.77 200.28 56.3 200.28 99.31 124.24"/>
      <polygon class="cls-2" points="99.31 124.24 115.24 200.28 142.51 200.28 99.31 124.24"/>
      <polygon class="cls-4" points="99.31 124.14 85.33 149.06 95.4 143.3 104.1 147.21 109.77 142.61 99.31 124.14"/>
      <polygon class="cls-7" points="66.86 94.03 69.2 107.03 69.11 107.13 62.17 113 62.07 112.6 66.86 94.03"/>
      <polygon class="cls-8" points="66.86 94.03 69.11 107.13 75.95 111.72 66.86 94.03"/>
      <polygon class="cls-8" points="66.86 94.03 62.17 113 54.45 118.27 66.86 94.03"/>
      <polygon class="cls-8" points="99.31 74.97 92.08 98.63 83.77 102.54 99.31 74.97"/>
      <polygon class="cls-7" points="99.31 74.97 92.08 98.63 106.84 103.61 99.31 74.97"/>
      <polygon class="cls-8" points="99.31 74.97 106.84 103.61 112.41 97.75 99.31 74.97"/>
      <polygon class="cls-8" points="99.31 124.14 95.4 143.3 85.33 149.06 99.31 124.14"/>
      <polygon class="cls-7" points="95.4 143.3 104.1 147.21 99.31 124.14 95.4 143.3"/>
      <polygon class="cls-8" points="104.1 147.21 109.77 142.61 99.31 124.14 104.1 147.21"/>
      <polygon class="cls-8" points="127.75 117.1 132.25 115.93 136.75 99.6 127.75 117.1"/>
      <polygon class="cls-7" points="132.25 115.93 140.27 117.39 136.75 99.6 132.25 115.93"/>
      <polygon class="cls-8" points="140.27 117.39 145.35 116.91 136.75 99.6 140.27 117.39"/>
    </g>
  </g>
</svg>
