<svg width="489px" height="295px" viewBox="0 0 489 295" version="1.1" xmlns="http://www.w3.org/2000/svg" xmlns:xlink="http://www.w3.org/1999/xlink">
  <!-- Generator: sketchtool 40 (33762) - http://www.bohemiancoding.com/sketch -->
  <title>A591FEB1-B0DD-4E64-922E-8CA04B0AB56F</title>
  <desc>Created with sketchtool.</desc>
  <defs></defs>
  <g id="Desktop" stroke="none" stroke-width="1" fill="none" fill-rule="evenodd">
    <g id="ABOUT" transform="translate(-954.000000, -170.000000)">
      <g id="mountaint-hero" transform="translate(954.000000, 169.000000)">
        <polygon id="Fill-1" fill="#FFFFFF" points="263.5593 209.7261 252.9593 232.7421 254.7203 233.5531 265.3183 210.5391"></polygon>
        <polygon id="Fill-2" fill="#FFFFFF" points="245.8653 252.7838 249.8973 244.0298 248.1373 243.2168 244.1033 251.9708"></polygon>
        <polygon id="Fill-3" fill="#FFFFFF" points="298.6426 187.7006 284.0596 163.0816 282.3916 164.0676 287.7916 173.1836 281.6136 183.6126 268.6916 161.7976 291.8306 111.5506 314.5376 160.8606"></polygon>
        <g id="Group-42" transform="translate(0.000000, 0.373000)">
          <path d="M199.8161,257.0328 L199.4801,258.2978 L198.3691,257.6088 C196.5571,256.4848 194.4831,255.8898 192.3681,255.8898 C186.0701,255.8898 180.9481,261.0128 180.9481,267.3098 C180.9481,267.9988 181.0101,268.6878 181.1311,269.3618 L181.3091,270.3488 L234.5601,270.3488 L234.8781,269.6478 C235.9911,267.2238 236.5791,264.5248 236.5791,261.8448 C236.5791,251.5298 228.1881,243.1368 217.8731,243.1368 C209.4161,243.1368 201.9901,248.8528 199.8161,257.0328 L199.8161,257.0328 Z" id="Fill-4" fill="#26C6DA"></path>
          <path d="M398.3151,275.4227 L398.0291,276.2167 L263.1821,276.2167 L263.0561,275.1607 C262.9641,274.4107 262.9191,273.6627 262.9191,272.9227 C262.9191,262.4307 271.4561,253.8937 281.9461,253.8937 C283.6361,253.8937 285.3571,254.1347 287.0631,254.6107 L288.2671,254.9457 L288.2951,253.6997 C288.7521,233.5597 305.5161,217.1747 325.6631,217.1747 C342.3561,217.1747 357.1571,228.3967 361.6571,244.4627 L361.9831,245.6287 L363.0491,245.0547 C366.6561,243.1157 370.7321,242.0917 374.8371,242.0917 C388.5841,242.0917 399.7671,253.2757 399.7671,267.0217 C399.7671,269.9057 399.2771,272.7337 398.3151,275.4227 L398.3151,275.4227 Z M292.8001,55.9697 L330.7531,55.9697 L316.4561,69.3747 L330.7531,82.7787 L292.8001,82.7787 L292.8001,55.9697 Z M374.8371,240.1517 C371.2781,240.1517 367.6611,240.8847 364.3751,242.2747 L363.1991,242.7707 L362.7771,241.5647 C359.5611,232.3787 353.0181,224.7277 344.3521,220.0237 L344.0011,219.8337 L343.8351,219.4707 L292.8001,108.6467 L292.8001,84.7187 L335.6561,84.7187 L319.2881,69.3747 L335.6561,54.0317 L292.8001,54.0317 L292.8001,39.3747 L290.8601,39.3747 L290.8601,108.6467 L228.4811,244.1107 L230.1081,245.2097 L230.5001,244.3637 L267.7061,163.5637 L281.6141,187.0447 L288.9181,174.7127 L298.6431,191.1317 L315.5231,162.6297 L341.1941,218.3747 L338.5281,217.4427 C334.3401,215.9807 330.0101,215.2377 325.6631,215.2377 C305.4741,215.2377 288.2701,231.0017 286.4961,251.1247 L286.3831,252.4017 L285.1181,252.2047 C272.2181,250.2207 260.9801,260.3217 260.9801,272.9227 C260.9801,274.4037 261.1441,275.9077 261.4671,277.3927 L261.6331,278.1537 L399.3031,278.1537 L399.5541,277.5687 C400.9831,274.2277 401.7071,270.6787 401.7071,267.0217 C401.7071,252.2047 389.6541,240.1517 374.8371,240.1517 L374.8371,240.1517 Z" id="Fill-6" fill="#FFFFFF"></path>
          <path d="M217.8732,243.1363 C209.4162,243.1363 201.9902,248.8523 199.8162,257.0323 L199.4792,258.2983 L198.3692,257.6093 C196.5572,256.4843 194.4832,255.8893 192.3682,255.8893 C186.0702,255.8893 180.9482,261.0133 180.9482,267.3103 C180.9482,267.9993 181.0102,268.6873 181.1312,269.3623 L181.3092,270.3483 L234.8782,269.6483 C235.9912,267.2233 236.5792,264.5243 236.5792,261.8443 C236.5792,251.5303 228.1872,243.1363 217.8732,243.1363" id="Fill-8" fill="#26C6DA"></path>
          <polygon id="Fill-10" fill="#FFFFFF" points="323.327 295 326.895 295 326.895 293.06 323.327 293.06"></polygon>
          <polygon id="Fill-12" fill="#FFFFFF" points="301.939 295 305.509 295 305.509 293.06 301.939 293.06"></polygon>
          <polygon id="Fill-13" fill="#FFFFFF" points="230.052 69.268 241.889 69.268 241.889 67.329 230.052 67.329"></polygon>
          <polygon id="Fill-14" fill="#FFFFFF" points="341.335 69.268 353.172 69.268 353.172 67.329 341.335 67.329"></polygon>
          <polygon id="Fill-15" fill="#FFFFFF" points="290.642 18.575 292.582 18.575 292.582 6.738 290.642 6.738"></polygon>
          <polygon id="Fill-16" fill="#FFFFFF" points="255.3998 30.7128 254.0268 32.0848 256.1778 34.2338 257.5478 32.8618"></polygon>
          <polygon id="Fill-17" fill="#FFFFFF" points="327.8272 105.8846 329.1972 104.5126 327.0492 102.3626 325.6762 103.7336"></polygon>
          <polygon id="Fill-18" fill="#FFFFFF" points="327.8272 30.7128 325.6762 32.8618 327.0492 34.2338 329.1972 32.0848"></polygon>
          <polygon id="Fill-19" fill="#FFFFFF" points="256.1776 102.3624 254.0266 104.5134 255.3996 105.8844 257.5476 103.7344"></polygon>
          <path d="M383.6125,154.4955 C388.4525,154.4955 392.9975,152.6165 396.4085,149.2055 C396.8015,148.8125 397.1785,148.3995 397.5305,147.9755 L395.9555,146.8355 C395.6655,147.1795 395.3585,147.5125 395.0375,147.8335 C391.9825,150.8855 387.9255,152.5655 383.6125,152.5655 C379.2995,152.5655 375.2425,150.8855 372.1875,147.8335 C369.1345,144.7795 367.4555,140.7215 367.4555,136.4105 C367.4555,132.0975 369.1345,128.0405 372.1875,124.9875 C372.5105,124.6645 372.8455,124.3575 373.1875,124.0655 L372.0465,122.4925 C371.6205,122.8485 371.2085,123.2235 370.8165,123.6145 C367.3995,127.0315 365.5175,131.5755 365.5175,136.4105 C365.5175,141.2445 367.3995,145.7895 370.8165,149.2055 C374.2275,152.6165 378.7725,154.4955 383.6125,154.4955" id="Fill-20" fill="#FFFFFF"></path>
          <path d="M400.4092,129.6694 C400.0012,128.6524 399.5022,127.6784 398.9192,126.7544 L397.3502,127.8994 C397.8182,128.6554 398.2232,129.4484 398.5612,130.2714 L400.4092,129.6694 Z" id="Fill-21" fill="#FFFFFF"></path>
          <path d="M382.4201,120.3 L382.4181,118.356 C381.3281,118.427 380.2481,118.596 379.1921,118.862 L379.7891,120.712 C380.6511,120.503 381.5321,120.364 382.4201,120.3" id="Fill-22" fill="#FFFFFF"></path>
          <path d="M399.3152,140.2183 L401.1662,140.8153 C401.4302,139.7603 401.5992,138.6813 401.6692,137.5913 L399.7232,137.6023 C399.6592,138.4873 399.5232,139.3613 399.3152,140.2183" id="Fill-23" fill="#FFFFFF"></path>
          <path d="M390.3382,119.6066 L389.7362,121.4566 C390.5612,121.7936 391.3522,122.1976 392.1092,122.6646 L393.2552,121.0926 C392.3272,120.5096 391.3522,120.0116 390.3382,119.6066" id="Fill-24" fill="#FFFFFF"></path>
          <path d="M127.4486,152.8065 C138.6886,152.8065 147.8326,143.6605 147.8326,132.4205 C147.8326,121.1805 138.6886,112.0365 127.4486,112.0365 C116.2086,112.0365 107.0646,121.1805 107.0646,132.4205 C107.0646,143.6605 116.2086,152.8065 127.4486,152.8065" id="Fill-25" fill="#26C6DA"></path>
          <path d="M127.4486,114.1787 C137.5056,114.1787 145.6896,122.3627 145.6896,132.4207 C145.6896,142.4787 137.5056,150.6627 127.4486,150.6627 C117.3906,150.6627 109.2076,142.4787 109.2076,132.4207 C109.2076,122.3627 117.3906,114.1787 127.4486,114.1787" id="Fill-26" fill="#26C6DA"></path>
          <polygon id="Fill-27" fill="#FFFFFF" points="126.3768 141.4706 128.5188 141.4706 128.5188 133.4916 136.4988 133.4916 136.4988 131.3486 128.5188 131.3486 128.5188 123.3706 126.3768 123.3706 126.3768 131.3486 118.3988 131.3486 118.3988 133.4916 126.3768 133.4916"></polygon>
          <path d="M483.5612,270.4983 C482.4532,271.3513 481.3942,272.2783 480.4172,273.2583 C479.4402,274.2353 478.5132,275.2933 477.6602,276.3993 L476.7112,277.6343 L475.7602,276.4013 C474.9102,275.3003 473.9802,274.2423 472.9982,273.2583 C472.0192,272.2783 470.9602,271.3513 469.8542,270.4983 L468.6202,269.5473 L469.8542,268.5963 C470.9622,267.7413 472.0212,266.8133 472.9962,265.8383 C473.9752,264.8593 474.9032,263.8003 475.7582,262.6923 L476.7112,261.4553 L477.6602,262.6923 C478.5102,263.7983 479.4382,264.8573 480.4172,265.8363 C481.3942,266.8133 482.4532,267.7413 483.5612,268.5963 L484.7982,269.5493 L483.5612,270.4983 Z M487.1342,268.7273 C485.1912,267.5023 483.3922,266.0683 481.7882,264.4663 C480.1922,262.8703 478.7592,261.0743 477.5292,259.1223 L476.7092,257.8203 L475.8872,259.1223 C474.6642,261.0643 473.2282,262.8633 471.6252,264.4663 C470.0282,266.0633 468.2312,267.4973 466.2822,268.7273 L464.9822,269.5473 L466.2822,270.3673 C468.2312,271.5943 470.0282,273.0283 471.6252,274.6283 C473.2282,276.2303 474.6642,278.0303 475.8872,279.9723 L476.7092,281.2743 L477.5292,279.9723 C478.7612,278.0183 480.1952,276.2213 481.7902,274.6283 C483.3902,273.0263 485.1872,271.5923 487.1312,270.3673 L488.4342,269.5473 L487.1342,268.7273 Z" id="Fill-28" fill="#FFFFFF"></path>
          <path d="M201.0764,16.678 L202.8484,15.643 C206.2424,13.658 208.7464,11.154 210.7324,7.76 L211.7684,5.989 L212.8034,7.76 C214.7854,11.152 217.2924,13.656 220.6894,15.643 L222.4604,16.677 L220.6914,17.713 C217.2964,19.699 214.7904,22.204 212.8064,25.596 L211.7704,27.367 L210.7354,25.596 C208.7534,22.202 206.2464,19.698 202.8494,17.713 L201.0764,16.678 Z M211.7704,32.727 C214.7104,23.862 218.9554,19.618 227.8224,16.678 C218.9504,13.738 214.7054,9.494 211.7654,0.627 C208.8304,9.492 204.5854,13.738 195.7144,16.678 C204.5884,19.618 208.8354,23.863 211.7704,32.727 L211.7704,32.727 Z" id="Fill-29" fill="#FFFFFF"></path>
          <polygon id="Fill-30" fill="#FFFFFF" points="439.3814 203.0256 382.8394 203.0256 382.8394 204.9656 439.3814 204.9656 420.4674 214.5096 421.3384 216.2406 445.6084 203.9956 421.3384 191.7506 420.4674 193.4796"></polygon>
          <path d="M32.3999,134.357 L32.5749,132.424 C32.0439,132.397 31.5099,132.383 30.9759,132.383 C13.8949,132.383 -0.000100000001,146.278 -0.000100000001,163.358 C-0.000100000001,180.967 14.7919,195.161 32.5729,194.292 L32.4009,192.357 C15.7969,193.158 1.9399,179.841 1.9399,163.358 C1.9399,147.348 14.9649,134.323 30.9759,134.323 C31.4509,134.323 31.9279,134.335 32.3999,134.357" id="Fill-31" fill="#FFFFFF"></path>
          <path d="M40.229,133.7901 L39.723,135.6631 C40.568,135.9301 41.4,136.2361 42.216,136.5781 L43.04,134.8211 C42.123,134.4331 41.184,134.0891 40.229,133.7901" id="Fill-32" fill="#FFFFFF"></path>
          <path d="M39.7605,191.0383 L40.2715,192.9123 C41.2225,192.6123 42.1615,192.2683 43.0785,191.8773 L42.2505,190.1223 C41.4375,190.4643 40.6055,190.7713 39.7605,191.0383" id="Fill-33" fill="#FFFFFF"></path>
          <path d="M59.3133,157.0045 C59.5063,157.8665 59.6603,158.7405 59.7733,159.6185 L61.7063,159.4505 C61.5813,158.4595 61.4073,157.4735 61.1893,156.5035 L59.3133,157.0045 Z" id="Fill-34" fill="#FFFFFF"></path>
          <path d="M58.532,149.2011 C58.076,148.3131 57.576,147.4491 57.036,146.6101 L55.447,147.7231 C55.925,148.4701 56.369,149.2381 56.774,150.0211 L58.532,149.2011 Z" id="Fill-35" fill="#FFFFFF"></path>
          <path d="M49.7588,138.7272 L48.6398,140.3132 C49.3408,140.8512 50.0188,141.4232 50.6708,142.0252 L52.0448,140.6552 C51.3158,139.9772 50.5518,139.3332 49.7588,138.7272" id="Fill-36" fill="#FFFFFF"></path>
          <path d="M57.0573,180.0677 C57.5963,179.2287 58.0953,178.3627 58.5503,177.4747 L56.7913,176.6567 C56.3863,177.4437 55.9433,178.2127 55.4663,178.9577 L57.0573,180.0677 Z" id="Fill-37" fill="#FFFFFF"></path>
          <path d="M59.3215,169.6711 L61.1965,170.1701 C61.4155,169.1981 61.5875,168.2121 61.7105,167.2211 L59.7775,167.0571 C59.6655,167.9331 59.5135,168.8071 59.3215,169.6711" id="Fill-38" fill="#FFFFFF"></path>
          <path d="M49.7916,187.9624 C50.5836,187.3584 51.3476,186.7114 52.0766,186.0324 L50.6996,184.6644 C50.0506,185.2664 49.3736,185.8374 48.6716,186.3784 L49.7916,187.9624 Z" id="Fill-39" fill="#FFFFFF"></path>
          <path d="M176.3029,210.3511 L177.5349,209.4021 C178.6349,208.5571 179.6939,207.6291 180.6809,206.6431 C181.6629,205.6591 182.5919,204.6001 183.4389,203.5011 L184.3869,202.2671 L185.3389,203.4991 C186.1949,204.6121 187.1239,205.6701 188.0979,206.6451 C189.0789,207.6241 190.1359,208.5521 191.2419,209.4021 L192.4739,210.3511 L191.2429,211.3021 C190.1249,212.1671 189.0669,213.0941 188.0969,214.0641 C187.1169,215.0461 186.1889,216.1051 185.3389,217.2081 L184.3869,218.4401 L183.4389,217.2061 C182.5909,216.1051 181.6619,215.0481 180.6779,214.0621 C179.6999,213.0851 178.6409,212.1571 177.5339,211.3021 L176.3029,210.3511 Z M183.5689,220.7781 L184.3889,222.0781 L185.2089,220.7781 C186.4409,218.8291 187.8729,217.0301 189.4699,215.4351 C191.0719,213.8351 192.8689,212.4011 194.8119,211.1731 L196.1139,210.3531 L194.8129,209.5331 C192.8679,208.3061 191.0709,206.8721 189.4709,205.2721 C187.8739,203.6771 186.4409,201.8801 185.2089,199.9291 L184.3889,198.6281 L183.5689,199.9291 C182.3409,201.8751 180.9069,203.6721 179.3089,205.2721 C177.7069,206.8721 175.9089,208.3061 173.9649,209.5331 L172.6639,210.3531 L173.9639,211.1731 C175.9109,212.4011 177.7089,213.8351 179.3069,215.4351 C180.9059,217.0351 182.3399,218.8311 183.5689,220.7781 L183.5689,220.7781 Z" id="Fill-40" fill="#FFFFFF"></path>
          <path d="M335.7545,239.0555 C332.6065,239.0555 330.0455,241.6165 330.0455,244.7645 C330.0455,247.9125 332.6065,250.4735 335.7545,250.4735 C338.9005,250.4735 341.4615,247.9125 341.4615,244.7645 C341.4615,241.6165 338.9005,239.0555 335.7545,239.0555" id="Fill-41" fill="#26C6DA"></path>
        </g>
      </g>
    </g>
  </g>
</svg>